<?xml version="1.0" encoding="UTF-8" standalone="no"?>
<svg
   xmlns:dc="http://purl.org/dc/elements/1.1/"
   xmlns:cc="http://creativecommons.org/ns#"
   xmlns:rdf="http://www.w3.org/1999/02/22-rdf-syntax-ns#"
   xmlns:svg="http://www.w3.org/2000/svg"
   xmlns="http://www.w3.org/2000/svg"
   xmlns:sodipodi="http://sodipodi.sourceforge.net/DTD/sodipodi-0.dtd"
   xmlns:inkscape="http://www.inkscape.org/namespaces/inkscape"
   viewBox="0 0 1885.1873 551.05634"
   version="1.1"
   id="svg11"
   sodipodi:docname="wave_3.svg"
   width="1885.1873"
   height="551.05634"
   inkscape:version="0.92.0 r15299">
  <metadata
     id="metadata17">
    <rdf:RDF>
      <cc:Work
         rdf:about="">
        <dc:format>image/svg+xml</dc:format>
        <dc:type
           rdf:resource="http://purl.org/dc/dcmitype/StillImage" />
      </cc:Work>
    </rdf:RDF>
  </metadata>
  <defs
     id="defs15" />
  <sodipodi:namedview
     pagecolor="#ffffff"
     bordercolor="#666666"
     borderopacity="1"
     objecttolerance="10"
     gridtolerance="10"
     guidetolerance="10"
     inkscape:pageopacity="0"
     inkscape:pageshadow="2"
     inkscape:window-width="1920"
     inkscape:window-height="1017"
     id="namedview13"
     showgrid="false"
     inkscape:zoom="0.43692308"
     inkscape:cx="-68.245831"
     inkscape:cy="351.05632"
     inkscape:window-x="-8"
     inkscape:window-y="-8"
     inkscape:window-maximized="1"
     inkscape:current-layer="svg11" />
  <clipPath
     id="box">
    <rect
       x="0"
       y="0"
       width="650"
       height="400"
       style="fill:none;stroke:none"
       id="rect2" />
  </clipPath>
  <g
     clip-path="url(#box)"
     id="g9"
     transform="scale(2.9002881,1.3776408)"
     style="fill:none;stroke:#e20000;stroke-opacity:1;stroke-width:2.00111212;stroke-miterlimit:4;stroke-dasharray:none"
     inkscape:export-filename="C:\Users\Keith Grant\Desktop\punch_at_the_peak\SuperPunchAtThePeak2\Assets\PNG\wave_3.png"
     inkscape:export-xdpi="26.078501"
     inkscape:export-ydpi="26.078501">
    <rect
       x="0"
       y="0"
       width="650"
       height="400"
       style="fill:none;stroke:#e20000;stroke-opacity:1;stroke-width:2.00111212;stroke-miterlimit:4;stroke-dasharray:none"
       id="rect5" />
    <path
       d="m -10,200 9.75,164.25 1,3.88 0.26,0.88 0.29,0.93 0.32,0.93 0.34,0.91 0.37,0.89 0.42,0.87 0.48,0.82 0.59,0.76 0.77,0.58 1.33,-0.09 2,-2.62 0.76,-1.74 0.44,-1.17 0.37,-1.1 0.35,-1.07 0.31,-1.07 0.3,-1.05 0.28,-1.05 0.27,-1.04 0.26,-1.03 0.25,-1.04 0.25,-1.03 0.23,-1.03 0.23,-1.02 0.22,-1.02 0.22,-1.03 0.21,-1.02 0.21,-1.02 0.21,-1.01 0.2,-1.02 0.2,-1.02 0.19,-1.01 0.2,-1.01 0.19,-1.02 0.18,-1.01 0.19,-1.01 0.18,-1.01 0.18,-1.01 0.18,-1.01 0.18,-1.01 0.18,-1.01 0.17,-1 0.18,-1.01 0.17,-1.01 0.17,-1 0.17,-1.01 0.17,-1 0.17,-1.01 0.17,-1 0.16,-1.01 0.17,-1 0.16,-1.01 0.17,-1 0.16,-1 0.17,-1.01 0.16,-1 0.16,-1 0.17,-1 0.16,-1 0.16,-1.01 0.16,-1 0.16,-1 0.16,-1 0.17,-1 0.16,-1 0.16,-1 0.16,-1 0.16,-0.99 0.16,-1 0.17,-1 0.16,-1 0.16,-1 0.16,-1 0.17,-0.99 0.16,-1 0.16,-1 0.17,-0.99 0.16,-1 0.17,-1 0.17,-0.99 0.16,-1 0.17,-0.99 0.17,-1 0.17,-0.99 0.17,-0.99 0.17,-1 0.18,-0.99 0.17,-0.99 0.18,-1 0.17,-0.99 0.18,-0.99 0.18,-0.99 0.18,-0.99 0.18,-0.99 0.19,-0.99 0.19,-0.99 0.18,-0.99 0.19,-0.99 0.2,-0.99 0.19,-0.98 0.2,-0.99 0.2,-0.99 0.2,-0.98 0.21,-0.99 0.21,-0.98 0.21,-0.98 0.22,-0.98 0.22,-0.98 0.23,-0.98 0.23,-0.98 0.24,-0.98 0.24,-0.97 0.25,-0.97 0.25,-0.97 0.26,-0.97 0.28,-0.97 0.28,-0.96 0.29,-0.96 0.3,-0.96 0.32,-0.95 0.33,-0.95 0.35,-0.94 0.37,-0.93 0.41,-0.92 0.43,-0.91 0.48,-0.89 0.54,-0.86 0.63,-0.81 0.78,-0.72 1.07,-0.49 2,0.58 2,2.39 0.84,1.49 0.56,1.15 0.49,1.09 0.45,1.07 0.42,1.05 0.4,1.05 0.38,1.04 0.36,1.04 0.35,1.03 0.34,1.03 0.33,1.02 0.33,1.02 0.31,1.02 0.31,1.02 0.31,1.01 0.3,1.02 0.3,1.01 0.29,1.01 0.29,1.01 0.29,1 0.29,1.01 0.28,1.01 0.29,1 0.28,1 0.28,1 0.28,1 0.28,1 0.28,1 0.28,1 0.29,1 0.28,0.99 0.29,1 0.28,0.99 0.29,0.99 0.29,0.99 0.29,0.99 0.3,0.99 0.3,0.98 0.31,0.99 0.31,0.98 0.31,0.98 0.32,0.98 0.33,0.98 0.34,0.97 0.34,0.97 0.35,0.97 0.37,0.96 0.38,0.96 0.4,0.96 0.41,0.94 0.44,0.94 0.47,0.93 0.51,0.91 0.55,0.89 0.63,0.85 0.73,0.8 0.91,0.69 1.34,0.32 2,-1.07 1.86,-2.75 0.68,-1.43 0.47,-1.13 0.42,-1.09 0.38,-1.08 0.36,-1.06 0.33,-1.06 0.32,-1.05 0.3,-1.05 0.29,-1.04 0.28,-1.03 0.27,-1.04 0.25,-1.03 0.25,-1.03 0.25,-1.03 0.23,-1.02 0.24,-1.03 0.22,-1.02 0.22,-1.02 0.22,-1.02 0.21,-1.02 0.2,-1.02 0.21,-1.02 0.2,-1.02 0.19,-1.01 0.2,-1.02 0.19,-1.01 0.18,-1.02 0.19,-1.01 0.18,-1.01 0.18,-1.02 0.18,-1.01 0.17,-1.01 0.18,-1.01 0.17,-1.01 0.17,-1.02 0.17,-1.01 0.16,-1.01 0.17,-1.01 0.16,-1.01 0.16,-1 0.16,-1.01 0.16,-1.01 0.15,-1.01 0.16,-1.01 0.15,-1.01 0.16,-1 0.15,-1.01 0.15,-1.01 0.15,-1.01 0.15,-1 0.14,-1.01 0.15,-1.01 0.15,-1 0.14,-1.01 0.15,-1 0.14,-1.01 0.14,-1.01 0.14,-1 0.14,-1.01 0.14,-1 0.14,-1.01 0.14,-1 0.14,-1.01 0.14,-1 0.13,-1 0.14,-1.01 0.14,-1 0.13,-1.01 0.13,-1 0.14,-1.01 0.13,-1 0.13,-1 0.14,-1.01 0.13,-1 0.13,-1 0.13,-1.01 0.13,-1 0.13,-1 0.13,-1.01 0.13,-1 0.13,-1 0.13,-1 0.13,-1.01 0.12,-1 0.13,-1 0.13,-1 0.13,-1.01 0.12,-1 0.13,-1 0.12,-1 0.13,-1 0.13,-1.01 0.12,-1 0.13,-1 0.12,-1 0.13,-1 0.12,-1 0.13,-1.01 0.12,-1 0.12,-1 0.13,-1 0.12,-1 0.12,-1 0.13,-1 0.12,-1 0.12,-1.01 0.13,-1 0.12,-1 0.12,-1 0.13,-1 0.12,-1 0.12,-1 0.12,-1 0.13,-1 0.12,-1 0.12,-1 0.12,-1 0.13,-1 0.12,-1 0.12,-1 0.12,-1 0.13,-1 0.12,-1 0.12,-1 0.12,-1 0.12,-1 0.13,-1 0.12,-1 0.12,-1 0.13,-1 0.12,-1 0.12,-1 0.12,-1 0.13,-0.99 0.12,-1 0.12,-1 0.13,-1 0.12,-1 0.12,-1 0.13,-1 0.12,-1 0.13,-0.99 0.12,-1 0.12,-1 0.13,-1 0.12,-1 0.13,-1 0.12,-1 0.13,-0.99 0.13,-1 0.12,-1 0.13,-1 0.12,-1 0.13,-0.99 0.13,-1 0.13,-1 0.12,-1 0.13,-0.99 0.13,-1 0.13,-1 0.13,-1 0.13,-0.99 0.13,-1 0.13,-1 0.13,-0.99 0.13,-1 0.13,-1 0.13,-0.99 0.13,-1 0.13,-1 0.14,-0.99 0.13,-1 0.14,-1 0.13,-0.99 0.13,-1 0.14,-1 0.14,-0.99 0.13,-1 0.14,-0.99 0.14,-1 0.14,-0.99 0.13,-1 0.14,-1 0.14,-0.99 0.14,-1 0.15,-0.99 0.14,-1 0.14,-0.99 0.14,-1 0.15,-0.99 0.14,-0.99 0.15,-1 0.15,-0.99 0.14,-1 0.15,-0.99 0.15,-0.99 0.15,-1 0.15,-0.99 0.16,-0.99 0.15,-1 0.16,-0.99 0.15,-0.99 0.16,-1 0.16,-0.99 0.15,-0.99 0.17,-0.99 0.16,-0.99 0.16,-1 0.16,-0.99 0.17,-0.99 0.17,-0.99 0.17,-0.99 0.17,-0.99 0.17,-0.99 0.17,-0.99 0.18,-0.99 0.17,-0.99 0.18,-0.99 0.18,-0.99 0.19,-0.99 0.18,-0.99 0.19,-0.98 0.19,-0.99 0.19,-0.99 0.2,-0.98 0.19,-0.99 0.2,-0.99 0.21,-0.98 0.2,-0.99 0.21,-0.98 0.22,-0.98 0.21,-0.99 0.22,-0.98 0.22,-0.98 0.23,-0.98 0.24,-0.98 0.23,-0.98 0.25,-0.98 0.24,-0.98 0.26,-0.97 0.26,-0.98 0.26,-0.97 0.28,-0.97 0.28,-0.97 0.29,-0.97 0.3,-0.97 0.31,-0.96 0.32,-0.96 0.34,-0.96 0.35,-0.95 0.37,-0.95 0.38,-0.95 0.41,-0.94 0.44,-0.93 0.47,-0.92 0.51,-0.9 0.56,-0.89 0.63,-0.86 0.73,-0.82 0.89,-0.75 1.21,-0.56 2,0.11 2,1.34 1.49,1.73 0.87,1.26 0.68,1.13 0.61,1.09 0.56,1.07 0.52,1.05 0.49,1.05 0.47,1.05 0.45,1.03 0.43,1.04 0.42,1.03 0.41,1.02 0.4,1.03 0.39,1.02 0.38,1.02 0.37,1.02 0.37,1.01 0.36,1.02 0.35,1.01 0.35,1.01 0.35,1.02 0.34,1.01 0.34,1.01 0.33,1.01 0.33,1 0.33,1.01 0.33,1.01 0.32,1 0.32,1.01 0.32,1 0.32,1.01 0.32,1 0.32,1.01 0.31,1 0.32,1 0.31,1 0.31,1 0.32,1.01 0.31,1 0.31,1 0.31,1 0.32,0.99 0.31,1 0.31,1 0.31,1 0.32,1 0.31,0.99 0.32,1 0.32,1 0.32,0.99 0.32,1 0.32,0.99 0.32,1 0.32,0.99 0.33,1 0.33,0.99 0.33,0.99 0.33,0.99 0.34,1 0.33,0.99 0.35,0.99 0.34,0.99 0.35,0.99 0.35,0.99 0.35,0.99 0.36,0.99 0.36,0.98 0.37,0.99 0.38,0.99 0.37,0.98 0.39,0.99 0.39,0.98 0.39,0.98 0.4,0.99 0.41,0.98 0.42,0.98 0.43,0.98 0.43,0.97 0.44,0.98 0.46,0.98 0.47,0.97 0.48,0.97 0.49,0.97 0.51,0.97 0.52,0.97 0.54,0.96 0.56,0.96 0.59,0.96 0.61,0.96 0.64,0.95 0.68,0.94 0.71,0.94 0.76,0.93 0.81,0.93 0.88,0.91 0.97,0.9 1.07,0.88 1.23,0.85 1.43,0.81 1.77,0.74 2,0.53 2,0.24 2,0.02 2,-0.15 2,-0.28 2,-0.35 2,-0.37 2,-0.33 2,-0.24 2,-0.13 2,0.04 2,0.25 2,0.47 2,0.74 2,1.02 1.96,1.29 1.52,1.21 1.26,1.14 1.11,1.1 1,1.09 0.92,1.07 0.86,1.06 0.81,1.05 0.77,1.05 0.73,1.05 0.7,1.04 0.68,1.03 0.65,1.04 0.63,1.03 0.61,1.02 0.6,1.03 0.58,1.03 0.56,1.02 0.56,1.02 0.54,1.02 0.53,1.02 0.52,1.02 0.51,1.02 0.5,1.01 0.49,1.02 0.49,1.01 0.48,1.02 0.47,1.01 0.47,1.01 0.46,1.01 0.46,1.02 0.45,1.01 0.44,1.01 0.45,1.01 0.43,1.01 0.43,1 0.43,1.01 0.43,1.01 0.42,1.01 0.42,1.01 0.42,1 0.41,1.01 0.41,1.01 0.41,1 0.4,1.01 0.4,1 0.4,1.01 0.4,1 0.4,1.01 0.39,1 0.4,1.01 0.39,1 0.39,1 0.39,1.01 0.39,1 0.38,1 0.39,1 0.38,1.01 0.39,1 0.38,1 0.38,1 0.38,1 0.38,1 0.39,1.01 0.38,1 0.38,1 0.38,1 0.37,1 0.38,1 0.38,1 0.38,1 0.38,1 0.38,1 0.38,0.99 0.38,1 0.39,1 0.38,1 0.38,1 0.38,1 0.39,0.99 0.38,1 0.39,1 0.38,1 0.39,0.99 0.39,1 0.39,0.99 0.4,1 0.39,1 0.39,0.99 0.4,1 0.4,0.99 0.4,1 0.4,0.99 0.41,1 0.41,0.99 0.41,0.99 0.41,1 0.42,0.99 0.41,0.99 0.43,1 0.42,0.99 0.43,0.99 0.43,0.99 0.44,0.99 0.43,0.99 0.45,0.99 0.45,0.99 0.45,0.99 0.46,0.99 0.46,0.99 0.47,0.99 0.47,0.98 0.48,0.99 0.49,0.98 0.49,0.99 0.51,0.98 0.51,0.99 0.51,0.98 0.53,0.98 0.54,0.98 0.55,0.98 0.56,0.98 0.57,0.98 0.58,0.97 0.6,0.98 0.62,0.97 0.64,0.97 0.65,0.96 0.68,0.97 0.7,0.96 0.73,0.96 0.76,0.95 0.8,0.95 0.84,0.94 0.89,0.94 0.96,0.92 1.03,0.91 1.14,0.89 1.27,0.87 1.48,0.81 1.81,0.73 2,0.46 2,0.09 2,-0.28 2,-0.64 2,-1.02 1.97,-1.35 1.45,-1.23 1.19,-1.14 1.05,-1.1 0.95,-1.08 0.87,-1.07 0.82,-1.06 0.78,-1.05 0.73,-1.05 0.71,-1.04 0.67,-1.03 0.65,-1.04 0.63,-1.03 0.61,-1.03 0.59,-1.03 0.58,-1.02 0.56,-1.03 0.55,-1.02 0.54,-1.02 0.52,-1.02 0.52,-1.02 0.5,-1.02 0.5,-1.02 0.48,-1.02 0.48,-1.01 0.47,-1.02 0.47,-1.01 0.45,-1.02 0.45,-1.01 0.45,-1.01 0.44,-1.02 0.43,-1.01 0.43,-1.01 0.42,-1.01 0.42,-1.01 0.42,-1.01 0.41,-1.01 0.4,-1.01 0.4,-1.01 0.4,-1.01 0.4,-1.01 0.39,-1.01 0.39,-1.01 0.38,-1 0.38,-1.01 0.38,-1.01 0.38,-1.01 0.37,-1 0.37,-1.01 0.37,-1.01 0.36,-1.01 0.36,-1 0.36,-1.01 0.36,-1 0.36,-1.01 0.35,-1.01 0.35,-1 0.35,-1.01 0.35,-1 0.35,-1.01 0.34,-1 0.34,-1.01 0.34,-1 0.34,-1.01 0.34,-1 0.34,-1.01 0.33,-1 0.33,-1 0.34,-1.01 0.33,-1 0.33,-1.01 0.32,-1 0.33,-1 0.33,-1.01 0.32,-1 0.32,-1 0.33,-1.01 0.32,-1 0.32,-1 0.32,-1.01 0.32,-1 0.31,-1 0.32,-1 0.32,-1.01 0.31,-1 0.31,-1 0.32,-1 0.31,-1.01 0.31,-1 0.31,-1 0.31,-1 0.31,-1 0.31,-1.01 0.31,-1 0.31,-1 0.31,-1 0.3,-1 0.31,-1.01 0.31,-1 0.3,-1 0.31,-1 0.3,-1 0.31,-1 0.3,-1 0.3,-1 0.31,-1.01 0.3,-1 0.3,-1 0.3,-1 0.31,-1 0.3,-1 0.3,-1 0.3,-1 0.3,-1 0.3,-1 0.3,-1 0.3,-1 0.3,-1 0.3,-1 0.3,-1 0.3,-1 0.3,-1 0.3,-1 0.3,-1 0.3,-1 0.3,-1 0.3,-1 0.31,-1 0.3,-1 0.3,-1 0.3,-1 0.3,-1 0.3,-1 0.3,-1 0.3,-1 0.3,-1 0.3,-1 0.3,-1 0.31,-1 0.3,-1 0.3,-1 0.3,-1 0.31,-0.99 0.3,-1 0.3,-1 0.31,-1 0.3,-1 0.31,-1 0.3,-1 0.31,-1 0.3,-0.99 0.31,-1 0.31,-1 0.3,-1 0.31,-1 0.31,-0.99 0.31,-1 0.31,-1 0.31,-1 0.31,-1 0.31,-0.99 0.31,-1 0.32,-1 0.31,-1 0.32,-1 0.31,-0.99 0.32,-1 0.31,-1 0.32,-0.99 0.32,-1 0.32,-1 0.32,-1 0.32,-0.99 0.33,-1 0.32,-1 0.32,-0.99 0.33,-1 0.33,-1 0.32,-0.99 0.33,-1 0.33,-1 0.33,-0.99 0.34,-1 0.33,-0.99 0.34,-1 0.33,-1 0.34,-0.99 0.34,-1 0.34,-0.99 0.34,-1 0.35,-0.99 0.34,-1 0.35,-0.99 0.35,-1 0.35,-0.99 0.36,-1 0.35,-0.99 0.36,-1 0.36,-0.99 0.36,-1 0.36,-0.99 0.36,-0.99 0.37,-1 0.37,-0.99 0.37,-0.99 0.38,-1 0.37,-0.99 0.38,-0.99 0.39,-1 0.38,-0.99 0.39,-0.99 0.39,-0.99 0.4,-0.99 0.39,-1 0.41,-0.99 0.4,-0.99 0.41,-0.99 0.41,-0.99 0.42,-0.99 0.42,-0.99 0.42,-0.99 0.43,-0.99 0.43,-0.99 0.44,-0.99 0.44,-0.98 0.45,-0.99 0.45,-0.99 0.46,-0.99 0.47,-0.98 0.47,-0.99 0.48,-0.99 0.48,-0.98 0.5,-0.98 0.5,-0.99 0.51,-0.98 0.52,-0.98 0.52,-0.99 0.54,-0.98 0.55,-0.98 0.56,-0.97 0.57,-0.98 0.58,-0.98 0.6,-0.97 0.62,-0.97 0.63,-0.98 0.65,-0.96 0.67,-0.97 0.7,-0.97 0.72,-0.96 0.75,-0.95 0.78,-0.96 0.83,-0.94 0.86,-0.95 0.93,-0.93 0.98,-0.92 1.07,-0.91 1.18,-0.89 1.33,-0.85 1.56,-0.81 1.92,-0.7 2,-0.36 h 2 l 2,0.39 2,0.78 2,1.19 1.7,1.31 1.28,1.2 1.07,1.13 0.95,1.11 0.86,1.08 0.79,1.07 0.74,1.06 0.7,1.06 0.66,1.04 0.63,1.05 0.61,1.04 0.58,1.04 0.56,1.03 0.54,1.04 0.52,1.03 0.5,1.03 0.5,1.03 0.48,1.02 0.46,1.03 0.46,1.02 0.44,1.02 0.44,1.03 0.42,1.02 0.42,1.02 0.41,1.02 0.4,1.01 0.39,1.02 0.39,1.02 0.38,1.02 0.37,1.01 0.37,1.02 0.36,1.01 0.35,1.02 0.36,1.01 0.34,1.02 0.34,1.01 0.34,1.01 0.33,1.02 0.33,1.01 0.33,1.01 0.32,1.01 0.31,1.01 0.32,1.02 0.3,1.01 0.31,1.01 0.3,1.01 0.3,1.01 0.3,1.01 0.29,1.01 0.29,1.01 0.29,1.01 0.29,1.01 0.28,1.01 0.28,1.01 0.28,1 0.27,1.01 0.27,1.01 0.27,1.01 0.27,1.01 0.27,1.01 0.26,1 0.26,1.01 0.26,1.01 0.26,1.01 0.26,1 0.25,1.01 0.25,1.01 0.25,1.01 0.25,1 0.25,1.01 0.25,1.01 0.24,1 0.24,1.01 0.24,1 0.24,1.01 0.24,1.01 0.23,1 0.24,1.01 0.23,1 0.23,1.01 0.24,1.01 0.23,1 0.22,1.01 0.23,1 0.23,1.01 0.22,1 0.22,1.01 0.23,1 0.22,1.01 0.22,1 0.22,1.01 0.21,1 0.22,1.01 0.22,1 0.21,1.01 0.22,1 0.21,1.01 0.21,1 0.21,1 0.21,1.01 0.21,1 0.21,1.01 0.21,1 0.2,1.01 0.21,1 0.2,1 0.21,1.01 0.2,1 0.2,1 0.2,1.01 0.21,1 0.2,1.01 0.2,1 0.19,1 0.2,1.01 0.2,1 0.2,1 0.19,1.01 0.2,1 0.19,1 0.2,1.01 0.19,1 0.2,1 0.19,1.01 0.19,1 0.19,1 0.19,1 0.19,1.01 0.19,1 0.19,1 0.19,1.01 0.19,1 0.19,1 0.18,1 0.19,1.01 0.19,1 0.18,1 0.19,1 0.18,1.01 0.19,1 0.18,1 0.18,1 0.19,1 0.18,1.01 0.18,1 0.18,1 0.19,1 0.18,1 0.18,1.01 0.18,1 0.18,1 0.18,1 0.18,1 0.18,1.01 0.18,1 0.17,1 0.18,1 0.18,1 0.18,1 0.17,1.01 0.18,1 0.18,1 0.18,1 0.17,1 0.18,1 0.17,1 0.18,1.01 0.17,1 0.18,1 0.17,1 0.18,1 0.17,1 0.18,1 0.17,1 0.18,1.01 0.17,1 0.17,1 0.18,1 0.17,1 0.17,1 0.17,1 0.18,1 0.17,1 0.17,1 0.17,1 0.18,1 0.17,1.01 0.17,1 0.17,1 0.17,1 0.18,1 0.17,1 0.17,1 0.17,1 0.17,1 0.17,1 0.17,1 0.18,1 0.17,1 0.17,1 0.17,1 0.17,1 0.17,1 0.17,1 0.17,1 0.18,1 0.17,1 0.17,1 0.17,1 0.17,1 0.17,1 0.17,1 0.17,1 0.18,1 0.17,1 0.17,1 0.17,1 0.17,1 0.17,1 0.18,0.99 0.17,1 0.17,1 0.17,1 0.17,1 0.18,1 0.17,1 0.17,1 0.18,1 0.17,1 0.17,1 0.18,0.99 0.17,1 0.17,1 0.18,1 0.17,1 0.18,1 0.17,1 0.18,0.99 0.17,1 0.18,1 0.18,1 0.17,1 0.18,1 0.18,0.99 0.17,1 0.18,1 0.18,1 0.18,1 0.17,0.99 0.18,1 0.18,1 0.18,1 0.18,1 0.18,0.99 0.19,1 0.18,1 0.18,1 0.18,0.99 0.18,1 0.19,1 0.18,0.99 0.19,1 0.18,1 0.19,0.99 0.18,1 0.19,1 0.19,0.99 0.19,1 0.19,1 0.19,0.99 0.19,1 0.19,1 0.19,0.99 0.19,1 0.2,0.99 0.19,1 0.19,0.99 0.2,1 0.2,1 0.2,0.99 0.19,1 0.2,0.99 0.2,1 0.21,0.99 0.2,1 0.2,0.99 0.21,0.99 0.2,1 0.21,0.99 0.21,1 0.21,0.99 0.21,0.99 0.21,1 0.22,0.99 0.21,0.99 0.22,1 0.22,0.99 0.22,0.99 0.22,0.99 0.23,0.99 0.22,1 0.23,0.99 0.23,0.99 0.23,0.99 0.23,0.99 0.24,0.99 0.24,0.99 0.24,0.99 0.24,0.99 0.25,0.99 0.25,0.99 0.25,0.98 0.25,0.99 0.26,0.99 0.26,0.98 0.27,0.99 0.27,0.99 0.27,0.98 0.28,0.99 0.28,0.98 0.28,0.98 0.29,0.98 0.3,0.99 0.3,0.98 0.31,0.98 0.31,0.97 0.32,0.98 0.33,0.98 0.34,0.97 0.35,0.97 0.35,0.97 0.37,0.97 0.38,0.97 0.39,0.96 0.41,0.96 0.42,0.95 0.45,0.96 0.47,0.94 0.49,0.94 0.53,0.93 0.56,0.92 0.62,0.9 0.68,0.88 0.78,0.84 0.93,0.78 1.18,0.66 1.81,0.23 2,-0.84 2,-1.98 1,-1.44 0.71,-1.17 0.6,-1.1 0.54,-1.09 0.5,-1.07 0.47,-1.06 0.44,-1.06 0.42,-1.04 0.4,-1.05 0.38,-1.03 0.37,-1.04 0.35,-1.03 0.35,-1.03 0.33,-1.03 0.33,-1.03 0.31,-1.02 0.31,-1.02 0.31,-1.03 0.29,-1.02 0.29,-1.02 0.29,-1.01 0.27,-1.02 0.28,-1.02 0.27,-1.01 0.26,-1.02 0.27,-1.01 0.25,-1.02 0.26,-1.01 0.25,-1.01 0.25,-1.02 0.24,-1.01 0.25,-1.01 0.23,-1.01 0.24,-1.01 0.24,-1.01 0.23,-1.01 0.23,-1.01 0.23,-1.01 0.22,-1.01 0.23,-1.01 0.22,-1 0.22,-1.01 0.22,-1.01 0.21,-1.01 0.22,-1 0.21,-1.01 0.22,-1.01 0.21,-1 0.21,-1.01 0.21,-1 0.2,-1.01 0.21,-1 0.2,-1.01 0.21,-1 0.2,-1.01 0.2,-1 0.21,-1.01 0.2,-1 0.2,-1.01 0.2,-1 0.19,-1 0.2,-1.01 0.2,-1 0.19,-1 0.2,-1.01 0.19,-1 0.2,-1 0.19,-1 0.2,-1.01 0.19,-1 0.19,-1 0.19,-1 0.2,-1 0.19,-1.01 0.19,-1 0.19,-1 0.19,-1 0.19,-1 0.19,-1 0.19,-1 0.19,-1 0.19,-1 0.19,-1 0.19,-1 0.19,-1 0.19,-1 0.19,-1 0.19,-1 0.19,-1 0.18,-1 0.19,-1 0.19,-1 0.19,-1 0.19,-1 0.19,-1 0.2,-1 0.19,-1 0.19,-0.99 0.19,-1 0.19,-1 0.19,-1 0.19,-1 0.2,-0.99 0.19,-1 0.19,-1 0.2,-1 0.19,-0.99 0.2,-1 0.2,-1 0.19,-0.99 0.2,-1 0.2,-1 0.2,-0.99 0.2,-1 0.2,-0.99 0.2,-1 0.2,-0.99 0.2,-1 0.21,-0.99 0.2,-1 0.21,-0.99 0.21,-1 0.21,-0.99 0.21,-0.99 0.21,-1 0.21,-0.99 0.22,-0.99 0.21,-1 0.22,-0.99 0.22,-0.99 0.22,-0.99 0.22,-0.99 0.23,-1 0.22,-0.99 0.23,-0.99 0.23,-0.99 0.24,-0.99 0.23,-0.99 0.24,-0.98 0.24,-0.99 0.25,-0.99 0.24,-0.99 0.25,-0.98 0.26,-0.99 0.25,-0.99 0.26,-0.98 0.27,-0.99 0.27,-0.98 0.27,-0.98 0.28,-0.98 0.28,-0.98 0.29,-0.98 0.3,-0.98 0.3,-0.98 0.31,-0.98 0.31,-0.97 0.33,-0.97 0.33,-0.97 0.35,-0.97 0.35,-0.97 0.37,-0.96 0.38,-0.97 0.39,-0.95 0.42,-0.96 0.43,-0.94 0.46,-0.95 0.48,-0.93 0.52,-0.93 0.56,-0.91 0.61,-0.9 0.69,-0.87 0.78,-0.84 0.93,-0.77 1.21,-0.64 1.89,-0.22 2,0.74 2,1.63 1.23,1.38 0.89,1.15 0.77,1.09 0.7,1.07 0.66,1.05 0.64,1.03 0.6,1.03 0.6,1.02 0.58,1.02 0.57,1 0.57,1.01 0.57,0.99 0.57,1 0.57,0.98 0.58,0.98 0.6,0.97 0.61,0.97 0.63,0.95 0.67,0.94 0.7,0.93 0.77,0.9 0.84,0.86 0.98,0.8 1.23,0.66 1.88,0.16 2,-1.11 1.8,-2.27 0.79,-1.41 0.57,-1.16 0.48,-1.1 0.44,-1.09 0.41,-1.07 0.38,-1.07 0.35,-1.05 0.34,-1.05 0.32,-1.05 0.31,-1.04 0.29,-1.04 0.29,-1.03 0.27,-1.04 0.27,-1.03 0.25,-1.02 0.25,-1.03 0.25,-1.03 0.23,-1.02 0.24,-1.03 0.22,-1.02 0.22,-1.02 0.22,-1.02 0.21,-1.02 0.21,-1.02 0.21,-1.01 0.2,-1.02 0.2,-1.02 0.19,-1.01 0.19,-1.02 0.19,-1.01 0.19,-1.01 0.18,-1.02 0.19,-1.01 0.18,-1.01 0.17,-1.01 0.18,-1.02 0.17,-1.01 0.17,-1.01 0.17,-1.01 0.17,-1.01 0.16,-1.01 0.17,-1.01 0.16,-1.01 0.16,-1.01 0.16,-1.01 0.16,-1 0.16,-1.01 0.15,-1.01 0.16,-1.01 0.15,-1.01 0.15,-1 0.15,-1.01 0.15,-1.01 0.15,-1 0.15,-1.01 0.15,-1.01 0.14,-1 0.15,-1.01 0.14,-1.01 0.15,-1 0.14,-1.01 0.14,-1 0.14,-1.01 0.14,-1 0.14,-1.01 0.14,-1 0.14,-1.01 0.13,-1 0.14,-1.01 0.14,-1 0.13,-1 0.14,-1.01 0.13,-1 0.14,-1.01 0.13,-1 0.13,-1 0.14,-1.01 0.13,-1 0.13,-1 0.13,-1.01 0.13,-1 0.13,-1 0.13,-1 0.13,-1.01 0.13,-1 0.13,-1 0.13,-1 0.13,-1.01 0.13,-1 0.13,-1 0.12,-1 0.13,-1 0.13,-1.01 0.13,-1 0.12,-1 0.13,-1 0.13,-1 0.12,-1 0.13,-1 0.12,-1.01 0.13,-1 0.13,-1 0.12,-1 0.13,-1 0.12,-1 0.13,-1 0.12,-1 0.13,-1 0.12,-1 0.13,-1 0.13,-1 0.12,-1 0.13,-1 0.12,-1 0.13,-1 0.12,-1 0.13,-1 0.12,-1 0.13,-1 0.13,-1 0.12,-0.99 0.13,-1 0.12,-1 0.13,-1 0.13,-1 0.12,-1 0.13,-1 0.13,-0.99 0.12,-1 0.13,-1 0.13,-1 0.13,-1 0.13,-0.99 0.13,-1 0.12,-1 0.13,-1 0.13,-0.99 0.13,-1 0.13,-1 0.13,-0.99 0.14,-1 0.13,-1 0.13,-0.99 0.13,-1 0.14,-1 0.13,-0.99 0.13,-1 0.14,-0.99 0.13,-1 0.14,-0.99 0.14,-1 0.13,-0.99 0.14,-1 0.14,-0.99 0.14,-1 0.14,-0.99 0.14,-1 0.14,-0.99 0.15,-0.99 0.14,-1 0.14,-0.99 0.15,-0.99 0.15,-1 0.15,-0.99 0.14,-0.99 0.15,-0.99 0.16,-0.99 0.15,-0.99 0.15,-0.99 0.16,-1 0.16,-0.99 0.15,-0.99 0.16,-0.98 0.17,-0.99 0.16,-0.99 0.17,-0.99 0.16,-0.99 0.17,-0.99 0.17,-0.98 0.18,-0.99 0.18,-0.98 0.18,-0.99 0.18,-0.98 0.18,-0.98 0.19,-0.99 0.19,-0.98 0.2,-0.98 0.2,-0.98 0.2,-0.98 0.21,-0.97 0.21,-0.98 0.22,-0.97 0.22,-0.98 0.23,-0.97 0.24,-0.96 0.24,-0.97 0.26,-0.96 0.26,-0.96 0.28,-0.96 0.28,-0.95 0.31,-0.94 0.32,-0.94 0.34,-0.93 0.37,-0.92 0.4,-0.9 0.44,-0.88 0.51,-0.84 0.6,-0.78 0.77,-0.64 1.2,-0.2 2,1.8 1.11,2.13 0.52,1.27 0.41,1.12 0.37,1.08 0.34,1.07 0.31,1.06 0.3,1.06 0.29,1.04 0.27,1.04 0.26,1.04 0.25,1.04 0.24,1.03 0.23,1.03 0.23,1.02 0.22,1.03 0.22,1.02 0.21,1.02 0.21,1.02 0.2,1.02 0.2,1.02 0.2,1.01 0.19,1.02 0.19,1.02 0.19,1.01 0.18,1.01 0.18,1.02 0.18,1.01 0.18,1.01 0.18,1.01 0.17,1.01 0.17,1.01 0.17,1.01 0.17,1.01 0.17,1.01 0.16,1.01 0.17,1 0.16,1.01 0.16,1.01 0.17,1 0.16,1.01 0.15,1.01 0.16,1 0.16,1.01 0.16,1 0.15,1.01 0.16,1 0.15,1 0.15,1.01 0.16,1 0.15,1 0.15,1.01 0.15,1 0.15,1 0.15,1.01 0.15,1 0.15,1 0.15,1 0.15,1 0.15,1 0.15,1 0.15,1 0.15,1 0.15,1 0.15,1 0.15,1 0.15,1 0.14,1 0.15,1 0.15,1 0.15,1 0.15,1 0.15,1 0.15,0.99 0.15,1 0.15,1 0.16,1 0.15,0.99 0.15,1 0.15,1 0.16,0.99 0.15,1 0.15,0.99 0.16,1 0.15,0.99 0.16,1 0.16,0.99 0.16,1 0.16,0.99 0.16,0.99 0.16,1 0.16,0.99 0.17,0.99 0.16,0.99 0.17,0.99 0.16,1 0.17,0.99 0.18,0.99 0.17,0.99 0.17,0.98 0.18,0.99 0.18,0.99 0.18,0.99 0.18,0.99 0.19,0.98 0.19,0.99 0.19,0.98 0.19,0.98 0.2,0.99 0.2,0.98 0.2,0.98 0.21,0.98 0.22,0.98 0.21,0.97 0.23,0.98 0.23,0.97 0.23,0.97 0.24,0.97 0.25,0.97 0.26,0.96 0.27,0.96 0.28,0.95 0.3,0.95 0.31,0.95 0.32,0.94 0.35,0.92 0.38,0.92 0.41,0.9 0.45,0.87 0.52,0.84 0.63,0.77 0.81,0.62 1.31,0.1"
       style="fill:none;stroke:#e20000;stroke-width:2.00111212;stroke-opacity:1;stroke-miterlimit:4;stroke-dasharray:none"
       id="path7"
       inkscape:connector-curvature="0" />
  </g>
</svg>
