<?xml version="1.0" encoding="UTF-8" standalone="no"?>
<svg
   xmlns:osb="http://www.openswatchbook.org/uri/2009/osb"
   xmlns:dc="http://purl.org/dc/elements/1.1/"
   xmlns:cc="http://creativecommons.org/ns#"
   xmlns:rdf="http://www.w3.org/1999/02/22-rdf-syntax-ns#"
   xmlns:svg="http://www.w3.org/2000/svg"
   xmlns="http://www.w3.org/2000/svg"
   xmlns:sodipodi="http://sodipodi.sourceforge.net/DTD/sodipodi-0.dtd"
   xmlns:inkscape="http://www.inkscape.org/namespaces/inkscape"
   viewBox="0 0 1884.7711 553.34509"
   version="1.1"
   id="svg11"
   sodipodi:docname="wave_1.svg"
   inkscape:version="0.92.0 r15299"
   width="1884.7711"
   height="553.34509"
   inkscape:export-filename="C:\Users\Keith Grant\Desktop\punch_at_the_peak\SuperPunchAtThePeak2\Assets\PNG\wave_1.png"
   inkscape:export-xdpi="26.078497"
   inkscape:export-ydpi="26.078497">
  <metadata
     id="metadata17">
    <rdf:RDF>
      <cc:Work
         rdf:about="">
        <dc:format>image/svg+xml</dc:format>
        <dc:type
           rdf:resource="http://purl.org/dc/dcmitype/StillImage" />
      </cc:Work>
    </rdf:RDF>
  </metadata>
  <defs
     id="defs15">
    <linearGradient
       id="linearGradient5947"
       osb:paint="solid">
      <stop
         style="stop-color:#e20000;stop-opacity:1;"
         offset="0"
         id="stop5945" />
    </linearGradient>
  </defs>
  <sodipodi:namedview
     pagecolor="#ffffff"
     bordercolor="#666666"
     borderopacity="1"
     objecttolerance="10"
     gridtolerance="10"
     guidetolerance="10"
     inkscape:pageopacity="0"
     inkscape:pageshadow="2"
     inkscape:window-width="1920"
     inkscape:window-height="1017"
     id="namedview13"
     showgrid="false"
     inkscape:zoom="0.43692308"
     inkscape:cx="706.80939"
     inkscape:cy="110.28756"
     inkscape:window-x="-8"
     inkscape:window-y="-8"
     inkscape:window-maximized="1"
     inkscape:current-layer="svg11" />
  <clipPath
     id="box">
    <rect
       x="0"
       y="0"
       width="650"
       height="400"
       style="fill:none;stroke:none"
       id="rect2" />
  </clipPath>
  <g
     clip-path="url(#box)"
     id="g9"
     transform="scale(2.8996479,1.3833627)"
     style="fill:none;stroke:#e20000;stroke-opacity:1;stroke-width:2.99578462;stroke-miterlimit:4;stroke-dasharray:none">
    <rect
       x="0"
       y="0"
       width="650"
       height="400"
       style="fill:none;stroke:#e20000;stroke-opacity:1;stroke-width:2.99578462;stroke-miterlimit:4;stroke-dasharray:none"
       id="rect5" />
    <path
       d="m -10,200 9.75,-8.72 1,-4.36 0.23,-1 0.23,-1 0.23,-1 0.23,-1 0.23,-0.99 0.23,-1 0.23,-1 0.23,-1 0.23,-1 0.23,-1 0.23,-1 0.23,-1 0.24,-1 0.23,-1 0.23,-1 0.23,-1 0.23,-1 0.23,-0.99 0.24,-1 0.23,-1 0.23,-1 0.24,-1 0.23,-1 0.23,-1 0.24,-1 0.23,-1 0.24,-0.99 0.23,-1 0.24,-1 0.23,-1 0.24,-1 0.23,-1 0.24,-1 0.24,-1 0.23,-0.99 0.24,-1 0.24,-1 0.24,-1 0.24,-1 0.23,-1 0.24,-0.99 0.24,-1 0.24,-1 0.24,-1 0.25,-1 0.24,-0.99 0.24,-1 0.24,-1 0.24,-1 0.25,-1 0.24,-0.99 0.25,-1 0.24,-1 0.25,-1 0.24,-1 0.25,-0.99 0.25,-1 0.25,-1 0.24,-1 0.25,-0.99 0.25,-1 0.25,-1 0.26,-0.99 0.25,-1 0.25,-1 0.25,-1 0.26,-0.99 0.25,-1 0.26,-1 0.25,-0.99 0.26,-1 0.26,-1 0.26,-0.99 0.26,-1 0.26,-1 0.26,-0.99 0.26,-1 0.26,-1 0.27,-0.99 0.26,-1 0.27,-1 0.27,-0.99 0.27,-1 0.26,-0.99 0.28,-1 0.27,-1 0.27,-0.99 0.27,-1 0.28,-0.99 0.27,-1 0.28,-0.99 0.28,-1 0.28,-0.99 0.28,-1 0.28,-1 0.29,-0.99 0.28,-0.99 0.29,-1 0.29,-0.99 0.29,-1 0.29,-0.99 0.29,-1 0.3,-0.99 0.29,-1 0.3,-0.99 0.3,-0.99 0.3,-1 0.31,-0.99 0.3,-1 0.31,-0.99 0.31,-0.99 0.31,-1 0.32,-0.99 0.31,-0.99 0.32,-0.99 0.32,-1 0.32,-0.99 0.33,-0.99 0.33,-0.99 0.33,-0.99 0.33,-1 0.34,-0.99 0.34,-0.99 0.34,-0.99 0.35,-0.99 0.35,-0.99 0.35,-0.99 0.36,-0.99 0.36,-0.99 0.36,-0.99 0.37,-0.99 0.37,-0.99 0.37,-0.98 0.38,-0.99 0.39,-0.99 0.39,-0.99 0.39,-0.98 0.4,-0.99 0.41,-0.99 0.41,-0.98 0.42,-0.99 0.42,-0.98 0.43,-0.98 0.44,-0.99 0.45,-0.98 0.45,-0.98 0.46,-0.98 0.47,-0.98 0.48,-0.98 0.5,-0.98 0.5,-0.97 0.51,-0.98 0.53,-0.97 0.54,-0.98 0.56,-0.97 0.57,-0.97 0.6,-0.96 0.61,-0.97 0.63,-0.96 0.66,-0.96 0.7,-0.95 0.72,-0.95 0.76,-0.94 0.81,-0.94 0.86,-0.92 0.94,-0.92 1.02,-0.9 1.13,-0.87 1.3,-0.84 1.55,-0.77 2,-0.62 2,-0.21 2,0.22 2,0.63 2,1.05 1.91,1.38 1.37,1.23 1.12,1.15 0.98,1.1 0.88,1.08 0.82,1.07 0.76,1.06 0.72,1.06 0.69,1.04 0.65,1.05 0.63,1.04 0.6,1.03 0.59,1.03 0.56,1.04 0.55,1.02 0.53,1.03 0.52,1.03 0.5,1.02 0.49,1.02 0.48,1.02 0.48,1.03 0.46,1.01 0.45,1.02 0.45,1.02 0.43,1.02 0.43,1.02 0.43,1.01 0.41,1.02 0.41,1.01 0.41,1.01 0.4,1.02 0.39,1.01 0.39,1.01 0.38,1.02 0.38,1.01 0.37,1.01 0.37,1.01 0.37,1.01 0.36,1.01 0.36,1.01 0.35,1.01 0.35,1.01 0.35,1.01 0.34,1.01 0.35,1.01 0.33,1.01 0.34,1.01 0.33,1.01 0.33,1.01 0.33,1 0.32,1.01 0.32,1.01 0.32,1.01 0.32,1 0.31,1.01 0.31,1.01 0.31,1 0.31,1.01 0.31,1.01 0.3,1 0.3,1.01 0.3,1.01 0.3,1 0.3,1.01 0.29,1 0.3,1.01 0.29,1 0.29,1.01 0.29,1 0.29,1.01 0.28,1.01 0.28,1 0.29,1.01 0.28,1 0.28,1 0.28,1.01 0.27,1 0.28,1.01 0.28,1 0.27,1.01 0.27,1 0.27,1.01 0.27,1 0.27,1 0.27,1.01 0.27,1 0.26,1 0.27,1.01 0.26,1 0.27,1.01 0.26,1 0.26,1 0.26,1.01 0.26,1 0.26,1 0.26,1.01 0.25,1 0.26,1 0.25,1 0.26,1.01 0.25,1 0.26,1 0.25,1.01 0.25,1 0.25,1 0.25,1 0.25,1.01 0.25,1 0.25,1 0.25,1 0.24,1.01 0.25,1 0.25,1 0.24,1 0.25,1.01 0.24,1 0.25,1 0.24,1 0.24,1 0.24,1.01 0.25,1 0.24,1 0.24,1 0.24,1 0.24,1.01 0.24,1 0.24,1 0.24,1 0.24,1 0.23,1 0.24,1.01 0.24,1 0.24,1 0.23,1 0.24,1 0.23,1 0.24,1 0.24,1.01 0.23,1 0.23,1 0.24,1 0.23,1 0.24,1 0.23,1 0.23,1 0.24,1 0.23,1.01 0.23,1 0.24,1 0.23,1 0.23,1 0.23,1 0.23,1 0.23,1 0.24,1 0.23,1 0.23,1 0.23,1 0.23,1 0.23,1.01 0.23,1 0.23,1 0.23,1 0.23,1 0.23,1 0.23,1 0.23,1 0.23,1 0.23,1 0.23,1 0.23,1 0.23,1 0.23,1 0.22,1 0.23,1 0.23,1 0.23,1 0.23,1 0.23,1 0.23,1 0.23,1 0.23,1 0.23,1 0.23,1 0.23,1 0.23,1 0.22,1 0.23,1 0.23,1 0.23,1 0.23,1 0.23,1 0.23,1 0.23,1 0.23,1 0.23,1 0.23,0.99 0.23,1 0.23,1 0.23,1 0.24,1 0.23,1 0.23,1 0.23,1 0.23,1 0.23,1 0.23,1 0.24,1 0.23,1 0.23,0.99 0.23,1 0.24,1 0.23,1 0.23,1 0.24,1 0.23,1 0.24,1 0.23,1 0.23,0.99 0.24,1 0.24,1 0.23,1 0.24,1 0.23,1 0.24,1 0.24,0.99 0.24,1 0.23,1 0.24,1 0.24,1 0.24,1 0.24,0.99 0.24,1 0.24,1 0.24,1 0.24,1 0.24,1 0.24,0.99 0.25,1 0.24,1 0.24,1 0.25,0.99 0.24,1 0.25,1 0.24,1 0.25,1 0.25,0.99 0.24,1 0.25,1 0.25,1 0.25,0.99 0.25,1 0.25,1 0.25,0.99 0.26,1 0.25,1 0.25,1 0.26,0.99 0.25,1 0.26,1 0.25,0.99 0.26,1 0.26,1 0.26,0.99 0.26,1 0.26,1 0.26,0.99 0.26,1 0.27,1 0.26,0.99 0.27,1 0.26,1 0.27,0.99 0.27,1 0.27,0.99 0.27,1 0.27,1 0.27,0.99 0.28,1 0.27,0.99 0.28,1 0.27,0.99 0.28,1 0.28,0.99 0.29,1 0.28,0.99 0.28,1 0.29,0.99 0.29,1 0.28,0.99 0.29,1 0.3,0.99 0.29,1 0.29,0.99 0.3,1 0.3,0.99 0.3,0.99 0.3,1 0.31,0.99 0.3,0.99 0.31,1 0.31,0.99 0.31,0.99 0.32,1 0.31,0.99 0.32,0.99 0.33,1 0.32,0.99 0.33,0.99 0.32,0.99 0.34,0.99 0.33,0.99 0.34,1 0.34,0.99 0.34,0.99 0.35,0.99 0.35,0.99 0.35,0.99 0.36,0.99 0.36,0.99 0.36,0.99 0.37,0.99 0.37,0.98 0.38,0.99 0.38,0.99 0.39,0.99 0.39,0.99 0.4,0.98 0.4,0.99 0.4,0.98 0.42,0.99 0.42,0.98 0.42,0.99 0.43,0.98 0.44,0.98 0.45,0.99 0.46,0.98 0.46,0.98 0.47,0.98 0.49,0.98 0.49,0.97 0.51,0.98 0.51,0.97 0.53,0.98 0.55,0.97 0.56,0.97 0.58,0.97 0.59,0.97 0.62,0.96 0.64,0.96 0.67,0.96 0.7,0.95 0.73,0.95 0.77,0.94 0.82,0.93 0.88,0.93 0.95,0.91 1.05,0.89 1.16,0.87 1.35,0.82 1.63,0.75 2,0.54 2,0.12 2,-0.3 2,-0.72 2,-1.13 1.76,-1.35 1.32,-1.2 1.08,-1.14 0.96,-1.1 0.88,-1.08 0.8,-1.06 0.76,-1.06 0.71,-1.06 0.68,-1.04 0.65,-1.04 0.62,-1.04 0.6,-1.04 0.58,-1.03 0.56,-1.03 0.55,-1.03 0.53,-1.03 0.51,-1.02 0.5,-1.03 0.5,-1.02 0.48,-1.02 0.47,-1.02 0.46,-1.02 0.45,-1.02 0.44,-1.02 0.44,-1.01 0.43,-1.02 0.42,-1.01 0.41,-1.02 0.41,-1.01 0.41,-1.02 0.39,-1.01 0.4,-1.01 0.38,-1.02 0.39,-1.01 0.37,-1.01 0.38,-1.01 0.37,-1.01 0.36,-1.02 0.36,-1.01 0.36,-1.01 0.35,-1.01 0.35,-1.01 0.35,-1.01 0.34,-1 0.34,-1.01 0.34,-1.01 0.33,-1.01 0.34,-1.01 0.33,-1.01 0.32,-1.01 0.33,-1 0.32,-1.01 0.31,-1.01 0.32,-1.01 0.32,-1 0.31,-1.01 0.31,-1.01 0.3,-1 0.31,-1.01 0.3,-1.01 0.31,-1 0.3,-1.01 0.29,-1 0.3,-1.01 0.29,-1 0.3,-1.01 0.29,-1.01 0.29,-1 0.29,-1.01 0.28,-1 0.29,-1.01 0.28,-1 0.29,-1.01 0.28,-1 0.28,-1.01 0.27,-1 0.28,-1.01 0.28,-1 0.27,-1 0.28,-1.01 0.27,-1 0.27,-1.01 0.27,-1 0.27,-1 0.27,-1.01 0.26,-1 0.27,-1.01 0.26,-1 0.27,-1 0.26,-1.01 0.26,-1 0.26,-1 0.26,-1.01 0.26,-1 0.26,-1 0.26,-1.01 0.26,-1 0.25,-1 0.26,-1.01 0.25,-1 0.26,-1 0.25,-1 0.25,-1.01 0.25,-1 0.25,-1 0.25,-1.01 0.25,-1 0.25,-1 0.25,-1 0.25,-1.01 0.25,-1 0.24,-1 0.25,-1 0.24,-1 0.25,-1.01 0.24,-1 0.25,-1 0.24,-1 0.24,-1.01 0.25,-1 0.24,-1 0.24,-1 0.24,-1 0.24,-1 0.24,-1.01 0.24,-1 0.24,-1 0.24,-1 0.24,-1 0.23,-1 0.24,-1.01 0.24,-1 0.24,-1 0.23,-1 0.24,-1 0.23,-1 0.24,-1 0.23,-1.01 0.24,-1 0.23,-1 0.24,-1 0.23,-1 0.24,-1 0.23,-1 0.23,-1 0.24,-1.01 0.23,-1 0.23,-1 0.23,-1 0.24,-1 0.23,-1 0.23,-1 0.23,-1 0.23,-1 0.23,-1 0.24,-1 0.23,-1 0.23,-1 0.23,-1.01 0.23,-1 0.23,-1 0.23,-1 0.23,-1 0.23,-1 0.23,-1 0.23,-1 0.23,-1 0.23,-1 0.23,-1 0.23,-1 0.23,-1 0.23,-1 0.22,-1 0.23,-1 0.23,-1 0.23,-1 0.23,-1 0.23,-1 0.23,-1 0.23,-1 0.23,-1 0.23,-1 0.23,-1 0.23,-1 0.22,-1 0.23,-1 0.23,-1 0.23,-1 0.23,-1 0.23,-1 0.23,-1 0.23,-1 0.23,-1 0.23,-1 0.23,-1 0.23,-1 0.23,-1 0.23,-0.99 0.23,-1 0.23,-1 0.23,-1 0.24,-1 0.23,-1 0.23,-1 0.23,-1 0.23,-1 0.23,-1 0.24,-1 0.23,-1 0.23,-1 0.23,-0.99 0.24,-1 0.23,-1 0.23,-1 0.24,-1 0.23,-1 0.24,-1 0.23,-1 0.23,-0.99 0.24,-1 0.24,-1 0.23,-1 0.24,-1 0.23,-1 0.24,-1 0.24,-0.99 0.24,-1 0.23,-1 0.24,-1 0.24,-1 0.24,-1 0.24,-0.99 0.24,-1 0.24,-1 0.24,-1 0.24,-1 0.24,-1 0.25,-0.99 0.24,-1 0.24,-1 0.25,-1 0.24,-1 0.24,-0.99 0.25,-1 0.25,-1 0.24,-1 0.25,-0.99 0.25,-1 0.25,-1 0.24,-1 0.25,-0.99 0.25,-1 0.25,-1 0.26,-1 0.25,-0.99 0.25,-1 0.25,-1 0.26,-0.99 0.25,-1 0.26,-1 0.26,-0.99 0.25,-1 0.26,-1 0.26,-0.99 0.26,-1 0.26,-1 0.26,-0.99 0.27,-1 0.26,-1 0.26,-0.99 0.27,-1 0.27,-1 0.26,-0.99 0.27,-1 0.27,-0.99 0.27,-1 0.28,-1 0.27,-0.99 0.27,-1 0.28,-0.99 0.27,-1 0.28,-0.99 0.28,-1 0.28,-0.99 0.28,-1 0.29,-0.99 0.28,-1 0.29,-0.99 0.28,-1 0.29,-0.99 0.29,-1 0.3,-0.99 0.29,-1 0.3,-0.99 0.29,-1 0.3,-0.99 0.3,-0.99 0.3,-1 0.31,-0.99 0.31,-0.99 0.3,-1 0.31,-0.99 0.32,-0.99 0.31,-1 0.32,-0.99 0.32,-0.99 0.32,-0.99 0.32,-1 0.33,-0.99 0.33,-0.99 0.33,-0.99 0.34,-0.99 0.34,-0.99 0.34,-1 0.34,-0.99 0.35,-0.99 0.35,-0.99 0.35,-0.99 0.36,-0.99 0.36,-0.99 0.37,-0.99 0.36,-0.98 0.38,-0.99 0.38,-0.99 0.38,-0.99 0.38,-0.99 0.4,-0.98 0.39,-0.99 0.41,-0.99 0.4,-0.98 0.42,-0.99 0.42,-0.98 0.42,-0.99 0.44,-0.98 0.44,-0.98 0.45,-0.98 0.45,-0.98 0.47,-0.99 0.47,-0.97 0.49,-0.98 0.5,-0.98 0.5,-0.98 0.52,-0.97 0.54,-0.97 0.54,-0.98 0.57,-0.97 0.58,-0.96 0.6,-0.97 0.62,-0.96 0.65,-0.96 0.67,-0.96 0.7,-0.95 0.74,-0.95 0.78,-0.94 0.83,-0.93 0.89,-0.92 0.96,-0.91 1.07,-0.89 1.19,-0.86 1.38,-0.82 1.7,-0.73 2,-0.47 2,-0.05 2,0.37 2,0.78 2,1.2 1.67,1.32 1.26,1.19 1.07,1.13 0.94,1.09 0.86,1.08 0.8,1.07 0.75,1.05 0.71,1.06 0.67,1.04 0.65,1.04 0.62,1.04 0.59,1.04 0.58,1.03 0.56,1.03 0.54,1.03 0.53,1.02 0.51,1.03 0.5,1.02 0.49,1.02 0.48,1.02 0.47,1.02 0.46,1.02 0.45,1.02 0.44,1.02 0.43,1.02 0.43,1.01 0.42,1.02 0.42,1.01 0.4,1.02 0.41,1.01 0.39,1.02 0.4,1.01 0.38,1.01 0.38,1.01 0.38,1.02 0.37,1.01 0.37,1.01 0.37,1.01 0.36,1.01 0.35,1.01 0.36,1.01 0.35,1.01 0.34,1.01 0.34,1.01 0.34,1.01 0.34,1.01 0.34,1 0.33,1.01 0.32,1.01 0.33,1.01 0.32,1.01 0.32,1 0.32,1.01 0.32,1.01 0.31,1.01 0.31,1 0.31,1.01 0.31,1.01 0.31,1 0.3,1.01 0.3,1 0.3,1.01 0.3,1.01 0.29,1 0.3,1.01 0.29,1 0.29,1.01 0.29,1 0.29,1.01 0.29,1.01 0.28,1 0.29,1.01 0.28,1 0.28,1 0.28,1.01 0.28,1 0.27,1.01 0.28,1 0.27,1.01 0.28,1 0.27,1.01 0.27,1 0.27,1 0.27,1.01 0.27,1 0.26,1.01 0.27,1 0.26,1 0.27,1.01 0.26,1 0.26,1 0.26,1.01 0.26,1 0.26,1 0.26,1.01 0.26,1 0.25,1 0.26,1.01 0.26,1 0.25,1 0.25,1 0.26,1.01 0.25,1 0.25,1 0.25,1.01 0.25,1 0.25,1 0.25,1 0.25,1.01 0.25,1 0.24,1 0.25,1 0.25,1.01 0.24,1 0.25,1 0.24,1 0.24,1 0.25,1.01 0.24,1 0.24,1 0.24,1 0.24,1 0.25,1.01 0.24,1 0.24,1 0.24,1 0.23,1 0.24,1 0.24,1.01 0.24,1 0.24,1 0.23,1 0.24,1 0.24,1 0.23,1 0.24,1.01 0.24,1 0.23,1 0.24,1 0.23,1 0.23,1 0.24,1 0.23,1 0.24,1.01 0.23,1 0.23,1 0.23,1 0.24,1 0.23,1 0.23,1 0.23,1 0.24,1 0.23,1 0.23,1 0.23,1.01 0.23,1 0.23,1 0.23,1 0.23,1 0.23,1 0.23,1 0.23,1 0.23,1 0.23,1 0.23,1 0.23,1 0.23,1 0.23,1 0.23,1 0.23,1 0.23,1 0.23,1 0.23,1 0.23,1 0.23,1 0.23,1 0.23,1 0.22,1 0.23,1 0.23,1 0.23,1 0.23,1 0.23,1 0.23,1 0.23,1 0.23,1 0.23,1 0.23,1 0.23,1 0.23,1 0.23,1 0.23,1 0.23,1 0.23,1 0.23,1 0.23,1 0.23,1 0.23,1 0.23,1 0.23,1 0.23,1 0.23,0.99 0.23,1 0.23,1 0.23,1 0.24,1 0.23,1 0.23,1 0.23,1 0.24,1 0.23,1 0.23,1 0.23,0.99 0.24,1 0.23,1 0.24,1 0.23,1 0.24,1 0.23,1 0.24,1 0.23,0.99 0.24,1 0.23,1 0.24,1 0.24,1 0.23,1 0.24,1 0.24,0.99 0.24,1 0.24,1 0.24,1 0.24,1 0.24,1 0.24,0.99 0.24,1 0.24,1 0.24,1 0.24,1 0.25,0.99 0.24,1 0.24,1 0.25,1 0.24,0.99 0.25,1 0.24,1 0.25,1 0.25,1 0.24,0.99 0.25,1 0.25,1 0.25,1 0.25,0.99 0.25,1 0.25,1 0.26,0.99 0.25,1 0.25,1 0.26,1 0.25,0.99 0.26,1 0.26,1 0.25,0.99 0.26,1 0.26,1 0.26,0.99 0.26,1 0.26,1 0.27,0.99 0.26,1 0.26,1 0.27,0.99 0.27,1 0.26,0.99 0.27,1 0.27,1 0.27,0.99 0.28,1 0.27,0.99 0.27,1 0.28,0.99 0.28,1 0.27,1 0.28,0.99 0.28,1 0.29,0.99 0.28,1 0.28,0.99 0.29,1 0.29,0.99 0.29,1 0.29,0.99 0.29,0.99 0.29,1 0.3,0.99 0.3,1 0.3,0.99 0.3,1 0.3,0.99 0.31,0.99 0.3,1 0.31,0.99 0.31,0.99 0.31,1 0.32,0.99 0.32,0.99 0.32,0.99 0.32,1 0.32,0.99 0.33,0.99 0.33,0.99 0.33,0.99 0.34,0.99 0.34,1 0.34,0.99 0.34,0.99 0.35,0.99 0.35,0.99 0.36,0.99 0.35,0.99 0.37,0.99 0.36,0.99 0.37,0.99 0.37,0.98 0.38,0.99 0.39,0.99 0.38,0.99 0.4,0.98 0.39,0.99 0.41,0.99 0.41,0.98 0.41,0.99 0.42,0.98 0.43,0.99 0.43,0.98 0.45,0.98 0.45,0.98 0.45,0.98 0.47,0.98 0.48,0.98 0.48,0.98 0.5,0.98 0.51,0.98 0.52,0.97 0.54,0.97 0.55,0.97 0.56,0.97 0.59,0.97 0.6,0.97 0.63,0.96 0.65,0.96 0.67,0.95 0.71,0.96 0.75,0.94 0.78,0.94 0.84,0.93 0.9,0.92 0.98,0.91 1.08,0.89 1.22,0.85 1.42,0.81 1.76,0.7 2,0.41 2,-0.01 2,-0.43 2,-0.85 2,-1.26 1.59,-1.29 1.22,-1.18 1.04,-1.12 0.93,-1.09 0.85,-1.08 0.79,-1.06 0.74,-1.06 0.71,-1.05 0.67,-1.05 0.64,-1.04 0.61,-1.03 0.59,-1.04 0.58,-1.03 0.55,-1.03 0.54,-1.03 0.53,-1.02 0.51,-1.03 0.5,-1.02 0.48,-1.02 0.48,-1.03 0.47,-1.02 0.46,-1.01 0.45,-1.02 0.44,-1.02 0.43,-1.02 0.43,-1.01 0.42,-1.02 0.41,-1.01 0.41,-1.02 0.4,-1.01 0.4,-1.02 0.39,-1.01 0.38,-1.01 0.38,-1.01 0.38,-1.01 0.37,-1.02 0.37,-1.01 0.36,-1.01 0.36,-1.01 0.36,-1.01 0.35,-1.01 0.35,-1.01 0.35,-1.01 0.34,-1.01 0.34,-1.01 0.33,-1 0.34,-1.01 0.33,-1.01 0.33,-1.01 0.32,-1.01 0.32,-1 0.32,-1.01 0.32,-1.01 0.32,-1.01 0.31,-1 0.31,-1.01 0.31,-1.01 0.31,-1 0.3,-1.01 0.31,-1.01 0.3,-1 0.3,-1.01 0.3,-1 0.29,-1.01 0.3,-1.01 0.29,-1 0.29,-1.01 0.29,-1 0.29,-1.01 0.28,-1 0.29,-1.01 0.28,-1 0.28,-1.01 0.28,-1 0.28,-1.01 0.28,-1 0.28,-1.01 0.27,-1 0.28,-1 0.27,-1.01 0.27,-1 0.27,-1.01 0.27,-1 0.27,-1.01 0.27,-1 0.26,-1 0.27,-1.01 0.26,-1 0.27,-1 0.26,-1.01 0.26,-1 0.26,-1 0.26,-1.01 0.26,-1 0.26,-1 0.26,-1.01 0.25,-1 0.26,-1 0.26,-1.01 0.25,-1 0.25,-1 0.26,-1 0.25,-1.01 0.25,-1 0.25,-1 0.25,-1.01 0.25,-1 0.25,-1 0.25,-1 0.24,-1.01 0.25,-1 0.25,-1 0.24,-1 0.25,-1 0.24,-1.01 0.25,-1 0.24,-1 0.24,-1 0.25,-1.01 0.24,-1 0.24,-1 0.24,-1 0.24,-1 0.24,-1 0.24,-1.01 0.24,-1 0.24,-1 0.24,-1 0.24,-1 0.24,-1 0.23,-1.01 0.24,-1 0.24,-1 0.23,-1 0.24,-1 0.24,-1 0.23,-1 0.24,-1.01 0.23,-1 0.24,-1 0.23,-1 0.23,-1 0.24,-1 0.23,-1 0.24,-1 0.23,-1.01 0.23,-1 0.23,-1 0.24,-1 0.23,-1 0.23,-1 0.23,-1 0.23,-1 0.23,-1 0.24,-1 0.23,-1 0.23,-1 0.23,-1 0.23,-1.01 0.23,-1 0.23,-1 0.23,-1 0.23,-1 0.23,-1 0.23,-1 0.23,-1 0.23,-1 0.23,-1 0.23,-1 0.23,-1 0.23,-1 0.23,-1 0.22,-1 0.23,-1 0.23,-1 0.23,-1 0.23,-1 0.23,-1 0.23,-1 0.23,-1 0.23,-1 0.23,-1 0.23,-1 0.23,-1 0.23,-1 0.22,-1 0.23,-1 0.23,-1 0.23,-1 0.23,-1 0.23,-1 0.23,-1 0.23,-1 0.23,-1 0.23,-1 0.23,-1 0.23,-0.99 0.23,-1 0.23,-1 0.23,-1 0.24,-1 0.23,-1 0.23,-1 0.23,-1 0.23,-1 0.23,-1 0.23,-1 0.24,-1 0.23,-1 0.23,-0.99 0.23,-1 0.24,-1 0.23,-1 0.23,-1 0.24,-1 0.23,-1 0.24,-1 0.23,-1 0.24,-0.99 0.23,-1 0.24,-1 0.23,-1 0.24,-1 0.24,-1 0.23,-1 0.24,-0.99 0.24,-1 0.24,-1 0.23,-1 0.24,-1 0.24,-1 0.24,-0.99 0.24,-1 0.24,-1 0.24,-1 0.25,-1 0.24,-0.99 0.24,-1 0.24,-1 0.25,-1 0.24,-1 0.24,-0.99 0.25,-1 0.25,-1 0.24,-1 0.25,-0.99 0.25,-1 0.24,-1 0.25,-1 0.25,-0.99 0.25,-1 0.25,-1 0.25,-1 0.25,-0.99 0.26,-1 0.25,-1 0.25,-1 0.26,-0.99 0.25,-1 0.26,-1 0.26,-0.99 0.25,-1 0.26,-1 0.26,-0.99 0.26,-1 0.26,-1 0.26,-0.99 0.27,-1 0.26,-1 0.27,-0.99 0.26,-1 0.27,-0.99 0.27,-1 0.27,-1 0.27,-0.99 0.27,-1 0.27,-0.99 0.27,-1 0.28,-1 0.27,-0.99 0.28,-1 0.28,-0.99 0.28,-1 0.28,-0.99 0.28,-1 0.28,-0.99 0.29,-1 0.29,-0.99 0.28,-1 0.29,-0.99 0.29,-1 0.3,-0.99 0.29,-1 0.3,-0.99 0.29,-0.99 0.3,-1 0.3,-0.99 0.31,-0.99 0.3,-1 0.31,-0.99 0.31,-1 0.31,-0.99 0.31,-0.99 0.32,-0.99 0.32,-1 0.32,-0.99 0.32,-0.99 0.32,-0.99 0.33,-1 0.33,-0.99 0.34,-0.99 0.33,-0.99 0.34,-0.99 0.34,-0.99 0.35,-0.99 0.35,-0.99 0.35,-0.99 0.35,-0.99 0.36,-0.99 0.36,-0.99 0.37,-0.99 0.37,-0.99 0.37,-0.99 0.38,-0.99 0.39,-0.98 0.38,-0.99 0.4,-0.99 0.4,-0.99 0.4,-0.98 0.41,-0.99 0.42,-0.98 0.42,-0.99 0.43,-0.98 0.43,-0.98 0.45,-0.99 0.45,-0.98 0.46,-0.98 0.47,-0.98 0.47,-0.98 0.49,-0.98 0.5,-0.97 0.51,-0.98 0.53,-0.97 0.53,-0.98 0.56,-0.97 0.56,-0.97 0.59,-0.96 0.61,-0.97 0.63,-0.96 0.65,-0.96 0.68,-0.95 0.72,-0.95 0.75,-0.95 0.79,-0.94 0.85,-0.93 0.91,-0.92 0.99,-0.9 1.1,-0.88 1.24,-0.85 1.47,-0.8 1.84,-0.68 2,-0.34 2,0.08 2,0.5 2,0.92 2,1.33 1.5,1.27 1.18,1.16 1.02,1.11 0.91,1.09 0.84,1.08 0.78,1.06 0.74,1.05 0.69,1.05 0.67,1.05 0.63,1.04 0.61,1.04 0.59,1.03 0.57,1.03 0.55,1.03 0.54,1.03 0.52,1.02 0.51,1.03 0.5,1.02 0.48,1.02 0.48,1.02 0.46,1.02 0.46,1.02 0.45,1.02 0.44,1.02 0.43,1.02 0.43,1.01 0.41,1.02 0.42,1.01 0.4,1.02 0.4,1.01 0.4,1.01 0.39,1.02 0.38,1.01 0.38,1.01 0.38,1.01 0.37,1.01 0.37,1.01 0.36,1.02 0.36,1.01 0.35,1.01 0.36,1.01 0.34,1.01 0.35,1 0.34,1.01 0.34,1.01 0.34,1.01 0.33,1.01 0.33,1.01 0.33,1.01 0.32,1 0.32,1.01 0.32,1.01 0.32,1.01 0.32,1 0.31,1.01 0.31,1.01 0.31,1 0.31,1.01 0.3,1.01 0.3,1 0.3,1.01 0.3,1.01 0.3,1 0.3,1.01 0.29,1 0.29,1.01 0.29,1 0.29,1.01 0.29,1 0.28,1.01 0.29,1 0.28,1.01 0.28,1 0.28,1.01 0.28,1 0.28,1.01 0.28,1 0.27,1.01 0.28,1 0.27,1.01 0.27,1 0.27,1 0.27,1.01 0.27,1 0.27,1.01 0.26,1 0.27,1 0.26,1.01 0.27,1 0.26,1 0.26,1.01 0.26,1 0.26,1 0.26,1.01 0.26,1 0.26,1 0.25,1.01 0.26,1 0.25,1 0.26,1 0.25,1.01 0.25,1 0.25,1 0.26,1.01 0.25,1 0.25,1 0.25,1 0.24,1.01 0.25,1 0.25,1 0.25,1 0.24,1.01 0.25,1 0.24,1 0.25,1 0.24,1 0.25,1.01 0.24,1 0.24,1 0.24,1 0.25,1 0.24,1.01 0.24,1 0.24,1 0.24,1 0.24,1 0.24,1.01 0.23,1 0.24,1 0.24,1 0.24,1 0.24,1 0.23,1 0.24,1.01 0.23,1 0.24,1 0.24,1 0.23,1 0.24,1 0.23,1 0.23,1.01 0.24,1 0.23,1 0.23,1 0.24,1 0.23,1 0.23,1 0.24,1 0.23,1 0.23,1 0.23,1 0.23,1.01 0.24,1 0.23,1 0.23,1 0.23,1 0.23,1 0.23,1 0.23,1 0.23,1 0.23,1 0.23,1 0.23,1 0.23,1 0.23,1 0.23,1 0.23,1"
       style="fill:none;stroke:#e20000;stroke-width:2.99578462;stroke-opacity:1;stroke-miterlimit:4;stroke-dasharray:none"
       id="path7"
       inkscape:connector-curvature="0" />
  </g>
</svg>
