<?xml version="1.0" encoding="UTF-8" standalone="no"?>
<svg
   xmlns:dc="http://purl.org/dc/elements/1.1/"
   xmlns:cc="http://creativecommons.org/ns#"
   xmlns:rdf="http://www.w3.org/1999/02/22-rdf-syntax-ns#"
   xmlns:svg="http://www.w3.org/2000/svg"
   xmlns="http://www.w3.org/2000/svg"
   xmlns:sodipodi="http://sodipodi.sourceforge.net/DTD/sodipodi-0.dtd"
   xmlns:inkscape="http://www.inkscape.org/namespaces/inkscape"
   viewBox="0 0 1882.9679 553.34509"
   version="1.1"
   id="svg11"
   sodipodi:docname="waveb_2.svg"
   width="1882.9679"
   height="553.34509"
   inkscape:version="0.92.0 r15299">
  <metadata
     id="metadata17">
    <rdf:RDF>
      <cc:Work
         rdf:about="">
        <dc:format>image/svg+xml</dc:format>
        <dc:type
           rdf:resource="http://purl.org/dc/dcmitype/StillImage" />
      </cc:Work>
    </rdf:RDF>
  </metadata>
  <defs
     id="defs15" />
  <sodipodi:namedview
     pagecolor="#ffffff"
     bordercolor="#666666"
     borderopacity="1"
     objecttolerance="10"
     gridtolerance="10"
     guidetolerance="10"
     inkscape:pageopacity="0"
     inkscape:pageshadow="2"
     inkscape:window-width="1920"
     inkscape:window-height="1017"
     id="namedview13"
     showgrid="false"
     inkscape:zoom="0.43692308"
     inkscape:cx="306.03126"
     inkscape:cy="353.34508"
     inkscape:window-x="-8"
     inkscape:window-y="-8"
     inkscape:window-maximized="1"
     inkscape:current-layer="svg11" />
  <clipPath
     id="box">
    <rect
       x="0"
       y="0"
       width="650"
       height="400"
       style="fill:none;stroke:none"
       id="rect2" />
  </clipPath>
  <g
     clip-path="url(#box)"
     id="g9"
     transform="scale(2.8968737,1.3833627)"
     style="fill:none;stroke:#e20000;stroke-opacity:1;stroke-width:2.49768228;stroke-miterlimit:4;stroke-dasharray:none"
     inkscape:export-filename="C:\Users\Keith Grant\Desktop\punch_at_the_peak\SuperPunchAtThePeak2\Assets\PNG\wave_2.png"
     inkscape:export-xdpi="26.078501"
     inkscape:export-ydpi="26.078501">
    <rect
       x="0"
       y="0"
       width="650"
       height="400"
       style="fill:none;stroke:#e20000;stroke-opacity:1;stroke-width:2.49768228;stroke-miterlimit:4;stroke-dasharray:none"
       id="rect5" />
    <path
       d="m -10,200 9.75,0.89 1,-10.53 0.1,-1 0.09,-1 0.1,-1 0.09,-1 0.1,-1 0.09,-1 0.1,-1 0.09,-1 0.1,-1 0.09,-1 0.1,-0.99 0.09,-1 0.1,-1 0.09,-1 0.1,-1 0.1,-1 0.09,-1 0.1,-1 0.09,-1 0.1,-1 0.09,-1 0.1,-1 0.1,-1 0.09,-0.99 0.1,-1 0.1,-1 0.09,-1 0.1,-1 0.1,-1 0.09,-1 0.1,-1 0.1,-0.99 0.1,-1 0.09,-1 0.1,-1 0.1,-1 0.1,-1 0.1,-1 0.09,-0.99 0.1,-1 0.1,-1 0.1,-1 0.1,-1 0.1,-1 0.1,-0.99 0.1,-1 0.1,-1 0.09,-1 0.1,-1 0.1,-1 0.11,-0.99 0.1,-1 0.1,-1 0.1,-1 0.1,-0.99 0.1,-1 0.1,-1 0.1,-1 0.11,-1 0.1,-0.99 0.1,-1 0.1,-1 0.11,-1 0.1,-0.99 0.1,-1 0.11,-1 0.1,-0.99 0.11,-1 0.1,-1 0.11,-1 0.1,-0.99 0.11,-1 0.1,-1 0.11,-0.99 0.11,-1 0.1,-1 0.11,-0.99 0.11,-1 0.11,-1 0.1,-0.99 0.11,-1 0.11,-1 0.11,-0.99 0.11,-1 0.11,-1 0.11,-0.99 0.11,-1 0.12,-0.99 0.11,-1 0.11,-1 0.11,-0.99 0.12,-1 0.11,-0.99 0.12,-1 0.11,-0.99 0.12,-1 0.11,-0.99 0.12,-1 0.12,-0.99 0.11,-1 0.12,-0.99 0.12,-1 0.12,-0.99 0.12,-1 0.12,-0.99 0.13,-1 0.12,-0.99 0.12,-0.99 0.12,-1 0.13,-0.99 0.12,-1 0.13,-0.99 0.13,-0.99 0.13,-1 0.12,-0.99 0.13,-0.99 0.13,-1 0.14,-0.99 0.13,-0.99 0.13,-0.99 0.14,-1 0.13,-0.99 0.14,-0.99 0.14,-0.99 0.13,-0.99 0.14,-0.99 0.15,-0.99 0.14,-1 0.14,-0.99 0.15,-0.99 0.14,-0.99 0.15,-0.99 0.15,-0.98 0.15,-0.99 0.16,-0.99 0.15,-0.99 0.16,-0.99 0.16,-0.99 0.16,-0.98 0.16,-0.99 0.16,-0.99 0.17,-0.98 0.17,-0.99 0.17,-0.98 0.18,-0.99 0.17,-0.98 0.18,-0.99 0.19,-0.98 0.18,-0.98 0.19,-0.98 0.2,-0.98 0.19,-0.98 0.21,-0.98 0.2,-0.98 0.21,-0.97 0.22,-0.98 0.22,-0.97 0.23,-0.97 0.23,-0.97 0.24,-0.97 0.25,-0.96 0.26,-0.97 0.27,-0.96 0.28,-0.95 0.3,-0.95 0.3,-0.95 0.33,-0.94 0.35,-0.93 0.37,-0.92 0.4,-0.91 0.45,-0.88 0.51,-0.86 0.59,-0.8 0.73,-0.71 1.04,-0.44 2,1.01 1.98,3.4 0.59,1.45 0.4,1.12 0.36,1.08 0.33,1.07 0.32,1.06 0.29,1.05 0.28,1.05 0.27,1.04 0.26,1.04 0.25,1.03 0.23,1.03 0.24,1.03 0.22,1.03 0.22,1.03 0.21,1.02 0.21,1.03 0.2,1.02 0.2,1.02 0.2,1.02 0.19,1.02 0.19,1.02 0.18,1.02 0.18,1.01 0.18,1.02 0.17,1.02 0.17,1.01 0.17,1.02 0.17,1.01 0.16,1.01 0.17,1.02 0.16,1.01 0.15,1.01 0.16,1.01 0.16,1.02 0.15,1.01 0.15,1.01 0.15,1.01 0.15,1.01 0.14,1.01 0.15,1.01 0.14,1.01 0.14,1.01 0.14,1.01 0.14,1 0.14,1.01 0.14,1.01 0.14,1.01 0.13,1.01 0.13,1.01 0.14,1 0.13,1.01 0.13,1.01 0.13,1 0.13,1.01 0.13,1.01 0.12,1 0.13,1.01 0.13,1.01 0.12,1 0.13,1.01 0.12,1.01 0.12,1 0.12,1.01 0.12,1 0.13,1.01 0.12,1 0.11,1.01 0.12,1 0.12,1.01 0.12,1 0.12,1.01 0.11,1 0.12,1.01 0.11,1 0.12,1.01 0.11,1 0.12,1.01 0.11,1 0.11,1 0.11,1.01 0.12,1 0.11,1.01 0.11,1 0.11,1 0.11,1.01 0.11,1 0.11,1.01 0.11,1 0.1,1 0.11,1.01 0.11,1 0.11,1 0.1,1.01 0.11,1 0.11,1 0.1,1.01 0.11,1 0.1,1 0.11,1 0.1,1.01 0.11,1 0.1,1 0.11,1 0.1,1.01 0.1,1 0.11,1 0.1,1.01 0.1,1 0.1,1 0.11,1 0.1,1 0.1,1.01 0.1,1 0.1,1 0.1,1 0.1,1.01 0.11,1 0.1,1 0.1,1 0.1,1 0.1,1 0.09,1.01 0.1,1 0.1,1 0.1,1 0.1,1 0.1,1.01 0.1,1 0.1,1 0.09,1 0.1,1 0.1,1 0.1,1 0.1,1.01 0.09,1 0.1,1 0.1,1 0.1,1 0.09,1 0.1,1 0.1,1 0.09,1.01 0.1,1 0.1,1 0.09,1 0.1,1 0.1,1 0.09,1 0.1,1 0.09,1 0.1,1 0.09,1 0.1,1 0.1,1.01 0.09,1 0.1,1 0.09,1 0.1,1 0.09,1 0.1,1 0.09,1 0.1,1 0.09,1 0.1,1 0.09,1 0.1,1 0.09,1 0.1,1 0.09,1 0.1,1 0.09,1 0.1,1 0.09,1 0.1,1 0.09,1 0.1,1 0.09,1 0.1,1 0.09,1 0.1,1 0.09,1 0.1,1 0.09,1 0.1,1 0.09,1 0.1,1 0.09,1 0.1,1 0.09,1 0.1,1 0.09,1 0.1,1 0.09,1 0.1,1 0.09,1 0.1,1 0.1,1 0.09,1 0.1,0.99 0.09,1 0.1,1 0.09,1 0.1,1 0.1,1 0.09,1 0.1,1 0.09,1 0.1,1 0.1,1 0.09,1 0.1,0.99 0.1,1 0.09,1 0.1,1 0.1,1 0.09,1 0.1,1 0.1,1 0.1,0.99 0.09,1 0.1,1 0.1,1 0.1,1 0.1,1 0.09,1 0.1,0.99 0.1,1 0.1,1 0.1,1 0.1,1 0.1,1 0.1,0.99 0.1,1 0.1,1 0.1,1 0.1,1 0.1,0.99 0.1,1 0.1,1 0.1,1 0.1,0.99 0.1,1 0.11,1 0.1,1 0.1,1 0.1,0.99 0.11,1 0.1,1 0.1,1 0.11,0.99 0.1,1 0.1,1 0.11,0.99 0.1,1 0.11,1 0.1,1 0.11,0.99 0.1,1 0.11,1 0.11,0.99 0.1,1 0.11,1 0.11,0.99 0.11,1 0.11,1 0.1,0.99 0.11,1 0.11,1 0.11,0.99 0.11,1 0.11,0.99 0.12,1 0.11,1 0.11,0.99 0.11,1 0.11,0.99 0.12,1 0.11,0.99 0.12,1 0.11,1 0.12,0.99 0.11,1 0.12,0.99 0.12,1 0.12,0.99 0.11,1 0.12,0.99 0.12,1 0.12,0.99 0.12,0.99 0.13,1 0.12,0.99 0.12,1 0.12,0.99 0.13,1 0.12,0.99 0.13,0.99 0.13,1 0.12,0.99 0.13,0.99 0.13,1 0.13,0.99 0.13,0.99 0.14,0.99 0.13,1 0.13,0.99 0.14,0.99 0.14,0.99 0.13,0.99 0.14,1 0.14,0.99 0.14,0.99 0.15,0.99 0.14,0.99 0.14,0.99 0.15,0.99 0.15,0.99 0.15,0.99 0.15,0.99 0.15,0.99 0.16,0.98 0.15,0.99 0.16,0.99 0.16,0.99 0.16,0.99 0.17,0.98 0.17,0.99 0.16,0.98 0.18,0.99 0.17,0.98 0.18,0.99 0.18,0.98 0.18,0.98 0.19,0.98 0.18,0.99 0.2,0.98 0.19,0.98 0.21,0.97 0.2,0.98 0.21,0.98 0.22,0.97 0.22,0.98 0.22,0.97 0.24,0.97 0.24,0.97 0.25,0.96 0.26,0.96 0.26,0.96 0.28,0.96 0.29,0.95 0.31,0.95 0.32,0.94 0.35,0.93 0.37,0.92 0.4,0.91 0.44,0.89 0.5,0.86 0.57,0.81 0.72,0.72 0.98,0.5 2,-0.83 2,-3.25 0.61,-1.48 0.42,-1.13 0.37,-1.08 0.34,-1.07 0.31,-1.06 0.3,-1.06 0.29,-1.04 0.27,-1.05 0.26,-1.03 0.25,-1.04 0.24,-1.03 0.23,-1.03 0.23,-1.03 0.22,-1.03 0.21,-1.03 0.21,-1.02 0.21,-1.02 0.2,-1.02 0.19,-1.03 0.19,-1.01 0.19,-1.02 0.19,-1.02 0.18,-1.02 0.18,-1.02 0.17,-1.01 0.17,-1.02 0.17,-1.01 0.17,-1.02 0.17,-1.01 0.16,-1.01 0.16,-1.01 0.16,-1.02 0.16,-1.01 0.15,-1.01 0.15,-1.01 0.16,-1.01 0.14,-1.01 0.15,-1.01 0.15,-1.01 0.15,-1.01 0.14,-1.01 0.14,-1.01 0.14,-1.01 0.14,-1.01 0.14,-1.01 0.14,-1.01 0.14,-1.01 0.13,-1 0.13,-1.01 0.14,-1.01 0.13,-1.01 0.13,-1 0.13,-1.01 0.13,-1.01 0.13,-1 0.13,-1.01 0.12,-1.01 0.13,-1 0.12,-1.01 0.13,-1.01 0.12,-1 0.13,-1.01 0.12,-1 0.12,-1.01 0.12,-1 0.12,-1.01 0.12,-1.01 0.12,-1 0.12,-1.01 0.11,-1 0.12,-1.01 0.12,-1 0.11,-1.01 0.12,-1 0.11,-1 0.12,-1.01 0.11,-1 0.11,-1.01 0.12,-1 0.11,-1.01 0.11,-1 0.11,-1 0.11,-1.01 0.11,-1 0.11,-1.01 0.11,-1 0.11,-1 0.11,-1.01 0.11,-1 0.11,-1 0.11,-1.01 0.1,-1 0.11,-1 0.11,-1.01 0.11,-1 0.1,-1 0.11,-1.01 0.1,-1 0.11,-1 0.1,-1 0.11,-1.01 0.1,-1 0.11,-1 0.1,-1 0.1,-1.01 0.11,-1 0.1,-1 0.1,-1 0.1,-1.01 0.11,-1 0.1,-1 0.1,-1 0.1,-1.01 0.1,-1 0.1,-1 0.1,-1 0.1,-1 0.1,-1.01 0.1,-1 0.1,-1 0.1,-1 0.1,-1 0.1,-1.01 0.1,-1 0.1,-1 0.1,-1 0.1,-1 0.1,-1 0.1,-1.01 0.09,-1 0.1,-1 0.1,-1 0.1,-1 0.1,-1 0.09,-1 0.1,-1.01 0.1,-1 0.1,-1 0.09,-1 0.1,-1 0.1,-1 0.09,-1 0.1,-1 0.1,-1 0.09,-1.01 0.1,-1 0.09,-1 0.1,-1 0.1,-1 0.09,-1 0.1,-1 0.09,-1 0.1,-1 0.1,-1 0.09,-1 0.1,-1 0.09,-1.01 0.1,-1 0.09,-1 0.1,-1 0.09,-1 0.1,-1 0.09,-1 0.1,-1 0.09,-1 0.1,-1 0.09,-1 0.1,-1 0.09,-1 0.1,-1 0.09,-1 0.1,-1 0.09,-1 0.1,-1 0.09,-1 0.1,-1 0.09,-1 0.1,-1 0.09,-1 0.1,-1 0.09,-1 0.1,-1 0.09,-1 0.1,-1 0.09,-1 0.1,-1 0.09,-1 0.1,-1 0.09,-1 0.1,-1 0.09,-1 0.1,-1 0.09,-1 0.1,-1 0.09,-1 0.1,-0.99 0.1,-1 0.09,-1 0.1,-1 0.09,-1 0.1,-1 0.09,-1 0.1,-1 0.1,-1 0.09,-1 0.1,-1 0.09,-1 0.1,-1 0.1,-0.99 0.09,-1 0.1,-1 0.1,-1 0.09,-1 0.1,-1 0.1,-1 0.09,-1 0.1,-1 0.1,-0.99 0.1,-1 0.09,-1 0.1,-1 0.1,-1 0.1,-1 0.1,-1 0.09,-0.99 0.1,-1 0.1,-1 0.1,-1 0.1,-1 0.1,-1 0.1,-0.99 0.1,-1 0.1,-1 0.1,-1 0.1,-1 0.1,-0.99 0.1,-1 0.1,-1 0.1,-1 0.1,-1 0.1,-0.99 0.1,-1 0.1,-1 0.11,-1 0.1,-0.99 0.1,-1 0.1,-1 0.11,-1 0.1,-0.99 0.1,-1 0.11,-1 0.1,-1 0.11,-0.99 0.1,-1 0.1,-1 0.11,-0.99 0.11,-1 0.1,-1 0.11,-1 0.1,-0.99 0.11,-1 0.11,-1 0.11,-0.99 0.1,-1 0.11,-1 0.11,-0.99 0.11,-1 0.11,-0.99 0.11,-1 0.11,-1 0.11,-0.99 0.11,-1 0.11,-1 0.11,-0.99 0.12,-1 0.11,-0.99 0.11,-1 0.12,-0.99 0.11,-1 0.12,-0.99 0.11,-1 0.12,-1 0.11,-0.99 0.12,-1 0.12,-0.99 0.12,-1 0.12,-0.99 0.12,-1 0.12,-0.99 0.12,-0.99 0.12,-1 0.12,-0.99 0.12,-1 0.13,-0.99 0.12,-0.99 0.13,-1 0.12,-0.99 0.13,-1 0.13,-0.99 0.12,-0.99 0.13,-1 0.13,-0.99 0.14,-0.99 0.13,-0.99 0.13,-1 0.13,-0.99 0.14,-0.99 0.14,-0.99 0.13,-0.99 0.14,-1 0.14,-0.99 0.14,-0.99 0.14,-0.99 0.15,-0.99 0.14,-0.99 0.15,-0.99 0.15,-0.99 0.15,-0.99 0.15,-0.99 0.15,-0.99 0.15,-0.99 0.16,-0.98 0.16,-0.99 0.16,-0.99 0.16,-0.99 0.16,-0.98 0.17,-0.99 0.17,-0.98 0.17,-0.99 0.17,-0.98 0.18,-0.99 0.18,-0.98 0.18,-0.99 0.18,-0.98 0.19,-0.98 0.19,-0.98 0.2,-0.98 0.2,-0.98 0.2,-0.98 0.21,-0.97 0.22,-0.98 0.22,-0.97 0.22,-0.97 0.23,-0.97 0.24,-0.97 0.25,-0.97 0.25,-0.96 0.27,-0.96 0.28,-0.96 0.28,-0.95 0.31,-0.95 0.32,-0.94 0.33,-0.94 0.37,-0.92 0.39,-0.91 0.43,-0.9 0.48,-0.87 0.55,-0.82 0.67,-0.75 0.89,-0.58 1.54,0.14 2,2.35 0.86,1.73 0.49,1.2 0.41,1.11 0.37,1.08 0.34,1.08 0.32,1.06 0.3,1.05 0.28,1.05 0.28,1.04 0.26,1.04 0.25,1.04 0.24,1.03 0.23,1.03 0.23,1.03 0.22,1.03 0.22,1.02 0.21,1.03 0.2,1.02 0.2,1.02 0.2,1.02 0.19,1.02 0.19,1.02 0.18,1.02 0.18,1.02 0.18,1.01 0.18,1.02 0.17,1.01 0.17,1.02 0.17,1.01 0.16,1.02 0.16,1.01 0.16,1.01 0.16,1.01 0.16,1.02 0.16,1.01 0.15,1.01 0.15,1.01 0.15,1.01 0.15,1.01 0.14,1.01 0.15,1.01 0.14,1.01 0.15,1.01 0.14,1.01 0.14,1.01 0.14,1.01 0.13,1.01 0.14,1 0.14,1.01 0.13,1.01 0.13,1.01 0.14,1 0.13,1.01 0.13,1.01 0.13,1.01 0.13,1 0.12,1.01 0.13,1.01 0.13,1 0.12,1.01 0.13,1 0.12,1.01 0.12,1.01 0.12,1 0.13,1.01 0.12,1 0.12,1.01 0.12,1 0.11,1.01 0.12,1 0.12,1.01 0.12,1 0.11,1.01 0.12,1 0.12,1.01 0.11,1 0.11,1.01 0.12,1 0.11,1.01 0.11,1 0.12,1 0.11,1.01 0.11,1 0.11,1.01 0.11,1 0.11,1 0.11,1.01 0.11,1 0.11,1 0.11,1.01 0.11,1 0.1,1 0.11,1.01 0.11,1 0.11,1 0.1,1.01 0.11,1 0.1,1 0.11,1.01 0.11,1 0.1,1 0.1,1 0.11,1.01 0.1,1 0.11,1 0.1,1.01 0.1,1 0.11,1 0.1,1 0.1,1.01 0.1,1 0.11,1 0.1,1 0.1,1 0.1,1.01 0.1,1 0.1,1 0.1,1 0.1,1 0.1,1.01 0.1,1 0.1,1 0.1,1 0.1,1 0.1,1.01 0.1,1 0.1,1 0.1,1 0.1,1 0.09,1 0.1,1.01 0.1,1 0.1,1 0.1,1 0.09,1 0.1,1 0.1,1 0.1,1.01 0.09,1 0.1,1 0.1,1 0.09,1 0.1,1 0.1,1 0.09,1 0.1,1 0.1,1.01 0.09,1 0.1,1 0.1,1 0.09,1 0.1,1 0.09,1 0.1,1 0.09,1 0.1,1 0.1,1 0.09,1 0.1,1 0.09,1 0.1,1.01 0.09,1 0.1,1 0.09,1 0.1,1 0.09,1 0.1,1 0.09,1 0.1,1 0.09,1 0.1,1 0.09,1 0.1,1 0.09,1 0.1,1 0.09,1 0.1,1 0.09,1 0.1,1 0.09,1 0.1,1 0.09,1 0.1,1 0.09,1 0.1,1 0.09,1 0.1,1 0.09,1 0.1,1 0.09,1 0.1,1 0.09,1 0.1,1 0.09,1 0.1,0.99 0.09,1 0.1,1 0.09,1 0.1,1 0.09,1 0.1,1 0.1,1 0.09,1 0.1,1 0.09,1 0.1,1 0.1,1 0.09,0.99 0.1,1 0.09,1 0.1,1 0.1,1 0.09,1 0.1,1 0.1,1 0.09,1 0.1,0.99 0.1,1 0.1,1 0.09,1 0.1,1 0.1,1 0.1,1 0.1,1 0.09,0.99 0.1,1 0.1,1 0.1,1 0.1,1 0.1,1 0.1,0.99 0.1,1 0.09,1 0.1,1 0.1,1 0.1,0.99 0.1,1 0.1,1 0.11,1 0.1,1 0.1,0.99 0.1,1 0.1,1 0.1,1 0.1,0.99 0.11,1 0.1,1 0.1,1 0.1,1 0.11,0.99 0.1,1 0.1,1 0.11,0.99 0.1,1 0.11,1 0.1,1 0.11,0.99 0.1,1 0.11,1 0.11,0.99 0.1,1 0.11,1 0.11,0.99 0.1,1 0.11,1 0.11,0.99 0.11,1 0.11,1 0.11,0.99 0.11,1 0.11,1 0.11,0.99 0.11,1 0.11,0.99 0.11,1 0.11,1 0.12,0.99 0.11,1 0.11,0.99 0.12,1 0.11,0.99 0.12,1 0.12,0.99 0.11,1 0.12,0.99 0.12,1 0.11,0.99 0.12,1 0.12,0.99 0.12,1 0.12,0.99 0.13,1 0.12,0.99 0.12,1 0.12,0.99 0.13,0.99 0.12,1 0.13,0.99 0.13,0.99 0.12,1 0.13,0.99 0.13,0.99 0.13,1 0.13,0.99 0.13,0.99 0.14,1 0.13,0.99 0.14,0.99 0.13,0.99 0.14,0.99 0.14,0.99 0.14,1 0.14,0.99 0.14,0.99 0.14,0.99 0.15,0.99 0.14,0.99 0.15,0.99 0.15,0.99 0.15,0.99 0.15,0.99 0.16,0.98 0.15,0.99 0.16,0.99 0.16,0.99 0.16,0.99 0.17,0.98 0.16,0.99 0.17,0.98 0.17,0.99 0.17,0.98 0.18,0.99 0.18,0.98 0.18,0.98 0.19,0.99 0.18,0.98 0.2,0.98 0.19,0.98 0.2,0.98 0.2,0.98 0.21,0.97 0.22,0.98 0.22,0.97 0.22,0.97 0.23,0.97 0.24,0.97 0.25,0.97 0.25,0.96 0.27,0.96 0.27,0.96 0.29,0.95 0.3,0.95 0.32,0.94 0.34,0.94 0.36,0.92 0.39,0.92 0.43,0.89 0.47,0.87 0.55,0.83 0.66,0.76 0.87,0.6 1.47,-0.05 2,-2.17 0.92,-1.81 0.51,-1.22 0.41,-1.12 0.38,-1.08 0.34,-1.08 0.32,-1.06 0.3,-1.05 0.29,-1.05 0.27,-1.04 0.27,-1.04 0.25,-1.04 0.24,-1.03 0.24,-1.04 0.22,-1.02 0.23,-1.03 0.21,-1.03 0.21,-1.02 0.21,-1.03 0.2,-1.02 0.19,-1.02 0.2,-1.02 0.19,-1.02 0.18,-1.01 0.18,-1.02 0.18,-1.02 0.18,-1.01 0.17,-1.02 0.17,-1.01 0.17,-1.02 0.16,-1.01 0.17,-1.02 0.16,-1.01 0.16,-1.01 0.15,-1.01 0.16,-1.02 0.15,-1.01 0.15,-1.01 0.15,-1.01 0.15,-1.01 0.15,-1.01 0.15,-1.01 0.14,-1.01 0.14,-1.01 0.14,-1.01 0.14,-1.01 0.14,-1 0.14,-1.01 0.14,-1.01 0.13,-1.01 0.14,-1.01 0.13,-1 0.13,-1.01 0.13,-1.01 0.13,-1.01 0.13,-1 0.13,-1.01 0.13,-1.01 0.13,-1 0.12,-1.01 0.13,-1.01 0.12,-1 0.13,-1.01 0.12,-1 0.12,-1.01 0.12,-1 0.12,-1.01 0.12,-1.01 0.12,-1 0.12,-1.01 0.12,-1 0.12,-1.01 0.12,-1 0.11,-1.01 0.12,-1 0.11,-1.01 0.12,-1 0.11,-1 0.12,-1.01 0.11,-1 0.11,-1.01 0.12,-1 0.11,-1.01 0.11,-1 0.11,-1 0.11,-1.01 0.11,-1 0.11,-1 0.11,-1.01 0.11,-1 0.11,-1.01 0.11,-1 0.1,-1 0.11,-1.01 0.11,-1 0.11,-1 0.1,-1.01 0.11,-1 0.1,-1 0.11,-1 0.11,-1.01 0.1,-1 0.11,-1 0.1,-1.01 0.1,-1 0.11,-1 0.1,-1 0.1,-1.01 0.11,-1 0.1,-1 0.1,-1 0.1,-1.01 0.11,-1 0.1,-1 0.1,-1 0.1,-1 0.1,-1.01 0.1,-1 0.1,-1 0.1,-1 0.1,-1 0.1,-1.01 0.1,-1 0.1,-1 0.1,-1 0.1,-1 0.1,-1.01 0.1,-1 0.1,-1 0.1,-1 0.1,-1 0.09,-1 0.1,-1.01 0.1,-1 0.1,-1 0.1,-1 0.09,-1 0.1,-1 0.1,-1 0.09,-1 0.1,-1.01 0.1,-1 0.1,-1 0.09,-1 0.1,-1 0.1,-1 0.09,-1 0.1,-1 0.09,-1 0.1,-1.01 0.1,-1 0.09,-1 0.1,-1 0.09,-1 0.1,-1 0.1,-1 0.09,-1 0.1,-1 0.09,-1 0.1,-1 0.09,-1 0.1,-1 0.09,-1 0.1,-1 0.09,-1 0.1,-1.01 0.09,-1 0.1,-1 0.09,-1 0.1,-1 0.09,-1 0.1,-1 0.09,-1 0.1,-1 0.09,-1 0.1,-1 0.09,-1 0.1,-1 0.09,-1 0.1,-1 0.09,-1 0.1,-1 0.09,-1 0.1,-1 0.09,-1 0.1,-1 0.09,-1 0.1,-1 0.09,-1 0.1,-1 0.09,-1 0.1,-0.99 0.09,-1 0.1,-1 0.09,-1 0.1,-1 0.09,-1 0.1,-1 0.1,-1 0.09,-1 0.1,-1 0.09,-1 0.1,-1 0.09,-1 0.1,-1 0.1,-1 0.09,-1 0.1,-0.99 0.09,-1 0.1,-1 0.1,-1 0.09,-1 0.1,-1 0.1,-1 0.09,-1 0.1,-1 0.1,-0.99 0.09,-1 0.1,-1 0.1,-1 0.1,-1 0.09,-1 0.1,-1 0.1,-1 0.1,-0.99 0.09,-1 0.1,-1 0.1,-1 0.1,-1 0.1,-1 0.1,-0.99 0.1,-1 0.1,-1 0.1,-1 0.1,-1 0.1,-0.99 0.1,-1 0.1,-1 0.1,-1 0.1,-1 0.1,-0.99 0.1,-1 0.1,-1 0.1,-1 0.1,-1 0.1,-0.99 0.11,-1 0.1,-1 0.1,-1 0.1,-0.99 0.11,-1 0.1,-1 0.11,-1 0.1,-0.99 0.1,-1 0.11,-1 0.1,-0.99 0.11,-1 0.1,-1 0.11,-1 0.11,-0.99 0.1,-1 0.11,-1 0.11,-0.99 0.1,-1 0.11,-1 0.11,-0.99 0.11,-1 0.11,-1 0.11,-0.99 0.11,-1 0.11,-0.99 0.11,-1 0.11,-1 0.11,-0.99 0.11,-1 0.11,-0.99 0.12,-1 0.11,-1 0.11,-0.99 0.12,-1 0.11,-0.99 0.12,-1 0.11,-0.99 0.12,-1 0.12,-0.99 0.11,-1 0.12,-0.99 0.12,-1 0.12,-0.99 0.12,-1 0.12,-0.99 0.12,-1 0.13,-0.99 0.12,-0.99 0.12,-1 0.13,-0.99 0.12,-1 0.13,-0.99 0.12,-0.99 0.13,-1 0.13,-0.99 0.13,-0.99 0.13,-1 0.13,-0.99 0.13,-0.99 0.13,-0.99 0.14,-1 0.13,-0.99 0.14,-0.99 0.13,-0.99 0.14,-0.99 0.14,-1 0.14,-0.99 0.14,-0.99 0.15,-0.99 0.14,-0.99 0.15,-0.99 0.15,-0.99 0.14,-0.99 0.16,-0.99 0.15,-0.99 0.15,-0.98 0.16,-0.99 0.15,-0.99 0.16,-0.99 0.16,-0.99 0.17,-0.98 0.16,-0.99 0.17,-0.98 0.17,-0.99 0.18,-0.98 0.17,-0.99 0.18,-0.98 0.18,-0.99 0.18,-0.98 0.19,-0.98 0.19,-0.98 0.2,-0.98 0.2,-0.98 0.2,-0.98 0.21,-0.97 0.21,-0.98 0.22,-0.97 0.23,-0.97 0.23,-0.98 0.23,-0.96 0.25,-0.97 0.25,-0.96 0.27,-0.97 0.27,-0.95 0.28,-0.96 0.3,-0.95 0.32,-0.94 0.34,-0.94 0.35,-0.92 0.39,-0.92 0.42,-0.9 0.47,-0.87 0.54,-0.84 0.64,-0.77 0.83,-0.62 1.33,-0.13 2,1.85 1.09,2.01 0.53,1.26 0.43,1.12 0.38,1.09 0.35,1.08 0.32,1.06 0.31,1.06 0.29,1.05 0.27,1.04 0.27,1.04 0.25,1.04 0.25,1.03 0.23,1.03 0.23,1.03 0.22,1.03 0.22,1.03 0.21,1.02 0.21,1.03 0.2,1.02 0.2,1.02 0.19,1.02 0.19,1.02 0.18,1.02 0.19,1.01 0.18,1.02 0.17,1.02 0.17,1.01 0.18,1.02 0.16,1.01 0.17,1.01 0.16,1.02 0.17,1.01 0.15,1.01 0.16,1.02 0.16,1.01 0.15,1.01 0.15,1.01 0.15,1.01 0.15,1.01 0.15,1.01 0.15,1.01 0.14,1.01 0.14,1.01 0.14,1.01 0.14,1.01 0.14,1.01 0.14,1.01 0.14,1 0.13,1.01 0.14,1.01 0.13,1.01 0.13,1 0.14,1.01 0.13,1.01 0.13,1.01 0.13,1 0.12,1.01 0.13,1.01 0.13,1 0.12,1.01 0.13,1 0.12,1.01 0.12,1.01 0.13,1 0.12,1.01 0.12,1 0.12,1.01 0.12,1 0.12,1.01 0.12,1 0.11,1.01 0.12,1 0.12,1.01 0.11,1 0.12,1.01 0.11,1 0.12,1.01 0.11,1 0.12,1.01 0.11,1 0.11,1.01 0.11,1 0.12,1 0.11,1.01 0.11,1 0.11,1 0.11,1.01 0.11,1 0.11,1.01 0.1,1 0.11,1 0.11,1.01 0.11,1 0.11,1 0.1,1.01 0.11,1 0.11,1 0.1,1.01 0.11,1 0.1,1 0.11,1 0.1,1.01 0.11,1 0.1,1 0.1,1 0.11,1.01 0.1,1 0.1,1 0.11,1 0.1,1.01 0.1,1 0.1,1 0.1,1 0.11,1.01 0.1,1 0.1,1 0.1,1 0.1,1 0.1,1.01 0.1,1 0.1,1 0.1,1 0.1,1 0.1,1.01 0.1,1 0.1,1 0.1,1 0.1,1 0.09,1 0.1,1.01 0.1,1 0.1,1 0.1,1 0.1,1 0.09,1 0.1,1 0.1,1.01 0.1,1 0.09,1 0.1,1 0.1,1 0.09,1 0.1,1 0.1,1 0.09,1.01 0.1,1 0.1,1 0.09,1 0.1,1 0.1,1 0.09,1 0.1,1 0.09,1 0.1,1 0.09,1 0.1,1 0.1,1.01 0.09,1 0.1,1 0.09,1 0.1,1 0.09,1 0.1,1 0.09,1 0.1,1 0.09,1 0.1,1 0.09,1 0.1,1 0.09,1 0.1,1 0.09,1 0.1,1 0.09,1 0.1,1 0.09,1 0.1,1 0.09,1 0.1,1 0.09,1 0.1,1 0.09,1 0.1,1 0.09,1 0.1,1 0.09,1 0.1,1 0.09,1 0.1,1 0.09,1 0.1,1 0.09,1 0.1,1 0.09,1 0.1,1 0.09,1 0.1,1 0.09,1 0.1,0.99 0.09,1 0.1,1 0.1,1 0.09,1 0.1,1 0.09,1 0.1,1 0.1,1 0.09,1 0.1,1 0.09,1 0.1,0.99 0.1,1 0.09,1 0.1,1 0.1,1 0.09,1 0.1,1 0.1,1 0.1,1 0.09,0.99 0.1,1 0.1,1 0.1,1 0.09,1 0.1,1 0.1,1 0.1,0.99 0.1,1 0.1,1 0.1,1 0.09,1 0.1,1 0.1,0.99 0.1,1 0.1,1 0.1,1 0.1,1 0.1,0.99 0.1,1 0.1,1 0.11,1 0.1,0.99 0.1,1 0.1,1 0.1,1 0.1,1 0.11,0.99 0.1,1 0.1,1 0.1,1 0.11,0.99 0.1,1 0.11,1 0.1,1 0.1,0.99 0.11,1 0.1,1 0.11,0.99 0.11,1 0.1,1 0.11,0.99 0.11,1 0.1,1 0.11,0.99 0.11,1 0.11,1 0.1,0.99 0.11,1 0.11,1 0.11,0.99 0.11,1 0.11,1 0.11,0.99 0.12,1 0.11,0.99 0.11,1 0.11,1 0.12,0.99 0.11,1 0.11,0.99 0.12,1 0.11,0.99 0.12,1 0.12,0.99 0.11,1 0.12,0.99 0.12,1 0.12,0.99 0.12,1 0.12,0.99 0.12,1 0.12,0.99 0.12,1 0.12,0.99 0.13,0.99 0.12,1 0.12,0.99 0.13,1 0.13,0.99 0.12,0.99 0.13,1 0.13,0.99 0.13,0.99 0.13,0.99 0.13,1 0.14,0.99 0.13,0.99 0.13,0.99 0.14,1 0.14,0.99 0.13,0.99 0.14,0.99 0.14,0.99 0.15,0.99 0.14,0.99 0.14,0.99 0.15,0.99 0.15,0.99 0.14,0.99 0.15,0.99 0.16,0.99 0.15,0.99 0.15,0.99 0.16,0.99 0.16,0.98 0.16,0.99 0.17,0.99 0.16,0.99 0.17,0.98 0.17,0.99 0.17,0.98 0.18,0.99 0.17,0.98 0.18,0.98 0.19,0.98 0.19,0.99 0.19,0.98 0.19,0.98 0.2,0.98 0.2,0.97 0.21,0.98 0.21,0.98 0.22,0.97 0.22,0.97 0.23,0.97 0.24,0.97 0.24,0.97 0.25,0.97 0.27,0.96 0.27,0.96 0.28,0.95 0.3,0.95 0.31,0.94 0.33,0.94 0.36,0.93 0.38,0.92 0.41,0.9 0.46,0.88 0.53,0.84 0.62,0.79 0.79,0.66 1.19,0.27 2,-1.49 1.35,-2.36 0.57,-1.32 0.42,-1.13 0.38,-1.09 0.35,-1.08 0.33,-1.06 0.3,-1.05 0.29,-1.05 0.28,-1.05 0.26,-1.04 0.26,-1.04 0.24,-1.03 0.24,-1.03 0.23,-1.03 0.22,-1.03 0.21,-1.03 0.22,-1.02 0.2,-1.02 0.2,-1.03 0.2,-1.02 0.19,-1.02 0.19,-1.02 0.19,-1.01 0.18,-1.02 0.18,-1.02 0.18,-1.01 0.17,-1.02 0.17,-1.01 0.17,-1.02 0.16,-1.01 0.17,-1.02 0.16,-1.01 0.16,-1.01 0.16,-1.01 0.15,-1.01 0.16,-1.02 0.15,-1.01 0.15,-1.01 0.15,-1.01 0.14,-1.01 0.15,-1.01 0.14,-1.01 0.15,-1.01 0.14,-1.01 0.14,-1.01 0.14,-1 0.14,-1.01 0.13,-1.01 0.14,-1.01 0.13,-1.01 0.14,-1 0.13,-1.01 0.13,-1.01 0.13,-1.01 0.13,-1 0.13,-1.01 0.13,-1.01 0.12,-1 0.13,-1.01 0.13,-1.01 0.12,-1 0.12,-1.01 0.13,-1 0.12,-1.01 0.12,-1.01 0.12,-1 0.12,-1.01 0.12,-1 0.12,-1.01 0.12,-1 0.12,-1.01 0.11,-1 0.12,-1.01 0.12,-1 0.11,-1.01 0.12,-1 0.11,-1.01 0.12,-1 0.11,-1 0.11,-1.01 0.12,-1 0.11,-1.01 0.11,-1 0.11,-1 0.11,-1.01 0.11,-1 0.11,-1.01 0.11,-1 0.11,-1 0.11,-1.01 0.11,-1 0.11,-1 0.1,-1.01 0.11,-1 0.11,-1 0.1,-1.01 0.11,-1 0.11,-1 0.1,-1.01 0.11,-1 0.1,-1 0.11,-1 0.1,-1.01 0.1,-1 0.11,-1 0.1,-1 0.1,-1.01 0.11,-1 0.1,-1 0.1,-1 0.11,-1.01 0.1,-1 0.1,-1 0.1,-1 0.1,-1.01 0.1,-1 0.1,-1 0.1,-1 0.1,-1 0.1,-1.01 0.1,-1 0.1,-1 0.1,-1 0.1,-1 0.1,-1.01 0.1,-1 0.1,-1 0.1,-1 0.1,-1 0.1,-1 0.1,-1.01 0.09,-1 0.1,-1 0.1,-1 0.1,-1 0.09,-1 0.1,-1 0.1,-1 0.1,-1.01 0.09,-1 0.1,-1 0.1,-1 0.09,-1 0.1,-1 0.1,-1 0.09,-1 0.1,-1 0.1,-1.01 0.09,-1 0.1,-1 0.09,-1 0.1,-1 0.1,-1 0.09,-1 0.1,-1 0.09,-1 0.1,-1 0.09,-1 0.1,-1 0.1,-1 0.09,-1 0.1,-1.01 0.09,-1 0.1,-1 0.09,-1 0.1,-1 0.09,-1 0.1,-1 0.09,-1 0.1,-1 0.09,-1 0.1,-1 0.09,-1 0.1,-1 0.09,-1 0.1,-1 0.09,-1 0.1,-1 0.09,-1 0.1,-1 0.09,-1 0.1,-1 0.09,-1 0.1,-1 0.09,-1 0.1,-1 0.09,-1 0.1,-1 0.09,-1 0.1,-1 0.09,-1 0.1,-1 0.09,-1 0.1,-1 0.09,-0.99 0.1,-1 0.09,-1 0.1,-1 0.09,-1 0.1,-1 0.09,-1 0.1,-1 0.1,-1 0.09,-1 0.1,-1 0.09,-1 0.1,-1 0.1,-0.99 0.09,-1 0.1,-1 0.09,-1 0.1,-1 0.1,-1 0.09,-1 0.1,-1 0.1,-1 0.1,-1 0.09,-0.99 0.1,-1 0.1,-1 0.09,-1 0.1,-1 0.1,-1 0.1,-1 0.1,-0.99 0.09,-1 0.1,-1 0.1,-1 0.1,-1 0.1,-1 0.1,-0.99 0.1,-1 0.1,-1 0.1,-1 0.1,-1 0.1,-0.99 0.1,-1 0.1,-1 0.1,-1 0.1,-1 0.1,-0.99 0.1,-1 0.1,-1 0.1,-1 0.11,-1 0.1,-0.99 0.1,-1 0.1,-1 0.11,-1 0.1,-0.99 0.1,-1 0.11,-1 0.1,-1 0.1,-0.99 0.11,-1 0.1,-1 0.11,-0.99 0.1,-1 0.11,-1 0.11,-0.99 0.1,-1 0.11,-1 0.11,-0.99 0.1,-1 0.11,-1 0.11,-0.99 0.11,-1 0.11,-1 0.11,-0.99 0.11,-1 0.11,-1 0.11,-0.99 0.11,-1 0.11,-0.99 0.11,-1 0.11,-1 0.12,-0.99 0.11,-1 0.11,-0.99 0.12,-1 0.11,-0.99 0.12,-1 0.11,-1 0.12,-0.99 0.12,-1 0.11,-0.99 0.12,-1 0.12,-0.99 0.12,-1 0.12,-0.99 0.12,-0.99 0.12,-1 0.12,-0.99 0.13,-1 0.12,-0.99 0.12,-1 0.13,-0.99 0.12,-0.99 0.13,-1 0.13,-0.99 0.12,-0.99 0.13,-1 0.13,-0.99 0.13,-0.99 0.14,-0.99 0.13,-1 0.13,-0.99 0.14,-0.99 0.13,-0.99 0.14,-1 0.14,-0.99 0.14,-0.99 0.14,-0.99 0.14,-0.99 0.14,-0.99 0.15,-0.99 0.14,-0.99 0.15,-0.99 0.15,-0.99 0.15,-0.99 0.15,-0.99 0.15,-0.99 0.16,-0.99 0.16,-0.98 0.15,-0.99 0.17,-0.99 0.16,-0.99 0.16,-0.98 0.17,-0.99 0.17,-0.98 0.17,-0.99 0.18,-0.98 0.18,-0.99 0.18,-0.98 0.18,-0.98 0.19,-0.98 0.19,-0.98 0.19,-0.98 0.2,-0.98 0.21,-0.98 0.2,-0.98 0.21,-0.97 0.22,-0.98 0.23,-0.97 0.22,-0.97 0.24,-0.97 0.24,-0.97 0.26,-0.96 0.26,-0.96 0.27,-0.96 0.28,-0.96 0.3,-0.95 0.31,-0.94 0.34,-0.94 0.35,-0.93 0.38,-0.91 0.42,-0.91 0.46,-0.87 0.52,-0.85 0.62,-0.78 0.79,-0.67 1.19,-0.27 2,1.48 1.35,2.37 0.57,1.33 0.43,1.12 0.38,1.09 0.35,1.08 0.32,1.06 0.31,1.06 0.29,1.05 0.27,1.04 0.27,1.04 0.25,1.04 0.24,1.03 0.24,1.03 0.23,1.03 0.22,1.03 0.22,1.03 0.21,1.02 0.21,1.03 0.2,1.02 0.19,1.02 0.2,1.02 0.19,1.02 0.18,1.02 0.18,1.01 0.18,1.02 0.18,1.02 0.17,1.01 0.17,1.02 0.17,1.01 0.17,1.01 0.16,1.02 0.16,1.01 0.16,1.01 0.16,1.02 0.16,1.01 0.15,1.01 0.15,1.01 0.15,1.01 0.15,1.01 0.15,1.01 0.14,1.01 0.15,1.01 0.14,1.01 0.14,1.01 0.14,1.01 0.14,1.01 0.14,1 0.14,1.01 0.13,1.01 0.14,1.01 0.13,1.01 0.13,1 0.13,1.01 0.14,1.01 0.12,1.01 0.13,1 0.13,1.01 0.13,1.01 0.12,1 0.13,1.01 0.12,1 0.13,1.01 0.12,1.01 0.12,1 0.13,1.01 0.12,1 0.12,1.01 0.12,1 0.12,1.01 0.11,1 0.12,1.01 0.12,1 0.12,1.01 0.11,1 0.12,1.01 0.11,1 0.12,1.01 0.11,1 0.11,1.01 0.12,1 0.11,1 0.11,1.01 0.11,1 0.11,1.01 0.12,1 0.11,1 0.11,1.01 0.11,1 0.1,1 0.11,1.01 0.11,1 0.11,1.01 0.11,1 0.1,1 0.11,1.01 0.11,1 0.1,1 0.11,1 0.11,1.01 0.1,1 0.11,1 0.1,1.01 0.1,1 0.11,1 0.1,1 0.11,1.01 0.1,1 0.1,1 0.1,1 0.11,1.01 0.1,1 0.1,1 0.1,1 0.1,1.01 0.11,1 0.1,1 0.1,1 0.1,1 0.1,1.01 0.1,1 0.1,1 0.1,1 0.1,1 0.1,1.01 0.1,1 0.1,1 0.1,1 0.09,1 0.1,1 0.1,1.01 0.1,1 0.1,1 0.1,1 0.09,1 0.1,1 0.1,1 0.1,1.01 0.09,1 0.1,1 0.1,1 0.1,1 0.09,1 0.1,1 0.1,1 0.09,1 0.1,1.01 0.09,1 0.1,1 0.1,1 0.09,1 0.1,1 0.1,1 0.09,1 0.1,1 0.09,1 0.1,1 0.09,1 0.1,1.01 0.09,1 0.1,1 0.1,1 0.09,1 0.1,1 0.09,1 0.1,1 0.09,1 0.1,1 0.09,1 0.1,1 0.09,1 0.1,1 0.09,1 0.1,1 0.09,1 0.1,1 0.09,1 0.1,1 0.09,1 0.1,1 0.09,1 0.1,1 0.09,1 0.1,1 0.09,1 0.09,1 0.1,1 0.09,1 0.1,1 0.09,1 0.1,1 0.1,1 0.09,1 0.1,1 0.09,1 0.1,1 0.09,1 0.1,1 0.09,0.99 0.1,1 0.09,1 0.1,1 0.09,1 0.1,1 0.1,1 0.09,1 0.1,1 0.09,1 0.1,1 0.1,1 0.09,0.99 0.1,1 0.1,1 0.09,1 0.1,1 0.1,1 0.09,1 0.1,1 0.1,1 0.09,0.99 0.1,1 0.1,1 0.1,1 0.09,1 0.1,1 0.1,1 0.1,0.99 0.1,1 0.1,1 0.09,1 0.1,1 0.1,1 0.1,0.99 0.1,1 0.1,1 0.1,1 0.1,1 0.1,0.99 0.1,1 0.1,1 0.1,1 0.1,1 0.1,0.99 0.11,1 0.1,1 0.1,1 0.1,0.99 0.1,1 0.11,1 0.1,1 0.1,0.99 0.11,1 0.1,1 0.1,1 0.11,0.99 0.1,1 0.11,1 0.1,1 0.11,0.99 0.1,1 0.11,1 0.11,0.99 0.1,1 0.11,1 0.11,0.99 0.11,1 0.1,1 0.11,0.99 0.11,1 0.11,1 0.11,0.99 0.11,1 0.11,0.99 0.11,1 0.11,1 0.12,0.99 0.11,1 0.11,0.99 0.11,1 0.12,1 0.11,0.99 0.12,1 0.11,0.99 0.12,1 0.11,0.99 0.12,1 0.12,0.99 0.12,1 0.11,0.99 0.12,1 0.12,0.99 0.12,1 0.13,0.99 0.12,1 0.12,0.99 0.12,0.99 0.13,1 0.12,0.99 0.13,0.99 0.12,1 0.13,0.99 0.13,0.99 0.13,1 0.13,0.99 0.13,0.99 0.13,1 0.13,0.99 0.14,0.99 0.13,0.99 0.14,1 0.13,0.99 0.14,0.99 0.14,0.99 0.14,0.99 0.14,0.99 0.15,0.99 0.14,0.99 0.15,0.99 0.14,0.99 0.15,0.99 0.15,0.99 0.15,0.99 0.16,0.99 0.15,0.99 0.16,0.99 0.16,0.98 0.16,0.99 0.16,0.99 0.17,0.98 0.17,0.99 0.17,0.99 0.17,0.98 0.17,0.98 0.18,0.99 0.18,0.98 0.19,0.98 0.18,0.99 0.19,0.98 0.2,0.98 0.2,0.98 0.2,0.97 0.21,0.98 0.21,0.98 0.22,0.97 0.22,0.97 0.23,0.97 0.24,0.97 0.24,0.97 0.25,0.96 0.26,0.97 0.28,0.95 0.28,0.96 0.3,0.95 0.31,0.94 0.33,0.94 0.35,0.93 0.38,0.92 0.42,0.9 0.46,0.88 0.52,0.84 0.63,0.79 0.79,0.66 1.19,0.27 2,-1.48 1.34,-2.37 0.57,-1.32 0.43,-1.13 0.38,-1.09 0.35,-1.08 0.33,-1.06 0.3,-1.06 0.29,-1.04 0.28,-1.05 0.26,-1.04 0.25,-1.04 0.25,-1.03 0.23,-1.03 0.23,-1.03 0.23,-1.03 0.21,-1.03 0.21,-1.02 0.21,-1.02 0.2,-1.03 0.2,-1.02 0.19,-1.02 0.19,-1.02 0.19,-1.01 0.18,-1.02 0.18,-1.02 0.17,-1.01 0.18,-1.02 0.17,-1.01 0.17,-1.02 0.16,-1.01 0.17,-1.02 0.16,-1.01 0.16,-1.01 0.15,-1.01 0.16,-1.02 0.15,-1.01 0.16,-1.01 0.15,-1.01 0.14,-1.01 0.15,-1.01 0.15,-1.01 0.14,-1.01 0.14,-1.01 0.15,-1.01 0.14,-1.01 0.14,-1 0.13,-1.01 0.14,-1.01 0.14,-1.01 0.13,-1.01 0.13,-1 0.14,-1.01 0.13,-1.01 0.13,-1.01 0.13,-1 0.13,-1.01 0.13,-1.01 0.12,-1 0.13,-1.01 0.12,-1.01 0.13,-1 0.12,-1.01 0.13,-1 0.12,-1.01 0.12,-1.01 0.12,-1 0.12,-1.01 0.12,-1 0.12,-1.01 0.12,-1 0.12,-1.01 0.11,-1 0.12,-1.01 0.12,-1 0.11,-1.01 0.12,-1 0.11,-1.01 0.12,-1 0.11,-1 0.11,-1.01 0.11,-1 0.12,-1.01 0.11,-1 0.11,-1 0.11,-1.01 0.11,-1 0.11,-1.01 0.11,-1 0.11,-1 0.11,-1.01 0.11,-1 0.1,-1 0.11,-1.01 0.11,-1 0.11,-1 0.1,-1.01 0.11,-1 0.1,-1 0.11,-1.01 0.1,-1 0.11,-1 0.1,-1 0.11,-1.01 0.1,-1 0.11,-1 0.1,-1.01 0.1,-1 0.11,-1 0.1,-1 0.1,-1.01 0.1,-1 0.11,-1 0.1,-1 0.1,-1 0.1,-1.01 0.1,-1 0.1,-1 0.1,-1 0.1,-1 0.1,-1.01 0.1,-1 0.1,-1 0.1,-1 0.1,-1 0.1,-1.01 0.1,-1 0.1,-1 0.1,-1 0.1,-1 0.1,-1 0.09,-1.01 0.1,-1 0.1,-1 0.1,-1 0.1,-1 0.09,-1 0.1,-1 0.1,-1.01 0.1,-1 0.09,-1 0.1,-1 0.1,-1 0.09,-1 0.1,-1 0.1,-1 0.09,-1 0.1,-1.01 0.1,-1 0.09,-1 0.1,-1 0.09,-1 0.1,-1 0.1,-1 0.09,-1 0.1,-1 0.09,-1 0.1,-1 0.09,-1 0.1,-1 0.09,-1 0.1,-1.01 0.09,-1 0.1,-1 0.09,-1 0.1,-1 0.1,-1 0.09,-1 0.1,-1 0.09,-1 0.1,-1 0.09,-1 0.1,-1 0.09,-1 0.1,-1 0.09,-1 0.09,-1 0.1,-1 0.09,-1 0.1,-1 0.09,-1 0.1,-1 0.09,-1 0.1,-1 0.09,-1 0.1,-1 0.09,-1 0.1,-1 0.09,-1 0.1,-1 0.09,-1 0.1,-1 0.09,-1 0.1,-1 0.09,-1 0.1,-1 0.1,-0.99 0.09,-1 0.1,-1 0.09,-1 0.1,-1 0.09,-1 0.1,-1 0.09,-1 0.1,-1 0.1,-1 0.09,-1 0.1,-1 0.09,-1 0.1,-0.99 0.1,-1 0.09,-1 0.1,-1 0.1,-1 0.09,-1 0.1,-1 0.1,-1 0.09,-1 0.1,-0.99 0.1,-1 0.1,-1 0.09,-1 0.1,-1 0.1,-1 0.1,-1 0.09,-0.99 0.1,-1 0.1,-1 0.1,-1 0.1,-1 0.1,-1 0.1,-0.99 0.1,-1 0.1,-1 0.1,-1 0.09,-1 0.1,-1 0.1,-0.99 0.11,-1 0.1,-1 0.1,-1 0.1,-0.99 0.1,-1 0.1,-1 0.1,-1 0.1,-1 0.11,-0.99 0.1,-1 0.1,-1 0.1,-1 0.11,-0.99 0.1,-1 0.1,-1 0.11,-1 0.1,-0.99 0.11,-1 0.1,-1 0.11,-0.99 0.1,-1 0.11,-1 0.1,-1 0.11,-0.99 0.11,-1 0.1,-1 0.11,-0.99 0.11,-1 0.11,-1 0.11,-0.99 0.11,-1 0.1,-0.99 0.11,-1 0.11,-1 0.11,-0.99 0.12,-1 0.11,-1 0.11,-0.99 0.11,-1 0.11,-0.99 0.12,-1 0.11,-0.99 0.12,-1 0.11,-1 0.12,-0.99 0.11,-1 0.12,-0.99 0.11,-1 0.12,-0.99 0.12,-1 0.12,-0.99 0.12,-1 0.12,-0.99 0.12,-1 0.12,-0.99 0.12,-0.99 0.12,-1 0.13,-0.99 0.12,-1 0.13,-0.99 0.12,-0.99 0.13,-1 0.13,-0.99 0.12,-0.99 0.13,-1 0.13,-0.99 0.13,-0.99 0.13,-1 0.14,-0.99 0.13,-0.99 0.14,-0.99 0.13,-0.99 0.14,-1 0.14,-0.99 0.14,-0.99 0.14,-0.99 0.14,-0.99 0.14,-0.99 0.14,-0.99 0.15,-0.99 0.15,-0.99 0.15,-0.99 0.15,-0.99 0.15,-0.99 0.15,-0.99 0.16,-0.99 0.15,-0.98 0.16,-0.99 0.16,-0.99 0.17,-0.99 0.16,-0.98 0.17,-0.99 0.17,-0.98 0.17,-0.99 0.18,-0.98 0.18,-0.99 0.18,-0.98 0.18,-0.98 0.19,-0.98 0.19,-0.99 0.19,-0.98 0.2,-0.97 0.2,-0.98 0.21,-0.98 0.21,-0.97 0.22,-0.98 0.22,-0.97 0.23,-0.97 0.24,-0.97 0.24,-0.97 0.26,-0.96 0.26,-0.96 0.27,-0.96 0.28,-0.96 0.3,-0.95 0.31,-0.94 0.33,-0.94 0.36,-0.93 0.38,-0.91 0.41,-0.91 0.46,-0.88 0.53,-0.84 0.62,-0.79 0.79,-0.66 1.19,-0.27 2,1.48 1.35,2.37 0.57,1.32 0.43,1.13 0.38,1.09 0.35,1.08 0.32,1.06 0.31,1.06 0.29,1.05 0.27,1.04 0.26,1.04 0.26,1.04 0.24,1.03 0.24,1.03 0.23,1.03 0.22,1.03 0.22,1.03 0.21,1.02 0.2,1.02 0.21,1.03 0.19,1.02 0.2,1.02 0.18,1.02 0.19,1.01 0.18,1.02 0.18,1.02 0.18,1.02 0.17,1.01 0.17,1.02 0.17,1.01 0.17,1.01 0.16,1.02 0.16,1.01 0.16,1.01 0.16,1.01 0.15,1.02 0.16,1.01 0.15,1.01 0.15,1.01 0.15,1.01 0.15,1.01 0.14,1.01 0.15,1.01 0.14,1.01 0.14,1.01 0.14,1.01 0.14,1.01 0.14,1 0.14,1.01 0.13,1.01 0.14,1.01 0.13,1.01 0.13,1 0.13,1.01 0.13,1.01 0.13,1 0.13,1.01 0.13,1.01 0.13,1 0.12,1.01 0.13,1.01 0.12,1 0.13,1.01 0.12,1.01 0.12,1 0.12,1.01 0.12,1 0.13,1.01 0.11,1 0.12,1.01 0.12,1 0.12,1.01 0.12,1 0.11,1.01 0.12,1 0.12,1.01 0.11,1 0.12,1.01 0.11,1 0.11,1.01 0.12,1 0.11,1 0.11,1.01 0.11,1 0.11,1.01 0.11,1 0.11,1 0.11,1.01 0.11,1 0.11,1 0.11,1.01 0.11,1 0.11,1 0.11,1.01 0.1,1 0.11,1 0.11,1.01 0.1,1 0.11,1 0.1,1.01 0.11,1 0.1,1 0.11,1.01 0.1,1 0.11,1 0.1,1 0.1,1.01 0.11,1 0.1,1 0.1,1 0.11,1.01 0.1,1 0.1,1 0.1,1 0.1,1.01 0.1,1 0.11,1 0.1,1 0.1,1 0.1,1.01 0.1,1 0.1,1 0.1,1 0.1,1 0.1,1.01 0.1,1 0.09,1 0.1,1 0.1,1 0.1,1 0.1,1.01 0.1,1 0.1,1 0.09,1 0.1,1 0.1,1 0.1,1 0.09,1.01 0.1,1 0.1,1 0.1,1 0.09,1 0.1,1 0.1,1 0.09,1 0.1,1 0.1,1.01 0.09,1 0.1,1 0.1,1 0.09,1 0.1,1 0.09,1 0.1,1 0.1,1 0.09,1 0.1,1 0.09,1 0.1,1 0.09,1.01 0.1,1 0.09,1 0.1,1 0.09,1 0.1,1 0.09,1 0.1,1 0.09,1 0.1,1 0.09,1 0.1,1 0.09,1 0.1,1 0.09,1 0.1,1 0.09,1 0.1,1 0.09,1 0.1,1 0.09,1 0.1,1 0.09,1 0.1,1 0.09,1 0.1,1 0.09,1 0.1,1 0.09,1 0.1,1 0.09,1 0.1,1 0.09,1 0.1,1 0.09,1 0.1,1 0.09,1 0.1,1 0.09,0.99 0.1,1 0.1,1 0.09,1 0.1,1 0.09,1 0.1,1 0.09,1 0.1,1 0.1,1 0.09,1 0.1,1 0.09,1 0.1,0.99 0.1,1 0.09,1 0.1,1 0.1,1 0.09,1 0.1,1 0.1,1 0.09,1 0.1,0.99 0.1,1 0.1,1 0.1,1 0.09,1 0.1,1 0.1,1 0.1,0.99 0.1,1 0.09,1 0.1,1 0.1,1 0.1,1 0.1,0.99 0.1,1 0.1,1 0.1,1 0.1,1 0.1,0.99 0.1,1 0.1,1 0.1,1 0.1,1 0.1,0.99 0.1,1 0.11,1 0.1,1 0.1,0.99 0.1,1 0.11,1 0.1,1 0.1,0.99 0.1,1 0.11,1 0.1,1 0.11,0.99 0.1,1 0.11,1 0.1,1 0.11,0.99 0.1,1 0.11,1 0.1,0.99 0.11,1 0.11,1 0.11,0.99 0.1,1 0.11,1 0.11,0.99 0.11,1 0.11,1 0.11,0.99 0.11,1 0.11,0.99 0.11,1 0.11,1 0.11,0.99 0.12,1 0.11,0.99 0.11,1 0.12,1 0.11,0.99 0.11,1 0.12,0.99 0.12,1 0.11,0.99 0.12,1 0.12,0.99 0.11,1 0.12,0.99 0.12,1 0.12,0.99 0.12,1 0.12,0.99 0.13,0.99 0.12,1 0.12,0.99 0.13,1 0.12,0.99 0.13,0.99 0.12,1 0.13,0.99 0.13,0.99 0.13,1 0.13,0.99 0.13,0.99 0.13,1 0.13,0.99 0.14,0.99 0.13,0.99 0.14,0.99 0.13,1 0.14,0.99 0.14,0.99 0.14,0.99 0.14,0.99 0.14,0.99 0.15,0.99 0.14,0.99 0.15,0.99 0.15,0.99 0.15,0.99 0.15,0.99 0.16,0.99 0.15,0.99 0.16,0.99 0.16,0.98 0.16,0.99 0.16,0.99 0.17,0.98 0.16,0.99 0.17,0.99 0.18,0.98 0.17,0.98 0.18,0.99 0.18,0.98 0.18,0.98 0.19,0.99 0.19,0.98 0.2,0.98 0.2,0.98 0.2,0.97 0.21,0.98 0.21,0.98 0.21,0.97 0.23,0.97 0.23,0.97 0.23,0.97 0.25,0.97 0.25,0.96 0.26,0.97 0.27,0.95 0.29,0.96 0.29,0.95 0.32,0.94 0.33,0.94 0.35,0.93 0.38,0.92 0.42,0.9 0.46,0.88 0.52,0.84 0.62,0.79 0.79,0.66 1.2,0.27 2,-1.48 1.34,-2.37 0.57,-1.32 0.43,-1.13 0.38,-1.09 0.35,-1.08 0.32,-1.06 0.31,-1.06 0.29,-1.05 0.27,-1.04 0.27,-1.04 0.25,-1.04 0.25,-1.03 0.23,-1.03 0.23,-1.03 0.22,-1.03 0.22,-1.03 0.21,-1.02 0.21,-1.02 0.2,-1.03 0.2,-1.02 0.19,-1.02 0.19,-1.02 0.18,-1.01 0.19,-1.02 0.18,-1.02 0.17,-1.01 0.18,-1.02 0.17,-1.01 0.16,-1.02 0.17,-1.01 0.16,-1.02 0.17,-1.01 0.15,-1.01 0.16,-1.01 0.16,-1.02 0.15,-1.01 0.15,-1.01 0.15,-1.01 0.15,-1.01 0.15,-1.01 0.15,-1.01 0.14,-1.01 0.14,-1.01 0.14,-1.01 0.15,-1.01 0.13,-1 0.14,-1.01 0.14,-1.01 0.13,-1.01 0.14,-1.01 0.13,-1.01 0.14,-1 0.13,-1.01 0.13,-1.01 0.13,-1 0.13,-1.01 0.12,-1.01 0.13,-1 0.13,-1.01 0.12,-1.01 0.13,-1 0.12,-1.01 0.12,-1 0.13,-1.01 0.12,-1.01 0.12,-1 0.12,-1.01 0.12,-1 0.12,-1.01 0.12,-1 0.11,-1.01 0.12,-1 0.12,-1.01 0.11,-1 0.12,-1.01 0.11,-1 0.12,-1.01 0.11,-1 0.12,-1 0.11,-1.01 0.11,-1 0.11,-1.01 0.12,-1 0.11,-1.01 0.11,-1 0.11,-1 0.11,-1.01 0.11,-1 0.11,-1 0.11,-1.01 0.1,-1 0.11,-1 0.11,-1.01 0.11,-1 0.1,-1 0.11,-1.01 0.11,-1 0.1,-1 0.11,-1.01 0.1,-1 0.11,-1 0.1,-1 0.11,-1.01 0.1,-1 0.1,-1 0.11,-1.01 0.1,-1 0.1,-1 0.11,-1 0.1,-1.01 0.1,-1 0.1,-1 0.11,-1 0.1,-1 0.1,-1.01 0.1,-1 0.1,-1 0.1,-1 0.1,-1 0.1,-1.01 0.1,-1 0.1,-1 0.1,-1 0.1,-1 0.1,-1.01 0.1,-1 0.1,-1 0.1,-1 0.1,-1 0.09,-1 0.1,-1.01 0.1,-1 0.1,-1 0.1,-1 0.09,-1 0.1,-1 0.1,-1 0.1,-1.01 0.09,-1 0.1,-1 0.1,-1 0.09,-1 0.1,-1 0.1,-1 0.09,-1 0.1,-1 0.1,-1.01 0.09,-1 0.1,-1 0.1,-1 0.09,-1 0.1,-1 0.09,-1 0.1,-1 0.09,-1 0.1,-1 0.1,-1 0.09,-1 0.1,-1 0.09,-1.01 0.1,-1 0.09,-1 0.1,-1 0.09,-1 0.1,-1 0.09,-1 0.1,-1 0.09,-1 0.1,-1 0.09,-1 0.1,-1 0.09,-1 0.1,-1 0.09,-1 0.1,-1 0.09,-1 0.1,-1 0.09,-1 0.1,-1 0.09,-1 0.1,-1 0.09,-1 0.1,-1 0.09,-1 0.1,-1 0.09,-1 0.1,-1 0.09,-1 0.1,-1 0.09,-1 0.1,-1 0.09,-1 0.1,-1 0.09,-1 0.1,-1 0.09,-0.99 0.1,-1 0.09,-1 0.1,-1 0.1,-1 0.09,-1 0.1,-1 0.09,-1 0.1,-1 0.09,-1 0.1,-1 0.1,-1 0.09,-1 0.1,-0.99 0.09,-1 0.1,-1 0.1,-1 0.09,-1 0.1,-1 0.1,-1 0.09,-1 0.1,-1 0.1,-0.99 0.1,-1 0.09,-1 0.1,-1 0.1,-1 0.1,-1 0.09,-1 0.1,-0.99 0.1,-1 0.1,-1 0.1,-1 0.1,-1 0.1,-1 0.1,-0.99 0.09,-1 0.1,-1 0.1,-1 0.1,-1 0.1,-1 0.1,-0.99 0.1,-1 0.1,-1 0.11,-1 0.1,-1 0.1,-0.99 0.1,-1 0.1,-1 0.1,-1 0.1,-0.99 0.11,-1 0.1,-1 0.1,-1 0.11,-0.99 0.1,-1 0.1,-1 0.11,-1 0.1,-0.99 0.11,-1 0.1,-1 0.11,-0.99 0.1,-1 0.11,-1 0.1,-1 0.11,-0.99 0.11,-1 0.1,-1 0.11,-0.99 0.11,-1 0.11,-1 0.1,-0.99 0.11,-1 0.11,-0.99 0.11,-1 0.11,-1 0.11,-0.99 0.11,-1 0.12,-1 0.11,-0.99 0.11,-1 0.11,-0.99 0.12,-1 0.11,-0.99 0.11,-1 0.12,-1 0.11,-0.99 0.12,-1 0.12,-0.99 0.11,-1 0.12,-0.99 0.12,-1 0.12,-0.99 0.12,-1 0.12,-0.99 0.12,-1 0.12,-0.99 0.12,-0.99 0.12,-1 0.13,-0.99 0.12,-1 0.12,-0.99 0.13,-0.99 0.13,-1 0.12,-0.99 0.13,-0.99 0.13,-1 0.13,-0.99 0.13,-0.99 0.13,-1 0.14,-0.99 0.13,-0.99 0.13,-0.99 0.14,-0.99 0.14,-1 0.13,-0.99 0.14,-0.99 0.14,-0.99 0.15,-0.99 0.14,-0.99 0.14,-0.99 0.15,-0.99 0.15,-0.99 0.14,-0.99 0.15,-0.99 0.16,-0.99 0.15,-0.99 0.16,-0.99 0.15,-0.99 0.16,-0.98 0.16,-0.99 0.17,-0.99 0.16,-0.98 0.17,-0.99 0.17,-0.98 0.17,-0.99 0.18,-0.98 0.17,-0.99 0.18,-0.98 0.19,-0.98 0.19,-0.98 0.19,-0.99 0.19,-0.98 0.2,-0.97 0.2,-0.98 0.21,-0.98 0.21,-0.97 0.22,-0.98 0.22,-0.97 0.23,-0.97 0.24,-0.97 0.24,-0.97 0.25,-0.96 0.27,-0.97 0.27,-0.95 0.28,-0.96 0.3,-0.95 0.31,-0.94 0.33,-0.94 0.36,-0.93 0.38,-0.92 0.41,-0.9 0.46,-0.88 0.53,-0.84 0.62,-0.79 0.79,-0.66 1.19,-0.27 2,1.48 1.35,2.37 0.57,1.32 0.43,1.13 0.38,1.09 0.34,1.08 0.33,1.06 0.3,1.06 0.29,1.05 0.28,1.04 0.26,1.04 0.26,1.04 0.24,1.03 0.24,1.03 0.23,1.03 0.22,1.03 0.22,1.03 0.21,1.02 0.2,1.02 0.2,1.03 0.2,1.02 0.19,1.02 0.19,1.02 0.19,1.01 0.18,1.02 0.18,1.02 0.18,1.01 0.17,1.02 0.17,1.02 0.17,1.01 0.16,1.01 0.17,1.02 0.16,1.01 0.16,1.01 0.16,1.01 0.15,1.02 0.16,1.01 0.15,1.01 0.15,1.01 0.15,1.01 0.14,1.01 0.15,1.01 0.14,1.01 0.15,1.01 0.14,1.01 0.14,1.01 0.14,1.01 0.14,1 0.13,1.01 0.14,1.01 0.13,1.01 0.14,1.01 0.13,1 0.13,1.01 0.13,1.01 0.13,1 0.13,1.01 0.13,1.01 0.12,1 0.13,1.01 0.13,1.01 0.12,1 0.12,1.01 0.13,1.01 0.12,1 0.12,1.01 0.12,1 0.12,1.01 0.12,1 0.12,1.01 0.12,1 0.12,1.01 0.12,1 0.11,1.01 0.12,1 0.11,1.01 0.12,1 0.11,1.01 0.12,1 0.11,1.01 0.11,1 0.12,1 0.11,1.01 0.11,1 0.11,1.01 0.11,1 0.11,1 0.11,1.01 0.11,1 0.11,1 0.11,1.01 0.11,1 0.11,1 0.1,1.01 0.11,1 0.11,1 0.1,1.01 0.11,1 0.11,1 0.1,1.01 0.11,1 0.1,1 0.11,1.01 0.1,1 0.1,1 0.11,1 0.1,1.01 0.11,1 0.1,1 0.1,1 0.1,1.01 0.11,1 0.1,1 0.1,1 0.1,1.01 0.1,1 0.1,1 0.1,1 0.1,1 0.11,1.01 0.1,1 0.1,1 0.1,1 0.1,1 0.09,1 0.1,1.01 0.1,1 0.1,1 0.1,1 0.1,1 0.1,1 0.1,1.01 0.09,1 0.1,1 0.1,1 0.1,1 0.1,1 0.09,1 0.1,1.01 0.1,1 0.09,1 0.1,1 0.1,1 0.1,1 0.09,1 0.1,1 0.09,1.01 0.1,1 0.1,1 0.09,1 0.1,1 0.1,1 0.09,1 0.1,1 0.09,1 0.1,1 0.09,1 0.1,1 0.1,1 0.09,1.01 0.1,1 0.09,1 0.1,1 0.09,1 0.1,1 0.09,1 0.1,1 0.09,1 0.1,1 0.09,1 0.1,1 0.09,1 0.1,1 0.09,1 0.1,1 0.09,1 0.1,1 0.09,1 0.1,1 0.09,1 0.1,1 0.09,1 0.1,1 0.09,1 0.1,1 0.09,1 0.1,1 0.09,1 0.1,1 0.09,1 0.1,1 0.09,1 0.1,1 0.09,1 0.1,1 0.09,1 0.1,1 0.09,0.99 0.1,1 0.09,1 0.1,1 0.1,1 0.09,1 0.1,1 0.09,1 0.1,1 0.09,1 0.1,1 0.1,1 0.09,1 0.1,0.99 0.1,1 0.09,1 0.1,1 0.1,1 0.09,1 0.1,1 0.1,1 0.09,1 0.1,0.99 0.1,1 0.1,1 0.09,1 0.1,1 0.1,1 0.1,1 0.1,0.99 0.09,1 0.1,1 0.1,1 0.1,1 0.1,1 0.1,0.99 0.1,1 0.1,1 0.1,1 0.1,1 0.1,0.99 0.1,1 0.1,1 0.1,1 0.1,1 0.1,0.99 0.1,1 0.1,1 0.11,1 0.1,0.99 0.1,1 0.1,1 0.11,1 0.1,0.99 0.1,1 0.11,1 0.1,1 0.1,0.99 0.11,1 0.1,1 0.11,1 0.1,0.99 0.11,1 0.11,1 0.1,0.99 0.11,1 0.11,1 0.1,0.99 0.11,1 0.11,1 0.11,0.99 0.11,1 0.11,1 0.11,0.99 0.11,1 0.11,0.99 0.11,1 0.11,1 0.11,0.99 0.11,1 0.12,0.99 0.11,1 0.11,1 0.12,0.99 0.11,1 0.12,0.99 0.11,1 0.12,0.99 0.12,1 0.11,0.99 0.12,1 0.12,0.99 0.12,1 0.12,0.99 0.12,1 0.12,0.99 0.12,0.99 0.13,1 0.12,0.99 0.12,1 0.13,0.99 0.12,0.99 0.13,1 0.13,0.99 0.13,0.99 0.12,1 0.13,0.99 0.14,0.99 0.13,1 0.13,0.99 0.13,0.99 0.14,0.99 0.13,0.99 0.14,1 0.14,0.99 0.14,0.99 0.14,0.99 0.14,0.99 0.14,0.99 0.15,0.99 0.14,0.99 0.15,0.99 0.15,0.99 0.15,0.99 0.15,0.99 0.15,0.99 0.16,0.99 0.16,0.99 0.16,0.98 0.16,0.99 0.16,0.99 0.17,0.98 0.16,0.99 0.17,0.99 0.17,0.98 0.18,0.98 0.18,0.99 0.18,0.98 0.18,0.98 0.19,0.99 0.19,0.98 0.2,0.98 0.19,0.97 0.21,0.98 0.2,0.98 0.22,0.98 0.21,0.97 0.23,0.97 0.23,0.97 0.23,0.97 0.25,0.97 0.25,0.96 0.26,0.97 0.27,0.95 0.29,0.96 0.29,0.95 0.32,0.94 0.33,0.94 0.35,0.93 0.38,0.92 0.42,0.9 0.46,0.88 0.52,0.84 0.62,0.79 0.79,0.66 1.2,0.27 2,-1.48 1.34,-2.37 0.57,-1.32 0.43,-1.13 0.38,-1.09 0.35,-1.08 0.32,-1.06 0.31,-1.06 0.29,-1.05 0.27,-1.04 0.27,-1.04 0.25,-1.04 0.24,-1.03 0.24,-1.03 0.23,-1.03 0.22,-1.03 0.22,-1.03 0.21,-1.02 0.21,-1.02 0.2,-1.03 0.19,-1.02 0.2,-1.02 0.19,-1.02 0.18,-1.01 0.18,-1.02 0.18,-1.02 0.18,-1.01 0.17,-1.02 0.17,-1.01 0.17,-1.02 0.17,-1.01 0.16,-1.02 0.16,-1.01 0.16,-1.01 0.16,-1.01 0.16,-1.02 0.15,-1.01 0.15,-1.01 0.15,-1.01 0.15,-1.01 0.15,-1.01 0.14,-1.01 0.15,-1.01 0.14,-1.01 0.14,-1.01 0.14,-1.01 0.14,-1.01 0.14,-1 0.14,-1.01 0.13,-1.01 0.14,-1.01 0.13,-1.01 0.13,-1 0.14,-1.01 0.13,-1.01 0.13,-1 0.12,-1.01 0.13,-1.01 0.13,-1 0.13,-1.01 0.12,-1.01 0.13,-1 0.12,-1.01 0.12,-1.01 0.12,-1 0.13,-1.01 0.12,-1 0.12,-1.01 0.12,-1 0.12,-1.01 0.11,-1 0.12,-1.01 0.12,-1 0.12,-1.01 0.11,-1 0.12,-1.01 0.11,-1 0.12,-1.01 0.11,-1 0.12,-1.01 0.11,-1 0.11,-1 0.11,-1.01 0.11,-1 0.12,-1.01 0.11,-1 0.11,-1 0.11,-1.01 0.11,-1 0.11,-1 0.1,-1.01 0.11,-1 0.11,-1 0.11,-1.01 0.1,-1 0.11,-1 0.11,-1.01 0.1,-1 0.11,-1 0.11,-1.01 0.1,-1 0.11,-1 0.1,-1 0.11,-1.01 0.1,-1 0.1,-1 0.11,-1.01 0.1,-1 0.1,-1 0.11,-1 0.1,-1.01 0.1,-1 0.1,-1 0.1,-1 0.11,-1 0.1,-1.01 0.1,-1 0.1,-1 0.1,-1 0.1,-1.01 0.1,-1 0.1,-1 0.1,-1 0.1,-1 0.1,-1 0.1,-1.01 0.1,-1 0.1,-1 0.09,-1 0.1,-1 0.1,-1 0.1,-1.01 0.1,-1 0.1,-1 0.09,-1 0.1,-1 0.1,-1 0.1,-1 0.09,-1.01 0.1,-1 0.1,-1 0.1,-1 0.09,-1 0.1,-1 0.1,-1 0.09,-1 0.1,-1 0.1,-1.01 0.09,-1 0.1,-1 0.09,-1 0.1,-1 0.1,-1 0.09,-1 0.1,-1 0.09,-1 0.1,-1 0.09,-1 0.1,-1 0.1,-1 0.09,-1.01 0.1,-1 0.09,-1 0.1,-1 0.09,-1 0.1,-1 0.09,-1 0.1,-1 0.09,-1 0.1,-1 0.09,-1 0.1,-1 0.09,-1 0.1,-1 0.09,-1 0.1,-1"
       style="fill:none;stroke:#e20000;stroke-width:2.49768228;stroke-opacity:1;stroke-miterlimit:4;stroke-dasharray:none"
       id="path7"
       inkscape:connector-curvature="0" />
  </g>
</svg>
