<?xml version="1.0" standalone="no"?><!DOCTYPE svg PUBLIC "-//W3C//DTD SVG 1.1//EN" "http://www.w3.org/Graphics/SVG/1.1/DTD/svg11.dtd"><svg xmlns="http://www.w3.org/2000/svg" viewBox="0 0 650 400" version="1.1"><clipPath id="box"><rect x="0" y="0" width="650" height="400" style="fill:none;stroke:none;" /></clipPath><g clip-path="url(#box)"><rect x="0.00" y="0.00" width="650.00" height="400.00" style="fill:#FFFFFF;stroke:none;" /><path d="M325.00 0.00 L325.00 400.00 " style="fill:none;stroke:#000000;stroke-width:1;" /><path d="M318.50 400.00 L331.50 400.00 M318.50 350.00 L331.50 350.00 M318.50 300.00 L331.50 300.00 M318.50 250.00 L331.50 250.00 M318.50 200.00 L331.50 200.00 M318.50 150.00 L331.50 150.00 M318.50 100.00 L331.50 100.00 M318.50 50.00 L331.50 50.00 M318.50 0.00 L331.50 0.00 " style="fill:none;stroke:#000000;stroke-width:1;" /><path d="M0.00 200.00 L650.00 200.00 " style="fill:none;stroke:#000000;stroke-width:1;" /><path d="M-41.94 193.50 L-41.94 206.50 M10.48 193.50 L10.48 206.50 M62.90 193.50 L62.90 206.50 M115.32 193.50 L115.32 206.50 M167.74 193.50 L167.74 206.50 M220.16 193.50 L220.16 206.50 M272.58 193.50 L272.58 206.50 M325.00 193.50 L325.00 206.50 M377.42 193.50 L377.42 206.50 M429.84 193.50 L429.84 206.50 M482.26 193.50 L482.26 206.50 M534.68 193.50 L534.68 206.50 M587.10 193.50 L587.10 206.50 M639.52 193.50 L639.52 206.50 " style="fill:none;stroke:#000000;stroke-width:1;" /><path d="M-10.00 200.00 L-0.25 200.77 L0.75 201.19 L2.75 202.29 L4.56 203.60 L5.94 204.79 L7.10 205.92 L8.13 207.02 L9.07 208.09 L9.94 209.16 L10.76 210.22 L11.53 211.27 L12.26 212.31 L12.97 213.35 L13.64 214.39 L14.30 215.42 L14.93 216.45 L15.54 217.48 L16.14 218.51 L16.72 219.53 L17.28 220.56 L17.83 221.58 L18.37 222.60 L18.90 223.62 L19.42 224.64 L19.93 225.66 L20.43 226.68 L20.92 227.69 L21.40 228.71 L21.88 229.72 L22.35 230.74 L22.81 231.75 L23.27 232.76 L23.72 233.78 L24.17 234.79 L24.61 235.80 L25.04 236.81 L25.47 237.82 L25.90 238.83 L26.32 239.84 L26.74 240.85 L27.15 241.86 L27.56 242.87 L27.97 243.88 L28.37 244.89 L28.77 245.89 L29.16 246.90 L29.56 247.91 L29.95 248.92 L30.33 249.92 L30.72 250.93 L31.10 251.94 L31.48 252.94 L31.86 253.95 L32.23 254.95 L32.61 255.96 L32.98 256.96 L33.34 257.97 L33.71 258.98 L34.08 259.98 L34.44 260.98 L34.80 261.99 L35.16 262.99 L35.52 264.00 L35.88 265.00 L36.23 266.01 L36.58 267.01 L36.94 268.01 L37.29 269.02 L37.64 270.02 L37.99 271.02 L38.34 272.03 L38.68 273.03 L39.03 274.03 L39.37 275.04 L39.72 276.04 L40.06 277.04 L40.40 278.04 L40.74 279.04 L41.08 280.05 L41.42 281.05 L41.76 282.05 L42.10 283.05 L42.44 284.05 L42.77 285.06 L43.11 286.06 L43.45 287.06 L43.78 288.06 L44.12 289.06 L44.45 290.06 L44.79 291.06 L45.12 292.06 L45.46 293.06 L45.79 294.06 L46.13 295.06 L46.46 296.06 L46.79 297.07 L47.13 298.07 L47.46 299.07 L47.79 300.07 L48.13 301.06 L48.46 302.06 L48.80 303.06 L49.13 304.06 L49.46 305.06 L49.80 306.06 L50.13 307.06 L50.47 308.06 L50.80 309.06 L51.14 310.06 L51.48 311.06 L51.81 312.06 L52.15 313.05 L52.49 314.05 L52.82 315.05 L53.16 316.05 L53.50 317.05 L53.84 318.04 L54.18 319.04 L54.52 320.04 L54.87 321.04 L55.21 322.03 L55.55 323.03 L55.90 324.03 L56.24 325.03 L56.59 326.02 L56.94 327.02 L57.29 328.02 L57.64 329.01 L57.99 330.01 L58.34 331.00 L58.70 332.00 L59.05 333.00 L59.41 333.99 L59.77 334.99 L60.13 335.98 L60.49 336.98 L60.86 337.97 L61.22 338.97 L61.59 339.96 L61.96 340.96 L62.33 341.95 L62.70 342.95 L63.08 343.94 L63.46 344.93 L63.84 345.93 L64.22 346.92 L64.61 347.91 L65.00 348.90 L65.39 349.90 L65.78 350.89 L66.18 351.88 L66.58 352.87 L66.99 353.86 L67.40 354.85 L67.81 355.84 L68.23 356.83 L68.65 357.82 L69.07 358.81 L69.50 359.80 L69.93 360.79 L70.37 361.78 L70.82 362.77 L71.27 363.75 L71.72 364.74 L72.19 365.73 L72.66 366.71 L73.13 367.70 L73.61 368.68 L74.11 369.66 L74.61 370.64 L75.12 371.63 L75.63 372.61 L76.16 373.58 L76.70 374.56 L77.26 375.54 L77.82 376.51 L78.41 377.49 L79.00 378.46 L79.62 379.43 L80.25 380.39 L80.91 381.36 L81.59 382.32 L82.29 383.28 L83.03 384.23 L83.81 385.18 L84.63 386.12 L85.50 387.05 L86.43 387.97 L87.45 388.88 L88.57 389.76 L89.83 390.61 L91.32 391.41 L93.18 392.09 L95.18 392.43 L97.18 392.35 L99.18 391.84 L101.18 390.91 L103.18 389.54 L104.65 388.27 L105.80 387.11 L106.79 385.99 L107.68 384.90 L108.49 383.83 L109.25 382.76 L109.96 381.71 L110.64 380.66 L111.28 379.61 L111.89 378.57 L112.48 377.53 L113.05 376.50 L113.60 375.47 L114.14 374.44 L114.65 373.41 L115.16 372.38 L115.65 371.36 L116.13 370.33 L116.59 369.31 L117.05 368.29 L117.50 367.27 L117.93 366.25 L118.36 365.23 L118.79 364.21 L119.20 363.20 L119.61 362.18 L120.01 361.16 L120.40 360.15 L120.79 359.13 L121.17 358.12 L121.55 357.11 L121.92 356.09 L122.29 355.08 L122.65 354.07 L123.01 353.05 L123.37 352.04 L123.72 351.03 L124.06 350.02 L124.40 349.01 L124.74 348.00 L125.08 346.99 L125.41 345.98 L125.74 344.97 L126.06 343.96 L126.38 342.95 L126.70 341.94 L127.02 340.93 L127.33 339.92 L127.64 338.91 L127.95 337.91 L128.26 336.90 L128.56 335.89 L128.86 334.88 L129.16 333.88 L129.45 332.87 L129.75 331.86 L130.04 330.85 L130.33 329.85 L130.62 328.84 L130.91 327.83 L131.19 326.83 L131.47 325.82 L131.75 324.82 L132.03 323.81 L132.31 322.80 L132.59 321.80 L132.86 320.79 L133.13 319.79 L133.40 318.78 L133.67 317.78 L133.94 316.77 L134.21 315.76 L134.47 314.76 L134.74 313.75 L135.00 312.75 L135.26 311.74 L135.52 310.74 L135.78 309.74 L136.04 308.73 L136.29 307.73 L136.55 306.72 L136.80 305.72 L137.06 304.71 L137.31 303.71 L137.56 302.71 L137.81 301.70 L138.06 300.70 L138.31 299.69 L138.55 298.69 L138.80 297.69 L139.04 296.68 L139.29 295.68 L139.53 294.67 L139.77 293.67 L140.02 292.67 L140.26 291.66 L140.50 290.66 L140.74 289.66 L140.97 288.65 L141.21 287.65 L141.45 286.65 L141.68 285.65 L141.92 284.64 L142.15 283.64 L142.39 282.64 L142.62 281.63 L142.85 280.63 L143.09 279.63 L143.32 278.63 L143.55 277.62 L143.78 276.62 L144.01 275.62 L144.24 274.61 L144.47 273.61 L144.69 272.61 L144.92 271.61 L145.15 270.61 L145.37 269.60 L145.60 268.60 L145.83 267.60 L146.05 266.60 L146.27 265.59 L146.50 264.59 L146.72 263.59 L146.94 262.59 L147.17 261.59 L147.39 260.58 L147.61 259.58 L147.83 258.58 L148.05 257.58 L148.27 256.58 L148.49 255.58 L148.71 254.57 L148.93 253.57 L149.15 252.57 L149.37 251.57 L149.59 250.57 L149.80 249.57 L150.02 248.56 L150.24 247.56 L150.46 246.56 L150.67 245.56 L150.89 244.56 L151.10 243.56 L151.32 242.56 L151.53 241.55 L151.75 240.55 L151.96 239.55 L152.18 238.55 L152.39 237.55 L152.61 236.55 L152.82 235.55 L153.04 234.55 L153.25 233.55 L153.46 232.54 L153.67 231.54 L153.89 230.54 L154.10 229.54 L154.31 228.54 L154.52 227.54 L154.74 226.54 L154.95 225.54 L155.16 224.54 L155.37 223.54 L155.58 222.54 L155.79 221.54 L156.01 220.54 L156.22 219.53 L156.43 218.53 L156.64 217.53 L156.85 216.53 L157.06 215.53 L157.27 214.53 L157.48 213.53 L157.69 212.53 L157.90 211.53 L158.11 210.53 L158.32 209.53 L158.53 208.53 L158.74 207.53 L158.95 206.53 L159.16 205.53 L159.37 204.53 L159.58 203.53 L159.79 202.53 L160.00 201.53 L160.21 200.53 L160.42 199.53 L160.63 198.53 L160.84 197.53 L161.05 196.53 L161.26 195.53 L161.47 194.53 L161.68 193.53 L161.89 192.53 L162.10 191.53 L162.31 190.53 L162.52 189.53 L162.73 188.53 L162.94 187.53 L163.15 186.53 L163.36 185.53 L163.57 184.53 L163.78 183.53 L163.99 182.53 L164.20 181.53 L164.41 180.53 L164.62 179.53 L164.83 178.54 L165.04 177.54 L165.25 176.54 L165.46 175.54 L165.67 174.54 L165.89 173.54 L166.10 172.54 L166.31 171.54 L166.52 170.54 L166.73 169.54 L166.95 168.54 L167.16 167.54 L167.37 166.54 L167.58 165.55 L167.80 164.55 L168.01 163.55 L168.22 162.55 L168.44 161.55 L168.65 160.55 L168.87 159.55 L169.08 158.55 L169.30 157.55 L169.51 156.56 L169.73 155.56 L169.94 154.56 L170.16 153.56 L170.37 152.56 L170.59 151.56 L170.81 150.56 L171.02 149.57 L171.24 148.57 L171.46 147.57 L171.68 146.57 L171.90 145.57 L172.11 144.57 L172.33 143.57 L172.55 142.58 L172.77 141.58 L172.99 140.58 L173.21 139.58 L173.44 138.58 L173.66 137.59 L173.88 136.59 L174.10 135.59 L174.32 134.59 L174.55 133.59 L174.77 132.60 L174.99 131.60 L175.22 130.60 L175.44 129.60 L175.67 128.60 L175.90 127.61 L176.12 126.61 L176.35 125.61 L176.58 124.61 L176.81 123.62 L177.04 122.62 L177.26 121.62 L177.49 120.62 L177.73 119.63 L177.96 118.63 L178.19 117.63 L178.42 116.64 L178.65 115.64 L178.89 114.64 L179.12 113.64 L179.36 112.65 L179.59 111.65 L179.83 110.65 L180.07 109.66 L180.31 108.66 L180.54 107.66 L180.78 106.67 L181.03 105.67 L181.27 104.67 L181.51 103.68 L181.75 102.68 L182.00 101.68 L182.24 100.69 L182.49 99.69 L182.73 98.70 L182.98 97.70 L183.23 96.70 L183.48 95.71 L183.73 94.71 L183.98 93.72 L184.23 92.72 L184.49 91.72 L184.74 90.73 L185.00 89.73 L185.25 88.74 L185.51 87.74 L185.77 86.75 L186.03 85.75 L186.29 84.76 L186.56 83.76 L186.82 82.77 L187.09 81.77 L187.36 80.78 L187.62 79.78 L187.89 78.79 L188.17 77.79 L188.44 76.80 L188.71 75.80 L188.99 74.81 L189.27 73.82 L189.55 72.82 L189.83 71.83 L190.11 70.84 L190.40 69.84 L190.68 68.85 L190.97 67.86 L191.26 66.86 L191.56 65.87 L191.85 64.88 L192.15 63.88 L192.45 62.89 L192.75 61.90 L193.05 60.91 L193.36 59.91 L193.67 58.92 L193.98 57.93 L194.29 56.94 L194.61 55.95 L194.93 54.96 L195.25 53.97 L195.57 52.98 L195.90 51.99 L196.23 51.00 L196.57 50.01 L196.91 49.02 L197.25 48.03 L197.60 47.04 L197.94 46.05 L198.30 45.06 L198.66 44.07 L199.02 43.09 L199.38 42.10 L199.76 41.11 L200.13 40.13 L200.51 39.14 L200.90 38.15 L201.29 37.17 L201.69 36.18 L202.10 35.20 L202.51 34.22 L202.93 33.23 L203.35 32.25 L203.79 31.27 L204.23 30.29 L204.68 29.31 L205.14 28.33 L205.61 27.36 L206.09 26.38 L206.58 25.40 L207.09 24.43 L207.61 23.46 L208.14 22.49 L208.69 21.52 L209.26 20.55 L209.85 19.59 L210.46 18.63 L211.09 17.67 L211.75 16.72 L212.45 15.77 L213.18 14.82 L213.95 13.89 L214.78 12.96 L215.67 12.04 L216.64 11.14 L217.71 10.26 L218.93 9.41 L220.37 8.61 L222.18 7.93 L224.18 7.57 L226.18 7.64 L228.18 8.13 L230.18 9.02 L232.18 10.32 L233.72 11.59 L234.94 12.75 L235.99 13.86 L236.93 14.94 L237.80 16.02 L238.61 17.08 L239.38 18.13 L240.10 19.18 L240.79 20.22 L241.46 21.26 L242.10 22.29 L242.72 23.32 L243.32 24.35 L243.90 25.38 L244.47 26.41 L245.02 27.43 L245.56 28.45 L246.09 29.47 L246.61 30.49 L247.12 31.51 L247.62 32.53 L248.11 33.55 L248.59 34.56 L249.06 35.58 L249.53 36.59 L249.99 37.61 L250.44 38.62 L250.89 39.63 L251.33 40.64 L251.77 41.66 L252.20 42.67 L252.63 43.68 L253.05 44.69 L253.47 45.70 L253.88 46.71 L254.29 47.72 L254.70 48.73 L255.10 49.73 L255.50 50.74 L255.90 51.75 L256.29 52.76 L256.68 53.77 L257.07 54.77 L257.45 55.78 L257.83 56.79 L258.21 57.79 L258.59 58.80 L258.96 59.81 L259.34 60.81 L259.71 61.82 L260.07 62.82 L260.44 63.83 L260.81 64.83 L261.17 65.84 L261.53 66.84 L261.89 67.85 L262.25 68.85 L262.60 69.85 L262.96 70.86 L263.31 71.86 L263.66 72.87 L264.01 73.87 L264.36 74.87 L264.71 75.88 L265.06 76.88 L265.40 77.88 L265.75 78.88 L266.09 79.89 L266.43 80.89 L266.78 81.89 L267.12 82.89 L267.46 83.90 L267.80 84.90 L268.14 85.90 L268.48 86.90 L268.81 87.90 L269.15 88.90 L269.49 89.91 L269.82 90.91 L270.16 91.91 L270.50 92.91 L270.83 93.91 L271.17 94.91 L271.50 95.91 L271.84 96.91 L272.17 97.91 L272.50 98.91 L272.84 99.91 L273.17 100.91 L273.50 101.91 L273.84 102.91 L274.17 103.91 L274.51 104.91 L274.84 105.91 L275.17 106.91 L275.51 107.91 L275.84 108.91 L276.18 109.91 L276.51 110.91 L276.85 111.91 L277.18 112.91 L277.52 113.91 L277.85 114.91 L278.19 115.91 L278.52 116.90 L278.86 117.90 L279.20 118.90 L279.54 119.90 L279.88 120.90 L280.22 121.89 L280.56 122.89 L280.90 123.89 L281.24 124.89 L281.58 125.89 L281.93 126.88 L282.27 127.88 L282.62 128.88 L282.96 129.87 L283.31 130.87 L283.66 131.87 L284.01 132.86 L284.36 133.86 L284.71 134.86 L285.07 135.85 L285.42 136.85 L285.78 137.84 L286.14 138.84 L286.50 139.84 L286.86 140.83 L287.22 141.83 L287.59 142.82 L287.95 143.82 L288.32 144.81 L288.69 145.81 L289.06 146.80 L289.44 147.79 L289.81 148.79 L290.19 149.78 L290.57 150.77 L290.96 151.77 L291.34 152.76 L291.73 153.75 L292.13 154.75 L292.52 155.74 L292.92 156.73 L293.32 157.72 L293.72 158.71 L294.13 159.71 L294.54 160.70 L294.96 161.69 L295.38 162.68 L295.80 163.67 L296.23 164.66 L296.66 165.65 L297.10 166.63 L297.54 167.62 L297.99 168.61 L298.44 169.60 L298.90 170.58 L299.37 171.57 L299.84 172.56 L300.32 173.54 L300.80 174.53 L301.29 175.51 L301.80 176.49 L302.31 177.47 L302.83 178.46 L303.36 179.44 L303.90 180.41 L304.45 181.39 L305.01 182.37 L305.59 183.34 L306.18 184.32 L306.79 185.29 L307.42 186.26 L308.06 187.23 L308.73 188.19 L309.42 189.16 L310.13 190.11 L310.88 191.07 L311.67 192.02 L312.49 192.96 L313.36 193.90 L314.29 194.83 L315.30 195.75 L316.39 196.65 L317.61 197.52 L318.99 198.36 L320.64 199.14 L322.64 199.75 L324.64 199.99 L326.64 199.88 L328.64 199.40 L330.64 198.55 L332.64 197.35 L334.31 196.08 L335.62 194.91 L336.74 193.79 L337.74 192.70 L338.66 191.63 L339.52 190.57 L340.32 189.51 L341.08 188.46 L341.81 187.42 L342.51 186.38 L343.18 185.34 L343.82 184.31 L344.45 183.28 L345.06 182.25 L345.65 181.22 L346.22 180.20 L346.79 179.18 L347.33 178.15 L347.87 177.13 L348.40 176.11 L348.91 175.10 L349.42 174.08 L349.92 173.06 L350.41 172.05 L350.89 171.03 L351.36 170.02 L351.83 169.00 L352.29 167.99 L352.75 166.98 L353.20 165.96 L353.64 164.95 L354.08 163.94 L354.51 162.93 L354.94 161.92 L355.37 160.91 L355.79 159.90 L356.20 158.89 L356.62 157.88 L357.03 156.87 L357.43 155.86 L357.83 154.85 L358.23 153.85 L358.63 152.84 L359.02 151.83 L359.41 150.82 L359.79 149.82 L360.18 148.81 L360.56 147.80 L360.94 146.80 L361.31 145.79 L361.69 144.79 L362.06 143.78 L362.43 142.78 L362.80 141.77 L363.17 140.76 L363.53 139.76 L363.89 138.76 L364.25 137.75 L364.61 136.75 L364.97 135.74 L365.33 134.74 L365.68 133.73 L366.04 132.73 L366.39 131.73 L366.74 130.72 L367.09 129.72 L367.44 128.72 L367.79 127.71 L368.13 126.71 L368.48 125.71 L368.82 124.71 L369.17 123.70 L369.51 122.70 L369.85 121.70 L370.19 120.70 L370.53 119.69 L370.87 118.69 L371.21 117.69 L371.55 116.69 L371.89 115.69 L372.22 114.69 L372.56 113.68 L372.90 112.68 L373.23 111.68 L373.57 110.68 L373.90 109.68 L374.24 108.68 L374.57 107.68 L374.91 106.68 L375.24 105.68 L375.57 104.68 L375.91 103.68 L376.24 102.68 L376.57 101.68 L376.91 100.68 L377.24 99.68 L377.58 98.68 L377.91 97.68 L378.24 96.68 L378.58 95.68 L378.91 94.68 L379.25 93.68 L379.58 92.68 L379.92 91.68 L380.25 90.68 L380.59 89.68 L380.92 88.68 L381.26 87.69 L381.60 86.69 L381.93 85.69 L382.27 84.69 L382.61 83.69 L382.95 82.70 L383.29 81.70 L383.63 80.70 L383.97 79.70 L384.31 78.70 L384.66 77.71 L385.00 76.71 L385.35 75.71 L385.69 74.72 L386.04 73.72 L386.39 72.72 L386.74 71.73 L387.09 70.73 L387.44 69.73 L387.79 68.74 L388.15 67.74 L388.51 66.75 L388.86 65.75 L389.22 64.75 L389.58 63.76 L389.95 62.76 L390.31 61.77 L390.68 60.77 L391.04 59.78 L391.41 58.79 L391.79 57.79 L392.16 56.80 L392.54 55.80 L392.92 54.81 L393.30 53.82 L393.68 52.82 L394.07 51.83 L394.46 50.84 L394.85 49.85 L395.25 48.85 L395.65 47.86 L396.05 46.87 L396.45 45.88 L396.86 44.89 L397.28 43.90 L397.69 42.91 L398.12 41.92 L398.54 40.93 L398.97 39.94 L399.41 38.95 L399.85 37.97 L400.29 36.98 L400.75 35.99 L401.20 35.00 L401.67 34.02 L402.14 33.03 L402.62 32.05 L403.10 31.07 L403.60 30.08 L404.10 29.10 L404.61 28.12 L405.13 27.14 L405.66 26.16 L406.21 25.18 L406.76 24.21 L407.33 23.23 L407.92 22.26 L408.52 21.29 L409.14 20.32 L409.78 19.36 L410.44 18.39 L411.13 17.43 L411.84 16.48 L412.59 15.52 L413.38 14.58 L414.21 13.64 L415.09 12.71 L416.05 11.79 L417.09 10.89 L418.24 10.01 L419.55 9.17 L421.12 8.40 L423.12 7.77 L425.12 7.55 L427.12 7.75 L429.12 8.38 L431.12 9.44 L433.01 10.83 L434.36 12.07 L435.46 13.22 L436.41 14.32 L437.28 15.41 L438.08 16.48 L438.82 17.54 L439.52 18.59 L440.19 19.64 L440.82 20.69 L441.43 21.73 L442.01 22.76 L442.57 23.80 L443.12 24.83 L443.65 25.86 L444.16 26.89 L444.66 27.91 L445.15 28.94 L445.62 29.96 L446.09 30.98 L446.54 32.00 L446.98 33.02 L447.42 34.04 L447.85 35.06 L448.27 36.08 L448.68 37.10 L449.08 38.11 L449.48 39.13 L449.88 40.14 L450.26 41.16 L450.64 42.17 L451.02 43.19 L451.39 44.20 L451.76 45.21 L452.12 46.23 L452.47 47.24 L452.83 48.25 L453.18 49.26 L453.52 50.27 L453.86 51.28 L454.20 52.29 L454.53 53.30 L454.86 54.31 L455.19 55.32 L455.51 56.33 L455.84 57.34 L456.15 58.35 L456.47 59.36 L456.78 60.37 L457.09 61.38 L457.40 62.38 L457.70 63.39 L458.01 64.40 L458.31 65.41 L458.60 66.41 L458.90 67.42 L459.19 68.43 L459.49 69.44 L459.77 70.44 L460.06 71.45 L460.35 72.46 L460.63 73.46 L460.91 74.47 L461.19 75.47 L461.47 76.48 L461.75 77.49 L462.02 78.49 L462.30 79.50 L462.57 80.50 L462.84 81.51 L463.11 82.51 L463.38 83.52 L463.64 84.52 L463.91 85.53 L464.17 86.53 L464.43 87.54 L464.70 88.54 L464.96 89.55 L465.21 90.55 L465.47 91.56 L465.73 92.56 L465.98 93.57 L466.24 94.57 L466.49 95.58 L466.74 96.58 L466.99 97.58 L467.24 98.59 L467.49 99.59 L467.74 100.60 L467.98 101.60 L468.23 102.60 L468.47 103.61 L468.72 104.61 L468.96 105.61 L469.20 106.62 L469.45 107.62 L469.69 108.62 L469.93 109.63 L470.16 110.63 L470.40 111.63 L470.64 112.64 L470.88 113.64 L471.11 114.64 L471.35 115.65 L471.58 116.65 L471.82 117.65 L472.05 118.66 L472.28 119.66 L472.51 120.66 L472.75 121.66 L472.98 122.67 L473.21 123.67 L473.44 124.67 L473.66 125.67 L473.89 126.68 L474.12 127.68 L474.35 128.68 L474.57 129.68 L474.80 130.69 L475.03 131.69 L475.25 132.69 L475.48 133.69 L475.70 134.69 L475.92 135.70 L476.15 136.70 L476.37 137.70 L476.59 138.70 L476.81 139.70 L477.03 140.71 L477.26 141.71 L477.48 142.71 L477.70 143.71 L477.92 144.71 L478.14 145.71 L478.35 146.72 L478.57 147.72 L478.79 148.72 L479.01 149.72 L479.23 150.72 L479.44 151.72 L479.66 152.73 L479.88 153.73 L480.09 154.73 L480.31 155.73 L480.53 156.73 L480.74 157.73 L480.96 158.73 L481.17 159.73 L481.39 160.74 L481.60 161.74 L481.82 162.74 L482.03 163.74 L482.24 164.74 L482.46 165.74 L482.67 166.74 L482.88 167.74 L483.10 168.74 L483.31 169.75 L483.52 170.75 L483.73 171.75 L483.95 172.75 L484.16 173.75 L484.37 174.75 L484.58 175.75 L484.79 176.75 L485.00 177.75 L485.22 178.75 L485.43 179.75 L485.64 180.75 L485.85 181.75 L486.06 182.75 L486.27 183.75 L486.48 184.76 L486.69 185.76 L486.90 186.76 L487.11 187.76 L487.32 188.76 L487.53 189.76 L487.74 190.76 L487.95 191.76 L488.16 192.76 L488.37 193.76 L488.58 194.76 L488.79 195.76 L489.00 196.76 L489.21 197.76 L489.42 198.76 L489.63 199.76 L489.84 200.76 L490.05 201.76 L490.26 202.76 L490.47 203.76 L490.68 204.76 L490.89 205.76 L491.10 206.76 L491.31 207.76 L491.52 208.76 L491.73 209.76 L491.94 210.76 L492.15 211.76 L492.36 212.76 L492.57 213.76 L492.78 214.76 L492.99 215.76 L493.20 216.76 L493.41 217.75 L493.62 218.75 L493.83 219.75 L494.04 220.75 L494.25 221.75 L494.46 222.75 L494.67 223.75 L494.88 224.75 L495.10 225.75 L495.31 226.75 L495.52 227.75 L495.73 228.75 L495.94 229.75 L496.16 230.75 L496.37 231.74 L496.58 232.74 L496.79 233.74 L497.01 234.74 L497.22 235.74 L497.43 236.74 L497.65 237.74 L497.86 238.74 L498.07 239.74 L498.29 240.74 L498.50 241.73 L498.72 242.73 L498.93 243.73 L499.15 244.73 L499.36 245.73 L499.58 246.73 L499.80 247.73 L500.01 248.73 L500.23 249.72 L500.45 250.72 L500.66 251.72 L500.88 252.72 L501.10 253.72 L501.32 254.72 L501.54 255.71 L501.76 256.71 L501.98 257.71 L502.20 258.71 L502.42 259.71 L502.64 260.71 L502.86 261.70 L503.08 262.70 L503.30 263.70 L503.53 264.70 L503.75 265.70 L503.97 266.69 L504.20 267.69 L504.42 268.69 L504.64 269.69 L504.87 270.68 L505.10 271.68 L505.32 272.68 L505.55 273.68 L505.78 274.68 L506.00 275.67 L506.23 276.67 L506.46 277.67 L506.69 278.67 L506.92 279.66 L507.15 280.66 L507.38 281.66 L507.62 282.65 L507.85 283.65 L508.08 284.65 L508.32 285.65 L508.55 286.64 L508.79 287.64 L509.02 288.64 L509.26 289.63 L509.50 290.63 L509.74 291.63 L509.97 292.62 L510.21 293.62 L510.45 294.62 L510.70 295.61 L510.94 296.61 L511.18 297.61 L511.43 298.60 L511.67 299.60 L511.92 300.60 L512.16 301.59 L512.41 302.59 L512.66 303.58 L512.91 304.58 L513.16 305.58 L513.41 306.57 L513.67 307.57 L513.92 308.56 L514.18 309.56 L514.43 310.55 L514.69 311.55 L514.95 312.54 L515.21 313.54 L515.47 314.54 L515.73 315.53 L515.99 316.53 L516.26 317.52 L516.53 318.51 L516.79 319.51 L517.06 320.50 L517.33 321.50 L517.61 322.49 L517.88 323.49 L518.15 324.48 L518.43 325.48 L518.71 326.47 L518.99 327.46 L519.27 328.46 L519.55 329.45 L519.84 330.44 L520.13 331.44 L520.42 332.43 L520.71 333.42 L521.00 334.42 L521.30 335.41 L521.59 336.40 L521.89 337.39 L522.20 338.39 L522.50 339.38 L522.81 340.37 L523.12 341.36 L523.43 342.35 L523.74 343.35 L524.06 344.34 L524.38 345.33 L524.70 346.32 L525.03 347.31 L525.36 348.30 L525.69 349.29 L526.03 350.28 L526.37 351.27 L526.71 352.26 L527.06 353.25 L527.41 354.23 L527.76 355.22 L528.12 356.21 L528.48 357.20 L528.85 358.19 L529.22 359.17 L529.60 360.16 L529.98 361.14 L530.37 362.13 L530.77 363.11 L531.17 364.10 L531.57 365.08 L531.99 366.07 L532.41 367.05 L532.84 368.03 L533.27 369.01 L533.72 369.99 L534.17 370.97 L534.63 371.95 L535.11 372.93 L535.59 373.90 L536.09 374.88 L536.60 375.85 L537.12 376.82 L537.66 377.79 L538.21 378.76 L538.79 379.72 L539.38 380.69 L540.00 381.65 L540.64 382.61 L541.31 383.56 L542.02 384.51 L542.76 385.45 L543.55 386.38 L544.39 387.31 L545.30 388.22 L546.30 389.12 L547.41 389.99 L548.68 390.83 L550.20 391.60 L552.17 392.23 L554.17 392.45 L556.17 392.25 L558.17 391.63 L560.17 390.61 L562.13 389.22 L563.54 387.99 L564.69 386.85 L565.70 385.75 L566.61 384.67 L567.46 383.60 L568.25 382.55 L569.00 381.50 L569.71 380.45 L570.39 379.41 L571.05 378.37 L571.68 377.34 L572.30 376.31 L572.89 375.28 L573.47 374.25 L574.03 373.23 L574.58 372.21 L575.11 371.18 L575.64 370.16 L576.15 369.14 L576.66 368.13 L577.15 367.11 L577.64 366.09 L578.12 365.08 L578.59 364.06 L579.06 363.05 L579.51 362.03 L579.96 361.02 L580.41 360.01 L580.85 359.00 L581.29 357.98 L581.72 356.97 L582.14 355.96 L582.56 354.95 L582.98 353.94 L583.39 352.93 L583.80 351.92 L584.20 350.91 L584.61 349.91 L585.00 348.90 L585.40 347.89 L585.79 346.88 L586.18 345.88 L586.57 344.87 L586.95 343.86 L587.33 342.85 L587.71 341.85 L588.08 340.84 L588.46 339.84 L588.83 338.83 L589.20 337.83 L589.57 336.82 L589.93 335.81 L590.30 334.81 L590.66 333.81 L591.02 332.80 L591.38 331.80 L591.73 330.79 L592.09 329.79 L592.44 328.78 L592.79 327.78 L593.15 326.78 L593.50 325.77 L593.85 324.77 L594.19 323.77 L594.54 322.76 L594.89 321.76 L595.23 320.76 L595.57 319.76 L595.92 318.75 L596.26 317.75 L596.60 316.75 L596.94 315.75 L597.28 314.74 L597.62 313.74 L597.96 312.74 L598.29 311.74 L598.63 310.74 L598.97 309.74 L599.31 308.74 L599.64 307.73 L599.98 306.73 L600.31 305.73 L600.65 304.73 L600.98 303.73 L601.32 302.73 L601.65 301.73 L601.98 300.73 L602.32 299.73 L602.65 298.73 L602.98 297.73 L603.32 296.73 L603.65 295.73 L603.99 294.73 L604.32 293.73 L604.65 292.73 L604.99 291.73 L605.32 290.73 L605.66 289.73 L605.99 288.73 L606.33 287.73 L606.66 286.73 L607.00 285.74 L607.33 284.74 L607.67 283.74 L608.01 282.74 L608.34 281.74 L608.68 280.74 L609.02 279.75 L609.36 278.75 L609.70 277.75 L610.04 276.75 L610.38 275.75 L610.72 274.76 L611.07 273.76 L611.41 272.76 L611.76 271.76 L612.10 270.77 L612.45 269.77 L612.80 268.77 L613.15 267.78 L613.50 266.78 L613.85 265.78 L614.20 264.79 L614.55 263.79 L614.91 262.80 L615.27 261.80 L615.63 260.81 L615.99 259.81 L616.35 258.81 L616.71 257.82 L617.08 256.82 L617.44 255.83 L617.81 254.83 L618.18 253.84 L618.56 252.85 L618.93 251.85 L619.31 250.86 L619.69 249.86 L620.07 248.87 L620.46 247.88 L620.84 246.89 L621.23 245.89 L621.63 244.90 L622.02 243.91 L622.42 242.92 L622.82 241.92 L623.23 240.93 L623.64 239.94 L624.05 238.95 L624.47 237.96 L624.89 236.97 L625.31 235.98 L625.74 234.99 L626.18 234.00 L626.62 233.01 L627.06 232.03 L627.51 231.04 L627.97 230.05 L628.43 229.06 L628.89 228.08 L629.37 227.09 L629.85 226.11 L630.34 225.12 L630.83 224.14 L631.34 223.16 L631.85 222.18 L632.37 221.20 L632.91 220.22 L633.45 219.24 L634.01 218.26 L634.58 217.28 L635.16 216.31 L635.76 215.34 L636.37 214.36 L637.00 213.39 L637.66 212.43 L638.33 211.46 L639.03 210.50 L639.76 209.54 L640.52 208.59 L641.32 207.64 L642.16 206.70 L643.05 205.77 L644.00 204.84 L645.03 203.93 L646.17 203.04 L647.44 202.17 L648.91 201.35 " style="fill:none;stroke:#000000;stroke-width:1;" /></g></svg>