<?xml version="1.0" standalone="no"?><!DOCTYPE svg PUBLIC "-//W3C//DTD SVG 1.1//EN" "http://www.w3.org/Graphics/SVG/1.1/DTD/svg11.dtd"><svg xmlns="http://www.w3.org/2000/svg" viewBox="0 0 650 400" version="1.1"><clipPath id="box"><rect x="0" y="0" width="650" height="400" style="fill:none;stroke:none;" /></clipPath><g clip-path="url(#box)"><rect x="0.00" y="0.00" width="650.00" height="400.00" style="fill:#FFFFFF;stroke:none;" /><path d="M325.00 0.00 L325.00 400.00 " style="fill:none;stroke:#000000;stroke-width:1;" /><path d="M318.50 418.18 L331.50 418.18 M318.50 381.82 L331.50 381.82 M318.50 345.45 L331.50 345.45 M318.50 309.09 L331.50 309.09 M318.50 272.73 L331.50 272.73 M318.50 236.36 L331.50 236.36 M318.50 200.00 L331.50 200.00 M318.50 163.64 L331.50 163.64 M318.50 127.27 L331.50 127.27 M318.50 90.91 L331.50 90.91 M318.50 54.55 L331.50 54.55 M318.50 18.18 L331.50 18.18 " style="fill:none;stroke:#000000;stroke-width:1;" /><path d="M0.00 200.00 L650.00 200.00 " style="fill:none;stroke:#000000;stroke-width:1;" /><path d="M-18.55 193.50 L-18.55 206.50 M50.16 193.50 L50.16 206.50 M118.87 193.50 L118.87 206.50 M187.58 193.50 L187.58 206.50 M256.29 193.50 L256.29 206.50 M325.00 193.50 L325.00 206.50 M393.71 193.50 L393.71 206.50 M462.42 193.50 L462.42 206.50 M531.13 193.50 L531.13 206.50 M599.84 193.50 L599.84 206.50 " style="fill:none;stroke:#000000;stroke-width:1;" /><path d="M-10.00 200.00 L-0.25 196.14 L0.75 198.78 L1.13 199.78 L1.51 200.78 L1.88 201.78 L2.26 202.78 L2.64 203.78 L3.02 204.78 L3.40 205.78 L3.77 206.78 L4.15 207.78 L4.53 208.78 L4.91 209.78 L5.29 210.78 L5.67 211.78 L6.04 212.78 L6.42 213.78 L6.80 214.78 L7.18 215.78 L7.56 216.78 L7.94 217.78 L8.32 218.78 L8.70 219.78 L9.08 220.78 L9.46 221.78 L9.84 222.78 L10.22 223.78 L10.60 224.77 L10.98 225.77 L11.36 226.77 L11.75 227.77 L12.13 228.77 L12.51 229.77 L12.89 230.77 L13.28 231.77 L13.66 232.77 L14.05 233.77 L14.43 234.77 L14.81 235.76 L15.20 236.76 L15.59 237.76 L15.97 238.76 L16.36 239.76 L16.74 240.76 L17.13 241.76 L17.52 242.76 L17.91 243.75 L18.30 244.75 L18.69 245.75 L19.08 246.75 L19.47 247.75 L19.86 248.75 L20.25 249.75 L20.64 250.74 L21.04 251.74 L21.43 252.74 L21.83 253.74 L22.22 254.74 L22.62 255.73 L23.01 256.73 L23.41 257.73 L23.81 258.73 L24.21 259.73 L24.61 260.73 L25.01 261.72 L25.41 262.72 L25.81 263.72 L26.22 264.72 L26.62 265.71 L27.02 266.71 L27.43 267.71 L27.84 268.71 L28.24 269.71 L28.65 270.70 L29.06 271.70 L29.47 272.70 L29.89 273.70 L30.30 274.69 L30.71 275.69 L31.13 276.69 L31.54 277.68 L31.96 278.68 L32.38 279.68 L32.80 280.68 L33.22 281.67 L33.64 282.67 L34.07 283.67 L34.49 284.66 L34.92 285.66 L35.34 286.66 L35.77 287.65 L36.20 288.65 L36.64 289.65 L37.07 290.64 L37.51 291.64 L37.94 292.64 L38.38 293.63 L38.82 294.63 L39.26 295.62 L39.71 296.62 L40.15 297.62 L40.60 298.61 L41.05 299.61 L41.50 300.60 L41.95 301.60 L42.41 302.59 L42.86 303.59 L43.32 304.59 L43.78 305.58 L44.24 306.58 L44.71 307.57 L45.18 308.57 L45.65 309.56 L46.12 310.56 L46.59 311.55 L47.07 312.54 L47.55 313.54 L48.03 314.53 L48.52 315.53 L49.01 316.52 L49.50 317.52 L49.99 318.51 L50.49 319.50 L50.99 320.50 L51.49 321.49 L52.00 322.48 L52.51 323.48 L53.02 324.47 L53.54 325.46 L54.06 326.46 L54.58 327.45 L55.11 328.44 L55.64 329.43 L56.18 330.43 L56.72 331.42 L57.26 332.41 L57.81 333.40 L58.37 334.39 L58.92 335.38 L59.49 336.38 L60.06 337.37 L60.63 338.36 L61.21 339.35 L61.80 340.34 L62.39 341.33 L62.98 342.32 L63.59 343.30 L64.20 344.29 L64.82 345.28 L65.44 346.27 L66.07 347.26 L66.71 348.25 L67.36 349.23 L68.02 350.22 L68.69 351.20 L69.36 352.19 L70.05 353.17 L70.74 354.16 L71.45 355.14 L72.17 356.13 L72.90 357.11 L73.64 358.09 L74.40 359.07 L75.17 360.05 L75.96 361.03 L76.77 362.01 L77.59 362.99 L78.43 363.96 L79.30 364.94 L80.18 365.91 L81.09 366.88 L82.03 367.85 L83.00 368.82 L84.00 369.78 L85.03 370.74 L86.11 371.70 L87.24 372.66 L88.41 373.61 L89.65 374.55 L90.96 375.49 L92.36 376.42 L93.86 377.34 L95.49 378.24 L97.30 379.13 L99.30 379.96 L101.30 380.64 L103.30 381.16 L105.30 381.53 L107.30 381.75 L109.30 381.82 L111.30 381.73 L113.30 381.48 L115.30 381.09 L117.30 380.54 L119.30 379.83 L121.30 378.98 L123.30 377.97 L125.29 376.82 L127.01 375.70 L128.56 374.61 L129.97 373.53 L131.28 372.46 L132.50 371.41 L133.67 370.36 L134.77 369.31 L135.83 368.27 L136.85 367.23 L137.83 366.20 L138.78 365.17 L139.69 364.14 L140.58 363.11 L141.45 362.08 L142.30 361.06 L143.12 360.03 L143.93 359.01 L144.71 357.99 L145.48 356.97 L146.24 355.95 L146.98 354.93 L147.71 353.92 L148.43 352.90 L149.13 351.88 L149.82 350.87 L150.51 349.85 L151.18 348.84 L151.84 347.82 L152.49 346.81 L153.14 345.80 L153.78 344.78 L154.40 343.77 L155.03 342.76 L155.64 341.75 L156.25 340.74 L156.85 339.73 L157.44 338.72 L158.03 337.71 L158.61 336.70 L159.18 335.69 L159.76 334.68 L160.32 333.67 L160.88 332.66 L161.44 331.65 L161.99 330.64 L162.53 329.63 L163.07 328.63 L163.61 327.62 L164.14 326.61 L164.67 325.60 L165.20 324.60 L165.72 323.59 L166.23 322.58 L166.75 321.57 L167.26 320.57 L167.76 319.56 L168.27 318.55 L168.77 317.55 L169.26 316.54 L169.76 315.54 L170.25 314.53 L170.74 313.52 L171.22 312.52 L171.70 311.51 L172.18 310.51 L172.66 309.50 L173.13 308.50 L173.61 307.49 L174.08 306.49 L174.54 305.48 L175.01 304.48 L175.47 303.47 L175.93 302.47 L176.39 301.46 L176.85 300.46 L177.30 299.45 L177.75 298.45 L178.21 297.45 L178.65 296.44 L179.10 295.44 L179.55 294.43 L179.99 293.43 L180.43 292.43 L180.87 291.42 L181.31 290.42 L181.74 289.41 L182.18 288.41 L182.61 287.41 L183.04 286.40 L183.47 285.40 L183.90 284.40 L184.33 283.39 L184.76 282.39 L185.18 281.39 L185.60 280.38 L186.03 279.38 L186.45 278.38 L186.87 277.38 L187.28 276.37 L187.70 275.37 L188.12 274.37 L188.53 273.36 L188.95 272.36 L189.36 271.36 L189.77 270.36 L190.18 269.35 L190.59 268.35 L191.00 267.35 L191.40 266.35 L191.81 265.34 L192.22 264.34 L192.62 263.34 L193.02 262.34 L193.43 261.34 L193.83 260.33 L194.23 259.33 L194.63 258.33 L195.03 257.33 L195.43 256.33 L195.83 255.32 L196.22 254.32 L196.62 253.32 L197.02 252.32 L197.41 251.32 L197.80 250.31 L198.20 249.31 L198.59 248.31 L198.98 247.31 L199.37 246.31 L199.77 245.31 L200.16 244.31 L200.55 243.30 L200.94 242.30 L201.32 241.30 L201.71 240.30 L202.10 239.30 L202.49 238.30 L202.87 237.30 L203.26 236.29 L203.65 235.29 L204.03 234.29 L204.42 233.29 L204.80 232.29 L205.19 231.29 L205.57 230.29 L205.95 229.29 L206.34 228.29 L206.72 227.29 L207.10 226.28 L207.48 225.28 L207.87 224.28 L208.25 223.28 L208.63 222.28 L209.01 221.28 L209.39 220.28 L209.77 219.28 L210.15 218.28 L210.53 217.28 L210.91 216.28 L211.29 215.28 L211.67 214.28 L212.05 213.28 L212.43 212.28 L212.81 211.28 L213.18 210.28 L213.56 209.28 L213.94 208.28 L214.32 207.27 L214.70 206.27 L215.08 205.27 L215.45 204.27 L215.83 203.27 L216.21 202.27 L216.59 201.27 L216.97 200.27 L217.34 199.27 L217.72 198.27 L218.10 197.27 L218.48 196.27 L218.86 195.27 L219.23 194.27 L219.61 193.27 L219.99 192.27 L220.37 191.28 L220.75 190.28 L221.13 189.28 L221.50 188.28 L221.88 187.28 L222.26 186.28 L222.64 185.28 L223.02 184.28 L223.40 183.28 L223.78 182.28 L224.16 181.28 L224.54 180.28 L224.92 179.28 L225.30 178.28 L225.68 177.28 L226.06 176.28 L226.44 175.28 L226.82 174.28 L227.20 173.28 L227.58 172.29 L227.97 171.29 L228.35 170.29 L228.73 169.29 L229.12 168.29 L229.50 167.29 L229.88 166.29 L230.27 165.29 L230.65 164.29 L231.04 163.29 L231.42 162.30 L231.81 161.30 L232.20 160.30 L232.58 159.30 L232.97 158.30 L233.36 157.30 L233.75 156.30 L234.14 155.30 L234.53 154.31 L234.92 153.31 L235.31 152.31 L235.70 151.31 L236.09 150.31 L236.48 149.31 L236.88 148.32 L237.27 147.32 L237.66 146.32 L238.06 145.32 L238.45 144.32 L238.85 143.32 L239.25 142.33 L239.65 141.33 L240.05 140.33 L240.45 139.33 L240.85 138.33 L241.25 137.34 L241.65 136.34 L242.05 135.34 L242.46 134.34 L242.86 133.34 L243.27 132.35 L243.67 131.35 L244.08 130.35 L244.49 129.35 L244.90 128.36 L245.31 127.36 L245.72 126.36 L246.13 125.36 L246.55 124.37 L246.96 123.37 L247.38 122.37 L247.80 121.38 L248.22 120.38 L248.63 119.38 L249.06 118.38 L249.48 117.39 L249.90 116.39 L250.33 115.39 L250.75 114.40 L251.18 113.40 L251.61 112.40 L252.04 111.41 L252.47 110.41 L252.91 109.41 L253.34 108.42 L253.78 107.42 L254.22 106.43 L254.66 105.43 L255.10 104.43 L255.54 103.44 L255.99 102.44 L256.43 101.45 L256.88 100.45 L257.33 99.45 L257.78 98.46 L258.24 97.46 L258.70 96.47 L259.15 95.47 L259.61 94.48 L260.08 93.48 L260.54 92.49 L261.01 91.49 L261.48 90.50 L261.95 89.50 L262.43 88.51 L262.90 87.51 L263.38 86.52 L263.87 85.52 L264.35 84.53 L264.84 83.53 L265.33 82.54 L265.82 81.55 L266.32 80.55 L266.82 79.56 L267.32 78.57 L267.83 77.57 L268.34 76.58 L268.85 75.59 L269.37 74.59 L269.89 73.60 L270.41 72.61 L270.94 71.61 L271.47 70.62 L272.01 69.63 L272.55 68.64 L273.09 67.65 L273.64 66.65 L274.19 65.66 L274.75 64.67 L275.32 63.68 L275.88 62.69 L276.46 61.70 L277.04 60.71 L277.62 59.72 L278.21 58.73 L278.81 57.74 L279.41 56.75 L280.02 55.76 L280.64 54.77 L281.27 53.79 L281.90 52.80 L282.54 51.81 L283.18 50.82 L283.84 49.84 L284.51 48.85 L285.18 47.87 L285.87 46.88 L286.56 45.90 L287.27 44.91 L287.99 43.93 L288.72 42.95 L289.46 41.97 L290.22 40.98 L290.99 40.00 L291.78 39.03 L292.58 38.05 L293.40 37.07 L294.24 36.09 L295.11 35.12 L295.99 34.15 L296.90 33.18 L297.84 32.21 L298.80 31.24 L299.80 30.27 L300.83 29.31 L301.91 28.35 L303.03 27.40 L304.20 26.45 L305.44 25.50 L306.74 24.56 L308.13 23.63 L309.63 22.71 L311.25 21.81 L313.05 20.92 L315.05 20.08 L317.05 19.40 L319.05 18.86 L321.05 18.48 L323.05 18.25 L325.05 18.18 L327.05 18.26 L329.05 18.50 L331.05 18.89 L333.05 19.43 L335.05 20.12 L337.05 20.97 L339.05 21.97 L341.05 23.12 L342.79 24.24 L344.34 25.34 L345.76 26.42 L347.07 27.48 L348.30 28.54 L349.47 29.59 L350.58 30.63 L351.64 31.68 L352.66 32.71 L353.64 33.75 L354.59 34.78 L355.51 35.81 L356.40 36.84 L357.27 37.87 L358.11 38.89 L358.94 39.91 L359.74 40.94 L360.53 41.96 L361.31 42.98 L362.06 44.00 L362.80 45.02 L363.53 46.03 L364.25 47.05 L364.96 48.07 L365.65 49.08 L366.33 50.10 L367.00 51.11 L367.67 52.12 L368.32 53.14 L368.97 54.15 L369.60 55.16 L370.23 56.18 L370.85 57.19 L371.47 58.20 L372.08 59.21 L372.68 60.22 L373.27 61.23 L373.86 62.24 L374.44 63.25 L375.02 64.26 L375.59 65.27 L376.15 66.28 L376.71 67.29 L377.27 68.30 L377.82 69.31 L378.36 70.31 L378.90 71.32 L379.44 72.33 L379.97 73.34 L380.50 74.35 L381.03 75.35 L381.55 76.36 L382.07 77.37 L382.58 78.37 L383.09 79.38 L383.60 80.39 L384.10 81.39 L384.60 82.40 L385.10 83.41 L385.59 84.41 L386.08 85.42 L386.57 86.42 L387.06 87.43 L387.54 88.44 L388.02 89.44 L388.50 90.45 L388.97 91.45 L389.44 92.46 L389.91 93.46 L390.38 94.47 L390.85 95.47 L391.31 96.48 L391.77 97.48 L392.23 98.49 L392.68 99.49 L393.14 100.49 L393.59 101.50 L394.04 102.50 L394.49 103.51 L394.94 104.51 L395.38 105.52 L395.83 106.52 L396.27 107.52 L396.71 108.53 L397.15 109.53 L397.58 110.53 L398.02 111.54 L398.45 112.54 L398.88 113.54 L399.31 114.55 L399.74 115.55 L400.17 116.55 L400.59 117.56 L401.02 118.56 L401.44 119.56 L401.86 120.57 L402.29 121.57 L402.70 122.57 L403.12 123.58 L403.54 124.58 L403.96 125.58 L404.37 126.58 L404.78 127.59 L405.20 128.59 L405.61 129.59 L406.02 130.59 L406.43 131.60 L406.84 132.60 L407.24 133.60 L407.65 134.60 L408.06 135.61 L408.46 136.61 L408.86 137.61 L409.27 138.61 L409.67 139.62 L410.07 140.62 L410.47 141.62 L410.87 142.62 L411.27 143.62 L411.67 144.63 L412.06 145.63 L412.46 146.63 L412.85 147.63 L413.25 148.63 L413.64 149.63 L414.04 150.64 L414.43 151.64 L414.82 152.64 L415.21 153.64 L415.61 154.64 L416.00 155.64 L416.39 156.65 L416.78 157.65 L417.16 158.65 L417.55 159.65 L417.94 160.65 L418.33 161.65 L418.72 162.65 L419.10 163.65 L419.49 164.66 L419.87 165.66 L420.26 166.66 L420.64 167.66 L421.03 168.66 L421.41 169.66 L421.79 170.66 L422.18 171.66 L422.56 172.66 L422.94 173.66 L423.32 174.66 L423.71 175.67 L424.09 176.67 L424.47 177.67 L424.85 178.67 L425.23 179.67 L425.61 180.67 L425.99 181.67 L426.37 182.67 L426.75 183.67 L427.13 184.67 L427.51 185.67 L427.89 186.67 L428.27 187.67 L428.65 188.67 L429.03 189.67 L429.40 190.67 L429.78 191.67 L430.16 192.67 L430.54 193.67 L430.92 194.67 L431.30 195.67 L431.67 196.67 L432.05 197.67 L432.43 198.67 L432.81 199.67 L433.19 200.67 L433.56 201.67 L433.94 202.67 L434.32 203.67 L434.70 204.67 L435.07 205.67 L435.45 206.67 L435.83 207.67 L436.21 208.67 L436.59 209.67 L436.97 210.67 L437.34 211.67 L437.72 212.67 L438.10 213.67 L438.48 214.67 L438.86 215.67 L439.24 216.67 L439.62 217.67 L440.00 218.67 L440.38 219.67 L440.76 220.67 L441.14 221.67 L441.52 222.67 L441.90 223.67 L442.28 224.67 L442.66 225.67 L443.04 226.66 L443.43 227.66 L443.81 228.66 L444.19 229.66 L444.57 230.66 L444.96 231.66 L445.34 232.66 L445.72 233.66 L446.11 234.66 L446.49 235.66 L446.88 236.65 L447.26 237.65 L447.65 238.65 L448.04 239.65 L448.42 240.65 L448.81 241.65 L449.20 242.65 L449.59 243.65 L449.98 244.64 L450.37 245.64 L450.76 246.64 L451.15 247.64 L451.54 248.64 L451.93 249.64 L452.32 250.64 L452.72 251.63 L453.11 252.63 L453.50 253.63 L453.90 254.63 L454.29 255.63 L454.69 256.62 L455.09 257.62 L455.49 258.62 L455.89 259.62 L456.28 260.62 L456.69 261.62 L457.09 262.61 L457.49 263.61 L457.89 264.61 L458.30 265.61 L458.70 266.60 L459.11 267.60 L459.51 268.60 L459.92 269.60 L460.33 270.59 L460.74 271.59 L461.15 272.59 L461.56 273.59 L461.97 274.58 L462.39 275.58 L462.80 276.58 L463.22 277.58 L463.64 278.57 L464.05 279.57 L464.47 280.57 L464.89 281.56 L465.32 282.56 L465.74 283.56 L466.16 284.55 L466.59 285.55 L467.02 286.55 L467.45 287.54 L467.88 288.54 L468.31 289.54 L468.74 290.53 L469.18 291.53 L469.61 292.53 L470.05 293.52 L470.49 294.52 L470.93 295.52 L471.38 296.51 L471.82 297.51 L472.27 298.50 L472.72 299.50 L473.17 300.50 L473.62 301.49 L474.08 302.49 L474.53 303.48 L474.99 304.48 L475.45 305.47 L475.91 306.47 L476.38 307.46 L476.85 308.46 L477.32 309.45 L477.79 310.45 L478.26 311.44 L478.74 312.44 L479.22 313.43 L479.70 314.43 L480.19 315.42 L480.67 316.41 L481.16 317.41 L481.66 318.40 L482.15 319.40 L482.65 320.39 L483.16 321.38 L483.66 322.38 L484.17 323.37 L484.68 324.36 L485.20 325.36 L485.72 326.35 L486.24 327.34 L486.77 328.33 L487.30 329.33 L487.84 330.32 L488.38 331.31 L488.92 332.30 L489.47 333.29 L490.02 334.29 L490.58 335.28 L491.15 336.27 L491.71 337.26 L492.29 338.25 L492.87 339.24 L493.45 340.23 L494.04 341.22 L494.64 342.21 L495.24 343.20 L495.85 344.19 L496.47 345.17 L497.09 346.16 L497.72 347.15 L498.36 348.14 L499.01 349.13 L499.67 350.11 L500.33 351.10 L501.01 352.08 L501.69 353.07 L502.39 354.05 L503.09 355.04 L503.81 356.02 L504.54 357.00 L505.28 357.98 L506.04 358.97 L506.81 359.95 L507.60 360.92 L508.40 361.90 L509.22 362.88 L510.06 363.86 L510.92 364.83 L511.81 365.80 L512.71 366.77 L513.65 367.74 L514.61 368.71 L515.61 369.68 L516.64 370.64 L517.71 371.60 L518.83 372.55 L520.00 373.51 L521.23 374.45 L522.53 375.39 L523.92 376.32 L525.41 377.24 L527.03 378.15 L528.81 379.03 L530.81 379.88 L532.81 380.57 L534.81 381.11 L536.81 381.50 L538.81 381.74 L540.81 381.82 L542.81 381.74 L544.81 381.52 L546.81 381.14 L548.81 380.60 L550.81 379.91 L552.81 379.07 L554.81 378.08 L556.81 376.94 L558.56 375.82 L560.12 374.72 L561.55 373.64 L562.86 372.57 L564.10 371.52 L565.27 370.47 L566.38 369.42 L567.44 368.38 L568.47 367.34 L569.45 366.31 L570.40 365.27 L571.32 364.24 L572.21 363.21 L573.08 362.19 L573.93 361.16 L574.76 360.14 L575.56 359.12 L576.35 358.10 L577.13 357.08 L577.88 356.06 L578.63 355.04 L579.36 354.02 L580.07 353.00 L580.78 351.99 L581.47 350.97 L582.16 349.96 L582.83 348.94 L583.49 347.93 L584.15 346.91 L584.79 345.90 L585.43 344.89 L586.06 343.88 L586.68 342.86 L587.30 341.85 L587.90 340.84 L588.50 339.83 L589.10 338.82 L589.69 337.81 L590.27 336.80 L590.85 335.79 L591.42 334.78 L591.98 333.77 L592.54 332.76 L593.10 331.75 L593.65 330.75 L594.20 329.74 L594.74 328.73 L595.27 327.72 L595.81 326.71 L596.34 325.71 L596.86 324.70 L597.38 323.69 L597.90 322.69 L598.41 321.68 L598.92 320.67 L599.43 319.66 L599.93 318.66 L600.43 317.65 L600.93 316.65 L601.43 315.64 L601.92 314.63 L602.41 313.63 L602.89 312.62 L603.37 311.62 L603.85 310.61 L604.33 309.61 L604.81 308.60 L605.28 307.60 L605.75 306.59 L606.22 305.59 L606.68 304.58 L607.14 303.58 L607.61 302.57 L608.06 301.57 L608.52 300.56 L608.98 299.56 L609.43 298.55 L609.88 297.55 L610.33 296.55 L610.77 295.54 L611.22 294.54 L611.66 293.53 L612.10 292.53 L612.54 291.53 L612.98 290.52 L613.42 289.52 L613.85 288.51 L614.29 287.51 L614.72 286.51 L615.15 285.50 L615.58 284.50 L616.01 283.50 L616.43 282.49 L616.86 281.49 L617.28 280.49 L617.70 279.48 L618.12 278.48 L618.54 277.48 L618.96 276.48 L619.38 275.47 L619.79 274.47 L620.21 273.47 L620.62 272.47 L621.04 271.46 L621.45 270.46 L621.86 269.46 L622.27 268.46 L622.67 267.45 L623.08 266.45 L623.49 265.45 L623.89 264.45 L624.30 263.44 L624.70 262.44 L625.11 261.44 L625.51 260.44 L625.91 259.43 L626.31 258.43 L626.71 257.43 L627.11 256.43 L627.50 255.43 L627.90 254.43 L628.30 253.42 L628.69 252.42 L629.09 251.42 L629.48 250.42 L629.88 249.42 L630.27 248.41 L630.66 247.41 L631.05 246.41 L631.45 245.41 L631.84 244.41 L632.23 243.41 L632.62 242.41 L633.00 241.40 L633.39 240.40 L633.78 239.40 L634.17 238.40 L634.55 237.40 L634.94 236.40 L635.33 235.40 L635.71 234.40 L636.10 233.40 L636.48 232.39 L636.87 231.39 L637.25 230.39 L637.63 229.39 L638.02 228.39 L638.40 227.39 L638.78 226.39 L639.16 225.39 L639.55 224.39 L639.93 223.39 L640.31 222.39 L640.69 221.38 L641.07 220.38 L641.45 219.38 L641.83 218.38 L642.21 217.38 L642.59 216.38 L642.97 215.38 L643.35 214.38 L643.73 213.38 L644.11 212.38 L644.49 211.38 L644.87 210.38 L645.24 209.38 L645.62 208.38 L646.00 207.38 L646.38 206.38 L646.76 205.38 L647.14 204.38 L647.51 203.38 L647.89 202.38 L648.27 201.38 L648.65 200.38 L649.03 199.38 L649.40 198.38 L649.78 197.38 " style="fill:none;stroke:#000000;stroke-width:1;" /></g></svg>