<?xml version="1.0" encoding="UTF-8" standalone="no"?>
<svg
   xmlns:dc="http://purl.org/dc/elements/1.1/"
   xmlns:cc="http://creativecommons.org/ns#"
   xmlns:rdf="http://www.w3.org/1999/02/22-rdf-syntax-ns#"
   xmlns:svg="http://www.w3.org/2000/svg"
   xmlns="http://www.w3.org/2000/svg"
   xmlns:sodipodi="http://sodipodi.sourceforge.net/DTD/sodipodi-0.dtd"
   xmlns:inkscape="http://www.inkscape.org/namespaces/inkscape"
   viewBox="0 0 512.00568 149.96057"
   version="1.1"
   id="svg11"
   sodipodi:docname="wave_2.svg"
   width="512.00568"
   height="149.96057"
   inkscape:version="0.92.0 r15299">
  <metadata
     id="metadata17">
    <rdf:RDF>
      <cc:Work
         rdf:about="">
        <dc:format>image/svg+xml</dc:format>
        <dc:type
           rdf:resource="http://purl.org/dc/dcmitype/StillImage" />
      </cc:Work>
    </rdf:RDF>
  </metadata>
  <defs
     id="defs15" />
  <sodipodi:namedview
     pagecolor="#ffffff"
     bordercolor="#666666"
     borderopacity="1"
     objecttolerance="10"
     gridtolerance="10"
     guidetolerance="10"
     inkscape:pageopacity="0"
     inkscape:pageshadow="2"
     inkscape:window-width="958"
     inkscape:window-height="1008"
     id="namedview13"
     showgrid="false"
     inkscape:zoom="1.7476923"
     inkscape:cx="148.78352"
     inkscape:cy="10.195313"
     inkscape:window-x="-7"
     inkscape:window-y="0"
     inkscape:window-maximized="0"
     inkscape:current-layer="svg11" />
  <clipPath
     id="box">
    <rect
       x="0"
       y="0"
       width="650"
       height="400"
       style="fill:none;stroke:none"
       id="rect2" />
  </clipPath>
  <g
     clip-path="url(#box)"
     id="g9"
     transform="scale(0.78770108,0.37490142)"
     style="fill:none;fill-opacity:1;stroke:#e20000;stroke-width:3.68036365;stroke-miterlimit:4;stroke-dasharray:none;stroke-opacity:1"
     inkscape:export-filename="C:\Users\Keith Grant\Desktop\punch_at_the_peak\SuperPunchAtThePeak2\Assets\PNG\wave_2.png"
     inkscape:export-xdpi="96"
     inkscape:export-ydpi="96">
    <rect
       x="0"
       y="0"
       width="650"
       height="400"
       style="fill:none;fill-opacity:1;stroke:#e20000;stroke-width:3.68036365;stroke-miterlimit:4;stroke-dasharray:none;stroke-opacity:1"
       id="rect5" />
    <path
       d="m -10,200 9.75,0.77 1,0.42 2,1.1 1.81,1.31 1.38,1.19 1.16,1.13 1.03,1.1 0.94,1.07 0.87,1.07 0.82,1.06 0.77,1.05 0.73,1.04 0.71,1.04 0.67,1.04 0.66,1.03 0.63,1.03 0.61,1.03 0.6,1.03 0.58,1.02 0.56,1.03 0.55,1.02 0.54,1.02 0.53,1.02 0.52,1.02 0.51,1.02 0.5,1.02 0.49,1.01 0.48,1.02 0.48,1.01 0.47,1.02 0.46,1.01 0.46,1.01 0.45,1.02 0.45,1.01 0.44,1.01 0.43,1.01 0.43,1.01 0.43,1.01 0.42,1.01 0.42,1.01 0.41,1.01 0.41,1.01 0.41,1.01 0.4,1.01 0.4,1 0.39,1.01 0.4,1.01 0.39,1.01 0.38,1 0.39,1.01 0.38,1.01 0.38,1 0.38,1.01 0.37,1 0.38,1.01 0.37,1 0.36,1.01 0.37,1.01 0.37,1 0.36,1 0.36,1.01 0.36,1 0.36,1.01 0.36,1 0.35,1.01 0.35,1 0.36,1 0.35,1.01 0.35,1 0.35,1 0.35,1.01 0.34,1 0.35,1 0.34,1.01 0.35,1 0.34,1 0.34,1 0.34,1 0.34,1.01 0.34,1 0.34,1 0.34,1 0.34,1 0.33,1.01 0.34,1 0.34,1 0.33,1 0.34,1 0.33,1 0.34,1 0.33,1 0.34,1 0.33,1 0.34,1 0.33,1 0.33,1.01 0.34,1 0.33,1 0.33,1 0.34,0.99 0.33,1 0.34,1 0.33,1 0.33,1 0.34,1 0.33,1 0.34,1 0.33,1 0.34,1 0.34,1 0.33,1 0.34,0.99 0.34,1 0.33,1 0.34,1 0.34,1 0.34,0.99 0.34,1 0.34,1 0.35,1 0.34,0.99 0.34,1 0.35,1 0.34,1 0.35,0.99 0.35,1 0.35,1 0.35,0.99 0.35,1 0.35,0.99 0.36,1 0.35,1 0.36,0.99 0.36,1 0.36,0.99 0.36,1 0.37,0.99 0.36,1 0.37,0.99 0.37,1 0.37,0.99 0.37,1 0.38,0.99 0.38,0.99 0.38,1 0.38,0.99 0.39,0.99 0.39,0.99 0.39,1 0.39,0.99 0.4,0.99 0.4,0.99 0.41,0.99 0.41,0.99 0.41,0.99 0.42,0.99 0.42,0.99 0.42,0.99 0.43,0.99 0.43,0.99 0.44,0.99 0.45,0.99 0.45,0.98 0.45,0.99 0.47,0.99 0.47,0.98 0.47,0.99 0.48,0.98 0.5,0.98 0.5,0.98 0.51,0.99 0.51,0.98 0.53,0.97 0.54,0.98 0.56,0.98 0.56,0.97 0.59,0.98 0.59,0.97 0.62,0.97 0.63,0.96 0.66,0.97 0.68,0.96 0.7,0.96 0.74,0.95 0.78,0.95 0.82,0.94 0.87,0.93 0.93,0.92 1.02,0.91 1.12,0.88 1.26,0.85 1.49,0.8 1.86,0.68 2,0.34 2,-0.08 2,-0.51 2,-0.93 2,-1.37 1.47,-1.27 1.15,-1.16 0.99,-1.12 0.89,-1.09 0.81,-1.07 0.76,-1.07 0.71,-1.05 0.68,-1.05 0.64,-1.05 0.61,-1.04 0.59,-1.04 0.57,-1.03 0.55,-1.03 0.54,-1.03 0.51,-1.03 0.51,-1.03 0.49,-1.02 0.48,-1.03 0.46,-1.02 0.46,-1.02 0.45,-1.02 0.43,-1.02 0.43,-1.02 0.43,-1.02 0.41,-1.01 0.41,-1.02 0.4,-1.02 0.39,-1.01 0.39,-1.02 0.38,-1.01 0.38,-1.01 0.37,-1.02 0.37,-1.01 0.36,-1.01 0.36,-1.02 0.36,-1.01 0.35,-1.01 0.34,-1.01 0.34,-1.01 0.34,-1.01 0.34,-1.01 0.33,-1.01 0.33,-1.01 0.32,-1.01 0.32,-1.01 0.32,-1.01 0.32,-1.01 0.31,-1.01 0.31,-1.01 0.31,-1 0.31,-1.01 0.3,-1.01 0.3,-1.01 0.3,-1 0.29,-1.01 0.3,-1.01 0.29,-1.01 0.29,-1 0.29,-1.01 0.29,-1.01 0.28,-1 0.28,-1.01 0.28,-1 0.28,-1.01 0.28,-1.01 0.28,-1 0.27,-1.01 0.27,-1 0.27,-1.01 0.27,-1 0.27,-1.01 0.27,-1.01 0.26,-1 0.27,-1.01 0.26,-1 0.26,-1.01 0.26,-1 0.26,-1 0.26,-1.01 0.25,-1 0.26,-1.01 0.25,-1 0.26,-1.01 0.25,-1 0.25,-1 0.25,-1.01 0.25,-1 0.25,-1.01 0.24,-1 0.25,-1 0.24,-1.01 0.25,-1 0.24,-1.01 0.24,-1 0.25,-1 0.24,-1.01 0.24,-1 0.24,-1 0.23,-1.01 0.24,-1 0.24,-1 0.23,-1 0.24,-1.01 0.23,-1 0.24,-1 0.23,-1.01 0.23,-1 0.24,-1 0.23,-1 0.23,-1.01 0.23,-1 0.23,-1 0.23,-1.01 0.23,-1 0.22,-1 0.23,-1 0.23,-1 0.22,-1.01 0.23,-1 0.23,-1 0.22,-1 0.22,-1.01 0.23,-1 0.22,-1 0.22,-1 0.23,-1 0.22,-1.01 0.22,-1 0.22,-1 0.22,-1 0.22,-1 0.22,-1 0.22,-1.01 0.22,-1 0.22,-1 0.22,-1 0.22,-1 0.21,-1 0.22,-1.01 0.22,-1 0.22,-1 0.21,-1 0.22,-1 0.21,-1 0.22,-1 0.21,-1.01 0.22,-1 0.21,-1 0.22,-1 0.21,-1 0.22,-1 0.21,-1 0.22,-1 0.21,-1 0.21,-1.01 0.21,-1 0.22,-1 0.21,-1 0.21,-1 0.21,-1 0.22,-1 0.21,-1 0.21,-1 0.21,-1 0.21,-1 0.21,-1 0.22,-1 0.21,-1.01 0.21,-1 0.21,-1 0.21,-1 0.21,-1 0.21,-1 0.21,-1 0.21,-1 0.21,-1 0.21,-1 0.21,-1 0.21,-1 0.21,-1 0.21,-1 0.21,-1 0.21,-1 0.21,-1 0.21,-1 0.21,-1 0.21,-1 0.21,-1 0.21,-1 0.21,-1 0.21,-1 0.21,-1 0.21,-1 0.21,-1 0.21,-1 0.21,-1 0.21,-1 0.21,-1 0.21,-1 0.21,-1 0.21,-1 0.21,-1 0.21,-1 0.21,-1 0.21,-1 0.21,-1 0.21,-1 0.21,-1 0.21,-0.99 0.21,-1 0.21,-1 0.21,-1 0.21,-1 0.22,-1 0.21,-1 0.21,-1 0.21,-1 0.21,-1 0.22,-1 0.21,-1 0.21,-1 0.21,-0.99 0.22,-1 0.21,-1 0.21,-1 0.22,-1 0.21,-1 0.22,-1 0.21,-1 0.22,-1 0.21,-0.99 0.22,-1 0.21,-1 0.22,-1 0.21,-1 0.22,-1 0.22,-1 0.21,-0.99 0.22,-1 0.22,-1 0.22,-1 0.22,-1 0.21,-1 0.22,-1 0.22,-0.99 0.22,-1 0.22,-1 0.22,-1 0.23,-1 0.22,-0.99 0.22,-1 0.22,-1 0.22,-1 0.23,-1 0.22,-0.99 0.22,-1 0.23,-1 0.22,-1 0.23,-1 0.23,-0.99 0.22,-1 0.23,-1 0.23,-1 0.23,-0.99 0.23,-1 0.22,-1 0.23,-1 0.24,-0.99 0.23,-1 0.23,-1 0.23,-0.99 0.23,-1 0.24,-1 0.23,-1 0.24,-0.99 0.23,-1 0.24,-1 0.24,-0.99 0.24,-1 0.23,-1 0.24,-0.99 0.25,-1 0.24,-1 0.24,-0.99 0.24,-1 0.25,-1 0.24,-0.99 0.25,-1 0.24,-0.99 0.25,-1 0.25,-1 0.25,-0.99 0.25,-1 0.25,-0.99 0.25,-1 0.26,-1 0.25,-0.99 0.26,-1 0.25,-0.99 0.26,-1 0.26,-0.99 0.26,-1 0.26,-0.99 0.27,-1 0.26,-0.99 0.27,-1 0.27,-0.99 0.26,-1 0.27,-0.99 0.28,-1 0.27,-0.99 0.27,-1 0.28,-0.99 0.28,-0.99 0.28,-1 0.28,-0.99 0.28,-0.99 0.29,-1 0.28,-0.99 0.29,-0.99 0.29,-1 0.3,-0.99 0.29,-0.99 0.3,-1 0.3,-0.99 0.3,-0.99 0.3,-0.99 0.31,-1 0.31,-0.99 0.31,-0.99 0.31,-0.99 0.32,-0.99 0.32,-0.99 0.32,-0.99 0.32,-0.99 0.33,-0.99 0.33,-0.99 0.34,-0.99 0.34,-0.99 0.34,-0.99 0.35,-0.99 0.34,-0.99 0.36,-0.99 0.36,-0.99 0.36,-0.98 0.36,-0.99 0.38,-0.99 0.37,-0.98 0.38,-0.99 0.39,-0.99 0.39,-0.98 0.4,-0.99 0.41,-0.98 0.41,-0.98 0.42,-0.99 0.42,-0.98 0.44,-0.98 0.44,-0.98 0.45,-0.98 0.46,-0.98 0.47,-0.97 0.48,-0.98 0.49,-0.98 0.51,-0.97 0.52,-0.97 0.53,-0.97 0.55,-0.97 0.57,-0.97 0.59,-0.96 0.61,-0.96 0.63,-0.96 0.66,-0.95 0.7,-0.95 0.73,-0.95 0.77,-0.93 0.83,-0.93 0.89,-0.92 0.97,-0.9 1.07,-0.88 1.22,-0.85 1.44,-0.8 1.81,-0.68 2,-0.36 2,0.07 2,0.49 2,0.89 2,1.3 1.54,1.27 1.22,1.16 1.05,1.11 0.94,1.08 0.87,1.08 0.81,1.06 0.77,1.05 0.72,1.05 0.69,1.04 0.67,1.04 0.64,1.03 0.62,1.03 0.6,1.03 0.58,1.03 0.57,1.03 0.55,1.02 0.54,1.02 0.53,1.02 0.52,1.02 0.51,1.02 0.5,1.02 0.49,1.02 0.48,1.01 0.47,1.02 0.47,1.01 0.46,1.02 0.45,1.01 0.45,1.01 0.44,1.01 0.44,1.02 0.43,1.01 0.43,1.01 0.42,1.01 0.42,1.01 0.41,1.01 0.41,1.01 0.41,1.01 0.4,1 0.4,1.01 0.4,1.01 0.39,1.01 0.39,1.01 0.39,1 0.38,1.01 0.38,1.01 0.38,1 0.38,1.01 0.37,1.01 0.38,1 0.37,1.01 0.36,1 0.37,1.01 0.37,1 0.36,1.01 0.36,1 0.36,1.01 0.36,1 0.35,1 0.36,1.01 0.35,1 0.35,1.01 0.35,1 0.35,1 0.35,1.01 0.35,1 0.34,1 0.35,1 0.34,1.01 0.34,1 0.35,1 0.34,1 0.34,1.01 0.34,1 0.34,1 0.34,1 0.33,1 0.34,1 0.34,1.01 0.33,1 0.34,1 0.34,1 0.33,1 0.34,1 0.33,1 0.34,1 0.33,1 0.33,1 0.34,1 0.33,1 0.33,1 0.34,1 0.33,1 0.34,1 0.33,1 0.33,1 0.34,1 0.33,1 0.34,1 0.33,1 0.34,1 0.33,1 0.34,1 0.33,1 0.34,1 0.33,0.99 0.34,1 0.34,1 0.34,1 0.34,1 0.34,0.99 0.34,1 0.34,1 0.34,1 0.34,1 0.35,0.99 0.34,1 0.35,1 0.34,0.99 0.35,1 0.35,1 0.35,0.99 0.35,1 0.35,1 0.36,0.99 0.35,1 0.36,0.99 0.36,1 0.36,1 0.36,0.99 0.36,1 0.37,0.99 0.36,1 0.37,0.99 0.37,1 0.37,0.99 0.38,0.99 0.37,1 0.38,0.99 0.38,0.99 0.39,1 0.38,0.99 0.39,0.99 0.4,1 0.39,0.99 0.4,0.99 0.4,0.99 0.4,0.99 0.41,1 0.41,0.99 0.42,0.99 0.42,0.99 0.42,0.99 0.43,0.99 0.43,0.99 0.44,0.98 0.44,0.99 0.45,0.99 0.45,0.99 0.46,0.98 0.47,0.99 0.47,0.99 0.48,0.98 0.48,0.99 0.49,0.98 0.51,0.98 0.51,0.98 0.52,0.99 0.53,0.98 0.54,0.97 0.55,0.98 0.56,0.98 0.58,0.97 0.59,0.98 0.61,0.97 0.63,0.97 0.64,0.97 0.67,0.96 0.69,0.97 0.71,0.95 0.75,0.96 0.79,0.95 0.82,0.94 0.87,0.94 0.93,0.93 1.01,0.92 1.09,0.9 1.22,0.87 1.38,0.84 1.65,0.78 2,0.61 2,0.24 2,-0.11 2,-0.48 2,-0.85 2,-1.2 1.67,-1.27 1.31,-1.17 1.12,-1.12 1,-1.09 0.92,-1.07 0.86,-1.06 0.8,-1.06 0.76,-1.05 0.73,-1.04 0.7,-1.04 0.67,-1.04 0.64,-1.03 0.63,-1.03 0.61,-1.03 0.59,-1.03 0.57,-1.02 0.57,-1.02 0.54,-1.03 0.54,-1.02 0.53,-1.02 0.51,-1.01 0.51,-1.02 0.5,-1.02 0.49,-1.01 0.48,-1.02 0.47,-1.01 0.47,-1.02 0.46,-1.01 0.46,-1.01 0.45,-1.02 0.44,-1.01 0.44,-1.01 0.43,-1.01 0.43,-1.01 0.43,-1.01 0.42,-1.01 0.41,-1.01 0.42,-1.01 0.41,-1.01 0.4,-1.01 0.4,-1.01 0.4,-1 0.4,-1.01 0.39,-1.01 0.39,-1.01 0.38,-1 0.39,-1.01 0.38,-1.01 0.38,-1 0.37,-1.01 0.38,-1 0.37,-1.01 0.37,-1 0.37,-1.01 0.37,-1.01 0.36,-1 0.36,-1 0.36,-1.01 0.36,-1 0.36,-1.01 0.36,-1 0.35,-1.01 0.36,-1 0.35,-1 0.35,-1.01 0.35,-1 0.35,-1 0.35,-1.01 0.34,-1 0.35,-1 0.34,-1 0.35,-1.01 0.34,-1 0.34,-1 0.34,-1 0.34,-1.01 0.34,-1 0.34,-1 0.34,-1 0.34,-1 0.33,-1 0.34,-1.01 0.34,-1 0.33,-1 0.34,-1 0.33,-1 0.34,-1 0.33,-1 0.34,-1 0.33,-1 0.33,-1 0.34,-1 0.33,-1 0.33,-1 0.34,-1 0.33,-1 0.34,-1 0.33,-1 0.33,-1 0.34,-1 0.33,-1 0.34,-1 0.33,-1 0.34,-1 0.33,-1 0.34,-1 0.33,-1 0.34,-0.99 0.34,-1 0.33,-1 0.34,-1 0.34,-1 0.34,-0.99 0.34,-1 0.34,-1 0.34,-1 0.34,-1 0.35,-0.99 0.34,-1 0.35,-1 0.34,-0.99 0.35,-1 0.35,-1 0.35,-0.99 0.35,-1 0.35,-1 0.35,-0.99 0.36,-1 0.36,-0.99 0.35,-1 0.36,-1 0.36,-0.99 0.37,-1 0.36,-0.99 0.37,-1 0.36,-0.99 0.37,-0.99 0.38,-1 0.37,-0.99 0.38,-1 0.38,-0.99 0.38,-0.99 0.38,-1 0.39,-0.99 0.39,-0.99 0.39,-0.99 0.4,-1 0.4,-0.99 0.4,-0.99 0.4,-0.99 0.41,-0.99 0.42,-0.99 0.41,-0.99 0.43,-0.99 0.42,-0.99 0.43,-0.99 0.44,-0.99 0.44,-0.98 0.44,-0.99 0.46,-0.99 0.45,-0.99 0.47,-0.98 0.47,-0.99 0.48,-0.98 0.48,-0.98 0.5,-0.99 0.5,-0.98 0.51,-0.98 0.52,-0.98 0.53,-0.98 0.55,-0.98 0.55,-0.97 0.57,-0.98 0.59,-0.97 0.6,-0.97 0.62,-0.97 0.64,-0.96 0.66,-0.97 0.69,-0.96 0.71,-0.95 0.75,-0.96 0.79,-0.94 0.83,-0.94 0.88,-0.93 0.96,-0.92 1.04,-0.9 1.15,-0.88 1.31,-0.84 1.57,-0.77 2,-0.63 2,-0.22 2,0.2 2,0.63 2,1.06 1.89,1.39 1.35,1.24 1.1,1.15 0.95,1.1 0.87,1.09 0.8,1.07 0.74,1.06 0.7,1.05 0.67,1.05 0.63,1.05 0.61,1.04 0.58,1.03 0.56,1.04 0.55,1.03 0.53,1.03 0.51,1.03 0.5,1.02 0.49,1.03 0.47,1.02 0.47,1.02 0.45,1.02 0.44,1.02 0.44,1.02 0.43,1.02 0.42,1.02 0.41,1.02 0.4,1.01 0.4,1.02 0.4,1.01 0.38,1.02 0.38,1.01 0.38,1.02 0.37,1.01 0.37,1.01 0.36,1.02 0.35,1.01 0.36,1.01 0.35,1.01 0.34,1.01 0.34,1.01 0.34,1.01 0.33,1.01 0.33,1.01 0.33,1.01 0.32,1.01 0.33,1.01 0.31,1.01 0.32,1.01 0.31,1.01 0.31,1.01 0.31,1 0.3,1.01 0.31,1.01 0.3,1.01 0.29,1 0.3,1.01 0.29,1.01 0.3,1.01 0.28,1 0.29,1.01 0.29,1.01 0.28,1 0.28,1.01 0.28,1 0.28,1.01 0.28,1.01 0.27,1 0.28,1.01 0.27,1 0.27,1.01 0.27,1 0.27,1.01 0.26,1 0.27,1.01 0.26,1 0.26,1.01 0.27,1 0.26,1.01 0.25,1 0.26,1.01 0.26,1 0.25,1.01 0.26,1 0.25,1.01 0.25,1 0.25,1 0.25,1.01 0.25,1 0.25,1.01 0.24,1 0.25,1 0.24,1.01 0.25,1 0.24,1 0.24,1.01 0.25,1 0.24,1 0.24,1.01 0.23,1 0.24,1 0.24,1.01 0.24,1 0.23,1 0.24,1.01 0.23,1 0.24,1 0.23,1.01 0.23,1 0.23,1 0.24,1 0.23,1.01 0.23,1 0.23,1 0.22,1 0.23,1.01 0.23,1 0.23,1 0.22,1 0.23,1.01 0.23,1 0.22,1 0.23,1 0.22,1 0.22,1.01 0.23,1 0.22,1 0.22,1 0.22,1 0.22,1.01 0.23,1 0.22,1 0.22,1 0.22,1 0.22,1 0.21,1.01 0.22,1 0.22,1 0.22,1 0.22,1 0.21,1 0.22,1.01 0.22,1 0.21,1 0.22,1 0.22,1 0.21,1 0.22,1 0.21,1 0.22,1.01 0.21,1 0.22,1 0.21,1 0.21,1 0.22,1 0.21,1 0.21,1 0.22,1 0.21,1.01 0.21,1 0.21,1 0.22,1 0.21,1 0.21,1 0.21,1 0.21,1 0.21,1 0.22,1 0.21,1 0.21,1 0.21,1 0.21,1 0.21,1 0.21,1.01 0.21,1 0.21,1 0.21,1 0.21,1 0.21,1 0.21,1 0.21,1 0.21,1 0.21,1 0.21,1 0.21,1 0.21,1 0.21,1 0.21,1 0.21,1 0.21,1 0.21,1 0.21,1 0.21,1 0.21,1 0.21,1 0.21,1 0.21,1 0.21,1 0.21,1 0.21,1 0.21,1 0.21,1 0.21,1 0.21,1 0.21,1 0.21,1 0.21,0.99 0.21,1 0.21,1 0.21,1 0.21,1 0.21,1 0.21,1 0.21,1 0.22,1 0.21,1 0.21,1 0.21,1 0.21,1 0.22,1 0.21,0.99 0.21,1 0.21,1 0.22,1 0.21,1 0.21,1 0.22,1 0.21,1 0.21,1 0.22,1 0.21,0.99 0.22,1 0.21,1 0.22,1 0.21,1 0.22,1 0.22,1 0.21,1 0.22,0.99 0.22,1 0.21,1 0.22,1 0.22,1 0.22,1 0.22,0.99 0.22,1 0.22,1 0.22,1 0.22,1 0.22,1 0.22,0.99 0.22,1 0.22,1 0.23,1 0.22,1 0.22,0.99 0.23,1 0.22,1 0.22,1 0.23,0.99 0.23,1 0.22,1 0.23,1 0.23,1 0.22,0.99 0.23,1 0.23,1 0.23,1 0.23,0.99 0.23,1 0.23,1 0.24,0.99 0.23,1 0.23,1 0.24,1 0.23,0.99 0.24,1 0.23,1 0.24,0.99 0.24,1 0.24,1 0.23,0.99 0.24,1 0.24,1 0.25,0.99 0.24,1 0.24,1 0.25,0.99 0.24,1 0.25,1 0.24,0.99 0.25,1 0.25,0.99 0.25,1 0.25,1 0.25,0.99 0.26,1 0.25,0.99 0.26,1 0.25,0.99 0.26,1 0.26,0.99 0.26,1 0.26,1 0.26,0.99 0.26,1 0.27,0.99 0.27,0.99 0.26,1 0.27,0.99 0.27,1 0.28,0.99 0.27,1 0.27,0.99 0.28,1 0.28,0.99 0.28,0.99 0.28,1 0.28,0.99 0.29,0.99 0.29,1 0.29,0.99 0.29,0.99 0.29,1 0.3,0.99 0.29,0.99 0.3,0.99 0.31,1 0.3,0.99 0.31,0.99 0.31,0.99 0.31,0.99 0.31,1 0.32,0.99 0.32,0.99 0.32,0.99 0.33,0.99 0.33,0.99 0.33,0.99 0.34,0.99 0.34,0.99 0.34,0.99 0.35,0.99 0.35,0.98 0.35,0.99 0.36,0.99 0.36,0.99 0.37,0.99 0.37,0.98 0.38,0.99 0.38,0.98 0.39,0.99 0.4,0.98 0.4,0.99 0.4,0.98 0.42,0.99 0.42,0.98 0.43,0.98 0.43,0.98 0.45,0.98 0.45,0.98 0.46,0.98 0.48,0.98 0.48,0.97 0.5,0.98 0.51,0.97 0.52,0.97 0.54,0.97 0.55,0.97 0.58,0.96 0.59,0.97 0.62,0.96 0.64,0.96 0.67,0.95 0.71,0.95 0.74,0.94 0.79,0.93 0.84,0.93 0.91,0.91 1,0.9 1.11,0.87 1.27,0.84 1.52,0.77 1.97,0.63 2,0.22 2,-0.2 2,-0.62 2,-1.02 1.96,-1.39 1.41,-1.23 1.15,-1.14 1.01,-1.1 0.91,-1.08 0.85,-1.07 0.79,-1.05 0.75,-1.05 0.71,-1.05 0.68,-1.04 0.66,-1.04 0.63,-1.03 0.62,-1.03 0.59,-1.03 0.58,-1.03 0.56,-1.02 0.55,-1.02 0.53,-1.03 0.53,-1.02 0.51,-1.02 0.51,-1.01 0.49,-1.02 0.49,-1.02 0.48,-1.01 0.47,-1.02 0.47,-1.01 0.45,-1.02 0.45,-1.01 0.45,-1.01 0.44,-1.01 0.44,-1.02 0.43,-1.01 0.42,-1.01 0.42,-1.01 0.42,-1.01 0.41,-1.01 0.41,-1.01 0.4,-1.01 0.41,-1 0.39,-1.01 0.4,-1.01 0.39,-1.01 0.39,-1 0.39,-1.01 0.38,-1.01 0.38,-1.01 0.38,-1 0.37,-1.01 0.38,-1 0.37,-1.01 0.37,-1 0.37,-1.01 0.36,-1.01 0.37,-1 0.36,-1 0.36,-1.01 0.36,-1 0.35,-1.01 0.36,-1 0.35,-1.01 0.35,-1 0.36,-1 0.35,-1.01 0.35,-1 0.34,-1 0.35,-1.01 0.35,-1 0.34,-1 0.34,-1 0.35,-1.01 0.34,-1 0.34,-1 0.34,-1 0.34,-1.01 0.34,-1 0.34,-1 0.33,-1 0.34,-1 0.34,-1 0.34,-1 0.33,-1.01 0.34,-1 0.33,-1 0.34,-1 0.33,-1 0.34,-1 0.33,-1 0.33,-1 0.34,-1 0.33,-1 0.33,-1 0.34,-1 0.33,-1 0.34,-1 0.33,-1 0.33,-1 0.34,-1 0.33,-1 0.34,-1 0.33,-1 0.34,-1 0.33,-1 0.34,-0.99 0.33,-1 0.34,-1 0.34,-1 0.33,-1 0.34,-1 0.34,-0.99 0.34,-1 0.34,-1 0.34,-1 0.34,-1 0.34,-0.99 0.35,-1 0.34,-1 0.35,-1 0.34,-0.99 0.35,-1 0.35,-1 0.35,-0.99 0.35,-1 0.35,-1 0.35,-0.99 0.35,-1 0.36,-0.99 0.36,-1 0.36,-0.99 0.36,-1 0.36,-1 0.36,-0.99 0.37,-1 0.36,-0.99 0.37,-1 0.37,-0.99 0.38,-0.99 0.37,-1 0.38,-0.99 0.38,-1 0.38,-0.99 0.39,-0.99 0.38,-0.99 0.39,-1 0.4,-0.99 0.39,-0.99 0.4,-0.99 0.4,-1 0.41,-0.99 0.41,-0.99 0.41,-0.99 0.42,-0.99 0.42,-0.99 0.42,-0.99 0.43,-0.99 0.44,-0.99 0.44,-0.99 0.44,-0.98 0.45,-0.99 0.46,-0.99 0.46,-0.99 0.46,-0.98 0.48,-0.99 0.48,-0.98 0.49,-0.99 0.49,-0.98 0.51,-0.98 0.51,-0.98 0.52,-0.98 0.54,-0.98 0.54,-0.98 0.56,-0.98 0.57,-0.98 0.58,-0.97 0.6,-0.97 0.61,-0.98 0.63,-0.97 0.66,-0.96 0.67,-0.97 0.7,-0.96 0.73,-0.96 0.76,-0.95 0.8,-0.95 0.84,-0.94 0.89,-0.93 0.95,-0.93 1.03,-0.91 1.14,-0.89 1.27,-0.87 1.47,-0.82"
       style="fill:none;fill-opacity:1;stroke:#e20000;stroke-width:3.68036365;stroke-miterlimit:4;stroke-dasharray:none;stroke-opacity:1"
       id="path7"
       inkscape:connector-curvature="0" />
  </g>
</svg>
