<?xml version="1.0" standalone="no"?><!DOCTYPE svg PUBLIC "-//W3C//DTD SVG 1.1//EN" "http://www.w3.org/Graphics/SVG/1.1/DTD/svg11.dtd"><svg xmlns="http://www.w3.org/2000/svg" viewBox="0 0 650 400" version="1.1"><clipPath id="box"><rect x="0" y="0" width="650" height="400" style="fill:none;stroke:none;" /></clipPath><g clip-path="url(#box)"><rect x="0.00" y="0.00" width="650.00" height="400.00" style="fill:#FFFFFF;stroke:none;" /><path d="M310.00 0.00 L310.00 400.00 " style="fill:none;stroke:#000000;stroke-width:1;" /><path d="M303.50 400.00 L316.50 400.00 M303.50 329.82 L316.50 329.82 M303.50 259.65 L316.50 259.65 M303.50 189.47 L316.50 189.47 M303.50 119.30 L316.50 119.30 M303.50 49.12 L316.50 49.12 " style="fill:none;stroke:#000000;stroke-width:1;" /><path d="M0.00 189.47 L650.00 189.47 " style="fill:none;stroke:#000000;stroke-width:1;" /><path d="M-40.00 182.97 L-40.00 195.97 M10.00 182.97 L10.00 195.97 M60.00 182.97 L60.00 195.97 M110.00 182.97 L110.00 195.97 M160.00 182.97 L160.00 195.97 M210.00 182.97 L210.00 195.97 M260.00 182.97 L260.00 195.97 M310.00 182.97 L310.00 195.97 M360.00 182.97 L360.00 195.97 M410.00 182.97 L410.00 195.97 M460.00 182.97 L460.00 195.97 M510.00 182.97 L510.00 195.97 M560.00 182.97 L560.00 195.97 M610.00 182.97 L610.00 195.97 " style="fill:none;stroke:#000000;stroke-width:1;" /><path d="M-10.00 200.00 L-0.25 192.50 L0.75 185.42 L0.89 184.42 L1.03 183.42 L1.17 182.42 L1.31 181.42 L1.46 180.42 L1.60 179.42 L1.74 178.42 L1.88 177.42 L2.02 176.42 L2.16 175.42 L2.30 174.42 L2.44 173.42 L2.58 172.42 L2.72 171.42 L2.86 170.42 L3.00 169.42 L3.15 168.42 L3.29 167.42 L3.43 166.42 L3.57 165.42 L3.71 164.42 L3.85 163.42 L3.99 162.42 L4.14 161.42 L4.28 160.43 L4.42 159.43 L4.56 158.43 L4.70 157.43 L4.85 156.43 L4.99 155.43 L5.13 154.43 L5.27 153.43 L5.42 152.43 L5.56 151.44 L5.70 150.44 L5.85 149.44 L5.99 148.44 L6.13 147.44 L6.28 146.44 L6.42 145.44 L6.57 144.45 L6.71 143.45 L6.86 142.45 L7.00 141.45 L7.15 140.45 L7.29 139.46 L7.44 138.46 L7.59 137.46 L7.73 136.46 L7.88 135.46 L8.03 134.47 L8.17 133.47 L8.32 132.47 L8.47 131.47 L8.62 130.47 L8.77 129.48 L8.92 128.48 L9.07 127.48 L9.22 126.49 L9.37 125.49 L9.52 124.49 L9.67 123.49 L9.82 122.50 L9.98 121.50 L10.13 120.50 L10.28 119.51 L10.43 118.51 L10.59 117.51 L10.74 116.52 L10.90 115.52 L11.05 114.52 L11.21 113.53 L11.37 112.53 L11.53 111.53 L11.68 110.54 L11.84 109.54 L12.00 108.55 L12.16 107.55 L12.32 106.55 L12.48 105.56 L12.65 104.56 L12.81 103.57 L12.97 102.57 L13.14 101.58 L13.30 100.58 L13.47 99.59 L13.63 98.59 L13.80 97.60 L13.97 96.60 L14.14 95.61 L14.31 94.61 L14.48 93.62 L14.65 92.62 L14.82 91.63 L15.00 90.63 L15.17 89.64 L15.35 88.64 L15.52 87.65 L15.70 86.66 L15.88 85.66 L16.06 84.67 L16.24 83.68 L16.42 82.68 L16.61 81.69 L16.79 80.70 L16.98 79.70 L17.17 78.71 L17.35 77.72 L17.54 76.73 L17.74 75.74 L17.93 74.74 L18.13 73.75 L18.32 72.76 L18.52 71.77 L18.72 70.78 L18.92 69.79 L19.13 68.80 L19.33 67.81 L19.54 66.82 L19.75 65.83 L19.96 64.84 L20.18 63.85 L20.39 62.86 L20.61 61.87 L20.83 60.88 L21.06 59.89 L21.28 58.91 L21.51 57.92 L21.75 56.93 L21.98 55.94 L22.22 54.96 L22.46 53.97 L22.71 52.99 L22.96 52.00 L23.21 51.02 L23.47 50.03 L23.73 49.05 L24.00 48.07 L24.27 47.09 L24.54 46.11 L24.82 45.13 L25.11 44.15 L25.40 43.17 L25.70 42.19 L26.01 41.22 L26.32 40.24 L26.65 39.27 L26.98 38.29 L27.32 37.32 L27.67 36.35 L28.03 35.39 L28.40 34.42 L28.79 33.46 L29.19 32.50 L29.61 31.55 L30.05 30.59 L30.51 29.65 L31.00 28.71 L31.52 27.77 L32.08 26.85 L32.68 25.93 L33.33 25.04 L34.07 24.16 L34.90 23.32 L35.90 22.54 L37.17 21.88 L39.10 21.57 L41.10 22.10 L43.10 23.43 L44.60 24.92 L45.61 26.14 L46.44 27.27 L47.17 28.36 L47.85 29.43 L48.48 30.49 L49.07 31.54 L49.64 32.58 L50.18 33.62 L50.70 34.65 L51.21 35.68 L51.70 36.71 L52.17 37.74 L52.64 38.76 L53.09 39.78 L53.54 40.80 L53.97 41.82 L54.40 42.83 L54.83 43.85 L55.24 44.86 L55.65 45.87 L56.06 46.89 L56.46 47.90 L56.86 48.91 L57.25 49.92 L57.64 50.93 L58.02 51.93 L58.40 52.94 L58.78 53.95 L59.16 54.95 L59.54 55.96 L59.91 56.97 L60.28 57.97 L60.65 58.97 L61.01 59.98 L61.38 60.98 L61.74 61.98 L62.11 62.99 L62.47 63.99 L62.83 64.99 L63.19 65.99 L63.55 66.99 L63.91 67.99 L64.27 68.99 L64.63 69.99 L64.99 70.99 L65.35 71.99 L65.71 72.99 L66.07 73.99 L66.43 74.99 L66.79 75.99 L67.15 76.99 L67.51 77.98 L67.88 78.98 L68.24 79.98 L68.61 80.97 L68.98 81.97 L69.34 82.97 L69.72 83.96 L70.09 84.96 L70.46 85.95 L70.84 86.95 L71.21 87.94 L71.59 88.93 L71.98 89.93 L72.36 90.92 L72.75 91.91 L73.14 92.90 L73.53 93.90 L73.93 94.89 L74.33 95.88 L74.73 96.87 L75.14 97.86 L75.55 98.85 L75.97 99.84 L76.39 100.83 L76.82 101.81 L77.25 102.80 L77.68 103.79 L78.13 104.78 L78.57 105.76 L79.03 106.75 L79.49 107.73 L79.96 108.71 L80.44 109.70 L80.92 110.68 L81.41 111.66 L81.92 112.64 L82.43 113.62 L82.96 114.60 L83.49 115.57 L84.04 116.55 L84.60 117.52 L85.18 118.50 L85.77 119.47 L86.39 120.44 L87.02 121.40 L87.67 122.37 L88.35 123.33 L89.05 124.29 L89.78 125.25 L90.55 126.20 L91.35 127.15 L92.20 128.09 L93.11 129.02 L94.07 129.95 L95.11 130.87 L96.24 131.78 L97.48 132.67 L98.88 133.54 L100.49 134.37 L102.41 135.16 L104.41 135.74 L106.41 136.12 L108.41 136.32 L110.41 136.36 L112.41 136.28 L114.41 136.09 L116.41 135.83 L118.41 135.53 L120.41 135.22 L122.41 134.91 L124.41 134.64 L126.41 134.42 L128.41 134.29 L130.41 134.26 L132.41 134.36 L134.41 134.60 L136.41 134.99 L138.41 135.56 L140.41 136.31 L142.41 137.25 L144.41 138.40 L146.15 139.57 L147.64 140.70 L148.96 141.80 L150.16 142.88 L151.27 143.95 L152.31 145.01 L153.29 146.07 L154.21 147.11 L155.10 148.16 L155.95 149.20 L156.76 150.23 L157.55 151.26 L158.31 152.30 L159.05 153.32 L159.77 154.35 L160.47 155.38 L161.16 156.40 L161.83 157.42 L162.48 158.44 L163.12 159.46 L163.75 160.48 L164.36 161.50 L164.97 162.51 L165.57 163.53 L166.15 164.55 L166.73 165.56 L167.30 166.57 L167.86 167.59 L168.41 168.60 L168.96 169.61 L169.50 170.62 L170.04 171.63 L170.57 172.64 L171.09 173.66 L171.61 174.66 L172.12 175.67 L172.63 176.68 L173.13 177.69 L173.63 178.70 L174.13 179.71 L174.62 180.71 L175.11 181.72 L175.60 182.73 L176.08 183.73 L176.56 184.74 L177.03 185.75 L177.50 186.75 L177.97 187.76 L178.44 188.76 L178.91 189.77 L179.37 190.77 L179.83 191.78 L180.29 192.78 L180.75 193.79 L181.20 194.79 L181.65 195.79 L182.11 196.80 L182.56 197.80 L183.00 198.80 L183.45 199.81 L183.90 200.81 L184.34 201.81 L184.79 202.81 L185.23 203.82 L185.67 204.82 L186.11 205.82 L186.55 206.82 L186.99 207.82 L187.43 208.82 L187.87 209.82 L188.31 210.82 L188.74 211.83 L189.18 212.83 L189.62 213.83 L190.06 214.83 L190.49 215.83 L190.93 216.83 L191.37 217.83 L191.80 218.83 L192.24 219.83 L192.68 220.82 L193.12 221.82 L193.55 222.82 L193.99 223.82 L194.43 224.82 L194.87 225.82 L195.31 226.82 L195.75 227.81 L196.19 228.81 L196.64 229.81 L197.08 230.81 L197.53 231.80 L197.97 232.80 L198.42 233.80 L198.87 234.80 L199.32 235.79 L199.77 236.79 L200.23 237.79 L200.68 238.78 L201.14 239.78 L201.60 240.77 L202.06 241.77 L202.52 242.76 L202.99 243.76 L203.45 244.75 L203.92 245.75 L204.40 246.74 L204.87 247.74 L205.35 248.73 L205.83 249.72 L206.31 250.72 L206.80 251.71 L207.29 252.70 L207.79 253.70 L208.28 254.69 L208.79 255.68 L209.29 256.67 L209.80 257.66 L210.32 258.65 L210.84 259.64 L211.36 260.63 L211.89 261.62 L212.43 262.61 L212.97 263.60 L213.52 264.59 L214.07 265.58 L214.63 266.56 L215.20 267.55 L215.77 268.54 L216.36 269.52 L216.95 270.51 L217.55 271.49 L218.16 272.48 L218.78 273.46 L219.42 274.44 L220.06 275.42 L220.72 276.40 L221.39 277.38 L222.08 278.35 L222.78 279.33 L223.50 280.30 L224.24 281.28 L225.00 282.25 L225.78 283.21 L226.59 284.18 L227.43 285.14 L228.30 286.10 L229.21 287.06 L230.16 288.01 L231.15 288.95 L232.21 289.89 L233.34 290.82 L234.56 291.74 L235.88 292.64 L237.36 293.51 L239.04 294.35 L241.04 295.13 L243.04 295.66 L245.04 295.94 L247.04 295.97 L249.04 295.76 L251.04 295.29 L253.04 294.59 L255.04 293.63 L257.04 292.43 L258.70 291.25 L260.11 290.12 L261.36 289.02 L262.50 287.94 L263.55 286.87 L264.54 285.82 L265.47 284.77 L266.36 283.72 L267.21 282.68 L268.02 281.64 L268.81 280.61 L269.57 279.57 L270.30 278.55 L271.02 277.52 L271.72 276.49 L272.39 275.47 L273.06 274.44 L273.70 273.42 L274.34 272.40 L274.96 271.38 L275.57 270.36 L276.17 269.35 L276.75 268.33 L277.33 267.31 L277.90 266.30 L278.46 265.28 L279.01 264.27 L279.56 263.25 L280.09 262.24 L280.62 261.23 L281.14 260.22 L281.66 259.20 L282.17 258.19 L282.67 257.18 L283.17 256.17 L283.67 255.16 L284.15 254.15 L284.64 253.14 L285.12 252.13 L285.59 251.12 L286.06 250.11 L286.53 249.10 L286.99 248.10 L287.45 247.09 L287.90 246.08 L288.35 245.07 L288.80 244.06 L289.24 243.06 L289.68 242.05 L290.12 241.04 L290.56 240.04 L290.99 239.03 L291.42 238.02 L291.84 237.02 L292.27 236.01 L292.69 235.00 L293.10 234.00 L293.52 232.99 L293.93 231.99 L294.35 230.98 L294.75 229.98 L295.16 228.97 L295.57 227.97 L295.97 226.96 L296.37 225.96 L296.77 224.95 L297.17 223.95 L297.56 222.94 L297.96 221.94 L298.35 220.94 L298.74 219.93 L299.13 218.93 L299.51 217.92 L299.90 216.92 L300.28 215.92 L300.67 214.91 L301.05 213.91 L301.43 212.90 L301.81 211.90 L302.18 210.90 L302.56 209.89 L302.93 208.89 L303.31 207.89 L303.68 206.89 L304.05 205.88 L304.42 204.88 L304.79 203.88 L305.16 202.87 L305.53 201.87 L305.89 200.87 L306.26 199.87 L306.62 198.86 L306.99 197.86 L307.35 196.86 L307.71 195.86 L308.07 194.86 L308.43 193.85 L308.79 192.85 L309.15 191.85 L309.51 190.85 L309.87 189.85 L310.22 188.84 L310.58 187.84 L310.94 186.84 L311.29 185.84 L311.65 184.84 L312.00 183.84 L312.35 182.83 L312.71 181.83 L313.06 180.83 L313.41 179.83 L313.76 178.83 L314.11 177.83 L314.46 176.83 L314.81 175.83 L315.16 174.82 L315.51 173.82 L315.86 172.82 L316.21 171.82 L316.56 170.82 L316.90 169.82 L317.25 168.82 L317.60 167.82 L317.95 166.82 L318.29 165.82 L318.64 164.82 L318.99 163.82 L319.33 162.82 L319.68 161.81 L320.03 160.81 L320.37 159.81 L320.72 158.81 L321.06 157.81 L321.41 156.81 L321.75 155.81 L322.10 154.81 L322.45 153.81 L322.79 152.81 L323.14 151.81 L323.48 150.81 L323.83 149.81 L324.17 148.81 L324.52 147.81 L324.86 146.81 L325.21 145.81 L325.55 144.81 L325.90 143.81 L326.25 142.82 L326.59 141.82 L326.94 140.82 L327.29 139.82 L327.63 138.82 L327.98 137.82 L328.33 136.82 L328.67 135.82 L329.02 134.82 L329.37 133.82 L329.72 132.82 L330.07 131.82 L330.41 130.82 L330.76 129.82 L331.11 128.83 L331.46 127.83 L331.81 126.83 L332.16 125.83 L332.52 124.83 L332.87 123.83 L333.22 122.83 L333.57 121.83 L333.92 120.84 L334.28 119.84 L334.63 118.84 L334.99 117.84 L335.34 116.84 L335.70 115.84 L336.05 114.85 L336.41 113.85 L336.77 112.85 L337.13 111.85 L337.49 110.85 L337.84 109.86 L338.21 108.86 L338.57 107.86 L338.93 106.86 L339.29 105.86 L339.65 104.87 L340.02 103.87 L340.38 102.87 L340.75 101.87 L341.12 100.88 L341.48 99.88 L341.85 98.88 L342.22 97.88 L342.59 96.89 L342.96 95.89 L343.34 94.89 L343.71 93.89 L344.09 92.90 L344.46 91.90 L344.84 90.90 L345.22 89.91 L345.60 88.91 L345.98 87.91 L346.36 86.92 L346.74 85.92 L347.13 84.92 L347.52 83.93 L347.90 82.93 L348.29 81.94 L348.68 80.94 L349.08 79.94 L349.47 78.95 L349.86 77.95 L350.26 76.96 L350.66 75.96 L351.06 74.96 L351.46 73.97 L351.87 72.97 L352.27 71.98 L352.68 70.98 L353.09 69.99 L353.50 68.99 L353.92 68.00 L354.33 67.00 L354.75 66.01 L355.17 65.01 L355.59 64.02 L356.02 63.03 L356.45 62.03 L356.88 61.04 L357.31 60.04 L357.75 59.05 L358.18 58.06 L358.63 57.06 L359.07 56.07 L359.52 55.08 L359.97 54.08 L360.42 53.09 L360.88 52.10 L361.34 51.11 L361.80 50.11 L362.27 49.12 L362.74 48.13 L363.21 47.14 L363.69 46.15 L364.18 45.16 L364.66 44.17 L365.16 43.17 L365.65 42.18 L366.15 41.19 L366.66 40.20 L367.17 39.22 L367.69 38.23 L368.21 37.24 L368.74 36.25 L369.27 35.26 L369.82 34.27 L370.36 33.29 L370.92 32.30 L371.48 31.31 L372.05 30.33 L372.63 29.34 L373.22 28.36 L373.81 27.37 L374.42 26.39 L375.04 25.41 L375.66 24.42 L376.30 23.44 L376.95 22.46 L377.61 21.48 L378.29 20.51 L378.98 19.53 L379.69 18.55 L380.42 17.58 L381.17 16.61 L381.93 15.63 L382.72 14.67 L383.54 13.70 L384.38 12.73 L385.25 11.77 L386.16 10.82 L387.12 9.86 L388.11 8.92 L389.17 7.98 L390.29 7.04 L391.49 6.12 L392.79 5.21 L394.22 4.32 L395.83 3.47 L397.71 2.66 L399.71 2.04 L401.71 1.66 L403.71 1.53 L405.71 1.65 L407.71 2.04 L409.71 2.69 L411.71 3.60 L413.71 4.79 L415.39 6.00 L416.78 7.15 L417.99 8.26 L419.08 9.35 L420.07 10.43 L421.00 11.49 L421.88 12.55 L422.70 13.60 L423.49 14.65 L424.24 15.69 L424.96 16.73 L425.65 17.76 L426.32 18.80 L426.96 19.83 L427.59 20.86 L428.20 21.89 L428.79 22.91 L429.37 23.94 L429.93 24.96 L430.48 25.99 L431.01 27.01 L431.54 28.03 L432.05 29.05 L432.55 30.07 L433.05 31.09 L433.53 32.11 L434.01 33.13 L434.48 34.14 L434.93 35.16 L435.39 36.18 L435.83 37.19 L436.27 38.21 L436.70 39.22 L437.13 40.23 L437.55 41.25 L437.96 42.26 L438.37 43.27 L438.77 44.29 L439.17 45.30 L439.56 46.31 L439.95 47.32 L440.34 48.34 L440.72 49.35 L441.09 50.36 L441.46 51.37 L441.83 52.38 L442.20 53.39 L442.56 54.40 L442.91 55.41 L443.26 56.42 L443.61 57.43 L443.96 58.44 L444.30 59.45 L444.64 60.46 L444.98 61.46 L445.31 62.47 L445.64 63.48 L445.97 64.49 L446.30 65.50 L446.62 66.51 L446.94 67.51 L447.26 68.52 L447.57 69.53 L447.89 70.54 L448.20 71.54 L448.51 72.55 L448.81 73.56 L449.12 74.57 L449.42 75.57 L449.72 76.58 L450.02 77.59 L450.31 78.59 L450.61 79.60 L450.90 80.61 L451.19 81.61 L451.48 82.62 L451.76 83.62 L452.05 84.63 L452.33 85.64 L452.61 86.64 L452.89 87.65 L453.17 88.65 L453.45 89.66 L453.72 90.66 L454.00 91.67 L454.27 92.68 L454.54 93.68 L454.81 94.69 L455.08 95.69 L455.34 96.70 L455.61 97.70 L455.87 98.71 L456.13 99.71 L456.39 100.72 L456.65 101.72 L456.91 102.72 L457.17 103.73 L457.43 104.73 L457.68 105.74 L457.94 106.74 L458.19 107.75 L458.44 108.75 L458.69 109.76 L458.94 110.76 L459.19 111.76 L459.44 112.77 L459.68 113.77 L459.93 114.78 L460.17 115.78 L460.42 116.78 L460.66 117.79 L460.90 118.79 L461.14 119.80 L461.38 120.80 L461.62 121.80 L461.86 122.81 L462.10 123.81 L462.33 124.81 L462.57 125.82 L462.80 126.82 L463.04 127.82 L463.27 128.83 L463.50 129.83 L463.74 130.83 L463.97 131.84 L464.20 132.84 L464.43 133.84 L464.65 134.85 L464.88 135.85 L465.11 136.85 L465.34 137.86 L465.56 138.86 L465.79 139.86 L466.01 140.86 L466.24 141.87 L466.46 142.87 L466.68 143.87 L466.91 144.88 L467.13 145.88 L467.35 146.88 L467.57 147.88 L467.79 148.89 L468.01 149.89 L468.23 150.89 L468.44 151.89 L468.66 152.90 L468.88 153.90 L469.09 154.90 L469.31 155.90 L469.53 156.91 L469.74 157.91 L469.96 158.91 L470.17 159.91 L470.38 160.91 L470.60 161.92 L470.81 162.92 L471.02 163.92 L471.23 164.92 L471.44 165.92 L471.66 166.93 L471.87 167.93 L472.08 168.93 L472.29 169.93 L472.50 170.93 L472.70 171.94 L472.91 172.94 L473.12 173.94 L473.33 174.94 L473.54 175.94 L473.74 176.94 L473.95 177.95 L474.16 178.95 L474.36 179.95 L474.57 180.95 L474.77 181.95 L474.98 182.95 L475.18 183.96 L475.39 184.96 L475.59 185.96 L475.80 186.96 L476.00 187.96 L476.20 188.96 L476.41 189.96 L476.61 190.97 L476.81 191.97 L477.01 192.97 L477.22 193.97 L477.42 194.97 L477.62 195.97 L477.82 196.97 L478.02 197.97 L478.22 198.97 L478.42 199.98 L478.62 200.98 L478.82 201.98 L479.02 202.98 L479.22 203.98 L479.42 204.98 L479.62 205.98 L479.82 206.98 L480.02 207.98 L480.22 208.98 L480.42 209.98 L480.62 210.98 L480.82 211.99 L481.02 212.99 L481.21 213.99 L481.41 214.99 L481.61 215.99 L481.81 216.99 L482.01 217.99 L482.20 218.99 L482.40 219.99 L482.60 220.99 L482.80 221.99 L483.00 222.99 L483.19 223.99 L483.39 224.99 L483.59 225.99 L483.78 226.99 L483.98 227.99 L484.18 228.99 L484.38 229.99 L484.57 230.99 L484.77 231.99 L484.97 232.99 L485.16 233.99 L485.36 234.99 L485.56 235.99 L485.75 236.99 L485.95 237.99 L486.15 238.99 L486.35 239.99 L486.54 240.99 L486.74 241.99 L486.94 242.99 L487.13 243.99 L487.33 244.99 L487.53 245.99 L487.73 246.99 L487.92 247.99 L488.12 248.99 L488.32 249.99 L488.52 250.99 L488.71 251.99 L488.91 252.99 L489.11 253.99 L489.31 254.99 L489.51 255.99 L489.70 256.99 L489.90 257.99 L490.10 258.98 L490.30 259.98 L490.50 260.98 L490.70 261.98 L490.90 262.98 L491.10 263.98 L491.30 264.98 L491.50 265.98 L491.70 266.98 L491.90 267.98 L492.10 268.97 L492.30 269.97 L492.50 270.97 L492.70 271.97 L492.90 272.97 L493.10 273.97 L493.30 274.97 L493.51 275.97 L493.71 276.96 L493.91 277.96 L494.12 278.96 L494.32 279.96 L494.52 280.96 L494.73 281.96 L494.93 282.95 L495.14 283.95 L495.34 284.95 L495.55 285.95 L495.75 286.95 L495.96 287.94 L496.17 288.94 L496.37 289.94 L496.58 290.94 L496.79 291.94 L497.00 292.93 L497.21 293.93 L497.42 294.93 L497.63 295.93 L497.84 296.92 L498.05 297.92 L498.26 298.92 L498.47 299.92 L498.68 300.91 L498.90 301.91 L499.11 302.91 L499.32 303.91 L499.54 304.90 L499.75 305.90 L499.97 306.90 L500.19 307.89 L500.41 308.89 L500.62 309.89 L500.84 310.88 L501.06 311.88 L501.28 312.88 L501.50 313.87 L501.73 314.87 L501.95 315.87 L502.17 316.86 L502.40 317.86 L502.62 318.85 L502.85 319.85 L503.08 320.85 L503.31 321.84 L503.54 322.84 L503.77 323.83 L504.00 324.83 L504.23 325.82 L504.46 326.82 L504.70 327.81 L504.94 328.81 L505.17 329.80 L505.41 330.80 L505.65 331.79 L505.89 332.79 L506.13 333.78 L506.38 334.77 L506.62 335.77 L506.87 336.76 L507.12 337.76 L507.37 338.75 L507.62 339.74 L507.87 340.74 L508.13 341.73 L508.38 342.72 L508.64 343.71 L508.90 344.71 L509.17 345.70 L509.43 346.69 L509.70 347.68 L509.97 348.67 L510.24 349.67 L510.51 350.66 L510.79 351.65 L511.06 352.64 L511.35 353.63 L511.63 354.62 L511.92 355.61 L512.21 356.60 L512.50 357.59 L512.79 358.58 L513.09 359.56 L513.40 360.55 L513.70 361.54 L514.01 362.53 L514.33 363.51 L514.65 364.50 L514.97 365.48 L515.30 366.47 L515.63 367.45 L515.97 368.44 L516.32 369.42 L516.67 370.40 L517.02 371.38 L517.39 372.36 L517.76 373.34 L518.14 374.32 L518.53 375.30 L518.92 376.27 L519.33 377.25 L519.75 378.22 L520.18 379.19 L520.62 380.16 L521.08 381.12 L521.55 382.09 L522.04 383.05 L522.55 384.00 L523.09 384.96 L523.65 385.90 L524.24 386.84 L524.87 387.77 L525.55 388.69 L526.29 389.60 L527.10 390.48 L528.02 391.34 L529.10 392.14 L530.45 392.83 L532.40 393.21 L534.40 392.85 L536.40 391.71 L538.16 390.08 L539.23 388.79 L540.07 387.64 L540.79 386.53 L541.44 385.45 L542.05 384.38 L542.61 383.32 L543.14 382.26 L543.65 381.22 L544.13 380.17 L544.59 379.13 L545.04 378.10 L545.47 377.07 L545.89 376.04 L546.29 375.01 L546.69 373.98 L547.07 372.96 L547.44 371.93 L547.81 370.91 L548.17 369.89 L548.52 368.87 L548.86 367.85 L549.20 366.83 L549.53 365.82 L549.86 364.80 L550.18 363.79 L550.49 362.77 L550.80 361.76 L551.11 360.74 L551.41 359.73 L551.71 358.72 L552.01 357.70 L552.30 356.69 L552.59 355.68 L552.87 354.67 L553.15 353.66 L553.43 352.65 L553.71 351.64 L553.98 350.63 L554.25 349.62 L554.52 348.61 L554.79 347.60 L555.05 346.60 L555.32 345.59 L555.58 344.58 L555.83 343.57 L556.09 342.57 L556.34 341.56 L556.60 340.55 L556.85 339.55 L557.10 338.54 L557.34 337.53 L557.59 336.53 L557.83 335.52 L558.08 334.52 L558.32 333.51 L558.56 332.51 L558.80 331.50 L559.04 330.50 L559.27 329.49 L559.51 328.49 L559.74 327.48 L559.98 326.48 L560.21 325.48 L560.44 324.47 L560.67 323.47 L560.91 322.46 L561.13 321.46 L561.36 320.46 L561.59 319.45 L561.82 318.45 L562.04 317.45 L562.27 316.45 L562.50 315.44 L562.72 314.44 L562.94 313.44 L563.17 312.44 L563.39 311.43 L563.61 310.43 L563.84 309.43 L564.06 308.43 L564.28 307.43 L564.50 306.42 L564.72 305.42 L564.94 304.42 L565.16 303.42 L565.38 302.42 L565.60 301.42 L565.82 300.42 L566.04 299.42 L566.25 298.41 L566.47 297.41 L566.69 296.41 L566.91 295.41 L567.13 294.41 L567.35 293.41 L567.56 292.41 L567.78 291.41 L568.00 290.41 L568.22 289.41 L568.44 288.41 L568.65 287.41 L568.87 286.41 L569.09 285.41 L569.31 284.42 L569.53 283.42 L569.75 282.42 L569.97 281.42 L570.18 280.42 L570.40 279.42 L570.62 278.42 L570.84 277.42 L571.06 276.43 L571.29 275.43 L571.51 274.43 L571.73 273.43 L571.95 272.43 L572.17 271.44 L572.40 270.44 L572.62 269.44 L572.84 268.44 L573.07 267.45 L573.29 266.45 L573.52 265.45 L573.75 264.45 L573.97 263.46 L574.20 262.46 L574.43 261.46 L574.66 260.47 L574.89 259.47 L575.12 258.48 L575.35 257.48 L575.59 256.48 L575.82 255.49 L576.06 254.49 L576.29 253.50 L576.53 252.50 L576.77 251.51 L577.01 250.51 L577.25 249.52 L577.49 248.53 L577.74 247.53 L577.98 246.54 L578.23 245.54 L578.48 244.55 L578.73 243.56 L578.98 242.56 L579.24 241.57 L579.49 240.58 L579.75 239.59 L580.01 238.59 L580.27 237.60 L580.53 236.61 L580.80 235.62 L581.07 234.63 L581.34 233.64 L581.61 232.65 L581.89 231.66 L582.17 230.67 L582.45 229.68 L582.74 228.69 L583.02 227.70 L583.32 226.72 L583.61 225.73 L583.91 224.74 L584.22 223.76 L584.52 222.77 L584.84 221.79 L585.15 220.80 L585.48 219.82 L585.81 218.84 L586.14 217.86 L586.48 216.87 L586.83 215.89 L587.18 214.92 L587.54 213.94 L587.91 212.96 L588.29 211.99 L588.68 211.01 L589.08 210.04 L589.49 209.07 L589.91 208.10 L590.35 207.14 L590.80 206.18 L591.27 205.22 L591.76 204.26 L592.28 203.31 L592.81 202.36 L593.38 201.42 L593.99 200.49 L594.64 199.57 L595.35 198.66 L596.13 197.78 L597.01 196.92 L598.03 196.10 L599.28 195.37 L600.99 194.83 L602.99 194.86 L604.99 195.55 L606.99 196.84 L608.53 198.21 L609.66 199.39 L610.62 200.50 L611.49 201.57 L612.29 202.63 L613.06 203.67 L613.79 204.71 L614.49 205.73 L615.18 206.75 L615.86 207.77 L616.52 208.78 L617.18 209.78 L617.83 210.79 L618.49 211.78 L619.14 212.77 L619.80 213.76 L620.47 214.75 L621.15 215.72 L621.84 216.70 L622.55 217.66 L623.29 218.62 L624.07 219.56 L624.89 220.49 L625.77 221.41 L626.73 222.29 L627.82 223.12 L629.13 223.87 L630.88 224.38 L632.88 224.18 L634.88 223.07 L636.69 221.22 L637.66 219.86 L638.38 218.70 L638.99 217.58 L639.55 216.49 L640.05 215.42 L640.52 214.35 L640.97 213.29 L641.38 212.24 L641.78 211.20 L642.16 210.15 L642.53 209.11 L642.88 208.08 L643.21 207.04 L643.54 206.01 L643.86 204.98 L644.17 203.95 L644.46 202.93 L644.76 201.90 L645.04 200.88 L645.32 199.86 L645.59 198.84 L645.86 197.81 L646.12 196.80 L646.37 195.78 L646.63 194.76 L646.87 193.74 L647.12 192.72 L647.35 191.71 L647.59 190.69 L647.82 189.68 L648.05 188.66 L648.27 187.65 L648.49 186.64 L648.71 185.62 L648.93 184.61 L649.14 183.60 L649.35 182.59 L649.56 181.58 L649.77 180.57 L649.97 179.55 " style="fill:none;stroke:#000000;stroke-width:1;" /></g></svg>