<?xml version="1.0" encoding="UTF-8" standalone="no"?>
<svg
   xmlns:dc="http://purl.org/dc/elements/1.1/"
   xmlns:cc="http://creativecommons.org/ns#"
   xmlns:rdf="http://www.w3.org/1999/02/22-rdf-syntax-ns#"
   xmlns:svg="http://www.w3.org/2000/svg"
   xmlns="http://www.w3.org/2000/svg"
   xmlns:sodipodi="http://sodipodi.sourceforge.net/DTD/sodipodi-0.dtd"
   xmlns:inkscape="http://www.inkscape.org/namespaces/inkscape"
   viewBox="0 0 1885.2219 551.05634"
   version="1.1"
   id="svg11"
   sodipodi:docname="waveb_3.svg"
   width="1885.2219"
   height="551.05634"
   inkscape:version="0.92.0 r15299">
  <metadata
     id="metadata17">
    <rdf:RDF>
      <cc:Work
         rdf:about="">
        <dc:format>image/svg+xml</dc:format>
        <dc:type
           rdf:resource="http://purl.org/dc/dcmitype/StillImage" />
      </cc:Work>
    </rdf:RDF>
  </metadata>
  <defs
     id="defs15" />
  <sodipodi:namedview
     pagecolor="#ffffff"
     bordercolor="#666666"
     borderopacity="1"
     objecttolerance="10"
     gridtolerance="10"
     guidetolerance="10"
     inkscape:pageopacity="0"
     inkscape:pageshadow="2"
     inkscape:window-width="1920"
     inkscape:window-height="1017"
     id="namedview13"
     showgrid="false"
     inkscape:zoom="0.43692308"
     inkscape:cx="-65.922421"
     inkscape:cy="351.05632"
     inkscape:window-x="-8"
     inkscape:window-y="-8"
     inkscape:window-maximized="1"
     inkscape:current-layer="svg11" />
  <clipPath
     id="box">
    <rect
       x="0"
       y="0"
       width="650"
       height="400"
       style="fill:none;stroke:none"
       id="rect2" />
  </clipPath>
  <g
     clip-path="url(#box)"
     id="g9"
     transform="scale(2.9003414,1.3776408)"
     style="stroke:#e20000;stroke-width:2.50136717;stroke-miterlimit:4;stroke-dasharray:none;stroke-opacity:1;fill:none"
     inkscape:export-filename="C:\Users\Keith Grant\Desktop\punch_at_the_peak\SuperPunchAtThePeak2\Assets\PNG\wave_3.png"
     inkscape:export-xdpi="26.078501"
     inkscape:export-ydpi="26.078501">
    <rect
       x="0"
       y="0"
       width="650"
       height="400"
       style="fill:none;stroke:#e20000;stroke-width:2.50136717;stroke-miterlimit:4;stroke-dasharray:none;stroke-opacity:1"
       id="rect5" />
    <path
       d="m -10,200 9.75,1.19 1,-14.04 0.07,-1 0.07,-1 0.07,-1 0.08,-1 0.07,-1 0.07,-0.99 0.07,-1 0.07,-1 0.07,-1 0.07,-1 0.08,-1 0.07,-1 0.07,-1 0.07,-1 0.07,-1 0.08,-1 0.07,-1 0.07,-1 0.07,-0.99 0.07,-1 0.08,-1 0.07,-1 0.07,-1 0.07,-1 0.08,-1 0.07,-1 0.07,-1 0.08,-0.99 0.07,-1 0.07,-1 0.07,-1 0.08,-1 0.07,-1 0.07,-1 0.08,-0.99 0.07,-1 0.08,-1 0.07,-1 0.07,-1 0.08,-1 0.07,-1 0.08,-0.99 0.07,-1 0.08,-1 0.07,-1 0.08,-1 0.07,-0.99 0.08,-1 0.07,-1 0.08,-1 0.07,-1 0.08,-0.99 0.07,-1 0.08,-1 0.08,-1 0.07,-0.99 0.08,-1 0.08,-1 0.07,-1 0.08,-0.99 0.08,-1 0.08,-1 0.08,-1 0.07,-0.99 0.08,-1 0.08,-1 0.08,-0.99 0.08,-1 0.08,-1 0.08,-1 0.08,-0.99 0.08,-1 0.08,-1 0.08,-0.99 0.08,-1 0.08,-1 0.08,-0.99 0.08,-1 0.08,-1 0.09,-0.99 0.08,-1 0.08,-0.99 0.09,-1 0.08,-1 0.08,-0.99 0.09,-1 0.08,-0.99 0.09,-1 0.08,-1 0.09,-0.99 0.08,-1 0.09,-0.99 0.09,-1 0.08,-0.99 0.09,-1 0.09,-0.99 0.09,-1 0.09,-0.99 0.09,-1 0.09,-0.99 0.09,-1 0.09,-0.99 0.09,-0.99 0.09,-1 0.09,-0.99 0.1,-1 0.09,-0.99 0.09,-0.99 0.1,-1 0.09,-0.99 0.1,-0.99 0.1,-1 0.09,-0.99 0.1,-0.99 0.1,-1 0.1,-0.99 0.1,-0.99 0.1,-0.99 0.1,-0.99 0.11,-1 0.1,-0.99 0.1,-0.99 0.11,-0.99 0.11,-0.99 0.1,-0.99 0.11,-0.99 0.11,-0.99 0.11,-0.99 0.11,-0.99 0.11,-0.99 0.12,-0.99 0.11,-0.99 0.12,-0.99 0.12,-0.99 0.12,-0.98 0.12,-0.99 0.12,-0.99 0.12,-0.98 0.13,-0.99 0.13,-0.99 0.13,-0.98 0.13,-0.98 0.13,-0.99 0.14,-0.98 0.13,-0.98 0.14,-0.99 0.15,-0.98 0.14,-0.98 0.15,-0.98 0.15,-0.97 0.16,-0.98 0.16,-0.98 0.16,-0.97 0.17,-0.97 0.17,-0.97 0.18,-0.97 0.18,-0.97 0.19,-0.97 0.19,-0.96 0.21,-0.96 0.21,-0.95 0.22,-0.95 0.23,-0.95 0.25,-0.93 0.27,-0.93 0.28,-0.92 0.31,-0.9 0.34,-0.88 0.39,-0.85 0.46,-0.79 0.58,-0.67 0.87,-0.32 2,2.36 0.84,2.3 0.37,1.23 0.3,1.11 0.27,1.08 0.25,1.07 0.23,1.05 0.23,1.06 0.21,1.04 0.2,1.04 0.19,1.04 0.19,1.04 0.18,1.03 0.17,1.03 0.17,1.03 0.16,1.02 0.16,1.03 0.16,1.02 0.15,1.03 0.15,1.02 0.14,1.02 0.15,1.02 0.14,1.02 0.14,1.01 0.13,1.02 0.13,1.02 0.13,1.01 0.13,1.02 0.13,1.01 0.12,1.02 0.13,1.01 0.12,1.01 0.12,1.01 0.12,1.02 0.12,1.01 0.11,1.01 0.12,1.01 0.11,1.01 0.11,1.01 0.11,1.01 0.11,1.01 0.11,1.01 0.11,1.01 0.11,1.01 0.1,1.01 0.11,1.01 0.1,1.01 0.1,1.01 0.1,1 0.11,1.01 0.1,1.01 0.1,1.01 0.09,1 0.1,1.01 0.1,1.01 0.1,1.01 0.09,1 0.1,1.01 0.09,1.01 0.1,1 0.09,1.01 0.09,1 0.1,1.01 0.09,1.01 0.09,1 0.09,1.01 0.09,1 0.09,1.01 0.09,1 0.09,1.01 0.09,1 0.09,1.01 0.08,1 0.09,1.01 0.09,1 0.08,1.01 0.09,1 0.09,1.01 0.08,1 0.09,1.01 0.08,1 0.09,1 0.08,1.01 0.08,1 0.09,1.01 0.08,1 0.08,1 0.08,1.01 0.09,1 0.08,1 0.08,1.01 0.08,1 0.08,1 0.08,1.01 0.08,1 0.08,1 0.08,1.01 0.08,1 0.08,1 0.08,1.01 0.08,1 0.08,1 0.07,1 0.08,1.01 0.08,1 0.08,1 0.08,1 0.07,1.01 0.08,1 0.08,1 0.07,1 0.08,1.01 0.08,1 0.07,1 0.08,1 0.07,1.01 0.08,1 0.08,1 0.07,1 0.08,1 0.07,1.01 0.08,1 0.07,1 0.08,1 0.07,1 0.07,1 0.08,1.01 0.07,1 0.08,1 0.07,1 0.07,1 0.08,1 0.07,1.01 0.08,1 0.07,1 0.07,1 0.08,1 0.07,1 0.07,1 0.07,1.01 0.08,1 0.07,1 0.07,1 0.07,1 0.08,1 0.07,1 0.07,1 0.07,1 0.08,1 0.07,1.01 0.07,1 0.07,1 0.07,1 0.08,1 0.07,1 0.07,1 0.07,1 0.07,1 0.07,1 0.08,1 0.07,1 0.07,1 0.07,1 0.07,1 0.07,1.01 0.07,1 0.08,1 0.07,1 0.07,1 0.07,1 0.07,1 0.07,1 0.07,1 0.07,1 0.08,1 0.07,1 0.07,1 0.07,1 0.07,1 0.07,1 0.07,1 0.07,1 0.07,1 0.08,1 0.07,1 0.07,1 0.07,1 0.07,1 0.07,1 0.07,1 0.07,1 0.08,0.99 0.07,1 0.07,1 0.07,1 0.07,1 0.07,1 0.07,1 0.08,1 0.07,1 0.07,1 0.07,1 0.07,1 0.08,1 0.07,1 0.07,1 0.07,0.99 0.07,1 0.08,1 0.07,1 0.07,1 0.07,1 0.07,1 0.08,1 0.07,1 0.07,1 0.08,0.99 0.07,1 0.07,1 0.07,1 0.08,1 0.07,1 0.07,1 0.08,0.99 0.07,1 0.07,1 0.08,1 0.07,1 0.08,1 0.07,1 0.07,0.99 0.08,1 0.07,1 0.08,1 0.07,1 0.08,0.99 0.07,1 0.08,1 0.07,1 0.08,1 0.07,0.99 0.08,1 0.08,1 0.07,1 0.08,0.99 0.08,1 0.07,1 0.08,1 0.08,1 0.07,0.99 0.08,1 0.08,1 0.08,0.99 0.07,1 0.08,1 0.08,1 0.08,0.99 0.08,1 0.08,1 0.08,0.99 0.08,1 0.08,1 0.08,0.99 0.08,1 0.08,1 0.08,0.99 0.08,1 0.08,1 0.08,0.99 0.09,1 0.08,1 0.08,0.99 0.09,1 0.08,0.99 0.08,1 0.09,1 0.08,0.99 0.09,1 0.08,0.99 0.09,1 0.08,1 0.09,0.99 0.09,1 0.08,0.99 0.09,1 0.09,0.99 0.09,1 0.09,0.99 0.08,1 0.09,0.99 0.09,1 0.1,0.99 0.09,0.99 0.09,1 0.09,0.99 0.09,1 0.1,0.99 0.09,0.99 0.1,1 0.09,0.99 0.1,0.99 0.09,1 0.1,0.99 0.1,0.99 0.1,1 0.1,0.99 0.1,0.99 0.1,0.99 0.1,1 0.1,0.99 0.1,0.99 0.11,0.99 0.1,0.99 0.11,0.99 0.1,0.99 0.11,0.99 0.11,0.99 0.11,0.99 0.11,0.99 0.11,0.99 0.12,0.99 0.11,0.99 0.12,0.99 0.12,0.99 0.11,0.99 0.13,0.98 0.12,0.99 0.12,0.99 0.13,0.98 0.12,0.99 0.13,0.98 0.13,0.99 0.13,0.98 0.14,0.98 0.14,0.99 0.14,0.98 0.14,0.98 0.14,0.98 0.15,0.98 0.15,0.98 0.15,0.98 0.16,0.97 0.16,0.98 0.17,0.97 0.17,0.97 0.18,0.97 0.18,0.97 0.18,0.96 0.2,0.97 0.2,0.96 0.21,0.95 0.22,0.95 0.23,0.95 0.24,0.94 0.26,0.93 0.27,0.93 0.31,0.9 0.33,0.89 0.37,0.86 0.43,0.81 0.54,0.72 0.74,0.49 1.53,-0.88 1.73,-4.05 0.43,-1.49 0.29,-1.11 0.26,-1.07 0.24,-1.06 0.22,-1.06 0.22,-1.05 0.2,-1.04 0.2,-1.04 0.19,-1.04 0.18,-1.03 0.18,-1.03 0.17,-1.03 0.17,-1.03 0.16,-1.02 0.16,-1.03 0.15,-1.02 0.15,-1.02 0.15,-1.02 0.14,-1.02 0.14,-1.02 0.14,-1.02 0.14,-1.02 0.13,-1.01 0.14,-1.02 0.13,-1.02 0.12,-1.01 0.13,-1.01 0.12,-1.02 0.13,-1.01 0.12,-1.01 0.12,-1.02 0.11,-1.01 0.12,-1.01 0.12,-1.01 0.11,-1.01 0.11,-1.01 0.11,-1.01 0.11,-1.01 0.11,-1.01 0.11,-1.01 0.11,-1.01 0.1,-1.01 0.11,-1.01 0.1,-1.01 0.11,-1.01 0.1,-1.01 0.1,-1 0.1,-1.01 0.1,-1.01 0.1,-1.01 0.1,-1 0.1,-1.01 0.09,-1.01 0.1,-1.01 0.1,-1 0.09,-1.01 0.1,-1.01 0.09,-1 0.09,-1.01 0.1,-1 0.09,-1.01 0.09,-1.01 0.09,-1 0.09,-1.01 0.09,-1 0.09,-1.01 0.09,-1 0.09,-1.01 0.09,-1 0.09,-1.01 0.08,-1 0.09,-1.01 0.09,-1 0.08,-1.01 0.09,-1 0.09,-1.01 0.08,-1 0.09,-1 0.08,-1.01 0.08,-1 0.09,-1.01 0.08,-1 0.08,-1 0.09,-1.01 0.08,-1 0.08,-1 0.08,-1.01 0.08,-1 0.09,-1.01 0.08,-1 0.08,-1 0.08,-1.01 0.08,-1 0.08,-1 0.08,-1 0.08,-1.01 0.08,-1 0.07,-1 0.08,-1.01 0.08,-1 0.08,-1 0.08,-1 0.08,-1.01 0.07,-1 0.08,-1 0.08,-1 0.07,-1.01 0.08,-1 0.08,-1 0.07,-1 0.08,-1.01 0.08,-1 0.07,-1 0.08,-1 0.07,-1.01 0.08,-1 0.07,-1 0.08,-1 0.08,-1 0.07,-1 0.07,-1.01 0.08,-1 0.07,-1 0.08,-1 0.07,-1 0.08,-1.01 0.07,-1 0.07,-1 0.08,-1 0.07,-1 0.07,-1 0.08,-1 0.07,-1.01 0.07,-1 0.08,-1 0.07,-1 0.07,-1 0.08,-1 0.07,-1 0.07,-1 0.07,-1.01 0.08,-1 0.07,-1 0.07,-1 0.07,-1 0.08,-1 0.07,-1 0.07,-1 0.07,-1 0.07,-1 0.08,-1 0.07,-1.01 0.07,-1 0.07,-1 0.07,-1 0.07,-1 0.08,-1 0.07,-1 0.07,-1 0.07,-1 0.07,-1 0.07,-1 0.07,-1 0.08,-1 0.07,-1 0.07,-1 0.07,-1 0.07,-1 0.07,-1 0.07,-1 0.07,-1 0.08,-1 0.07,-1 0.07,-1 0.07,-1 0.07,-1 0.07,-1 0.07,-1 0.07,-1 0.08,-1 0.07,-1 0.07,-1 0.07,-1 0.07,-1 0.07,-1 0.07,-1 0.07,-1 0.08,-1 0.07,-1 0.07,-1 0.07,-1 0.07,-1 0.07,-1 0.07,-1 0.08,-1 0.07,-1 0.07,-1 0.07,-1 0.07,-1 0.07,-0.99 0.08,-1 0.07,-1 0.07,-1 0.07,-1 0.07,-1 0.08,-1 0.07,-1 0.07,-1 0.07,-1 0.07,-1 0.08,-0.99 0.07,-1 0.07,-1 0.07,-1 0.08,-1 0.07,-1 0.07,-1 0.08,-1 0.07,-0.99 0.07,-1 0.08,-1 0.07,-1 0.07,-1 0.08,-1 0.07,-1 0.08,-0.99 0.07,-1 0.07,-1 0.08,-1 0.07,-1 0.08,-0.99 0.07,-1 0.08,-1 0.07,-1 0.08,-1 0.07,-1 0.08,-0.99 0.07,-1 0.08,-1 0.07,-1 0.08,-0.99 0.08,-1 0.07,-1 0.08,-1 0.08,-0.99 0.07,-1 0.08,-1 0.08,-1 0.08,-0.99 0.07,-1 0.08,-1 0.08,-1 0.08,-0.99 0.08,-1 0.08,-1 0.08,-1 0.07,-0.99 0.08,-1 0.08,-1 0.08,-0.99 0.08,-1 0.08,-1 0.09,-0.99 0.08,-1 0.08,-1 0.08,-0.99 0.08,-1 0.08,-0.99 0.09,-1 0.08,-1 0.08,-0.99 0.09,-1 0.08,-0.99 0.08,-1 0.09,-1 0.08,-0.99 0.09,-1 0.09,-0.99 0.08,-1 0.09,-0.99 0.09,-1 0.08,-0.99 0.09,-1 0.09,-0.99 0.09,-1 0.09,-0.99 0.09,-1 0.09,-0.99 0.09,-1 0.09,-0.99 0.09,-1 0.09,-0.99 0.09,-1 0.1,-0.99 0.09,-0.99 0.09,-1 0.1,-0.99 0.09,-0.99 0.1,-1 0.1,-0.99 0.09,-0.99 0.1,-1 0.1,-0.99 0.1,-0.99 0.1,-0.99 0.1,-1 0.1,-0.99 0.11,-0.99 0.1,-0.99 0.11,-0.99 0.1,-0.99 0.11,-0.99 0.1,-0.99 0.11,-0.99 0.11,-0.99 0.11,-0.99 0.11,-0.99 0.12,-0.99 0.11,-0.99 0.12,-0.99 0.11,-0.99 0.12,-0.99 0.12,-0.98 0.12,-0.99 0.12,-0.99 0.13,-0.99 0.12,-0.98 0.13,-0.99 0.13,-0.98 0.13,-0.99 0.14,-0.98 0.13,-0.98 0.14,-0.98 0.14,-0.99 0.15,-0.98 0.14,-0.98 0.15,-0.98 0.15,-0.97 0.16,-0.98 0.16,-0.98 0.16,-0.97 0.17,-0.97 0.17,-0.97 0.18,-0.97 0.19,-0.97 0.19,-0.96 0.19,-0.96 0.21,-0.96 0.21,-0.96 0.23,-0.94 0.23,-0.95 0.25,-0.93 0.27,-0.93 0.29,-0.92 0.31,-0.9 0.36,-0.87 0.4,-0.84 0.47,-0.77 0.62,-0.64 0.98,-0.16 2,2.9 0.69,2 0.34,1.19 0.29,1.09 0.27,1.08 0.24,1.07 0.23,1.05 0.22,1.05 0.21,1.05 0.2,1.04 0.19,1.04 0.19,1.03 0.17,1.03 0.18,1.03 0.16,1.03 0.17,1.03 0.16,1.02 0.15,1.02 0.15,1.03 0.15,1.02 0.15,1.02 0.14,1.02 0.14,1.02 0.14,1.01 0.13,1.02 0.13,1.02 0.13,1.01 0.13,1.02 0.13,1.01 0.12,1.02 0.13,1.01 0.12,1.01 0.12,1.01 0.12,1.02 0.11,1.01 0.12,1.01 0.11,1.01 0.12,1.01 0.11,1.01 0.11,1.01 0.11,1.01 0.11,1.01 0.1,1.01 0.11,1.01 0.1,1.01 0.11,1.01 0.1,1.01 0.11,1 0.1,1.01 0.1,1.01 0.1,1.01 0.1,1.01 0.1,1 0.09,1.01 0.1,1.01 0.1,1 0.09,1.01 0.1,1.01 0.1,1 0.09,1.01 0.09,1.01 0.1,1 0.09,1.01 0.09,1 0.09,1.01 0.09,1.01 0.09,1 0.09,1.01 0.09,1 0.09,1.01 0.09,1 0.09,1.01 0.08,1 0.09,1.01 0.09,1 0.08,1.01 0.09,1 0.09,1 0.08,1.01 0.09,1 0.08,1.01 0.08,1 0.09,1.01 0.08,1 0.09,1 0.08,1.01 0.08,1 0.08,1 0.08,1.01 0.09,1 0.08,1 0.08,1.01 0.08,1 0.08,1 0.08,1.01 0.08,1 0.08,1 0.08,1.01 0.08,1 0.08,1 0.08,1.01 0.07,1 0.08,1 0.08,1 0.08,1.01 0.08,1 0.07,1 0.08,1 0.08,1.01 0.07,1 0.08,1 0.08,1 0.07,1.01 0.08,1 0.08,1 0.07,1 0.08,1.01 0.07,1 0.08,1 0.07,1 0.08,1 0.07,1 0.08,1.01 0.07,1 0.08,1 0.07,1 0.08,1 0.07,1.01 0.07,1 0.08,1 0.07,1 0.08,1 0.07,1 0.07,1 0.08,1.01 0.07,1 0.07,1 0.08,1 0.07,1 0.07,1 0.07,1 0.08,1 0.07,1.01 0.07,1 0.07,1 0.08,1 0.07,1 0.07,1 0.07,1 0.08,1 0.07,1 0.07,1 0.07,1 0.07,1.01 0.07,1 0.08,1 0.07,1 0.07,1 0.07,1 0.07,1 0.07,1 0.08,1 0.07,1 0.07,1 0.07,1 0.07,1 0.07,1 0.07,1 0.07,1 0.08,1 0.07,1 0.07,1 0.07,1 0.07,1 0.07,1 0.07,1 0.07,1 0.08,1 0.07,1 0.07,1 0.07,1 0.07,1 0.07,1 0.07,1 0.07,1 0.08,1 0.07,1 0.07,1 0.07,1 0.07,1 0.07,1 0.07,1 0.07,1 0.08,1 0.07,1 0.07,1 0.07,1 0.07,1 0.07,1 0.07,1 0.08,1 0.07,1 0.07,0.99 0.07,1 0.07,1 0.08,1 0.07,1 0.07,1 0.07,1 0.07,1 0.08,1 0.07,1 0.07,1 0.07,0.99 0.08,1 0.07,1 0.07,1 0.08,1 0.07,1 0.07,1 0.07,1 0.08,0.99 0.07,1 0.07,1 0.08,1 0.07,1 0.08,1 0.07,0.99 0.07,1 0.08,1 0.07,1 0.08,1 0.07,1 0.08,0.99 0.07,1 0.08,1 0.07,1 0.08,1 0.07,0.99 0.08,1 0.07,1 0.08,1 0.07,1 0.08,0.99 0.08,1 0.07,1 0.08,1 0.08,0.99 0.07,1 0.08,1 0.08,1 0.08,0.99 0.07,1 0.08,1 0.08,1 0.08,0.99 0.08,1 0.08,1 0.08,0.99 0.08,1 0.08,1 0.08,0.99 0.08,1 0.08,1 0.08,0.99 0.08,1 0.08,1 0.08,0.99 0.08,1 0.09,1 0.08,0.99 0.08,1 0.08,0.99 0.09,1 0.08,1 0.09,0.99 0.08,1 0.09,0.99 0.08,1 0.09,1 0.08,0.99 0.09,1 0.09,0.99 0.08,1 0.09,0.99 0.09,1 0.09,0.99 0.09,1 0.09,0.99 0.08,1 0.1,0.99 0.09,0.99 0.09,1 0.09,0.99 0.09,1 0.09,0.99 0.1,1 0.09,0.99 0.1,0.99 0.09,1 0.1,0.99 0.09,0.99 0.1,1 0.1,0.99 0.1,0.99 0.1,0.99 0.1,1 0.1,0.99 0.1,0.99 0.1,0.99 0.11,0.99 0.1,0.99 0.11,1 0.1,0.99 0.11,0.99 0.11,0.99 0.11,0.99 0.11,0.99 0.11,0.99 0.11,0.99 0.11,0.99 0.12,0.98 0.12,0.99 0.11,0.99 0.12,0.99 0.12,0.99 0.12,0.98 0.13,0.99 0.12,0.99 0.13,0.98 0.13,0.99 0.13,0.98 0.13,0.98 0.14,0.99 0.14,0.98 0.14,0.98 0.14,0.98 0.14,0.98 0.15,0.98 0.15,0.98 0.16,0.98 0.16,0.97 0.16,0.98 0.17,0.97 0.17,0.97 0.18,0.97 0.18,0.97 0.19,0.96 0.19,0.97 0.2,0.95 0.21,0.96 0.23,0.95 0.23,0.95 0.24,0.93 0.27,0.93 0.28,0.92 0.31,0.91 0.34,0.88 0.38,0.85 0.45,0.8 0.57,0.69 0.82,0.38 2,-2.14 0.94,-2.48 0.37,-1.26 0.3,-1.11 0.27,-1.08 0.25,-1.07 0.24,-1.05 0.22,-1.06 0.21,-1.04 0.2,-1.04 0.19,-1.04 0.19,-1.04 0.18,-1.03 0.17,-1.03 0.17,-1.03 0.17,-1.03 0.16,-1.02 0.15,-1.02 0.15,-1.03 0.15,-1.02 0.15,-1.02 0.14,-1.02 0.14,-1.02 0.14,-1.01 0.13,-1.02 0.14,-1.02 0.13,-1.01 0.13,-1.02 0.12,-1.01 0.13,-1.02 0.12,-1.01 0.12,-1.01 0.12,-1.02 0.12,-1.01 0.12,-1.01 0.12,-1.01 0.11,-1.01 0.11,-1.01 0.12,-1.01 0.11,-1.01 0.11,-1.01 0.11,-1.01 0.1,-1.01 0.11,-1.01 0.11,-1.01 0.1,-1.01 0.1,-1.01 0.11,-1.01 0.1,-1.01 0.1,-1 0.1,-1.01 0.1,-1.01 0.1,-1.01 0.1,-1 0.1,-1.01 0.09,-1.01 0.1,-1 0.09,-1.01 0.1,-1.01 0.09,-1 0.1,-1.01 0.09,-1.01 0.09,-1 0.09,-1.01 0.1,-1 0.09,-1.01 0.09,-1 0.09,-1.01 0.09,-1 0.09,-1.01 0.08,-1 0.09,-1.01 0.09,-1 0.09,-1.01 0.08,-1 0.09,-1.01 0.09,-1 0.08,-1.01 0.09,-1 0.08,-1.01 0.09,-1 0.08,-1 0.08,-1.01 0.09,-1 0.08,-1.01 0.08,-1 0.09,-1 0.08,-1.01 0.08,-1 0.08,-1 0.08,-1.01 0.08,-1 0.09,-1.01 0.08,-1 0.08,-1 0.08,-1 0.08,-1.01 0.08,-1 0.07,-1 0.08,-1.01 0.08,-1 0.08,-1 0.08,-1.01 0.08,-1 0.08,-1 0.07,-1 0.08,-1.01 0.08,-1 0.08,-1 0.07,-1 0.08,-1.01 0.08,-1 0.07,-1 0.08,-1 0.07,-1 0.08,-1.01 0.08,-1 0.07,-1 0.08,-1 0.07,-1.01 0.08,-1 0.07,-1 0.08,-1 0.07,-1 0.08,-1 0.07,-1.01 0.07,-1 0.08,-1 0.07,-1 0.08,-1 0.07,-1 0.07,-1.01 0.08,-1 0.07,-1 0.07,-1 0.08,-1 0.07,-1 0.07,-1 0.08,-1.01 0.07,-1 0.07,-1 0.08,-1 0.07,-1 0.07,-1 0.07,-1 0.07,-1 0.08,-1 0.07,-1.01 0.07,-1 0.07,-1 0.08,-1 0.07,-1 0.07,-1 0.07,-1 0.07,-1 0.07,-1 0.08,-1 0.07,-1 0.07,-1 0.07,-1 0.07,-1 0.07,-1 0.08,-1.01 0.07,-1 0.07,-1 0.07,-1 0.07,-1 0.07,-1 0.07,-1 0.08,-1 0.07,-1 0.07,-1 0.07,-1 0.07,-1 0.07,-1 0.07,-1 0.07,-1 0.07,-1 0.08,-1 0.07,-1 0.07,-1 0.07,-1 0.07,-1 0.07,-1 0.07,-1 0.07,-1 0.08,-1 0.07,-1 0.07,-1 0.07,-1 0.07,-1 0.07,-1 0.07,-1 0.07,-0.99 0.08,-1 0.07,-1 0.07,-1 0.07,-1 0.07,-1 0.07,-1 0.08,-1 0.07,-1 0.07,-1 0.07,-1 0.07,-1 0.07,-1 0.08,-1 0.07,-1 0.07,-0.99 0.07,-1 0.08,-1 0.07,-1 0.07,-1 0.07,-1 0.08,-1 0.07,-1 0.07,-1 0.07,-0.99 0.08,-1 0.07,-1 0.07,-1 0.08,-1 0.07,-1 0.07,-1 0.08,-0.99 0.07,-1 0.07,-1 0.08,-1 0.07,-1 0.08,-1 0.07,-0.99 0.07,-1 0.08,-1 0.07,-1 0.08,-1 0.07,-1 0.08,-0.99 0.07,-1 0.08,-1 0.07,-1 0.08,-1 0.08,-0.99 0.07,-1 0.08,-1 0.07,-1 0.08,-0.99 0.08,-1 0.07,-1 0.08,-1 0.08,-0.99 0.08,-1 0.07,-1 0.08,-1 0.08,-0.99 0.08,-1 0.08,-1 0.08,-0.99 0.07,-1 0.08,-1 0.08,-1 0.08,-0.99 0.08,-1 0.08,-1 0.08,-0.99 0.08,-1 0.09,-1 0.08,-0.99 0.08,-1 0.08,-1 0.08,-0.99 0.08,-1 0.09,-0.99 0.08,-1 0.08,-1 0.09,-0.99 0.08,-1 0.09,-0.99 0.08,-1 0.09,-1 0.08,-0.99 0.09,-1 0.08,-0.99 0.09,-1 0.09,-0.99 0.09,-1 0.08,-0.99 0.09,-1 0.09,-0.99 0.09,-1 0.09,-0.99 0.09,-1 0.09,-0.99 0.09,-1 0.09,-0.99 0.1,-0.99 0.09,-1 0.09,-0.99 0.1,-1 0.09,-0.99 0.1,-0.99 0.09,-1 0.1,-0.99 0.09,-0.99 0.1,-0.99 0.1,-1 0.1,-0.99 0.1,-0.99 0.1,-0.99 0.1,-1 0.1,-0.99 0.11,-0.99 0.1,-0.99 0.11,-0.99 0.1,-0.99 0.11,-0.99 0.11,-0.99 0.11,-0.99 0.11,-0.99 0.11,-0.99 0.11,-0.99 0.11,-0.99 0.12,-0.99 0.11,-0.99 0.12,-0.99 0.12,-0.99 0.12,-0.98 0.12,-0.99 0.12,-0.99 0.13,-0.98 0.13,-0.99 0.12,-0.98 0.14,-0.99 0.13,-0.98 0.13,-0.99 0.14,-0.98 0.14,-0.98 0.14,-0.98 0.15,-0.98 0.14,-0.98 0.15,-0.98 0.16,-0.98 0.16,-0.97 0.16,-0.98 0.16,-0.97 0.17,-0.97 0.18,-0.97 0.18,-0.97 0.19,-0.97 0.19,-0.96 0.2,-0.96 0.21,-0.96 0.22,-0.95 0.23,-0.94 0.24,-0.94 0.26,-0.94 0.28,-0.92 0.3,-0.91 0.33,-0.89 0.37,-0.86 0.43,-0.81 0.53,-0.72 0.74,-0.49 1.49,0.8 1.86,4.35 0.42,1.51 0.29,1.11 0.25,1.07 0.24,1.06 0.22,1.05 0.21,1.05 0.21,1.04 0.19,1.04 0.19,1.04 0.18,1.03 0.18,1.03 0.17,1.03 0.16,1.03 0.16,1.02 0.16,1.03 0.15,1.02 0.15,1.02 0.15,1.02 0.14,1.02 0.14,1.02 0.14,1.02 0.14,1.02 0.13,1.01 0.13,1.02 0.13,1.01 0.13,1.02 0.13,1.01 0.12,1.02 0.12,1.01 0.12,1.01 0.12,1.01 0.12,1.02 0.11,1.01 0.12,1.01 0.11,1.01 0.12,1.01 0.11,1.01 0.11,1.01 0.11,1.01 0.1,1.01 0.11,1.01 0.11,1.01 0.1,1.01 0.1,1.01 0.11,1 0.1,1.01 0.1,1.01 0.1,1.01 0.1,1.01 0.1,1 0.1,1.01 0.1,1.01 0.09,1 0.1,1.01 0.1,1.01 0.09,1 0.1,1.01 0.09,1.01 0.09,1 0.1,1.01 0.09,1 0.09,1.01 0.09,1.01 0.09,1 0.09,1.01 0.09,1 0.09,1.01 0.09,1 0.09,1.01 0.08,1 0.09,1.01 0.09,1 0.08,1.01 0.09,1 0.09,1.01 0.08,1 0.09,1 0.08,1.01 0.09,1 0.08,1.01 0.08,1 0.09,1 0.08,1.01 0.08,1 0.08,1.01 0.09,1 0.08,1 0.08,1.01 0.08,1 0.08,1 0.08,1.01 0.08,1 0.08,1 0.08,1.01 0.08,1 0.08,1 0.08,1 0.08,1.01 0.08,1 0.08,1 0.07,1.01 0.08,1 0.08,1 0.08,1 0.08,1.01 0.07,1 0.08,1 0.08,1 0.07,1.01 0.08,1 0.08,1 0.07,1 0.08,1.01 0.07,1 0.08,1 0.07,1 0.08,1 0.07,1.01 0.08,1 0.07,1 0.08,1 0.07,1 0.08,1 0.07,1.01 0.08,1 0.07,1 0.07,1 0.08,1 0.07,1 0.08,1.01 0.07,1 0.07,1 0.08,1 0.07,1 0.07,1 0.07,1 0.08,1.01 0.07,1 0.07,1 0.08,1 0.07,1 0.07,1 0.07,1 0.08,1 0.07,1 0.07,1 0.07,1.01 0.07,1 0.08,1 0.07,1 0.07,1 0.07,1 0.07,1 0.07,1 0.08,1 0.07,1 0.07,1 0.07,1 0.07,1 0.07,1 0.08,1 0.07,1.01 0.07,1 0.07,1 0.07,1 0.07,1 0.07,1 0.07,1 0.08,1 0.07,1 0.07,1 0.07,1 0.07,1 0.07,1 0.07,1 0.07,1 0.08,1 0.07,1 0.07,1 0.07,1 0.07,1 0.07,1 0.07,1 0.07,1 0.07,1 0.08,1 0.07,1 0.07,1 0.07,0.99 0.07,1 0.07,1 0.07,1 0.08,1 0.07,1 0.07,1 0.07,1 0.07,1 0.07,1 0.08,1 0.07,1 0.07,1 0.07,1 0.07,1 0.07,1 0.08,0.99 0.07,1 0.07,1 0.07,1 0.08,1 0.07,1 0.07,1 0.07,1 0.08,1 0.07,0.99 0.07,1 0.07,1 0.08,1 0.07,1 0.07,1 0.08,1 0.07,1 0.07,0.99 0.08,1 0.07,1 0.08,1 0.07,1 0.07,1 0.08,0.99 0.07,1 0.08,1 0.07,1 0.08,1 0.07,0.99 0.08,1 0.07,1 0.08,1 0.07,1 0.08,0.99 0.07,1 0.08,1 0.08,1 0.07,1 0.08,0.99 0.07,1 0.08,1 0.08,1 0.08,0.99 0.07,1 0.08,1 0.08,1 0.08,0.99 0.08,1 0.07,1 0.08,0.99 0.08,1 0.08,1 0.08,1 0.08,0.99 0.08,1 0.08,1 0.08,0.99 0.08,1 0.08,1 0.08,0.99 0.08,1 0.09,1 0.08,0.99 0.08,1 0.08,0.99 0.09,1 0.08,1 0.08,0.99 0.09,1 0.08,0.99 0.09,1 0.08,1 0.09,0.99 0.08,1 0.09,0.99 0.09,1 0.08,0.99 0.09,1 0.09,0.99 0.09,1 0.08,0.99 0.09,1 0.09,0.99 0.09,1 0.09,0.99 0.1,1 0.09,0.99 0.09,0.99 0.09,1 0.09,0.99 0.1,1 0.09,0.99 0.1,0.99 0.09,1 0.1,0.99 0.1,0.99 0.09,1 0.1,0.99 0.1,0.99 0.1,0.99 0.1,1 0.1,0.99 0.11,0.99 0.1,0.99 0.1,0.99 0.11,0.99 0.1,0.99 0.11,1 0.11,0.99 0.11,0.99 0.11,0.99 0.11,0.99 0.11,0.99 0.11,0.98 0.12,0.99 0.11,0.99 0.12,0.99 0.12,0.99 0.12,0.99 0.12,0.98 0.12,0.99 0.12,0.99 0.13,0.98 0.13,0.99 0.13,0.98 0.13,0.99 0.14,0.98 0.13,0.98 0.14,0.98 0.14,0.99 0.15,0.98 0.14,0.98 0.15,0.97 0.16,0.98 0.15,0.98 0.16,0.97 0.17,0.98 0.17,0.97 0.17,0.97 0.18,0.97 0.19,0.96 0.19,0.97 0.2,0.96 0.2,0.95 0.22,0.96 0.23,0.95 0.24,0.94 0.25,0.93 0.27,0.93 0.3,0.91 0.32,0.89 0.36,0.87 0.42,0.83 0.5,0.75 0.67,0.57 1.16,-0.15 2,-3.69 0.54,-1.74 0.32,-1.14 0.27,-1.08 0.25,-1.07 0.24,-1.06 0.22,-1.05 0.21,-1.05 0.2,-1.04 0.2,-1.04 0.19,-1.04 0.18,-1.03 0.17,-1.03 0.17,-1.03 0.16,-1.03 0.17,-1.02 0.15,-1.03 0.15,-1.02 0.15,-1.02 0.15,-1.02 0.14,-1.02 0.14,-1.02 0.14,-1.02 0.14,-1.01 0.13,-1.02 0.13,-1.02 0.13,-1.01 0.13,-1.02 0.12,-1.01 0.13,-1.01 0.12,-1.02 0.12,-1.01 0.12,-1.01 0.12,-1.01 0.11,-1.02 0.12,-1.01 0.11,-1.01 0.11,-1.01 0.11,-1.01 0.11,-1.01 0.11,-1.01 0.11,-1.01 0.11,-1.01 0.1,-1.01 0.11,-1.01 0.1,-1 0.1,-1.01 0.11,-1.01 0.1,-1.01 0.1,-1.01 0.1,-1 0.1,-1.01 0.1,-1.01 0.09,-1.01 0.1,-1 0.1,-1.01 0.09,-1.01 0.1,-1 0.09,-1.01 0.1,-1 0.09,-1.01 0.09,-1.01 0.09,-1 0.09,-1.01 0.1,-1 0.09,-1.01 0.09,-1 0.09,-1.01 0.08,-1.01 0.09,-1 0.09,-1.01 0.09,-1 0.09,-1 0.08,-1.01 0.09,-1 0.09,-1.01 0.08,-1 0.09,-1.01 0.08,-1 0.09,-1.01 0.08,-1 0.08,-1 0.09,-1.01 0.08,-1 0.08,-1.01 0.09,-1 0.08,-1 0.08,-1.01 0.08,-1 0.08,-1 0.09,-1.01 0.08,-1 0.08,-1 0.08,-1.01 0.08,-1 0.08,-1 0.08,-1.01 0.08,-1 0.07,-1 0.08,-1.01 0.08,-1 0.08,-1 0.08,-1 0.08,-1.01 0.07,-1 0.08,-1 0.08,-1 0.08,-1.01 0.07,-1 0.08,-1 0.08,-1 0.07,-1.01 0.08,-1 0.08,-1 0.07,-1 0.08,-1 0.07,-1.01 0.08,-1 0.07,-1 0.08,-1 0.07,-1 0.08,-1.01 0.07,-1 0.08,-1 0.07,-1 0.08,-1 0.07,-1.01 0.07,-1 0.08,-1 0.07,-1 0.08,-1 0.07,-1 0.07,-1 0.08,-1.01 0.07,-1 0.07,-1 0.08,-1 0.07,-1 0.07,-1 0.07,-1 0.08,-1 0.07,-1.01 0.07,-1 0.07,-1 0.08,-1 0.07,-1 0.07,-1 0.07,-1 0.08,-1 0.07,-1 0.07,-1 0.07,-1.01 0.07,-1 0.07,-1 0.08,-1 0.07,-1 0.07,-1 0.07,-1 0.07,-1 0.07,-1 0.08,-1 0.07,-1 0.07,-1 0.07,-1 0.07,-1 0.07,-1 0.07,-1 0.08,-1 0.07,-1 0.07,-1 0.07,-1 0.07,-1 0.07,-1 0.07,-1 0.07,-1 0.08,-1 0.07,-1 0.07,-1 0.07,-1 0.07,-1 0.07,-1 0.07,-1 0.07,-1 0.07,-1 0.08,-1 0.07,-1 0.07,-1 0.07,-1 0.07,-1 0.07,-1 0.07,-1 0.07,-1 0.08,-1 0.07,-1 0.07,-1 0.07,-1 0.07,-1 0.07,-1 0.08,-1 0.07,-1 0.07,-1 0.07,-1 0.07,-0.99 0.07,-1 0.08,-1 0.07,-1 0.07,-1 0.07,-1 0.07,-1 0.08,-1 0.07,-1 0.07,-1 0.07,-1 0.08,-0.99 0.07,-1 0.07,-1 0.07,-1 0.08,-1 0.07,-1 0.07,-1 0.08,-0.99 0.07,-1 0.07,-1 0.08,-1 0.07,-1 0.07,-1 0.08,-1 0.07,-0.99 0.08,-1 0.07,-1 0.08,-1 0.07,-1 0.07,-1 0.08,-0.99 0.07,-1 0.08,-1 0.07,-1 0.08,-1 0.08,-0.99 0.07,-1 0.08,-1 0.07,-1 0.08,-0.99 0.08,-1 0.07,-1 0.08,-1 0.08,-1 0.07,-0.99 0.08,-1 0.08,-1 0.07,-0.99 0.08,-1 0.08,-1 0.08,-1 0.08,-0.99 0.08,-1 0.08,-1 0.07,-1 0.08,-0.99 0.08,-1 0.08,-1 0.08,-0.99 0.08,-1 0.08,-1 0.09,-0.99 0.08,-1 0.08,-1 0.08,-0.99 0.08,-1 0.08,-0.99 0.09,-1 0.08,-1 0.08,-0.99 0.09,-1 0.08,-0.99 0.09,-1 0.08,-1 0.09,-0.99 0.08,-1 0.09,-0.99 0.08,-1 0.09,-0.99 0.09,-1 0.08,-0.99 0.09,-1 0.09,-0.99 0.09,-1 0.09,-0.99 0.09,-1 0.09,-0.99 0.09,-1 0.09,-0.99 0.09,-1 0.09,-0.99 0.1,-0.99 0.09,-1 0.09,-0.99 0.1,-1 0.09,-0.99 0.1,-0.99 0.1,-1 0.09,-0.99 0.1,-0.99 0.1,-0.99 0.1,-1 0.1,-0.99 0.1,-0.99 0.1,-0.99 0.1,-1 0.11,-0.99 0.1,-0.99 0.1,-0.99 0.11,-0.99 0.11,-0.99 0.1,-0.99 0.11,-0.99 0.11,-0.99 0.11,-0.99 0.12,-0.99 0.11,-0.99 0.11,-0.99 0.12,-0.99 0.12,-0.99 0.11,-0.98 0.12,-0.99 0.13,-0.99 0.12,-0.99 0.12,-0.98 0.13,-0.99 0.13,-0.98 0.13,-0.99 0.13,-0.98 0.14,-0.98 0.13,-0.99 0.14,-0.98 0.14,-0.98 0.15,-0.98 0.14,-0.98 0.16,-0.98 0.15,-0.98 0.16,-0.97 0.16,-0.98 0.16,-0.97 0.17,-0.97 0.18,-0.97 0.18,-0.97 0.18,-0.97 0.19,-0.96 0.2,-0.96 0.21,-0.96 0.22,-0.95 0.23,-0.95 0.24,-0.94 0.25,-0.93 0.28,-0.93 0.3,-0.91 0.32,-0.89 0.37,-0.86 0.42,-0.82 0.52,-0.74 0.69,-0.54 1.29,0.38 2,4.14 0.48,1.64 0.3,1.12 0.26,1.08 0.24,1.06 0.23,1.06 0.22,1.05 0.21,1.04 0.19,1.04 0.2,1.04 0.18,1.04 0.18,1.03 0.17,1.03 0.17,1.03 0.16,1.02 0.16,1.03 0.15,1.02 0.15,1.02 0.15,1.02 0.15,1.02 0.14,1.02 0.14,1.02 0.13,1.02 0.14,1.01 0.13,1.02 0.13,1.02 0.13,1.01 0.12,1.01 0.13,1.02 0.12,1.01 0.12,1.01 0.12,1.02 0.12,1.01 0.12,1.01 0.11,1.01 0.12,1.01 0.11,1.01 0.11,1.02 0.11,1.01 0.11,1.01 0.11,1 0.11,1.01 0.1,1.01 0.11,1.01 0.1,1.01 0.11,1.01 0.1,1.01 0.1,1.01 0.1,1 0.1,1.01 0.1,1.01 0.1,1.01 0.1,1 0.1,1.01 0.09,1.01 0.1,1 0.09,1.01 0.1,1.01 0.09,1 0.1,1.01 0.09,1 0.09,1.01 0.09,1.01 0.09,1 0.09,1.01 0.09,1 0.09,1.01 0.09,1 0.09,1.01 0.09,1 0.09,1.01 0.09,1 0.08,1.01 0.09,1 0.09,1.01 0.08,1 0.09,1.01 0.08,1 0.09,1.01 0.08,1 0.09,1 0.08,1.01 0.08,1 0.09,1.01 0.08,1 0.08,1 0.08,1.01 0.09,1 0.08,1 0.08,1.01 0.08,1 0.08,1 0.08,1.01 0.08,1 0.08,1 0.08,1.01 0.08,1 0.08,1 0.08,1.01 0.08,1 0.08,1 0.07,1 0.08,1.01 0.08,1 0.08,1 0.07,1 0.08,1.01 0.08,1 0.08,1 0.07,1 0.08,1.01 0.08,1 0.07,1 0.08,1 0.07,1 0.08,1.01 0.07,1 0.08,1 0.07,1 0.08,1 0.07,1.01 0.08,1 0.07,1 0.08,1 0.07,1 0.08,1.01 0.07,1 0.08,1 0.07,1 0.07,1 0.08,1 0.07,1 0.07,1.01 0.08,1 0.07,1 0.07,1 0.08,1 0.07,1 0.07,1 0.07,1.01 0.08,1 0.07,1 0.07,1 0.07,1 0.08,1 0.07,1 0.07,1 0.07,1 0.08,1 0.07,1.01 0.07,1 0.07,1 0.07,1 0.07,1 0.08,1 0.07,1 0.07,1 0.07,1 0.07,1 0.07,1 0.08,1 0.07,1 0.07,1 0.07,1 0.07,1 0.07,1 0.07,1 0.08,1 0.07,1.01 0.07,1 0.07,1 0.07,1 0.07,1 0.07,1 0.07,1 0.07,1 0.08,1 0.07,1 0.07,1 0.07,1 0.07,1 0.07,1 0.07,1 0.07,1 0.08,1 0.07,0.99 0.07,1 0.07,1 0.07,1 0.07,1 0.07,1 0.07,1 0.08,1 0.07,1 0.07,1 0.07,1 0.07,1 0.07,1 0.08,1 0.07,1 0.07,1 0.07,1 0.07,1 0.07,0.99 0.08,1 0.07,1 0.07,1 0.07,1 0.07,1 0.08,1 0.07,1 0.07,1 0.07,1 0.08,0.99 0.07,1 0.07,1 0.08,1 0.07,1 0.07,1 0.07,1 0.08,1 0.07,0.99 0.07,1 0.08,1 0.07,1 0.08,1 0.07,1 0.07,0.99 0.08,1 0.07,1 0.08,1 0.07,1 0.08,1 0.07,0.99 0.08,1 0.07,1 0.08,1 0.07,1 0.08,0.99 0.07,1 0.08,1 0.08,1 0.07,0.99 0.08,1 0.07,1 0.08,1 0.08,1 0.08,0.99 0.07,1 0.08,1 0.08,0.99 0.08,1 0.07,1 0.08,1 0.08,0.99 0.08,1 0.08,1 0.08,0.99 0.08,1 0.08,1 0.08,1 0.08,0.99 0.08,1 0.08,1 0.08,0.99 0.08,1 0.08,0.99 0.09,1 0.08,1 0.08,0.99 0.08,1 0.09,1 0.08,0.99 0.08,1 0.09,0.99 0.08,1 0.09,1 0.08,0.99 0.09,1 0.08,0.99 0.09,1 0.09,0.99 0.08,1 0.09,0.99 0.09,1 0.09,0.99 0.09,1 0.09,0.99 0.09,1 0.09,0.99 0.09,1 0.09,0.99 0.09,0.99 0.09,1 0.1,0.99 0.09,1 0.1,0.99 0.09,0.99 0.1,1 0.09,0.99 0.1,0.99 0.1,1 0.09,0.99 0.1,0.99 0.1,0.99 0.1,1 0.1,0.99 0.1,0.99 0.11,0.99 0.1,0.99 0.11,1 0.1,0.99 0.11,0.99 0.1,0.99 0.11,0.99 0.11,0.99 0.11,0.99 0.11,0.99 0.12,0.99 0.11,0.99 0.11,0.99 0.12,0.98 0.12,0.99 0.12,0.99 0.12,0.99 0.12,0.98 0.12,0.99 0.13,0.99 0.13,0.98 0.13,0.99 0.13,0.98 0.13,0.98 0.14,0.99 0.13,0.98 0.15,0.98 0.14,0.98 0.14,0.98 0.15,0.98 0.15,0.98 0.16,0.98 0.16,0.97 0.16,0.98 0.17,0.97 0.17,0.97 0.18,0.97 0.18,0.97 0.19,0.96 0.19,0.96 0.21,0.96 0.21,0.96 0.22,0.95 0.24,0.94 0.25,0.94 0.26,0.93 0.28,0.92 0.31,0.9 0.35,0.88 0.39,0.84 0.46,0.79 0.58,0.67 0.88,0.31 2,-2.41 0.83,-2.26 0.37,-1.23 0.29,-1.11 0.27,-1.08 0.25,-1.06 0.24,-1.06 0.22,-1.05 0.21,-1.05 0.2,-1.04 0.19,-1.04 0.19,-1.04 0.18,-1.03 0.17,-1.03 0.17,-1.03 0.16,-1.02 0.16,-1.03 0.16,-1.02 0.15,-1.02 0.15,-1.03 0.14,-1.02 0.15,-1.02 0.14,-1.01 0.14,-1.02 0.13,-1.02 0.13,-1.02 0.13,-1.01 0.13,-1.02 0.13,-1.01 0.13,-1.01 0.12,-1.02 0.12,-1.01 0.12,-1.01 0.12,-1.02 0.12,-1.01 0.11,-1.01 0.12,-1.01 0.11,-1.01 0.11,-1.01 0.11,-1.01 0.11,-1.01 0.11,-1.01 0.11,-1.01 0.11,-1.01 0.1,-1.01 0.11,-1.01 0.1,-1.01 0.1,-1.01 0.1,-1 0.11,-1.01 0.1,-1.01 0.1,-1.01 0.09,-1 0.1,-1.01 0.1,-1.01 0.1,-1.01 0.09,-1 0.1,-1.01 0.09,-1 0.1,-1.01 0.09,-1.01 0.09,-1 0.1,-1.01 0.09,-1.01 0.09,-1 0.09,-1.01 0.09,-1 0.09,-1.01 0.09,-1 0.09,-1.01 0.09,-1 0.09,-1.01 0.08,-1 0.09,-1.01 0.09,-1 0.08,-1.01 0.09,-1 0.09,-1.01 0.08,-1 0.09,-1 0.08,-1.01 0.09,-1 0.08,-1.01 0.08,-1 0.09,-1 0.08,-1.01 0.08,-1 0.08,-1.01 0.09,-1 0.08,-1 0.08,-1.01 0.08,-1 0.08,-1 0.08,-1.01 0.08,-1 0.08,-1 0.08,-1.01 0.08,-1 0.08,-1 0.08,-1 0.08,-1.01 0.08,-1 0.07,-1 0.08,-1.01 0.08,-1 0.08,-1 0.08,-1 0.07,-1.01 0.08,-1 0.08,-1 0.07,-1 0.08,-1.01 0.08,-1 0.07,-1 0.08,-1 0.07,-1 0.08,-1.01 0.08,-1 0.07,-1 0.08,-1 0.07,-1 0.08,-1.01 0.07,-1 0.08,-1 0.07,-1 0.07,-1 0.08,-1.01 0.07,-1 0.08,-1 0.07,-1 0.07,-1 0.08,-1 0.07,-1 0.08,-1.01 0.07,-1 0.07,-1 0.08,-1 0.07,-1 0.07,-1 0.07,-1 0.08,-1.01 0.07,-1 0.07,-1 0.07,-1 0.08,-1 0.07,-1 0.07,-1 0.07,-1 0.08,-1 0.07,-1 0.07,-1.01 0.07,-1 0.07,-1 0.08,-1 0.07,-1 0.07,-1 0.07,-1 0.07,-1 0.07,-1 0.08,-1 0.07,-1 0.07,-1 0.07,-1 0.07,-1 0.07,-1 0.07,-1 0.08,-1 0.07,-1.01 0.07,-1 0.07,-1 0.07,-1 0.07,-1 0.07,-1 0.07,-1 0.08,-1 0.07,-1 0.07,-1 0.07,-1 0.07,-1 0.07,-1 0.07,-1 0.07,-1 0.07,-1 0.08,-1 0.07,-1 0.07,-1 0.07,-1 0.07,-1 0.07,-0.99 0.07,-1 0.07,-1 0.08,-1 0.07,-1 0.07,-1 0.07,-1 0.07,-1 0.07,-1 0.07,-1 0.08,-1 0.07,-1 0.07,-1 0.07,-1 0.07,-1 0.08,-1 0.07,-1 0.07,-0.99 0.07,-1 0.07,-1 0.08,-1 0.07,-1 0.07,-1 0.07,-1 0.07,-1 0.08,-1 0.07,-1 0.07,-0.99 0.08,-1 0.07,-1 0.07,-1 0.07,-1 0.08,-1 0.07,-1 0.07,-0.99 0.08,-1 0.07,-1 0.07,-1 0.08,-1 0.07,-1 0.08,-1 0.07,-0.99 0.07,-1 0.08,-1 0.07,-1 0.08,-1 0.07,-0.99 0.08,-1 0.07,-1 0.08,-1 0.07,-1 0.08,-0.99 0.07,-1 0.08,-1 0.08,-1 0.07,-1 0.08,-0.99 0.08,-1 0.07,-1 0.08,-1 0.08,-0.99 0.07,-1 0.08,-1 0.08,-1 0.08,-0.99 0.07,-1 0.08,-1 0.08,-1 0.08,-0.99 0.08,-1 0.08,-1 0.08,-0.99 0.08,-1 0.08,-1 0.08,-0.99 0.08,-1 0.08,-1 0.08,-0.99 0.08,-1 0.08,-1 0.08,-0.99 0.09,-1 0.08,-1 0.08,-0.99 0.09,-1 0.08,-0.99 0.08,-1 0.09,-1 0.08,-0.99 0.09,-1 0.08,-0.99 0.09,-1 0.08,-0.99 0.09,-1 0.09,-0.99 0.08,-1 0.09,-1 0.09,-0.99 0.09,-1 0.09,-0.99 0.08,-0.99 0.09,-1 0.09,-0.99 0.1,-1 0.09,-0.99 0.09,-1 0.09,-0.99 0.09,-0.99 0.1,-1 0.09,-0.99 0.1,-1 0.09,-0.99 0.1,-0.99 0.09,-1 0.1,-0.99 0.1,-0.99 0.1,-0.99 0.1,-1 0.1,-0.99 0.1,-0.99 0.1,-0.99 0.1,-1 0.1,-0.99 0.11,-0.99 0.1,-0.99 0.11,-0.99 0.11,-0.99 0.1,-0.99 0.11,-0.99 0.11,-0.99 0.11,-0.99 0.12,-0.99 0.11,-0.99 0.11,-0.99 0.12,-0.99 0.12,-0.99 0.12,-0.98 0.12,-0.99 0.12,-0.99 0.12,-0.98 0.13,-0.99 0.12,-0.99 0.13,-0.98 0.13,-0.99 0.13,-0.98 0.14,-0.98 0.14,-0.99 0.14,-0.98 0.14,-0.98 0.14,-0.98 0.15,-0.98 0.15,-0.98 0.16,-0.97 0.15,-0.98 0.16,-0.98 0.17,-0.97 0.17,-0.97 0.18,-0.97 0.18,-0.97 0.18,-0.96 0.2,-0.97 0.2,-0.96 0.21,-0.95 0.22,-0.95 0.23,-0.95 0.24,-0.94 0.26,-0.93 0.28,-0.92 0.3,-0.91 0.33,-0.89 0.37,-0.86 0.44,-0.81 0.53,-0.72 0.75,-0.48 1.54,0.92 1.68,3.92 0.43,1.48 0.29,1.1 0.26,1.08 0.24,1.06 0.23,1.06 0.22,1.05 0.2,1.04 0.2,1.04 0.19,1.04 0.19,1.03 0.17,1.03 0.17,1.03 0.17,1.03 0.16,1.03 0.16,1.02 0.16,1.02 0.15,1.03 0.14,1.02 0.15,1.02 0.14,1.02 0.14,1.01 0.14,1.02 0.13,1.02 0.13,1.02 0.13,1.01 0.13,1.02 0.13,1.01 0.12,1.01 0.12,1.02 0.12,1.01 0.12,1.01 0.12,1.01 0.12,1.02 0.11,1.01 0.12,1.01 0.11,1.01 0.11,1.01 0.11,1.01 0.11,1.01 0.11,1.01 0.11,1.01 0.1,1.01 0.11,1.01 0.1,1.01 0.11,1 0.1,1.01 0.1,1.01 0.1,1.01 0.1,1.01 0.1,1 0.1,1.01 0.1,1.01 0.09,1 0.1,1.01 0.1,1.01 0.09,1 0.1,1.01 0.09,1.01 0.09,1 0.1,1.01 0.09,1.01 0.09,1 0.09,1.01 0.09,1 0.09,1.01 0.09,1 0.09,1.01 0.09,1 0.09,1.01 0.09,1 0.09,1.01 0.08,1 0.09,1.01 0.09,1 0.08,1.01 0.09,1 0.08,1.01 0.09,1 0.08,1 0.08,1.01 0.09,1 0.08,1.01 0.08,1 0.09,1 0.08,1.01 0.08,1 0.08,1 0.09,1.01 0.08,1 0.08,1 0.08,1.01 0.08,1 0.08,1 0.08,1.01 0.08,1 0.08,1 0.08,1.01 0.08,1 0.07,1 0.08,1 0.08,1.01 0.08,1 0.08,1 0.07,1.01 0.08,1 0.08,1 0.08,1 0.07,1.01 0.08,1 0.08,1 0.07,1 0.08,1 0.07,1.01 0.08,1 0.08,1 0.07,1 0.08,1.01 0.07,1 0.08,1 0.07,1 0.08,1 0.07,1 0.08,1.01 0.07,1 0.07,1 0.08,1 0.07,1 0.08,1 0.07,1.01 0.07,1 0.08,1 0.07,1 0.07,1 0.08,1 0.07,1 0.07,1.01 0.08,1 0.07,1 0.07,1 0.07,1 0.08,1 0.07,1 0.07,1 0.07,1 0.08,1.01 0.07,1 0.07,1 0.07,1 0.07,1 0.08,1 0.07,1 0.07,1 0.07,1 0.07,1 0.08,1 0.07,1 0.07,1 0.07,1.01 0.07,1 0.07,1 0.07,1 0.08,1 0.07,1 0.07,1 0.07,1 0.07,1 0.07,1 0.07,1 0.07,1 0.08,1 0.07,1 0.07,1 0.07,1 0.07,1 0.07,1 0.07,1 0.07,1 0.08,1 0.07,1 0.07,1 0.07,1 0.07,1 0.07,1 0.07,1 0.07,1 0.08,1 0.07,1 0.07,1 0.07,1 0.07,1 0.07,1 0.07,1 0.07,1 0.08,0.99 0.07,1 0.07,1 0.07,1 0.07,1 0.07,1 0.08,1 0.07,1 0.07,1 0.07,1 0.07,1 0.08,1 0.07,1 0.07,0.99 0.07,1 0.07,1 0.08,1 0.07,1 0.07,1 0.07,1 0.08,1 0.07,1 0.07,0.99 0.08,1 0.07,1 0.07,1 0.08,1 0.07,1 0.07,1 0.08,0.99 0.07,1 0.07,1 0.08,1 0.07,1 0.08,1 0.07,0.99 0.07,1 0.08,1 0.07,1 0.08,1 0.07,1 0.08,0.99 0.07,1 0.08,1 0.07,1 0.08,1 0.08,0.99 0.07,1 0.08,1 0.08,1 0.07,0.99 0.08,1 0.08,1 0.07,1 0.08,0.99 0.08,1 0.08,1 0.07,1 0.08,0.99 0.08,1 0.08,1 0.08,0.99 0.08,1 0.08,1 0.08,1 0.08,0.99 0.08,1 0.08,1 0.08,0.99 0.08,1 0.08,1 0.08,0.99 0.08,1 0.08,0.99 0.09,1 0.08,1 0.08,0.99 0.08,1 0.09,1 0.08,0.99 0.09,1 0.08,0.99 0.09,1 0.08,0.99 0.09,1 0.08,1 0.09,0.99 0.09,1 0.08,0.99 0.09,1 0.09,0.99 0.09,1 0.09,0.99 0.09,1 0.09,0.99 0.09,1 0.09,0.99 0.09,0.99 0.09,1 0.09,0.99 0.1,1 0.09,0.99 0.09,0.99 0.1,1 0.09,0.99 0.1,0.99 0.1,1 0.09,0.99 0.1,0.99 0.1,1 0.1,0.99 0.1,0.99 0.1,0.99 0.1,0.99 0.11,1 0.1,0.99 0.11,0.99 0.1,0.99 0.11,0.99 0.1,0.99 0.11,0.99 0.11,0.99 0.11,0.99 0.11,0.99 0.12,0.99 0.11,0.99 0.12,0.99 0.11,0.99 0.12,0.98 0.12,0.99 0.12,0.99 0.12,0.99 0.13,0.98 0.12,0.99 0.13,0.98 0.13,0.99 0.13,0.98 0.13,0.99 0.14,0.98 0.14,0.98 0.14,0.98 0.14,0.98 0.15,0.98 0.15,0.98 0.15,0.98 0.15,0.98 0.16,0.97 0.17,0.98 0.16,0.97 0.18,0.97 0.17,0.97 0.19,0.97 0.19,0.96 0.19,0.96 0.21,0.96 0.21,0.96 0.22,0.95 0.24,0.94 0.25,0.94 0.26,0.92 0.29,0.92 0.31,0.9 0.35,0.88 0.4,0.84 0.46,0.78 0.6,0.66 0.92,0.24 2,-2.62 0.76,-2.13 0.36,-1.22 0.29,-1.1 0.27,-1.08 0.25,-1.06 0.23,-1.06 0.22,-1.05 0.21,-1.05 0.2,-1.04 0.2,-1.04 0.18,-1.03 0.18,-1.03 0.17,-1.03 0.17,-1.03 0.17,-1.03 0.15,-1.02 0.16,-1.03 0.15,-1.02 0.15,-1.02 0.15,-1.02 0.14,-1.02 0.14,-1.02 0.14,-1.02 0.13,-1.01 0.13,-1.02 0.14,-1.01 0.12,-1.02 0.13,-1.01 0.13,-1.02 0.12,-1.01 0.12,-1.01 0.12,-1.02 0.12,-1.01 0.12,-1.01 0.11,-1.01 0.12,-1.01 0.11,-1.02 0.11,-1.01 0.11,-1.01 0.11,-1.01 0.11,-1.01 0.11,-1 0.1,-1.01 0.11,-1.01 0.1,-1.01 0.11,-1.01 0.1,-1.01 0.1,-1.01 0.1,-1 0.1,-1.01 0.1,-1.01 0.1,-1.01 0.1,-1 0.1,-1.01 0.1,-1.01 0.09,-1.01 0.1,-1 0.09,-1.01 0.1,-1 0.09,-1.01 0.09,-1.01 0.09,-1 0.1,-1.01 0.09,-1 0.09,-1.01 0.09,-1.01 0.09,-1 0.09,-1.01 0.09,-1 0.09,-1.01 0.08,-1 0.09,-1.01 0.09,-1 0.09,-1.01 0.08,-1 0.09,-1 0.08,-1.01 0.09,-1 0.08,-1.01 0.09,-1 0.08,-1.01 0.09,-1 0.08,-1 0.08,-1.01 0.09,-1 0.08,-1 0.08,-1.01 0.08,-1 0.08,-1.01 0.09,-1 0.08,-1 0.08,-1.01 0.08,-1 0.08,-1 0.08,-1.01 0.08,-1 0.08,-1 0.08,-1 0.08,-1.01 0.07,-1 0.08,-1 0.08,-1.01 0.08,-1 0.08,-1 0.07,-1 0.08,-1.01 0.08,-1 0.08,-1 0.07,-1 0.08,-1.01 0.08,-1 0.07,-1 0.08,-1 0.08,-1.01 0.07,-1 0.08,-1 0.07,-1 0.08,-1 0.07,-1.01 0.08,-1 0.07,-1 0.08,-1 0.07,-1 0.08,-1 0.07,-1.01 0.08,-1 0.07,-1 0.07,-1 0.08,-1 0.07,-1 0.08,-1.01 0.07,-1 0.07,-1 0.08,-1 0.07,-1 0.07,-1 0.07,-1 0.08,-1.01 0.07,-1 0.07,-1 0.08,-1 0.07,-1 0.07,-1 0.07,-1 0.08,-1 0.07,-1 0.07,-1.01 0.07,-1 0.07,-1 0.08,-1 0.07,-1 0.07,-1 0.07,-1 0.07,-1 0.08,-1 0.07,-1 0.07,-1 0.07,-1 0.07,-1 0.07,-1 0.08,-1.01 0.07,-1 0.07,-1 0.07,-1 0.07,-1 0.07,-1 0.07,-1 0.07,-1 0.08,-1 0.07,-1 0.07,-1 0.07,-1 0.07,-1 0.07,-1 0.07,-1 0.07,-1 0.08,-1 0.07,-1 0.07,-1 0.07,-1 0.07,-1 0.07,-1 0.07,-1 0.07,-1 0.07,-1 0.08,-1 0.07,-1 0.07,-1 0.07,-1 0.07,-1 0.07,-1 0.07,-1 0.08,-1 0.07,-0.99 0.07,-1 0.07,-1 0.07,-1 0.07,-1 0.07,-1 0.08,-1 0.07,-1 0.07,-1 0.07,-1 0.07,-1 0.08,-1 0.07,-1 0.07,-1 0.07,-0.99 0.07,-1 0.08,-1 0.07,-1 0.07,-1 0.07,-1 0.08,-1 0.07,-1 0.07,-1 0.07,-0.99 0.08,-1 0.07,-1 0.07,-1 0.08,-1 0.07,-1 0.07,-1 0.08,-0.99 0.07,-1 0.07,-1 0.08,-1 0.07,-1 0.08,-1 0.07,-0.99 0.08,-1 0.07,-1 0.07,-1 0.08,-1 0.07,-1 0.08,-0.99 0.07,-1 0.08,-1 0.08,-1 0.07,-1 0.08,-0.99 0.07,-1 0.08,-1 0.08,-1 0.07,-0.99 0.08,-1 0.08,-1 0.07,-1 0.08,-0.99 0.08,-1 0.08,-1 0.07,-1 0.08,-0.99 0.08,-1 0.08,-1 0.08,-0.99 0.08,-1 0.08,-1 0.08,-1 0.07,-0.99 0.08,-1 0.08,-1 0.09,-0.99 0.08,-1 0.08,-1 0.08,-0.99 0.08,-1 0.08,-1 0.08,-0.99 0.09,-1 0.08,-0.99 0.08,-1 0.09,-1 0.08,-0.99 0.08,-1 0.09,-0.99 0.08,-1 0.09,-1 0.08,-0.99 0.09,-1 0.09,-0.99 0.08,-1 0.09,-0.99 0.09,-1 0.09,-0.99 0.08,-1 0.09,-0.99 0.09,-1 0.09,-0.99 0.09,-1 0.09,-0.99 0.09,-0.99 0.1,-1 0.09,-0.99 0.09,-1 0.09,-0.99 0.1,-0.99 0.09,-1 0.1,-0.99 0.09,-1 0.1,-0.99 0.1,-0.99 0.1,-0.99 0.09,-1 0.1,-0.99 0.1,-0.99 0.1,-0.99 0.11,-1 0.1,-0.99 0.1,-0.99 0.11,-0.99 0.1,-0.99 0.11,-0.99 0.1,-0.99 0.11,-0.99 0.11,-0.99 0.11,-0.99 0.11,-0.99 0.11,-0.99 0.12,-0.99 0.11,-0.99 0.12,-0.99 0.12,-0.99 0.12,-0.99 0.12,-0.98 0.12,-0.99 0.12,-0.99 0.13,-0.98 0.12,-0.99 0.13,-0.98 0.13,-0.99 0.14,-0.98 0.13,-0.98 0.14,-0.99 0.14,-0.98 0.14,-0.98 0.14,-0.98 0.15,-0.98 0.15,-0.98 0.16,-0.98 0.16,-0.97 0.16,-0.98 0.16,-0.97 0.17,-0.97 0.18,-0.97 0.18,-0.97 0.19,-0.96 0.19,-0.97 0.2,-0.96 0.21,-0.95 0.22,-0.95 0.24,-0.95 0.24,-0.94 0.26,-0.93 0.28,-0.92 0.3,-0.91 0.34,-0.88 0.37,-0.86 0.44,-0.81 0.55,-0.7 0.77,-0.46 1.71,1.31 1.31,3.14 0.42,1.38 0.3,1.12 0.28,1.08 0.25,1.07 0.23,1.06 0.22,1.05 0.21,1.04 0.2,1.05 0.2,1.03 0.18,1.04 0.18,1.03 0.18,1.03 0.17,1.03 0.16,1.03 0.16,1.02 0.16,1.03 0.15,1.02 0.15,1.02 0.14,1.02 0.15,1.02 0.14,1.02 0.13,1.02 0.14,1.01 0.13,1.02 0.13,1.02 0.13,1.01 0.13,1.02 0.13,1.01 0.12,1.01 0.12,1.02 0.12,1.01 0.12,1.01 0.12,1.01 0.11,1.01 0.12,1.02 0.11,1.01 0.11,1.01 0.11,1.01 0.11,1.01 0.11,1.01 0.11,1.01 0.11,1.01 0.1,1.01 0.11,1 0.1,1.01 0.1,1.01 0.11,1.01 0.1,1.01 0.1,1 0.1,1.01 0.1,1.01 0.09,1.01 0.1,1 0.1,1.01 0.09,1.01 0.1,1 0.1,1.01 0.09,1.01 0.09,1 0.1,1.01 0.09,1.01 0.09,1 0.09,1.01 0.09,1 0.09,1.01 0.09,1 0.09,1.01 0.09,1 0.09,1.01 0.09,1 0.09,1.01 0.08,1 0.09,1.01 0.09,1 0.08,1.01 0.09,1 0.08,1.01 0.09,1 0.08,1 0.09,1.01 0.08,1 0.09,1.01 0.08,1 0.08,1 0.08,1.01 0.09,1 0.08,1 0.08,1.01 0.08,1 0.08,1.01 0.08,1 0.08,1 0.08,1.01 0.08,1 0.08,1 0.08,1 0.08,1.01 0.08,1 0.08,1 0.08,1.01 0.08,1 0.07,1 0.08,1 0.08,1.01 0.08,1 0.08,1 0.07,1 0.08,1.01 0.08,1 0.07,1 0.08,1 0.08,1.01 0.07,1 0.08,1 0.07,1 0.08,1 0.07,1.01 0.08,1 0.07,1 0.08,1 0.07,1 0.08,1.01 0.07,1 0.08,1 0.07,1 0.08,1 0.07,1 0.07,1.01 0.08,1 0.07,1 0.07,1 0.08,1 0.07,1 0.07,1.01 0.08,1 0.07,1 0.07,1 0.08,1 0.07,1 0.07,1 0.07,1 0.08,1 0.07,1.01 0.07,1 0.07,1 0.08,1 0.07,1 0.07,1 0.07,1 0.07,1 0.08,1 0.07,1 0.07,1 0.07,1.01 0.07,1 0.08,1 0.07,1 0.07,1 0.07,1 0.07,1 0.07,1 0.07,1 0.08,1 0.07,1 0.07,1 0.07,1 0.07,1 0.07,1 0.07,1 0.07,1 0.08,1 0.07,1 0.07,1 0.07,1 0.07,1 0.07,1 0.07,1 0.07,1 0.08,1 0.07,1 0.07,1 0.07,1 0.07,1 0.07,1 0.07,1 0.07,1 0.08,1 0.07,1 0.07,1 0.07,1 0.07,1 0.07,1 0.07,1 0.07,1 0.08,1 0.07,1 0.07,1 0.07,1 0.07,0.99 0.07,1 0.08,1 0.07,1 0.07,1 0.07,1 0.07,1 0.08,1 0.07,1 0.07,1 0.07,1 0.07,0.99 0.08,1 0.07,1 0.07,1 0.08,1 0.07,1 0.07,1 0.07,1 0.08,1 0.07,0.99 0.07,1 0.08,1 0.07,1 0.07,1 0.08,1 0.07,0.99 0.07,1 0.08,1 0.07,1 0.08,1 0.07,1 0.08,0.99 0.07,1 0.08,1 0.07,1 0.08,1 0.07,1 0.08,0.99 0.07,1 0.08,1 0.07,1 0.08,0.99 0.08,1 0.07,1 0.08,1 0.07,1 0.08,0.99 0.08,1 0.08,1 0.07,0.99 0.08,1 0.08,1 0.08,1 0.08,0.99 0.07,1 0.08,1 0.08,1 0.08,0.99 0.08,1 0.08,1 0.08,0.99 0.08,1 0.08,1 0.08,0.99 0.08,1 0.08,1 0.09,0.99 0.08,1 0.08,1 0.08,0.99 0.08,1 0.09,0.99 0.08,1 0.08,1 0.09,0.99 0.08,1 0.09,0.99 0.08,1 0.09,0.99 0.08,1 0.09,1 0.09,0.99 0.08,1 0.09,0.99 0.09,1 0.09,0.99 0.09,1 0.09,0.99 0.09,1 0.09,0.99 0.09,0.99 0.09,1 0.09,0.99 0.09,1 0.1,0.99 0.09,1 0.09,0.99 0.1,0.99 0.09,1 0.1,0.99 0.09,0.99 0.1,1 0.1,0.99 0.1,0.99 0.1,0.99 0.1,1 0.1,0.99 0.1,0.99 0.1,0.99 0.1,0.99 0.11,1 0.1,0.99 0.11,0.99 0.11,0.99 0.1,0.99 0.11,0.99 0.11,0.99 0.11,0.99 0.12,0.99 0.11,0.99 0.11,0.99 0.12,0.98 0.12,0.99 0.12,0.99 0.12,0.99 0.12,0.99 0.12,0.98 0.13,0.99 0.12,0.98 0.13,0.99 0.13,0.98 0.13,0.99 0.14,0.98 0.14,0.98 0.13,0.98 0.15,0.99 0.14,0.98 0.15,0.98 0.15,0.97 0.15,0.98 0.16,0.98 0.16,0.97 0.17,0.98 0.17,0.97 0.17,0.97 0.18,0.97 0.19,0.96 0.19,0.96 0.2,0.96 0.21,0.96 0.22,0.95 0.23,0.95 0.24,0.94 0.26,0.93 0.28,0.92 0.3,0.91 0.33,0.89 0.37,0.86 0.43,0.82 0.53,0.72 0.73,0.51 1.44,-0.71 2,-4.69 0.43,-1.55 0.27,-1.1 0.25,-1.07 0.24,-1.06 0.22,-1.05 0.21,-1.04 0.2,-1.05 0.19,-1.03 0.19,-1.04 0.18,-1.03 0.17,-1.03 0.17,-1.03 0.16,-1.03 0.16,-1.02 0.16,-1.03 0.15,-1.02 0.15,-1.02 0.15,-1.02 0.14,-1.02 0.14,-1.02 0.14,-1.02 0.13,-1.01 0.14,-1.02 0.13,-1.01 0.12,-1.02 0.13,-1.01 0.13,-1.02 0.12,-1.01 0.12,-1.01 0.12,-1.02 0.12,-1.01 0.12,-1.01 0.11,-1.01 0.12,-1.01 0.11,-1.02 0.11,-1.01 0.11,-1.01 0.11,-1.01 0.11,-1.01 0.11,-1.01 0.11,-1 0.1,-1.01 0.11,-1.01 0.1,-1.01 0.1,-1.01 0.11,-1.01 0.1,-1.01 0.1,-1 0.1,-1.01 0.1,-1.01 0.09,-1 0.1,-1.01 0.1,-1.01 0.09,-1.01 0.1,-1 0.1,-1.01 0.09,-1 0.09,-1.01 0.1,-1.01 0.09,-1 0.09,-1.01 0.09,-1 0.09,-1.01 0.09,-1.01 0.09,-1 0.09,-1.01 0.09,-1 0.09,-1.01 0.09,-1 0.09,-1.01 0.08,-1 0.09,-1.01 0.09,-1 0.08,-1 0.09,-1.01 0.08,-1 0.09,-1.01 0.08,-1 0.09,-1.01 0.08,-1 0.08,-1 0.09,-1.01 0.08,-1 0.08,-1.01 0.09,-1 0.08,-1 0.08,-1.01 0.08,-1 0.08,-1 0.08,-1.01 0.08,-1 0.08,-1 0.08,-1.01 0.08,-1 0.08,-1 0.08,-1.01 0.08,-1 0.08,-1 0.08,-1 0.08,-1.01 0.07,-1 0.08,-1 0.08,-1 0.08,-1.01 0.07,-1 0.08,-1 0.08,-1 0.08,-1.01 0.07,-1 0.08,-1 0.07,-1 0.08,-1.01 0.08,-1 0.07,-1 0.08,-1 0.07,-1 0.08,-1.01 0.07,-1 0.08,-1 0.07,-1 0.08,-1 0.07,-1.01 0.08,-1 0.07,-1 0.08,-1 0.07,-1 0.07,-1 0.08,-1.01 0.07,-1 0.07,-1 0.08,-1 0.07,-1 0.07,-1 0.08,-1 0.07,-1.01 0.07,-1 0.08,-1 0.07,-1 0.07,-1 0.07,-1 0.08,-1 0.07,-1 0.07,-1 0.07,-1.01 0.08,-1 0.07,-1 0.07,-1 0.07,-1 0.07,-1 0.08,-1 0.07,-1 0.07,-1 0.07,-1 0.07,-1 0.07,-1 0.08,-1 0.07,-1.01 0.07,-1 0.07,-1 0.07,-1 0.07,-1 0.07,-1 0.08,-1 0.07,-1 0.07,-1 0.07,-1 0.07,-1 0.07,-1 0.07,-1 0.08,-1 0.07,-1 0.07,-1 0.07,-1 0.07,-1 0.07,-1 0.07,-1 0.07,-1 0.07,-1 0.08,-1 0.07,-1 0.07,-1 0.07,-1 0.07,-1 0.07,-1 0.07,-1 0.07,-1 0.08,-1 0.07,-1 0.07,-1 0.07,-1 0.07,-1 0.07,-1 0.07,-1 0.08,-0.99 0.07,-1 0.07,-1 0.07,-1 0.07,-1 0.07,-1 0.08,-1 0.07,-1 0.07,-1 0.07,-1 0.07,-1 0.07,-1 0.08,-1 0.07,-0.99 0.07,-1 0.07,-1 0.08,-1 0.07,-1 0.07,-1 0.07,-1 0.08,-1 0.07,-1 0.07,-0.99 0.08,-1 0.07,-1 0.07,-1 0.08,-1 0.07,-1 0.07,-1 0.08,-0.99 0.07,-1 0.07,-1 0.08,-1 0.07,-1 0.08,-1 0.07,-0.99 0.08,-1 0.07,-1 0.07,-1 0.08,-1 0.07,-0.99 0.08,-1 0.08,-1 0.07,-1 0.08,-1 0.07,-0.99 0.08,-1 0.07,-1 0.08,-1 0.08,-1 0.07,-0.99 0.08,-1 0.08,-1 0.08,-1 0.07,-0.99 0.08,-1 0.08,-1 0.08,-0.99 0.07,-1 0.08,-1 0.08,-1 0.08,-0.99 0.08,-1 0.08,-1 0.08,-0.99 0.08,-1 0.08,-1 0.08,-0.99 0.08,-1 0.08,-1 0.08,-0.99 0.08,-1 0.09,-1 0.08,-0.99 0.08,-1 0.08,-1 0.09,-0.99 0.08,-1 0.08,-0.99 0.09,-1 0.08,-1 0.09,-0.99 0.08,-1 0.09,-0.99 0.08,-1 0.09,-0.99 0.09,-1 0.08,-0.99 0.09,-1 0.09,-0.99 0.09,-1 0.09,-0.99 0.09,-1 0.09,-0.99 0.09,-1 0.09,-0.99 0.09,-1 0.09,-0.99 0.09,-0.99 0.1,-1 0.09,-0.99 0.09,-1 0.1,-0.99 0.09,-0.99 0.1,-1 0.09,-0.99 0.1,-0.99 0.1,-1 0.1,-0.99 0.1,-0.99 0.1,-0.99 0.1,-1 0.1,-0.99 0.1,-0.99 0.11,-0.99 0.1,-0.99 0.1,-0.99 0.11,-0.99 0.11,-1 0.1,-0.99 0.11,-0.99 0.11,-0.99 0.11,-0.99 0.12,-0.99 0.11,-0.98 0.11,-0.99 0.12,-0.99 0.12,-0.99 0.12,-0.99 0.12,-0.99 0.12,-0.98 0.12,-0.99 0.13,-0.98 0.12,-0.99 0.13,-0.99 0.13,-0.98 0.14,-0.98 0.13,-0.99 0.14,-0.98 0.14,-0.98 0.14,-0.98 0.14,-0.98 0.15,-0.98 0.15,-0.98 0.16,-0.98 0.15,-0.97 0.17,-0.98 0.16,-0.97 0.17,-0.97 0.18,-0.97 0.18,-0.97 0.18,-0.97 0.2,-0.96 0.2,-0.96 0.21,-0.96 0.22,-0.95 0.23,-0.94 0.24,-0.94 0.26,-0.94 0.28,-0.92 0.3,-0.91 0.33,-0.88 0.37,-0.86 0.44,-0.81 0.53,-0.72 0.75,-0.49 1.53,0.89 1.71,4.01 0.43,1.49 0.29,1.1 0.26,1.08 0.24,1.06 0.23,1.06 0.21,1.04 0.21,1.05 0.2,1.04 0.19,1.04 0.18,1.03 0.18,1.03 0.17,1.03 0.16,1.03 0.17,1.02 0.15,1.03 0.16,1.02 0.15,1.02 0.15,1.02 0.14,1.02 0.14,1.02 0.14,1.02 0.14,1.02 0.13,1.01 0.13,1.02 0.13,1.02 0.13,1.01 0.13,1.02 0.12,1.01 0.12,1.01 0.12,1.02 0.12,1.01 0.12,1.01 0.12,1.01 0.11,1.01 0.12,1.01 0.11,1.01 0.11,1.01 0.11,1.02 0.11,1 0.11,1.01 0.11,1.01 0.1,1.01 0.11,1.01 0.1,1.01 0.11,1.01 0.1,1.01 0.1,1.01 0.1,1 0.1,1.01 0.1,1.01 0.1,1.01 0.1,1 0.09,1.01 0.1,1.01 0.1,1 0.09,1.01 0.1,1.01 0.09,1 0.09,1.01 0.1,1 0.09,1.01 0.09,1.01 0.09,1 0.09,1.01 0.09,1 0.09,1.01 0.09,1 0.09,1.01 0.09,1 0.09,1.01 0.08,1 0.09,1.01 0.09,1 0.08,1.01 0.09,1 0.08,1.01 0.09,1 0.08,1 0.09,1.01 0.08,1 0.09,1.01 0.08,1 0.08,1 0.09,1.01 0.08,1 0.08,1.01 0.08,1 0.08,1 0.08,1.01 0.09,1 0.08,1 0.08,1.01 0.08,1 0.08,1 0.08,1.01 0.08,1 0.07,1 0.08,1 0.08,1.01 0.08,1 0.08,1 0.08,1.01 0.07,1 0.08,1 0.08,1 0.08,1.01 0.07,1 0.08,1 0.08,1 0.07,1 0.08,1.01 0.08,1 0.07,1 0.08,1 0.07,1.01 0.08,1 0.07,1 0.08,1 0.07,1 0.08,1.01 0.07,1 0.08,1 0.07,1 0.08,1 0.07,1 0.08,1.01 0.07,1 0.07,1 0.08,1 0.07,1 0.07,1 0.08,1.01 0.07,1 0.07,1 0.08,1 0.07,1 0.07,1 0.08,1 0.07,1 0.07,1.01 0.07,1 0.08,1 0.07,1 0.07,1 0.07,1 0.08,1 0.07,1 0.07,1 0.07,1 0.07,1 0.08,1.01 0.07,1 0.07,1 0.07,1 0.07,1 0.07,1 0.08,1 0.07,1 0.07,1 0.07,1 0.07,1 0.07,1 0.07,1 0.08,1 0.07,1 0.07,1 0.07,1 0.07,1 0.07,1 0.07,1 0.07,1 0.08,1 0.07,1 0.07,1 0.07,1 0.07,1 0.07,1 0.07,1 0.07,1 0.07,1 0.08,1 0.07,1 0.07,1 0.07,1 0.07,1 0.07,1 0.07,1 0.07,1 0.08,1 0.07,1 0.07,1 0.07,1 0.07,1 0.07,1 0.07,1 0.08,1 0.07,1 0.07,1 0.07,1 0.07,1 0.07,0.99 0.08,1 0.07,1 0.07,1 0.07,1 0.07,1 0.08,1 0.07,1 0.07,1 0.07,1 0.08,1 0.07,0.99 0.07,1 0.07,1 0.08,1 0.07,1 0.07,1 0.08,1 0.07,1 0.07,0.99 0.08,1 0.07,1 0.07,1 0.08,1 0.07,1 0.07,0.99 0.08,1 0.07,1 0.08,1 0.07,1 0.08,1 0.07,0.99 0.08,1 0.07,1 0.08,1 0.07,1 0.08,0.99 0.07,1 0.08,1 0.07,1 0.08,1 0.08,0.99 0.07,1 0.08,1 0.08,1 0.07,0.99 0.08,1 0.08,1 0.08,1 0.07,0.99 0.08,1 0.08,1 0.08,0.99 0.08,1 0.08,1 0.07,1 0.08,0.99 0.08,1 0.08,1 0.08,0.99 0.08,1 0.08,1 0.09,0.99 0.08,1 0.08,1 0.08,0.99 0.08,1 0.08,1 0.09,0.99 0.08,1 0.08,0.99 0.09,1 0.08,1 0.08,0.99 0.09,1 0.08,0.99 0.09,1 0.08,0.99 0.09,1 0.09,1 0.08,0.99 0.09,1 0.09,0.99 0.09,1 0.09,0.99 0.08,1 0.09,0.99 0.09,0.99 0.09,1 0.1,0.99 0.09,1 0.09,0.99 0.09,1 0.1,0.99 0.09,0.99 0.09,1 0.1,0.99 0.09,0.99 0.1,1 0.1,0.99 0.09,0.99 0.1,1 0.1,0.99 0.1,0.99 0.1,0.99 0.1,1 0.1,0.99 0.11,0.99 0.1,0.99 0.1,0.99 0.11,0.99 0.11,0.99 0.1,1 0.11,0.99 0.11,0.99 0.11,0.99 0.11,0.99 0.12,0.98 0.11,0.99 0.12,0.99 0.11,0.99 0.12,0.99 0.12,0.99 0.12,0.98 0.12,0.99 0.13,0.99 0.12,0.98 0.13,0.99 0.13,0.98 0.13,0.99 0.13,0.98 0.14,0.98 0.14,0.99 0.14,0.98 0.14,0.98 0.15,0.98 0.15,0.98 0.15,0.97 0.16,0.98 0.16,0.98 0.16,0.97 0.17,0.97 0.17,0.97 0.18,0.97 0.18,0.97 0.19,0.96 0.2,0.97 0.2,0.95 0.22,0.96 0.22,0.95 0.24,0.94 0.25,0.94 0.26,0.92 0.29,0.92 0.32,0.9 0.35,0.88 0.4,0.84 0.47,0.77 0.61,0.64 0.96,0.19 2,-2.81 0.71,-2.04 0.35,-1.19 0.29,-1.1 0.27,-1.08 0.24,-1.06 0.24,-1.06 0.21,-1.05 0.21,-1.05 0.2,-1.04 0.19,-1.04 0.19,-1.03 0.18,-1.03 0.17,-1.03 0.17,-1.03 0.16,-1.03 0.16,-1.02 0.16,-1.03 0.15,-1.02 0.15,-1.02 0.14,-1.02 0.14,-1.02 0.14,-1.02 0.14,-1.01 0.14,-1.02 0.13,-1.02 0.13,-1.01 0.13,-1.02 0.12,-1.01 0.13,-1.02 0.12,-1.01 0.12,-1.01 0.12,-1.02 0.12,-1.01 0.12,-1.01 0.11,-1.01 0.12,-1.01 0.11,-1.01 0.11,-1.01 0.11,-1.01 0.11,-1.01 0.11,-1.01 0.11,-1.01 0.11,-1.01 0.1,-1.01 0.11,-1.01 0.1,-1.01 0.1,-1.01 0.1,-1 0.11,-1.01 0.1,-1.01 0.09,-1.01 0.1,-1 0.1,-1.01 0.1,-1.01 0.1,-1.01 0.09,-1 0.1,-1.01 0.09,-1.01 0.1,-1 0.09,-1.01 0.09,-1 0.1,-1.01 0.09,-1.01 0.09,-1 0.09,-1.01 0.09,-1 0.09,-1.01 0.09,-1 0.09,-1.01 0.09,-1 0.08,-1.01 0.09,-1 0.09,-1.01 0.09,-1 0.08,-1.01 0.09,-1 0.08,-1.01 0.09,-1 0.08,-1 0.09,-1.01 0.08,-1 0.09,-1.01 0.08,-1 0.08,-1 0.09,-1.01 0.08,-1 0.08,-1.01 0.08,-1 0.08,-1 0.08,-1.01 0.09,-1 0.08,-1 0.08,-1.01 0.08,-1 0.08,-1 0.08,-1.01 0.08,-1 0.08,-1 0.07,-1 0.08,-1.01 0.08,-1 0.08,-1 0.08,-1.01 0.08,-1 0.07,-1 0.08,-1 0.08,-1.01 0.08,-1 0.07,-1 0.08,-1 0.08,-1.01 0.07,-1 0.08,-1 0.07,-1 0.08,-1 0.08,-1.01 0.07,-1 0.08,-1 0.07,-1 0.08,-1 0.07,-1.01 0.08,-1 0.07,-1 0.08,-1 0.07,-1 0.07,-1.01 0.08,-1 0.07,-1 0.08,-1 0.07,-1 0.07,-1 0.08,-1 0.07,-1.01 0.07,-1 0.08,-1 0.07,-1 0.07,-1 0.08,-1 0.07,-1 0.07,-1 0.07,-1.01 0.08,-1 0.07,-1 0.07,-1 0.07,-1 0.08,-1 0.07,-1 0.07,-1 0.07,-1 0.08,-1 0.07,-1.01 0.07,-1 0.07,-1 0.07,-1 0.07,-1 0.08,-1 0.07,-1 0.07,-1 0.07,-1 0.07,-1 0.07,-1 0.08,-1 0.07,-1 0.07,-1 0.07,-1 0.07,-1 0.07,-1 0.07,-1 0.07,-1 0.08,-1.01 0.07,-1 0.07,-1 0.07,-1 0.07,-1 0.07,-1 0.07,-1 0.07,-1 0.08,-1 0.07,-1 0.07,-1 0.07,-1 0.07,-1 0.07,-1 0.07,-1 0.07,-0.99 0.07,-1 0.08,-1 0.07,-1 0.07,-1 0.07,-1 0.07,-1 0.07,-1 0.07,-1 0.08,-1 0.07,-1 0.07,-1 0.07,-1 0.07,-1 0.07,-1 0.07,-1 0.08,-1 0.07,-1 0.07,-1 0.07,-0.99 0.07,-1 0.08,-1 0.07,-1 0.07,-1 0.07,-1 0.07,-1 0.08,-1 0.07,-1 0.07,-1 0.07,-0.99 0.08,-1 0.07,-1 0.07,-1 0.08,-1 0.07,-1 0.07,-1 0.08,-1 0.07,-0.99 0.07,-1 0.08,-1 0.07,-1 0.07,-1 0.08,-1 0.07,-0.99 0.08,-1 0.07,-1 0.07,-1 0.08,-1 0.07,-1 0.08,-0.99 0.07,-1 0.08,-1 0.07,-1 0.08,-1 0.07,-0.99 0.08,-1 0.08,-1 0.07,-1 0.08,-0.99 0.07,-1 0.08,-1 0.08,-1 0.08,-1 0.07,-0.99 0.08,-1 0.08,-1 0.07,-1 0.08,-0.99 0.08,-1 0.08,-1 0.08,-0.99 0.08,-1 0.08,-1 0.07,-1 0.08,-0.99 0.08,-1 0.08,-1 0.08,-0.99 0.08,-1 0.09,-1 0.08,-0.99 0.08,-1 0.08,-1 0.08,-0.99 0.08,-1 0.09,-0.99 0.08,-1 0.08,-1 0.09,-0.99 0.08,-1 0.08,-0.99 0.09,-1 0.08,-1 0.09,-0.99 0.08,-1 0.09,-0.99 0.09,-1 0.08,-0.99 0.09,-1 0.09,-0.99 0.09,-1 0.08,-0.99 0.09,-1 0.09,-0.99 0.09,-1 0.09,-0.99 0.09,-1 0.09,-0.99 0.1,-1 0.09,-0.99 0.09,-0.99 0.1,-1 0.09,-0.99 0.09,-0.99 0.1,-1 0.1,-0.99 0.09,-0.99 0.1,-1 0.1,-0.99 0.1,-0.99 0.09,-1 0.11,-0.99 0.1,-0.99 0.1,-0.99 0.1,-0.99 0.1,-1 0.11,-0.99 0.1,-0.99 0.11,-0.99 0.11,-0.99 0.1,-0.99 0.11,-0.99 0.11,-0.99 0.11,-0.99 0.12,-0.99 0.11,-0.99 0.12,-0.99 0.11,-0.99 0.12,-0.98 0.12,-0.99 0.12,-0.99 0.12,-0.99 0.12,-0.98 0.13,-0.99 0.13,-0.98 0.13,-0.99 0.13,-0.98 0.13,-0.99 0.13,-0.98 0.14,-0.98 0.14,-0.98 0.14,-0.99 0.15,-0.98 0.15,-0.97 0.15,-0.98 0.15,-0.98 0.16,-0.98 0.16,-0.97 0.17,-0.97 0.17,-0.97 0.18,-0.97 0.18,-0.97 0.19,-0.97 0.19,-0.96 0.2,-0.96 0.22,-0.95 0.22,-0.95 0.23,-0.95 0.24,-0.94 0.27,-0.93 0.28,-0.92 0.3,-0.9 0.34,-0.89 0.38,-0.85 0.45,-0.8 0.56,-0.7 0.8,-0.41 1.97,1.97 1,2.6 0.39,1.29 0.3,1.11 0.27,1.08 0.25,1.06 0.23,1.06 0.23,1.06 0.21,1.04 0.2,1.04 0.19,1.04 0.19,1.04 0.18,1.03 0.17,1.03 0.17,1.03 0.16,1.03 0.16,1.02 0.16,1.02 0.15,1.03 0.15,1.02 0.15,1.02 0.14,1.02 0.14,1.02 0.14,1.01 0.13,1.02 0.14,1.02 0.13,1.01 0.13,1.02 0.12,1.01 0.13,1.02 0.12,1.01 0.12,1.01 0.12,1.02 0.12,1.01 0.12,1.01 0.12,1.01 0.11,1.01 0.11,1.01 0.12,1.01 0.11,1.01 0.11,1.01 0.11,1.01 0.1,1.01 0.11,1.01 0.11,1.01 0.1,1.01 0.1,1.01 0.11,1.01 0.1,1.01 0.1,1 0.1,1.01 0.1,1.01 0.1,1.01 0.1,1 0.09,1.01 0.1,1.01 0.1,1 0.09,1.01 0.1,1.01 0.09,1 0.1,1.01 0.09,1.01 0.09,1 0.09,1.01 0.1,1 0.09,1.01 0.09,1 0.09,1.01 0.09,1.01 0.09,1 0.08,1.01 0.09,1 0.09,1.01 0.09,1 0.08,1 0.09,1.01 0.09,1 0.08,1.01 0.09,1 0.08,1.01 0.09,1 0.08,1.01 0.08,1 0.09,1 0.08,1.01 0.08,1 0.09,1 0.08,1.01 0.08,1 0.08,1.01 0.08,1 0.08,1 0.09,1.01 0.08,1 0.08,1 0.08,1.01 0.08,1 0.08,1 0.08,1 0.07,1.01 0.08,1 0.08,1 0.08,1.01 0.08,1 0.08,1 0.07,1 0.08,1.01 0.08,1 0.08,1 0.07,1 0.08,1.01 0.08,1 0.07,1 0.08,1 0.07,1.01 0.08,1 0.08,1 0.07,1 0.08,1 0.07,1.01 0.08,1 0.07,1 0.08,1 0.07,1 0.08,1 0.07,1.01 0.07,1 0.08,1 0.07,1 0.08,1 0.07,1 0.07,1.01 0.08,1 0.07,1 0.07,1 0.08,1 0.07,1 0.07,1 0.08,1.01 0.07,1 0.07,1 0.08,1 0.07,1 0.07,1 0.07,1 0.08,1 0.07,1 0.07,1.01 0.07,1 0.07,1 0.08,1 0.07,1 0.07,1 0.07,1 0.07,1 0.08,1 0.07,1 0.07,1 0.07,1 0.07,1 0.07,1.01 0.07,1 0.08,1 0.07,1 0.07,1 0.07,1 0.07,1 0.07,1 0.07,1 0.08,1 0.07,1 0.07,1 0.07,1 0.07,1 0.07,1 0.07,1 0.07,1 0.07,1 0.08,1 0.07,1 0.07,1 0.07,1 0.07,1 0.07,1 0.07,1 0.07,1 0.08,1 0.07,1 0.07,1 0.07,1 0.07,1 0.07,1 0.07,1 0.07,1 0.08,1 0.07,0.99 0.07,1 0.07,1 0.07,1 0.07,1 0.08,1 0.07,1 0.07,1 0.07,1 0.07,1 0.07,1 0.08,1 0.07,1 0.07,0.99 0.07,1 0.08,1 0.07,1 0.07,1 0.07,1 0.08,1 0.07,1 0.07,1 0.07,0.99 0.08,1 0.07,1 0.07,1 0.08,1 0.07,1 0.07,1 0.08,0.99 0.07,1 0.07,1 0.08,1 0.07,1 0.08,1 0.07,1 0.07,0.99 0.08,1 0.07,1 0.08,1 0.07,1 0.08,0.99 0.07,1 0.08,1 0.07,1 0.08,1 0.08,0.99 0.07,1 0.08,1 0.07,1 0.08,0.99 0.08,1 0.07,1 0.08,1 0.08,0.99 0.08,1 0.07,1 0.08,1 0.08,0.99 0.08,1 0.08,1 0.08,1 0.07,0.99 0.08,1 0.08,1 0.08,0.99 0.08,1 0.08,1 0.08,0.99 0.08,1 0.09,1 0.08,0.99 0.08,1 0.08,1 0.08,0.99 0.08,1 0.09,0.99 0.08,1 0.08,1 0.09,0.99 0.08,1 0.09,0.99 0.08,1 0.09,1 0.08,0.99 0.09,1 0.08,0.99 0.09,1 0.09,0.99 0.09,1 0.08,0.99 0.09,1 0.09,0.99 0.09,1 0.09,0.99 0.09,1 0.09,0.99 0.09,1 0.09,0.99 0.1,0.99 0.09,1 0.09,0.99 0.1,1 0.09,0.99 0.1,0.99 0.09,1 0.1,0.99 0.09,0.99 0.1,1 0.1,0.99 0.1,0.99 0.1,0.99 0.1,1 0.1,0.99 0.1,0.99 0.11,0.99 0.1,0.99 0.11,0.99 0.1,0.99 0.11,1 0.11,0.99 0.11,0.99 0.11,0.99 0.11,0.99 0.11,0.98 0.11,0.99 0.12,0.99 0.11,0.99 0.12,0.99 0.12,0.99 0.12,0.98 0.12,0.99 0.12,0.99 0.13,0.98 0.13,0.99 0.12,0.99 0.13,0.98 0.14,0.98 0.13,0.99 0.14,0.98 0.14,0.98 0.14,0.98 0.14,0.98 0.15,0.98 0.15,0.98 0.16,0.98 0.15,0.97 0.17,0.98 0.16,0.97 0.17,0.97 0.18,0.97 0.18,0.97 0.18,0.97 0.2,0.96 0.2,0.96 0.21,0.96 0.22,0.95 0.22,0.95 0.25,0.94 0.26,0.93 0.27,0.92 0.3,0.91 0.33,0.89 0.37,0.86 0.43,0.81 0.53,0.73 0.74,0.5 1.45,-0.73 2,-4.72 0.42,-1.54 0.27,-1.1 0.25,-1.07 0.24,-1.05 0.22,-1.06 0.21,-1.04 0.2,-1.04 0.19,-1.04 0.19,-1.04 0.18,-1.03 0.17,-1.03 0.17,-1.03 0.16,-1.02 0.16,-1.03 0.16,-1.02 0.15,-1.03 0.15,-1.02 0.14,-1.02 0.15,-1.02 0.14,-1.01 0.13,-1.02 0.14,-1.02 0.13,-1.02 0.13,-1.01 0.13,-1.02 0.13,-1.01 0.12,-1.02 0.13,-1.01 0.12,-1.01 0.12,-1.01 0.12,-1.02 0.11,-1.01 0.12,-1.01 0.11,-1.01 0.12,-1.01 0.11,-1.01 0.11,-1.01 0.11,-1.01 0.11,-1.01 0.11,-1.01 0.1,-1.01 0.11,-1.01 0.1,-1.01 0.11,-1.01 0.1,-1.01 0.1,-1 0.1,-1.01 0.1,-1.01 0.1,-1.01 0.1,-1 0.1,-1.01 0.1,-1.01 0.09,-1.01 0.1,-1 0.1,-1.01 0.09,-1.01 0.1,-1 0.09,-1.01 0.09,-1 0.09,-1.01 0.1,-1.01 0.09,-1 0.09,-1.01 0.09,-1 0.09,-1.01 0.09,-1 0.09,-1.01 0.09,-1 0.08,-1.01 0.09,-1 0.09,-1.01 0.09,-1 0.08,-1.01 0.09,-1 0.08,-1.01 0.09,-1 0.08,-1 0.09,-1.01 0.08,-1 0.09,-1.01 0.08,-1 0.08,-1 0.09,-1.01 0.08,-1 0.08,-1.01 0.08,-1 0.08,-1 0.09,-1.01 0.08,-1 0.08,-1 0.08,-1.01 0.08,-1 0.08,-1 0.08,-1.01 0.08,-1 0.08,-1 0.08,-1 0.07,-1.01 0.08,-1 0.08,-1 0.08,-1.01 0.08,-1 0.08,-1 0.07,-1 0.08,-1.01 0.08,-1 0.07,-1 0.08,-1 0.08,-1.01 0.07,-1 0.08,-1 0.08,-1 0.07,-1 0.08,-1.01 0.07,-1 0.08,-1 0.07,-1 0.08,-1 0.07,-1.01 0.08,-1 0.07,-1 0.08,-1 0.07,-1 0.08,-1.01 0.07,-1 0.07,-1 0.08,-1 0.07,-1 0.08,-1 0.07,-1.01 0.07,-1 0.08,-1 0.07,-1 0.07,-1 0.08,-1 0.07,-1 0.07,-1 0.07,-1.01 0.08,-1 0.07,-1 0.07,-1 0.07,-1 0.08,-1 0.07,-1 0.07,-1 0.07,-1 0.08,-1 0.07,-1.01 0.07,-1 0.07,-1 0.07,-1 0.07,-1 0.08,-1 0.07,-1 0.07,-1 0.07,-1 0.07,-1 0.07,-1 0.08,-1 0.07,-1 0.07,-1 0.07,-1 0.07,-1 0.07,-1 0.07,-1.01 0.08,-1 0.07,-1 0.07,-1 0.07,-1 0.07,-1 0.07,-1 0.07,-1"
       style="fill:none;stroke:#e20000;stroke-width:2.50136717;stroke-miterlimit:4;stroke-dasharray:none;stroke-opacity:1"
       id="path7"
       inkscape:connector-curvature="0" />
  </g>
</svg>
