<?xml version="1.0" encoding="UTF-8" standalone="no"?>
<svg
   xmlns:dc="http://purl.org/dc/elements/1.1/"
   xmlns:cc="http://creativecommons.org/ns#"
   xmlns:rdf="http://www.w3.org/1999/02/22-rdf-syntax-ns#"
   xmlns:svg="http://www.w3.org/2000/svg"
   xmlns="http://www.w3.org/2000/svg"
   xmlns:sodipodi="http://sodipodi.sourceforge.net/DTD/sodipodi-0.dtd"
   xmlns:inkscape="http://www.inkscape.org/namespaces/inkscape"
   viewBox="0 0 1882.9679 551.05634"
   version="1.1"
   id="svg11"
   sodipodi:docname="waveb_1.svg"
   width="1882.9679"
   height="551.05634"
   inkscape:version="0.92.0 r15299">
  <metadata
     id="metadata17">
    <rdf:RDF>
      <cc:Work
         rdf:about="">
        <dc:format>image/svg+xml</dc:format>
        <dc:type
           rdf:resource="http://purl.org/dc/dcmitype/StillImage" />
      </cc:Work>
    </rdf:RDF>
  </metadata>
  <defs
     id="defs15" />
  <sodipodi:namedview
     pagecolor="#ffffff"
     bordercolor="#666666"
     borderopacity="1"
     objecttolerance="10"
     gridtolerance="10"
     guidetolerance="10"
     inkscape:pageopacity="0"
     inkscape:pageshadow="2"
     inkscape:window-width="1920"
     inkscape:window-height="1017"
     id="namedview13"
     showgrid="false"
     inkscape:zoom="0.43692308"
     inkscape:cx="306.03126"
     inkscape:cy="351.05632"
     inkscape:window-x="-8"
     inkscape:window-y="-8"
     inkscape:window-maximized="1"
     inkscape:current-layer="svg11" />
  <clipPath
     id="box">
    <rect
       x="0"
       y="0"
       width="650"
       height="400"
       style="fill:none;stroke:none"
       id="rect2" />
  </clipPath>
  <g
     clip-path="url(#box)"
     id="g9"
     transform="scale(2.8968737,1.3776408)"
     style="fill:none;stroke:#e20000;stroke-opacity:1;stroke-width:2.50286385;stroke-miterlimit:4;stroke-dasharray:none"
     inkscape:export-filename="C:\Users\Keith Grant\Desktop\punch_at_the_peak\SuperPunchAtThePeak2\Assets\PNG\wave_1.png"
     inkscape:export-xdpi="26.078501"
     inkscape:export-ydpi="26.078501">
    <rect
       x="0"
       y="0"
       width="650"
       height="400"
       style="fill:none;stroke:#e20000;stroke-opacity:1;stroke-width:2.50286385;stroke-miterlimit:4;stroke-dasharray:none"
       id="rect5" />
    <path
       d="m -10,200 9.75,-0.45 1,5.27 0.19,1 0.19,1 0.19,1 0.19,1 0.19,1 0.19,1 0.19,1 0.19,1 0.19,1 0.19,1 0.19,1 0.19,1 0.19,1 0.19,1 0.19,1 0.19,1 0.19,1 0.2,0.99 0.19,1 0.19,1 0.19,1 0.19,1 0.19,1 0.2,1 0.19,1 0.19,1 0.19,1 0.19,1 0.2,0.99 0.19,1 0.19,1 0.2,1 0.19,1 0.19,1 0.2,1 0.19,1 0.2,1 0.19,0.99 0.2,1 0.19,1 0.2,1 0.19,1 0.2,1 0.2,1 0.19,0.99 0.2,1 0.2,1 0.2,1 0.19,1 0.2,1 0.2,0.99 0.2,1 0.2,1 0.2,1 0.2,1 0.2,0.99 0.2,1 0.2,1 0.21,1 0.2,1 0.2,0.99 0.2,1 0.21,1 0.2,1 0.21,0.99 0.2,1 0.21,1 0.2,1 0.21,0.99 0.21,1 0.21,1 0.21,1 0.2,0.99 0.21,1 0.21,1 0.21,0.99 0.22,1 0.21,1 0.21,0.99 0.21,1 0.22,1 0.21,0.99 0.22,1 0.22,1 0.21,0.99 0.22,1 0.22,1 0.22,0.99 0.22,1 0.22,1 0.22,0.99 0.22,1 0.23,0.99 0.22,1 0.23,1 0.22,0.99 0.23,1 0.23,0.99 0.23,1 0.23,0.99 0.23,1 0.23,0.99 0.24,1 0.23,0.99 0.24,1 0.23,0.99 0.24,1 0.24,0.99 0.24,1 0.25,0.99 0.24,1 0.24,0.99 0.25,0.99 0.25,1 0.25,0.99 0.25,1 0.25,0.99 0.26,0.99 0.25,1 0.26,0.99 0.26,0.99 0.26,1 0.26,0.99 0.27,0.99 0.27,0.99 0.27,1 0.27,0.99 0.27,0.99 0.28,0.99 0.27,0.99 0.29,0.99 0.28,0.99 0.28,0.99 0.29,0.99 0.29,1 0.3,0.99 0.29,0.98 0.31,0.99 0.3,0.99 0.31,0.99 0.31,0.99 0.31,0.99 0.32,0.99 0.32,0.98 0.32,0.99 0.33,0.99 0.34,0.98 0.34,0.99 0.34,0.98 0.35,0.99 0.36,0.98 0.36,0.98 0.37,0.99 0.37,0.98 0.38,0.98 0.39,0.98 0.4,0.98 0.4,0.98 0.41,0.97 0.43,0.98 0.43,0.97 0.45,0.98 0.45,0.97 0.48,0.97 0.48,0.96 0.5,0.97 0.53,0.96 0.54,0.96 0.56,0.95 0.59,0.95 0.63,0.95 0.66,0.94 0.7,0.93 0.76,0.91 0.82,0.91 0.91,0.88 1.04,0.85 1.22,0.79 1.54,0.68 2,0.34 2,-0.27 2,-0.88 2,-1.49 1.34,-1.34 1,-1.18 0.86,-1.11 0.76,-1.1 0.7,-1.07 0.65,-1.06 0.62,-1.06 0.57,-1.05 0.56,-1.05 0.53,-1.04 0.5,-1.03 0.49,-1.04 0.48,-1.03 0.45,-1.03 0.45,-1.03 0.43,-1.02 0.43,-1.03 0.41,-1.02 0.4,-1.02 0.4,-1.02 0.38,-1.02 0.38,-1.02 0.37,-1.02 0.37,-1.02 0.36,-1.02 0.35,-1.01 0.35,-1.02 0.34,-1.01 0.33,-1.02 0.34,-1.01 0.32,-1.01 0.33,-1.02 0.32,-1.01 0.31,-1.01 0.31,-1.01 0.31,-1.01 0.31,-1.02 0.3,-1.01 0.29,-1.01 0.3,-1.01 0.29,-1.01 0.29,-1.01 0.28,-1.01 0.29,-1 0.28,-1.01 0.28,-1.01 0.27,-1.01 0.28,-1.01 0.27,-1.01 0.27,-1 0.26,-1.01 0.27,-1.01 0.26,-1.01 0.26,-1 0.26,-1.01 0.26,-1.01 0.26,-1 0.25,-1.01 0.25,-1.01 0.25,-1 0.25,-1.01 0.25,-1.01 0.25,-1 0.24,-1.01 0.25,-1 0.24,-1.01 0.24,-1 0.24,-1.01 0.24,-1.01 0.23,-1 0.24,-1.01 0.23,-1 0.24,-1 0.23,-1.01 0.23,-1 0.23,-1.01 0.23,-1 0.23,-1.01 0.22,-1 0.23,-1.01 0.23,-1 0.22,-1 0.22,-1.01 0.23,-1 0.22,-1.01 0.22,-1 0.22,-1 0.22,-1.01 0.21,-1 0.22,-1 0.22,-1.01 0.21,-1 0.22,-1 0.21,-1.01 0.22,-1 0.21,-1 0.21,-1.01 0.22,-1 0.21,-1 0.21,-1.01 0.21,-1 0.21,-1 0.2,-1 0.21,-1.01 0.21,-1 0.21,-1 0.2,-1.01 0.21,-1 0.21,-1 0.2,-1 0.21,-1.01 0.2,-1 0.2,-1 0.21,-1 0.2,-1 0.2,-1.01 0.2,-1 0.2,-1 0.2,-1 0.2,-1 0.2,-1.01 0.2,-1 0.2,-1 0.2,-1 0.2,-1 0.2,-1.01 0.2,-1 0.2,-1 0.19,-1 0.2,-1 0.2,-1 0.19,-1 0.2,-1.01 0.19,-1 0.2,-1 0.19,-1 0.2,-1 0.19,-1 0.2,-1 0.19,-1.01 0.2,-1 0.19,-1 0.19,-1 0.2,-1 0.19,-1 0.19,-1 0.2,-1 0.19,-1 0.19,-1 0.19,-1.01 0.2,-1 0.19,-1 0.19,-1 0.19,-1 0.19,-1 0.19,-1 0.19,-1 0.2,-1 0.19,-1 0.19,-1 0.19,-1 0.19,-1 0.19,-1 0.19,-1 0.19,-1 0.19,-1.01 0.19,-1 0.19,-1 0.19,-1 0.19,-1 0.19,-1 0.19,-1 0.19,-1 0.19,-1 0.19,-1 0.19,-1 0.19,-1 0.19,-1 0.19,-1 0.19,-1 0.19,-1 0.19,-1 0.19,-1 0.19,-1 0.19,-1 0.19,-1 0.19,-1 0.19,-1 0.19,-1 0.19,-1 0.19,-0.99 0.19,-1 0.19,-1 0.19,-1 0.19,-1 0.19,-1 0.19,-1 0.19,-1 0.19,-1 0.19,-1 0.19,-1 0.2,-1 0.19,-1 0.19,-1 0.19,-1 0.19,-1 0.19,-0.99 0.2,-1 0.19,-1 0.19,-1 0.19,-1 0.2,-1 0.19,-1 0.19,-1 0.2,-1 0.19,-0.99 0.2,-1 0.19,-1 0.19,-1 0.2,-1 0.19,-1 0.2,-1 0.2,-1 0.19,-0.99 0.2,-1 0.19,-1 0.2,-1 0.2,-1 0.2,-1 0.19,-0.99 0.2,-1 0.2,-1 0.2,-1 0.2,-1 0.2,-1 0.2,-0.99 0.2,-1 0.2,-1 0.2,-1 0.2,-0.99 0.2,-1 0.21,-1 0.2,-1 0.2,-1 0.21,-0.99 0.2,-1 0.21,-1 0.2,-1 0.21,-0.99 0.2,-1 0.21,-1 0.21,-1 0.2,-0.99 0.21,-1 0.21,-1 0.21,-0.99 0.21,-1 0.21,-1 0.21,-1 0.22,-0.99 0.21,-1 0.21,-1 0.22,-0.99 0.21,-1 0.22,-1 0.21,-0.99 0.22,-1 0.22,-1 0.22,-0.99 0.22,-1 0.22,-1 0.22,-0.99 0.22,-1 0.22,-0.99 0.23,-1 0.22,-1 0.23,-0.99 0.22,-1 0.23,-0.99 0.23,-1 0.23,-0.99 0.23,-1 0.23,-0.99 0.23,-1 0.24,-0.99 0.23,-1 0.24,-0.99 0.23,-1 0.24,-0.99 0.24,-1 0.24,-0.99 0.25,-1 0.24,-0.99 0.24,-1 0.25,-0.99 0.25,-0.99 0.25,-1 0.25,-0.99 0.25,-0.99 0.26,-1 0.25,-0.99 0.26,-0.99 0.26,-1 0.26,-0.99 0.26,-0.99 0.27,-1 0.27,-0.99 0.27,-0.99 0.27,-0.99 0.27,-0.99 0.28,-1 0.28,-0.99 0.28,-0.99 0.28,-0.99 0.29,-0.99 0.28,-0.99 0.3,-0.99 0.29,-0.99 0.3,-0.99 0.3,-0.99 0.3,-0.99 0.31,-0.99 0.31,-0.99 0.31,-0.98 0.32,-0.99 0.32,-0.99 0.33,-0.98 0.33,-0.99 0.33,-0.99 0.34,-0.98 0.35,-0.99 0.35,-0.98 0.35,-0.99 0.36,-0.98 0.37,-0.98 0.38,-0.98 0.38,-0.98 0.39,-0.98 0.39,-0.98 0.41,-0.98 0.41,-0.98 0.42,-0.97 0.44,-0.98 0.45,-0.97 0.45,-0.97 0.48,-0.97 0.48,-0.97 0.51,-0.96 0.52,-0.96 0.54,-0.96 0.57,-0.96 0.59,-0.95 0.63,-0.94 0.66,-0.94 0.7,-0.93 0.76,-0.92 0.83,-0.9 0.91,-0.88 1.05,-0.85 1.23,-0.78 1.56,-0.67 2,-0.32 2,0.3 2,0.9 2,1.52 1.32,1.33 0.99,1.17 0.85,1.11 0.76,1.09 0.7,1.08 0.65,1.06 0.61,1.06 0.57,1.05 0.55,1.04 0.53,1.04 0.51,1.04 0.49,1.03 0.47,1.03 0.46,1.03 0.44,1.03 0.44,1.03 0.42,1.02 0.41,1.03 0.4,1.02 0.4,1.02 0.38,1.02 0.38,1.02 0.37,1.02 0.37,1.01 0.35,1.02 0.36,1.02 0.34,1.01 0.34,1.02 0.34,1.01 0.33,1.01 0.33,1.02 0.32,1.01 0.32,1.01 0.32,1.02 0.31,1.01 0.31,1.01 0.3,1.01 0.3,1.01 0.3,1.01 0.29,1.01 0.29,1.01 0.29,1.01 0.29,1.01 0.28,1.01 0.28,1.01 0.28,1.01 0.28,1.01 0.27,1 0.27,1.01 0.27,1.01 0.27,1.01 0.26,1 0.27,1.01 0.26,1.01 0.26,1.01 0.25,1 0.26,1.01 0.25,1.01 0.26,1 0.25,1.01 0.25,1 0.24,1.01 0.25,1.01 0.24,1 0.25,1.01 0.24,1 0.24,1.01 0.24,1 0.24,1.01 0.23,1 0.24,1.01 0.23,1 0.24,1.01 0.23,1 0.23,1.01 0.23,1 0.23,1.01 0.23,1 0.22,1.01 0.23,1 0.23,1 0.22,1.01 0.22,1 0.23,1.01 0.22,1 0.22,1 0.22,1.01 0.22,1 0.21,1.01 0.22,1 0.22,1 0.21,1.01 0.22,1 0.21,1 0.22,1.01 0.21,1 0.21,1 0.22,1 0.21,1.01 0.21,1 0.21,1 0.21,1.01 0.2,1 0.21,1 0.21,1 0.21,1.01 0.2,1 0.21,1 0.21,1 0.2,1.01 0.2,1 0.21,1 0.2,1 0.2,1.01 0.21,1 0.2,1 0.2,1 0.2,1 0.2,1.01 0.2,1 0.2,1 0.2,1 0.2,1 0.2,1.01 0.2,1 0.2,1 0.2,1 0.19,1 0.2,1 0.2,1.01 0.19,1 0.2,1 0.2,1 0.19,1 0.2,1 0.19,1 0.2,1.01 0.19,1 0.2,1 0.19,1 0.2,1 0.19,1 0.19,1 0.2,1 0.19,1.01 0.19,1 0.2,1 0.19,1 0.19,1 0.19,1 0.19,1 0.2,1 0.19,1 0.19,1 0.19,1 0.19,1 0.19,1.01 0.19,1 0.19,1 0.2,1 0.19,1 0.19,1 0.19,1 0.19,1 0.19,1 0.19,1 0.19,1 0.19,1 0.19,1 0.19,1 0.19,1 0.19,1 0.19,1 0.19,1 0.19,1 0.19,1 0.19,1 0.19,1 0.19,1 0.19,1 0.19,1 0.19,1 0.19,1 0.19,1 0.19,1 0.19,1 0.19,1 0.19,1 0.19,1 0.19,1 0.19,1 0.19,1 0.19,1 0.19,1 0.19,1 0.19,1 0.19,1 0.19,1 0.19,0.99 0.19,1 0.19,1 0.19,1 0.2,1 0.19,1 0.19,1 0.19,1 0.19,1 0.2,1 0.19,1 0.19,1 0.19,0.99 0.2,1 0.19,1 0.19,1 0.2,1 0.19,1 0.19,1 0.2,1 0.19,0.99 0.2,1 0.19,1 0.2,1 0.19,1 0.2,1 0.2,1 0.19,0.99 0.2,1 0.2,1 0.19,1 0.2,1 0.2,1 0.2,0.99 0.2,1 0.2,1 0.2,1 0.2,1 0.2,1 0.2,0.99 0.2,1 0.2,1 0.2,1 0.21,0.99 0.2,1 0.2,1 0.21,1 0.2,1 0.2,0.99 0.21,1 0.21,1 0.2,1 0.21,0.99 0.21,1 0.2,1 0.21,0.99 0.21,1 0.21,1 0.21,1 0.21,0.99 0.21,1 0.22,1 0.21,0.99 0.21,1 0.22,1 0.21,0.99 0.22,1 0.21,1 0.22,0.99 0.22,1 0.22,1 0.22,0.99 0.22,1 0.22,1 0.22,0.99 0.22,1 0.23,0.99 0.22,1 0.23,0.99 0.22,1 0.23,1 0.23,0.99 0.23,1 0.23,0.99 0.23,1 0.23,0.99 0.24,1 0.23,0.99 0.24,1 0.23,0.99 0.24,1 0.24,0.99 0.24,1 0.25,0.99 0.24,1 0.25,0.99 0.24,0.99 0.25,1 0.25,0.99 0.25,1 0.25,0.99 0.26,0.99 0.25,1 0.26,0.99 0.26,0.99 0.26,0.99 0.27,1 0.26,0.99 0.27,0.99 0.27,0.99 0.27,1 0.27,0.99 0.28,0.99 0.28,0.99 0.28,0.99 0.28,0.99 0.29,0.99 0.29,0.99 0.29,0.99 0.29,0.99 0.3,0.99 0.3,0.99 0.31,0.99 0.3,0.99 0.31,0.99 0.32,0.99 0.32,0.98 0.32,0.99 0.32,0.99 0.33,0.98 0.34,0.99 0.34,0.99 0.34,0.98 0.35,0.99 0.36,0.98 0.36,0.98 0.37,0.98 0.37,0.99 0.39,0.98 0.38,0.98 0.4,0.98 0.41,0.97 0.41,0.98 0.43,0.98 0.43,0.97 0.45,0.97 0.46,0.97 0.47,0.97 0.49,0.97 0.5,0.96 0.53,0.97 0.54,0.95 0.57,0.96 0.59,0.95 0.63,0.94 0.66,0.94 0.71,0.93 0.76,0.92 0.83,0.9 0.93,0.88 1.04,0.84 1.25,0.78 1.58,0.66 2,0.29 2,-0.33 2,-0.93 2,-1.55 1.3,-1.32 0.98,-1.17 0.84,-1.11 0.76,-1.09 0.69,-1.07 0.65,-1.06 0.6,-1.06 0.58,-1.05 0.55,-1.04 0.52,-1.04 0.51,-1.04 0.49,-1.03 0.47,-1.03 0.46,-1.03 0.44,-1.03 0.43,-1.03 0.42,-1.02 0.42,-1.03 0.4,-1.02 0.39,-1.02 0.39,-1.02 0.37,-1.02 0.37,-1.01 0.37,-1.02 0.36,-1.02 0.35,-1.01 0.34,-1.02 0.35,-1.02 0.33,-1.01 0.33,-1.01 0.33,-1.02 0.32,-1.01 0.32,-1.01 0.32,-1.01 0.31,-1.02 0.3,-1.01 0.31,-1.01 0.3,-1.01 0.3,-1.01 0.29,-1.01 0.29,-1.01 0.29,-1.01 0.29,-1.01 0.28,-1.01 0.28,-1.01 0.28,-1 0.27,-1.01 0.28,-1.01 0.27,-1.01 0.27,-1.01 0.26,-1.01 0.27,-1 0.26,-1.01 0.26,-1.01 0.26,-1 0.26,-1.01 0.25,-1.01 0.26,-1 0.25,-1.01 0.25,-1.01 0.25,-1 0.25,-1.01 0.24,-1 0.25,-1.01 0.24,-1.01 0.24,-1 0.24,-1.01 0.24,-1 0.24,-1.01 0.24,-1 0.23,-1.01 0.24,-1 0.23,-1.01 0.23,-1 0.23,-1.01 0.23,-1 0.23,-1.01 0.23,-1 0.23,-1 0.22,-1.01 0.23,-1 0.22,-1.01 0.23,-1 0.22,-1 0.22,-1.01 0.22,-1 0.22,-1.01 0.22,-1 0.22,-1 0.21,-1.01 0.22,-1 0.22,-1 0.21,-1.01 0.22,-1 0.21,-1 0.21,-1.01 0.22,-1 0.21,-1 0.21,-1.01 0.21,-1 0.21,-1 0.21,-1 0.21,-1.01 0.2,-1 0.21,-1 0.21,-1 0.21,-1.01 0.2,-1 0.21,-1 0.2,-1 0.21,-1.01 0.2,-1 0.2,-1 0.21,-1 0.2,-1.01 0.2,-1 0.2,-1 0.2,-1 0.21,-1 0.2,-1.01 0.2,-1 0.2,-1 0.19,-1 0.2,-1 0.2,-1.01 0.2,-1 0.2,-1 0.2,-1 0.19,-1 0.2,-1 0.2,-1.01 0.19,-1 0.2,-1 0.19,-1 0.2,-1 0.2,-1 0.19,-1 0.19,-1 0.2,-1.01 0.19,-1 0.2,-1 0.19,-1 0.19,-1 0.2,-1 0.19,-1 0.19,-1 0.2,-1 0.19,-1.01 0.19,-1 0.19,-1 0.2,-1 0.19,-1 0.19,-1 0.19,-1 0.19,-1 0.19,-1 0.19,-1 0.19,-1 0.2,-1 0.19,-1 0.19,-1.01 0.19,-1 0.19,-1 0.19,-1 0.19,-1 0.19,-1 0.19,-1 0.19,-1 0.19,-1 0.19,-1 0.19,-1 0.19,-1 0.19,-1 0.19,-1 0.19,-1 0.19,-1 0.19,-1 0.19,-1 0.19,-1 0.19,-1 0.19,-1 0.19,-1 0.19,-1 0.19,-1 0.19,-1 0.19,-1 0.19,-1 0.19,-1 0.19,-1 0.19,-1 0.19,-1 0.19,-1 0.19,-1 0.19,-1 0.19,-0.99 0.19,-1 0.19,-1 0.19,-1 0.19,-1 0.19,-1 0.19,-1 0.2,-1 0.19,-1 0.19,-1 0.19,-1 0.19,-1 0.19,-1 0.2,-0.99 0.19,-1 0.19,-1 0.19,-1 0.2,-1 0.19,-1 0.19,-1 0.2,-1 0.19,-1 0.2,-1 0.19,-0.99 0.2,-1 0.19,-1 0.2,-1 0.19,-1 0.2,-1 0.19,-1 0.2,-0.99 0.2,-1 0.19,-1 0.2,-1 0.2,-1 0.19,-1 0.2,-0.99 0.2,-1 0.2,-1 0.2,-1 0.2,-1 0.2,-0.99 0.2,-1 0.2,-1 0.2,-1 0.2,-1 0.2,-0.99 0.21,-1 0.2,-1 0.2,-1 0.21,-1 0.2,-0.99 0.21,-1 0.2,-1 0.21,-1 0.2,-0.99 0.21,-1 0.21,-1 0.21,-0.99 0.2,-1 0.21,-1 0.21,-1 0.21,-0.99 0.21,-1 0.22,-1 0.21,-0.99 0.21,-1 0.22,-1 0.21,-0.99 0.21,-1 0.22,-1 0.22,-0.99 0.21,-1 0.22,-1 0.22,-0.99 0.22,-1 0.22,-1 0.22,-0.99 0.22,-1 0.23,-0.99 0.22,-1 0.22,-1 0.23,-0.99 0.23,-1 0.22,-0.99 0.23,-1 0.23,-0.99 0.23,-1 0.23,-1 0.24,-0.99 0.23,-1 0.24,-0.99 0.23,-1 0.24,-0.99 0.24,-1 0.24,-0.99 0.24,-0.99 0.24,-1 0.25,-0.99 0.24,-1 0.25,-0.99 0.25,-0.99 0.25,-1 0.25,-0.99 0.25,-1 0.25,-0.99 0.26,-0.99 0.26,-1 0.26,-0.99 0.26,-0.99 0.26,-0.99 0.27,-1 0.27,-0.99 0.27,-0.99 0.27,-0.99 0.27,-0.99 0.28,-1 0.28,-0.99 0.28,-0.99 0.28,-0.99 0.29,-0.99 0.29,-0.99 0.29,-0.99 0.29,-0.99 0.3,-0.99 0.3,-0.99 0.3,-0.99 0.31,-0.99 0.31,-0.99 0.32,-0.98 0.32,-0.99 0.32,-0.99 0.32,-0.99 0.33,-0.98 0.34,-0.99 0.34,-0.98 0.35,-0.99 0.35,-0.98 0.35,-0.99 0.36,-0.98 0.37,-0.98 0.38,-0.98 0.38,-0.98 0.39,-0.98 0.4,-0.98 0.4,-0.98 0.42,-0.98 0.42,-0.97 0.44,-0.98 0.45,-0.97 0.46,-0.97 0.47,-0.97 0.49,-0.97 0.51,-0.96 0.52,-0.96 0.55,-0.96 0.56,-0.95 0.6,-0.95 0.63,-0.95 0.67,-0.93 0.71,-0.93 0.76,-0.92 0.84,-0.9 0.93,-0.87 1.06,-0.85 1.26,-0.77 1.62,-0.65 2,-0.25 2,0.37 2,0.97 2,1.59 1.26,1.31 0.97,1.16 0.83,1.11 0.75,1.08 0.69,1.08 0.64,1.06 0.61,1.05 0.57,1.05 0.55,1.05 0.52,1.04 0.5,1.03 0.49,1.04 0.47,1.03 0.46,1.03 0.44,1.02 0.43,1.03 0.42,1.02 0.41,1.03 0.4,1.02 0.39,1.02 0.39,1.02 0.38,1.02 0.37,1.02 0.36,1.01 0.36,1.02 0.35,1.02 0.34,1.01 0.34,1.02 0.34,1.01 0.33,1.01 0.33,1.02 0.32,1.01 0.32,1.01 0.31,1.02 0.31,1.01 0.31,1.01 0.3,1.01 0.3,1.01 0.3,1.01 0.3,1.01 0.29,1.01 0.28,1.01 0.29,1.01 0.28,1.01 0.28,1.01 0.28,1.01 0.28,1 0.27,1.01 0.27,1.01 0.27,1.01 0.27,1.01 0.26,1 0.26,1.01 0.26,1.01 0.26,1 0.26,1.01 0.26,1.01 0.25,1 0.25,1.01 0.25,1.01 0.25,1 0.25,1.01 0.24,1 0.25,1.01 0.24,1.01 0.24,1 0.24,1.01 0.24,1 0.24,1.01 0.24,1 0.23,1.01 0.24,1 0.23,1.01 0.23,1 0.23,1.01 0.23,1 0.23,1.01 0.23,1 0.23,1 0.22,1.01 0.23,1 0.22,1.01 0.22,1 0.23,1 0.22,1.01 0.22,1 0.22,1.01 0.22,1 0.22,1 0.21,1.01 0.22,1 0.21,1 0.22,1.01 0.21,1 0.22,1 0.21,1.01 0.21,1 0.21,1 0.22,1.01 0.21,1 0.21,1 0.21,1 0.2,1.01 0.21,1 0.21,1 0.21,1 0.2,1.01 0.21,1 0.2,1 0.21,1 0.2,1.01 0.21,1 0.2,1 0.2,1 0.21,1.01 0.2,1 0.2,1 0.2,1 0.2,1 0.2,1.01 0.2,1 0.2,1 0.2,1 0.2,1 0.2,1.01 0.2,1 0.19,1 0.2,1 0.2,1 0.2,1 0.19,1.01 0.2,1 0.19,1 0.2,1 0.2,1 0.19,1 0.2,1 0.19,1 0.19,1.01 0.2,1 0.19,1 0.2,1 0.19,1 0.19,1 0.2,1 0.19,1 0.19,1 0.19,1.01 0.2,1 0.19,1 0.19,1 0.19,1 0.19,1 0.2,1 0.19,1 0.19,1 0.19,1 0.19,1 0.19,1 0.19,1 0.19,1 0.19,1.01 0.19,1 0.19,1 0.19,1 0.19,1 0.19,1 0.19,1 0.19,1 0.19,1 0.19,1 0.19,1 0.19,1 0.19,1 0.19,1 0.19,1 0.19,1 0.19,1 0.19,1 0.19,1 0.19,1 0.19,1 0.19,1 0.19,1 0.19,1 0.19,1 0.19,1 0.19,1 0.19,1 0.19,1 0.19,1 0.19,1 0.19,1 0.19,0.99 0.19,1 0.19,1 0.2,1 0.19,1 0.19,1 0.19,1 0.19,1 0.19,1 0.19,1 0.19,1 0.2,1 0.19,1 0.19,1 0.19,0.99 0.19,1 0.2,1 0.19,1 0.19,1 0.2,1 0.19,1 0.19,1 0.2,1 0.19,0.99 0.2,1 0.19,1 0.2,1 0.19,1 0.2,1 0.19,1 0.2,1 0.19,0.99 0.2,1 0.2,1 0.2,1 0.19,1 0.2,1 0.2,0.99 0.2,1 0.2,1 0.2,1 0.2,1 0.2,0.99 0.2,1 0.2,1 0.2,1 0.2,1 0.2,0.99 0.2,1 0.21,1 0.2,1 0.2,0.99 0.21,1 0.2,1 0.21,1 0.2,1 0.21,0.99 0.21,1 0.21,1 0.2,0.99 0.21,1 0.21,1 0.21,1 0.21,0.99 0.21,1 0.21,1 0.22,0.99 0.21,1 0.21,1 0.22,0.99 0.21,1 0.22,1 0.21,0.99 0.22,1 0.22,1 0.22,0.99 0.22,1 0.22,1 0.22,0.99 0.22,1 0.22,0.99 0.23,1 0.22,1 0.23,0.99 0.22,1 0.23,0.99 0.23,1 0.23,0.99 0.23,1 0.23,0.99 0.24,1 0.23,0.99 0.23,1 0.24,0.99 0.24,1 0.24,0.99 0.24,1 0.24,0.99 0.24,1 0.25,0.99 0.24,1 0.25,0.99 0.25,0.99 0.25,1 0.25,0.99 0.25,1 0.26,0.99 0.25,0.99 0.26,0.99 0.26,1 0.26,0.99 0.27,0.99 0.26,1 0.27,0.99 0.27,0.99 0.27,0.99 0.27,0.99 0.28,1 0.28,0.99 0.28,0.99 0.28,0.99 0.29,0.99 0.29,0.99 0.29,0.99 0.3,0.99 0.29,0.99 0.31,0.99 0.3,0.99 0.31,0.99 0.31,0.98 0.31,0.99 0.32,0.99 0.33,0.99 0.32,0.98 0.33,0.99 0.34,0.99 0.34,0.98 0.35,0.99 0.35,0.98 0.35,0.98 0.37,0.99 0.36,0.98 0.38,0.98 0.38,0.98 0.39,0.98 0.4,0.98 0.41,0.98 0.41,0.97 0.43,0.98 0.44,0.97 0.45,0.98 0.46,0.97 0.47,0.97 0.49,0.96 0.51,0.97 0.53,0.96 0.54,0.96 0.58,0.95 0.6,0.95 0.63,0.94 0.67,0.94 0.71,0.92 0.77,0.92 0.85,0.9 0.94,0.87 1.07,0.84 1.29,0.77 1.66,0.63 2,0.19 2,-0.42 2,-1.03 1.95,-1.58 1.23,-1.29 0.95,-1.16 0.82,-1.11 0.75,-1.08 0.68,-1.07 0.64,-1.07 0.6,-1.05 0.57,-1.05 0.55,-1.04 0.52,-1.04 0.5,-1.04 0.49,-1.03 0.47,-1.03 0.45,-1.03 0.44,-1.03 0.43,-1.02 0.42,-1.03 0.41,-1.02 0.4,-1.02 0.39,-1.02 0.39,-1.02 0.37,-1.02 0.37,-1.02 0.37,-1.02 0.35,-1.01 0.35,-1.02 0.35,-1.01 0.34,-1.02 0.34,-1.01 0.33,-1.02 0.32,-1.01 0.32,-1.01 0.32,-1.02 0.32,-1.01 0.31,-1.01 0.3,-1.01 0.31,-1.01 0.3,-1.01 0.29,-1.01 0.3,-1.01 0.29,-1.01 0.29,-1.01 0.28,-1.01 0.28,-1.01 0.28,-1.01 0.28,-1.01 0.28,-1.01 0.27,-1 0.27,-1.01 0.27,-1.01 0.27,-1.01 0.26,-1.01 0.26,-1 0.26,-1.01 0.26,-1.01 0.26,-1 0.25,-1.01 0.26,-1.01 0.25,-1 0.25,-1.01 0.25,-1.01 0.25,-1 0.24,-1.01 0.25,-1 0.24,-1.01 0.24,-1 0.24,-1.01 0.24,-1 0.24,-1.01 0.24,-1 0.23,-1.01 0.24,-1 0.23,-1.01 0.23,-1 0.23,-1.01 0.23,-1 0.23,-1.01 0.23,-1 0.22,-1.01 0.23,-1 0.22,-1 0.23,-1.01 0.22,-1 0.22,-1.01 0.22,-1 0.23,-1 0.21,-1.01 0.22,-1 0.22,-1.01 0.22,-1 0.22,-1 0.21,-1.01 0.22,-1 0.21,-1 0.21,-1.01 0.22,-1 0.21,-1 0.21,-1 0.21,-1.01 0.21,-1 0.21,-1 0.21,-1.01 0.21,-1 0.21,-1 0.2,-1 0.21,-1.01 0.21,-1 0.2,-1 0.21,-1 0.2,-1.01 0.21,-1 0.2,-1 0.21,-1 0.2,-1.01 0.2,-1 0.2,-1 0.2,-1 0.21,-1 0.2,-1.01 0.2,-1 0.2,-1 0.2,-1 0.2,-1 0.19,-1.01 0.2,-1 0.2,-1 0.2,-1 0.2,-1 0.19,-1 0.2,-1.01 0.2,-1 0.19,-1 0.2,-1 0.19,-1 0.2,-1 0.2,-1 0.19,-1.01 0.19,-1 0.2,-1 0.19,-1 0.2,-1 0.19,-1 0.19,-1 0.2,-1 0.19,-1 0.19,-1.01 0.2,-1 0.19,-1 0.19,-1 0.19,-1 0.19,-1 0.2,-1 0.19,-1 0.19,-1 0.19,-1 0.19,-1 0.19,-1 0.19,-1 0.19,-1.01 0.2,-1 0.19,-1 0.19,-1 0.19,-1 0.19,-1 0.19,-1 0.19,-1 0.19,-1 0.19,-1 0.19,-1 0.19,-1 0.19,-1 0.19,-1 0.19,-1 0.19,-1 0.19,-1 0.19,-1 0.19,-1 0.19,-1 0.19,-1 0.19,-1 0.19,-1 0.19,-1 0.19,-1 0.19,-1 0.19,-1 0.19,-1 0.19,-1 0.19,-1 0.19,-1 0.19,-1 0.19,-1 0.19,-1 0.19,-1 0.19,-1 0.19,-1 0.19,-1 0.19,-0.99 0.19,-1 0.19,-1 0.19,-1 0.19,-1 0.19,-1 0.2,-1 0.19,-1 0.19,-1 0.19,-1 0.19,-1 0.2,-1 0.19,-1 0.19,-0.99 0.19,-1 0.2,-1 0.19,-1 0.19,-1 0.2,-1 0.19,-1 0.2,-1 0.19,-0.99 0.2,-1 0.19,-1 0.2,-1 0.19,-1 0.2,-1 0.19,-1 0.2,-1 0.2,-0.99 0.19,-1 0.2,-1 0.2,-1 0.19,-1 0.2,-1 0.2,-0.99 0.2,-1 0.2,-1 0.2,-1 0.2,-1 0.2,-0.99 0.2,-1 0.2,-1 0.2,-1 0.21,-1 0.2,-0.99 0.2,-1 0.21,-1 0.2,-1 0.2,-0.99 0.21,-1 0.2,-1 0.21,-1 0.21,-0.99 0.2,-1 0.21,-1 0.21,-1 0.21,-0.99 0.21,-1 0.21,-1 0.21,-0.99 0.21,-1 0.21,-1 0.21,-1 0.21,-0.99 0.22,-1 0.21,-1 0.22,-0.99 0.21,-1 0.22,-1 0.22,-0.99 0.22,-1 0.21,-0.99 0.22,-1 0.22,-1 0.23,-0.99 0.22,-1 0.22,-1 0.22,-0.99 0.23,-1 0.22,-0.99 0.23,-1 0.23,-0.99 0.23,-1 0.23,-1 0.23,-0.99 0.23,-1 0.23,-0.99 0.24,-1 0.23,-0.99 0.24,-1 0.24,-0.99 0.24,-1 0.24,-0.99 0.24,-0.99 0.24,-1 0.24,-0.99 0.25,-1 0.25,-0.99 0.25,-1 0.25,-0.99 0.25,-0.99 0.25,-1 0.25,-0.99 0.26,-0.99 0.26,-1 0.26,-0.99 0.26,-0.99 0.27,-0.99 0.26,-1 0.27,-0.99 0.27,-0.99 0.27,-0.99 0.28,-0.99 0.27,-1 0.28,-0.99 0.28,-0.99 0.29,-0.99 0.28,-0.99 0.29,-0.99 0.29,-0.99 0.3,-0.99 0.3,-0.99 0.3,-0.99 0.3,-0.99 0.31,-0.99 0.31,-0.98 0.32,-0.99 0.32,-0.99 0.32,-0.99 0.33,-0.98 0.33,-0.99 0.33,-0.99 0.35,-0.98 0.34,-0.99 0.35,-0.98 0.36,-0.98 0.36,-0.99 0.37,-0.98 0.38,-0.98 0.38,-0.98 0.39,-0.98 0.4,-0.98 0.41,-0.98 0.42,-0.97 0.42,-0.98 0.44,-0.97 0.45,-0.98 0.46,-0.97 0.48,-0.96 0.49,-0.97 0.51,-0.96 0.53,-0.97 0.55,-0.95 0.57,-0.96 0.6,-0.95 0.64,-0.94 0.67,-0.93 0.72,-0.93 0.78,-0.91 0.85,-0.9 0.95,-0.87 1.09,-0.83 1.3,-0.77 1.71,-0.6 2,-0.15 2,0.47 2,1.08 1.86,1.54 1.2,1.28 0.95,1.15 0.82,1.11 0.74,1.08 0.68,1.07 0.64,1.06 0.6,1.06 0.57,1.04 0.54,1.05 0.52,1.04 0.5,1.03 0.49,1.04 0.46,1.03 0.46,1.03 0.44,1.02 0.43,1.03 0.42,1.02 0.41,1.03 0.4,1.02 0.39,1.02 0.38,1.02 0.38,1.02 0.37,1.01 0.36,1.02 0.36,1.02 0.35,1.01 0.34,1.02 0.34,1.01 0.34,1.02 0.33,1.01 0.33,1.02 0.32,1.01 0.32,1.01 0.31,1.01 0.31,1.01 0.31,1.02 0.3,1.01 0.3,1.01 0.29,1.01 0.3,1.01 0.29,1.01 0.29,1.01 0.28,1.01 0.28,1.01 0.28,1 0.28,1.01 0.28,1.01 0.27,1.01 0.27,1.01 0.27,1.01 0.27,1 0.26,1.01 0.26,1.01 0.26,1 0.26,1.01 0.26,1.01 0.25,1.01 0.26,1 0.25,1.01 0.25,1 0.25,1.01 0.25,1.01 0.24,1 0.25,1.01 0.24,1 0.24,1.01 0.24,1 0.24,1.01 0.24,1 0.23,1.01 0.24,1.01 0.23,1 0.24,1 0.23,1.01 0.23,1 0.23,1.01 0.23,1 0.23,1.01 0.22,1 0.23,1.01 0.22,1 0.23,1 0.22,1.01 0.22,1 0.22,1.01 0.22,1 0.22,1 0.22,1.01 0.22,1 0.22,1 0.21,1.01 0.22,1 0.21,1 0.22,1.01 0.21,1 0.21,1 0.22,1.01 0.21,1 0.21,1 0.21,1.01 0.21,1 0.21,1 0.21,1 0.2,1.01 0.21,1 0.21,1 0.21,1 0.2,1.01 0.21,1 0.2,1 0.21,1 0.2,1.01 0.2,1 0.21,1 0.2,1 0.2,1.01 0.2,1 0.2,1 0.2,1 0.2,1 0.2,1 0.2,1.01 0.2,1 0.2,1 0.2,1 0.2,1 0.2,1.01 0.19,1 0.2,1 0.2,1 0.19,1 0.2,1 0.2,1 0.19,1.01 0.2,1 0.19,1 0.2,1 0.19,1 0.2,1 0.19,1 0.19,1.01 0.2,1 0.19,1 0.19,1 0.2,1 0.19,1 0.19,1 0.2,1 0.19,1 0.19,1 0.19,1 0.19,1.01 0.19,1 0.2,1 0.19,1 0.19,1 0.19,1 0.19,1 0.19,1 0.19,1 0.19,1 0.19,1 0.19,1 0.19,1 0.19,1 0.19,1 0.2,1 0.19,1 0.19,1 0.19,1 0.19,1 0.18,1.01 0.19,1 0.19,1 0.19,1"
       style="fill:none;stroke:#e20000;stroke-width:2.50286385;stroke-opacity:1;stroke-miterlimit:4;stroke-dasharray:none"
       id="path7"
       inkscape:connector-curvature="0" />
  </g>
</svg>
